<svg id="Layer_1" data-name="Layer 1" xmlns="http://www.w3.org/2000/svg" xmlns:xlink="http://www.w3.org/1999/xlink" viewBox="0 0 40.93 62.29"><defs><clipPath id="clip-path"><path d="M3.39.06A3.38,3.38,0,0,0,0,3.43V58.85a3.38,3.38,0,0,0,3.39,3.37H37.55a3.38,3.38,0,0,0,3.38-3.37V3.43A3.38,3.38,0,0,0,37.55.06Z" style="fill:#0c0a35"/></clipPath><clipPath id="clip-path-2"><path d="M3.39.06A3.38,3.38,0,0,0,0,3.43V58.85a3.38,3.38,0,0,0,3.39,3.37H37.55a3.38,3.38,0,0,0,3.38-3.37V3.43A3.38,3.38,0,0,0,37.55.06Z" style="fill:none"/></clipPath></defs><rect x="0.09" y="0.09" width="40.74" height="62.1" rx="3.45" style="fill:#fff"/><path d="M3.39.06A3.38,3.38,0,0,0,0,3.43V58.85a3.38,3.38,0,0,0,3.39,3.37H37.55a3.38,3.38,0,0,0,3.38-3.37V3.43A3.38,3.38,0,0,0,37.55.06Z" style="fill:#0c0a35"/><g style="clip-path:url(#clip-path)"><path d="M-16.68,29.92c.17-1.43,2.92-2.92,3.94-3.64,1.55-1.09,3.13-2.14,4.69-3.22C-2.8,19.46,2.37,15.73,7.7,12.25q7.57-4.93,15.11-9.92,3.78-2.47,7.67-4.75c2.85-1.66,6.19-2.83,8.84-4.75a2.42,2.42,0,0,0,1.07-2.61,1.29,1.29,0,0,0-.24-.55,2.41,2.41,0,0,0-2.62-1.06c-3,.65-5.94,2.55-8.63,4.07C26-5.67,23.11-3.83,20.28-2,14.26,2,8.36,6.25,2.5,10.47c-5.22,3.76-10.14,7.85-15.16,11.86C-14.75,24-19.18,27-18.45,30.16c.25,1.07,1.66.69,1.77-.24Z" style="fill:#f70032"/><path d="M-10.17,37.22c2.48-1.24,4.9-2.14,7.28-3.59C-.24,32,2.36,30.31,5,28.59c5.2-3.45,10.18-7.26,15.26-10.87C25.13,14.22,30,10.63,34.84,7.1S45,0,49.28-4.33c.67-.66,0-2-1-1.65C37.14-1.93,27.16,6.5,17.8,13.61,13.29,17,8.76,20.46,4.33,24c-2.42,1.94-4.77,4-7.2,5.88C-5.48,32-8,34.34-10.71,36.29a.54.54,0,0,0,.54.93Z" style="fill:#f70032"/><path d="M-2.7,50.48C8,41.62,19.64,34.12,30.39,25.4c5.28-4.28,10.1-9,15.29-13.43a93.36,93.36,0,0,1,8.47-6.34c2.36-1.57,4.74-2.9,6.41-5.24.42-.58-.15-1.32-.78-1.34C54.07-1.15,48.36,4,44.11,7.28,38.45,11.67,33.25,16.6,27.62,21,16.46,29.84,4.6,37.73-6.23,47c-2.45,2.09,1.09,5.54,3.53,3.51Z" style="fill:#f70032"/><path d="M-5.51,66.91c2.19-2.16,5.27-3.31,7.75-5.14,2.75-2,5.56-3.93,8.32-5.93,5.77-4.19,11.63-8.24,17.28-12.59,5.87-4.52,11.65-9.14,17.62-13.53a76.32,76.32,0,0,0,7.39-6.53c2.77-2.66,5.94-4.77,8.49-7.65a.66.66,0,0,0-.64-1.1c-3.09,1-5.53,2.76-8.15,4.62-3.13,2.24-6.53,4.06-9.68,6.25-6.13,4.25-12,8.77-17.89,13.39-6.05,4.77-12.37,9.2-18.46,13.91C3.84,54.68,1.37,57-1.1,59.3c-2.12,2-4.54,3.85-6.2,6.24-.76,1.08.89,2.26,1.79,1.37Z" style="fill:#f70032"/><path d="M12.83,66.83c1.34-1.11,3.87-1.72,5.48-2.47a47.45,47.45,0,0,0,5.83-3.71c4.05-2.71,8.1-5.43,11.91-8.47,3.32-2.64,6.25-5.81,9.37-8.68A46.54,46.54,0,0,1,51,39.22c1.84-1.24,3.9-2.11,5.47-3.69A.73.73,0,0,0,56,34.3c-3.93.29-7.67,3.29-10.81,5.46-3.78,2.61-7.65,5.11-11.44,7.72C26,52.8,17.25,58,11.09,65.1a1.23,1.23,0,0,0,1.74,1.73Z" style="fill:#f70032"/><path d="M33.16,67.48c3.8-3,7.93-6,11.15-9.69a1.23,1.23,0,0,0-1.5-1.92C38.4,58,34.53,61.32,30.54,64.1a2.15,2.15,0,1,0,2.62,3.38Z" style="fill:#f70032"/><path d="M-9.2,11.6c6-2.67,11.32-6.78,16.7-10.55a88.71,88.71,0,0,0,7.76-5.87c2-1.75,4.7-3.87,5.22-6.57.11-.56-.27-1.33-1-1.25-2.45.28-4.32,2-6.3,3.35-2.79,1.95-5.5,4-8.29,6C-.5.48-5.19,5.4-10.78,8.91A1.56,1.56,0,0,0-9.2,11.6Z" style="fill:#f70032"/></g><g style="clip-path:url(#clip-path-2)"><path d="M.62,23.78a2.65,2.65,0,1,0,0-5.29,2.65,2.65,0,1,0,0,5.29Z" style="fill:#222272"/><path d="M8.3,13.65c-.24.1-.48.19-.71.3a2.64,2.64,0,0,0-1.23,3,2.7,2.7,0,0,0,2.57,1.95,2.57,2.57,0,0,0,.73-.1,3,3,0,0,0,1.23-.72,2.68,2.68,0,0,0,.68-1.16,2.64,2.64,0,0,0-.27-2,2.55,2.55,0,0,0-1-.95l-.64-.27a2.6,2.6,0,0,0-1.41,0Z" style="fill:#222272"/><path d="M17.18,13a2.64,2.64,0,1,0-2.65-2.63A2.67,2.67,0,0,0,17.18,13Z" style="fill:#222272"/><path d="M24.75,7.41a2.58,2.58,0,1,0,0-5.15,2.61,2.61,0,0,0-2.59,2.57,2.61,2.61,0,0,0,2.59,2.58Z" style="fill:#222272"/><path d="M30.57,2.46A2.63,2.63,0,0,0,33.18-.13a2.63,2.63,0,0,0-2.61-2.6A2.63,2.63,0,0,0,28-.13a2.63,2.63,0,0,0,2.61,2.59Z" style="fill:#222272"/><path d="M6.51,7.22A2.19,2.19,0,0,0,8.68,5.06a2.17,2.17,0,0,0-4.34,0A2.19,2.19,0,0,0,6.51,7.22Z" style="fill:#222272"/><path d="M12.11,2.89a2.22,2.22,0,0,0,2.2-2.2,2.2,2.2,0,0,0-4.4,0,2.22,2.22,0,0,0,2.2,2.2Z" style="fill:#222272"/><path d="M-.07,10.39A2.12,2.12,0,0,0,2,8.3,2.12,2.12,0,0,0-.07,6.2,2.12,2.12,0,0,0-2.18,8.3,2.12,2.12,0,0,0-.07,10.39Z" style="fill:#222272"/><path d="M.28,39.41a2.55,2.55,0,0,0,2.53-2.52A2.54,2.54,0,0,0,.28,34.38a2.54,2.54,0,0,0-2.52,2.51A2.55,2.55,0,0,0,.28,39.41Z" style="fill:#222272"/><path d="M7.77,34.15a2.64,2.64,0,1,0-2.65-2.64,2.67,2.67,0,0,0,2.65,2.64Z" style="fill:#222272"/><path d="M17.63,27.43l0,0-2.34,1.33h0a2.73,2.73,0,0,0,2.6-2,2.7,2.7,0,0,0-1.89-3.31h0a2.73,2.73,0,0,0-2.63.69l0,0a2.76,2.76,0,0,0-.8,1.91,2.72,2.72,0,0,0,5.06,1.37Z" style="fill:#222272"/><path d="M20.74,18.77l0,0A2.56,2.56,0,0,0,20,19.94a2.6,2.6,0,0,0,.27,2,2.65,2.65,0,0,0,1.56,1.2,2.76,2.76,0,0,0,2-.26l.05,0a2.48,2.48,0,0,0,1.19-1.53,2.61,2.61,0,0,0,0-1.36,2.66,2.66,0,0,0-.67-1.13,2.63,2.63,0,0,0-1.23-.71,2.57,2.57,0,0,0-2.48.65Z" style="fill:#222272"/><path d="M31.22,13.46l0,0a2.5,2.5,0,0,0-3.51,0A2.44,2.44,0,0,0,27,15.17a2.61,2.61,0,0,0,.73,1.75l0,0a2.39,2.39,0,0,0,1.75.73,2.48,2.48,0,0,0,1.76-4.22Z" style="fill:#222272"/><path d="M36.25,12.11A2.53,2.53,0,1,0,33.7,9.58a2.56,2.56,0,0,0,2.55,2.53Z" style="fill:#222272"/><path d="M0,55A2.58,2.58,0,0,0,2.6,52.49,2.58,2.58,0,0,0,0,49.93a2.59,2.59,0,0,0-2.57,2.56A2.58,2.58,0,0,0,0,55Z" style="fill:#222272"/><path d="M7.19,50.14a2.63,2.63,0,1,0-2.64-2.62,2.65,2.65,0,0,0,2.64,2.62Z" style="fill:#222272"/><path d="M14.05,44.4a2.4,2.4,0,1,0-2.4-2.4,2.42,2.42,0,0,0,2.4,2.4Z" style="fill:#222272"/><path d="M20.78,39.38a2.5,2.5,0,1,0-2.51-2.5,2.52,2.52,0,0,0,2.51,2.5Z" style="fill:#222272"/><path d="M27.42,34.74a2.63,2.63,0,1,0-2.65-2.63,2.66,2.66,0,0,0,2.65,2.63Z" style="fill:#222272"/><path d="M34.19,29.58A2.55,2.55,0,1,0,31.63,27a2.58,2.58,0,0,0,2.56,2.55Z" style="fill:#222272"/><path d="M41.17,24.36a2.44,2.44,0,1,0-2.45-2.44,2.46,2.46,0,0,0,2.45,2.44Z" style="fill:#222272"/><path d="M12.08,62.67v0c-.08.21-.17.41-.25.61l0,0a2.65,2.65,0,0,0,.25-2A2.57,2.57,0,0,0,11,59.73a2.6,2.6,0,0,0-2-.25l-.6.25a2.59,2.59,0,0,0-.92.91l0,.07a2.55,2.55,0,0,0,2.89,3.73,2.56,2.56,0,0,0,1.78-1.77Z" style="fill:#222272"/><path d="M16.1,58.43A2.46,2.46,0,1,0,13.63,56a2.48,2.48,0,0,0,2.47,2.46Z" style="fill:#222272"/><path d="M25.59,49.43l0,0c.08.18.16.36.23.54a2.23,2.23,0,0,0-2.17-1.65,2.29,2.29,0,1,0,2,3.44,2.27,2.27,0,0,0,0-2.31Z" style="fill:#222272"/><path d="M30.47,48a2.08,2.08,0,1,0-2.09-2.07A2.1,2.1,0,0,0,30.47,48Z" style="fill:#222272"/><path d="M37.72,43.1a2.44,2.44,0,1,0-2.44-2.43,2.46,2.46,0,0,0,2.44,2.43Z" style="fill:#222272"/><path d="M28.69,64.79a2.44,2.44,0,1,0-2.45-2.43,2.46,2.46,0,0,0,2.45,2.43Z" style="fill:#222272"/><path d="M36.27,58.71l0,0a2.12,2.12,0,0,0,0-2.15l0,0a2.19,2.19,0,1,0,0,2.21Z" style="fill:#222272"/><path d="M40.7,56.15h.07a2.38,2.38,0,0,0,1.69-4.07,2.47,2.47,0,0,0-2.33-.62l-.06,0a2.37,2.37,0,0,0-1.06,4,2.5,2.5,0,0,0,1.69.7Z" style="fill:#222272"/><path d="M0,44.37H0a.44.44,0,0,0-.43.43.43.43,0,0,0,.55.41h0a.45.45,0,0,0,.32-.41A.42.42,0,0,0,0,44.37Z" style="fill:#b70027"/><path d="M1.27,44.44a.5.5,0,0,0,0-1,.5.5,0,0,0,0,1Z" style="fill:#b70027"/><path d="M2.57,43.66a.57.57,0,0,0,0-1.13.57.57,0,0,0,0,1.13Z" style="fill:#b70027"/><path d="M3.88,42.65a.57.57,0,0,0,0-1.14.57.57,0,0,0,0,1.14Z" style="fill:#b70027"/><path d="M5.13,41.66a.49.49,0,0,0,0-1,.49.49,0,0,0,0,1Z" style="fill:#b70027"/><path d="M6.15,40.83a.5.5,0,0,0,0-1,.5.5,0,0,0,0,1Z" style="fill:#b70027"/><path d="M7.16,39.08l0,0a.46.46,0,0,0,.23.85H7.4a.47.47,0,1,0-.24-.87Z" style="fill:#b70027"/><path d="M8.65,39a.4.4,0,0,0,0-.79.4.4,0,0,0,0,.79Z" style="fill:#b70027"/><path d="M10.12,37.67l0,0a.43.43,0,0,0-.58-.15l0,0a.45.45,0,0,0,.1.82.46.46,0,0,0,.52-.66Z" style="fill:#b70027"/><path d="M10.92,37.4a.52.52,0,0,0,0-1,.52.52,0,0,0,0,1Z" style="fill:#b70027"/><path d="M12.05,36.39a.35.35,0,0,0,0-.7.35.35,0,0,0,0,.7Z" style="fill:#b70027"/><path d="M13.13,35.74a.44.44,0,0,0,0-.88.44.44,0,0,0,0,.88Z" style="fill:#b70027"/><path d="M14.32,35a.43.43,0,0,0,0-.86.43.43,0,0,0,0,.86Z" style="fill:#b70027"/><path d="M15.51,34a.42.42,0,0,0,0-.83.42.42,0,0,0,0,.83Z" style="fill:#b70027"/><path d="M16.88,33a.38.38,0,0,0,0-.76.38.38,0,0,0,0,.76Z" style="fill:#b70027"/><path d="M18,32.2a.34.34,0,0,0,0-.68.34.34,0,0,0,0,.68Z" style="fill:#b70027"/><path d="M19,31.55a.37.37,0,0,0,0-.74.37.37,0,0,0,0,.74Z" style="fill:#b70027"/><path d="M20.11,30.69a.41.41,0,0,0,0-.82.41.41,0,0,0,0,.82Z" style="fill:#b70027"/><path d="M21.36,29.73a.47.47,0,0,0,0-.94.47.47,0,0,0,0,.94Z" style="fill:#b70027"/><path d="M22.32,28.89a.42.42,0,0,0,0-.84.42.42,0,0,0,0,.84Z" style="fill:#b70027"/><path d="M23.64,27.39l0,0a.37.37,0,0,0-.53,0l0,0a.41.41,0,1,0,.59,0Z" style="fill:#b70027"/><path d="M24.42,27.16a.38.38,0,0,0,0-.76.38.38,0,0,0,0,.76Z" style="fill:#b70027"/><path d="M25.56,26.31a.27.27,0,0,0,0-.54.27.27,0,0,0,0,.54Z" style="fill:#b70027"/><path d="M26.58,25.65a.4.4,0,0,0,0-.79.4.4,0,0,0,0,.79Z" style="fill:#b70027"/><path d="M27.77,24.68a.45.45,0,0,0,0-.89.45.45,0,0,0,0,.89Z" style="fill:#b70027"/><path d="M29,23.74a.47.47,0,0,0,0-.93.47.47,0,0,0,0,.93Z" style="fill:#b70027"/><path d="M30.1,22.88a.51.51,0,0,0,0-1,.51.51,0,0,0,0,1Z" style="fill:#b70027"/><path d="M31.18,21.91a.44.44,0,0,0,0-.87.44.44,0,0,0,0,.87Z" style="fill:#b70027"/><path d="M32.2,20.92a.35.35,0,0,0,0-.7.35.35,0,0,0,0,.7Z" style="fill:#b70027"/><path d="M33.11,20.22a.39.39,0,0,0,0-.77.39.39,0,0,0,0,.77Z" style="fill:#b70027"/><path d="M34,19.41a.43.43,0,0,0,0-.85.43.43,0,0,0,0,.85Z" style="fill:#b70027"/><path d="M35,18.45a.31.31,0,0,0,0-.62.31.31,0,0,0,0,.62Z" style="fill:#b70027"/><path d="M36,17.77a.48.48,0,0,0,0-.95.48.48,0,0,0,0,.95Z" style="fill:#b70027"/><path d="M37.08,16.7a.42.42,0,0,0,0-.84.42.42,0,0,0,0,.84Z" style="fill:#b70027"/><path d="M38,15.85A.42.42,0,0,0,38,15a.42.42,0,0,0,0,.84Z" style="fill:#b70027"/><path d="M39.12,15.08a.39.39,0,0,0,0-.77.39.39,0,0,0,0,.77Z" style="fill:#b70027"/><path d="M40.37,14.29a.44.44,0,0,0,0-.88.44.44,0,0,0,0,.88Z" style="fill:#b70027"/><path d="M-.26,30.39a.57.57,0,0,0,0-1.13.57.57,0,0,0,0,1.13Z" style="fill:#b70027"/><path d="M1,29.41a.49.49,0,0,0,0-1,.49.49,0,0,0,0,1Z" style="fill:#b70027"/><path d="M2,28.57a.5.5,0,0,0,0-1,.5.5,0,0,0,0,1Z" style="fill:#b70027"/><path d="M3,26.83l0,0a.45.45,0,0,0,.23.84h0a.47.47,0,0,0,.45-.59A.48.48,0,0,0,3,26.83Z" style="fill:#b70027"/><path d="M4.5,26.77a.39.39,0,0,0,0-.78.39.39,0,0,0,0,.78Z" style="fill:#b70027"/><path d="M6,25.42v0a.42.42,0,0,0-.58-.15l0,0a.45.45,0,1,0,.62.16Z" style="fill:#b70027"/><path d="M6.77,25.15a.52.52,0,0,0,0-1,.52.52,0,0,0,0,1Z" style="fill:#b70027"/><path d="M7.91,24.14a.35.35,0,0,0,0-.7.35.35,0,0,0,0,.7Z" style="fill:#b70027"/><path d="M9,23.49a.44.44,0,0,0,0-.88.44.44,0,0,0,0,.88Z" style="fill:#b70027"/><path d="M10.18,22.75a.44.44,0,0,0,0-.87.44.44,0,0,0,0,.87Z" style="fill:#b70027"/><path d="M11.37,21.72a.42.42,0,0,0,0-.84.42.42,0,0,0,0,.84Z" style="fill:#b70027"/><path d="M12.73,20.77a.38.38,0,0,0,0-.75.38.38,0,0,0,0,.75Z" style="fill:#b70027"/><path d="M13.87,20a.35.35,0,0,0,0-.69.35.35,0,0,0,0,.69Z" style="fill:#b70027"/><path d="M14.89,19.3a.37.37,0,0,0,0-.74.37.37,0,0,0,0,.74Z" style="fill:#b70027"/><path d="M16,18.43a.41.41,0,0,0,0-.81.41.41,0,0,0,0,.81Z" style="fill:#b70027"/><path d="M17.22,17.48a.47.47,0,0,0,0-.94.47.47,0,0,0,0,.94Z" style="fill:#b70027"/><path d="M18.18,16.64a.42.42,0,0,0,0-.84.42.42,0,0,0,0,.84Z" style="fill:#b70027"/><path d="M19.5,15.14l0,0a.37.37,0,0,0-.53,0l0,0a.41.41,0,1,0,.59,0Z" style="fill:#b70027"/><path d="M20.28,14.91a.38.38,0,0,0,0-.76.38.38,0,0,0,0,.76Z" style="fill:#b70027"/><path d="M21.42,14.06a.27.27,0,0,0,0-.54.27.27,0,0,0,0,.54Z" style="fill:#b70027"/><path d="M22.44,13.4a.4.4,0,0,0,0-.79.4.4,0,0,0,0,.79Z" style="fill:#b70027"/><path d="M23.63,12.43a.45.45,0,0,0,0-.89.45.45,0,0,0,0,.89Z" style="fill:#b70027"/><path d="M24.82,11.49a.47.47,0,0,0,0-.93.47.47,0,0,0,0,.93Z" style="fill:#b70027"/><path d="M26,10.63a.51.51,0,0,0,0-1,.51.51,0,0,0,0,1Z" style="fill:#b70027"/><path d="M27.43,9.6a.44.44,0,0,0,0-.87.44.44,0,0,0,0,.87Z" style="fill:#b70027"/><path d="M28.51,8.84a.35.35,0,0,0,0-.7.35.35,0,0,0,0,.7Z" style="fill:#b70027"/><path d="M29.59,8.16a.35.35,0,0,0,0-.7.35.35,0,0,0,0,.7Z" style="fill:#b70027"/><path d="M30.55,7.52a.39.39,0,0,0,0-.78.39.39,0,0,0,0,.78Z" style="fill:#b70027"/><path d="M31.69,6.71a.43.43,0,0,0,0-.85.43.43,0,0,0,0,.85Z" style="fill:#b70027"/><path d="M33.05,5.58a.31.31,0,0,0,0-.62.31.31,0,0,0,0,.62Z" style="fill:#b70027"/><path d="M34.36,4.78a.48.48,0,0,0,0-1,.48.48,0,0,0,0,1Z" style="fill:#b70027"/><path d="M35.32,4a.42.42,0,0,0,0-.83.42.42,0,0,0,0,.83Z" style="fill:#b70027"/><path d="M36.46,3.26a.42.42,0,0,0,0-.84.42.42,0,0,0,0,.84Z" style="fill:#b70027"/><path d="M37.53,2.38a.39.39,0,0,0,0-.77.39.39,0,0,0,0,.77Z" style="fill:#b70027"/><path d="M38.33,1.7a.44.44,0,0,0,0-.88.44.44,0,0,0,0,.88Z" style="fill:#b70027"/><path d="M.24,14.53l0,0a.4.4,0,0,0,.38.29A.44.44,0,0,0,1,14.63.43.43,0,0,0,.76,14c-.29-.08-.64.21-.52.52Z" style="fill:#b70027"/><path d="M2,14a.44.44,0,0,0,0-.88A.44.44,0,0,0,2,14Z" style="fill:#b70027"/><path d="M3.2,13.06a.34.34,0,0,0,0-.68.34.34,0,0,0,0,.68Z" style="fill:#b70027"/><path d="M4.39,12.19a.43.43,0,0,0,0-.86.43.43,0,0,0,0,.86Z" style="fill:#b70027"/><path d="M5.64,11.4a.54.54,0,0,0,0-1.08.54.54,0,0,0,0,1.08Z" style="fill:#b70027"/><path d="M6.94,10.51a.5.5,0,0,0,0-1,.5.5,0,0,0,0,1Z" style="fill:#b70027"/><path d="M8.19,9.64a.37.37,0,0,0,0-.73.37.37,0,0,0,0,.73Z" style="fill:#b70027"/><path d="M9.33,8.66h0s0,0,0,0Z" style="fill:#b70027"/><path d="M9.5,9a.55.55,0,0,0,0-1.09A.55.55,0,0,0,9.5,9Z" style="fill:#b70027"/><path d="M10.63,8.12a.43.43,0,0,0,0-.85.43.43,0,0,0,0,.85Z" style="fill:#b70027"/><path d="M11.71,7.34a.38.38,0,0,0,0-.75.38.38,0,0,0,0,.75Z" style="fill:#b70027"/><path d="M12.87,5.8a1.15,1.15,0,0,0-.17.06.31.31,0,0,0-.11.43h0a.31.31,0,0,0,.42.11c-.13,0-.15,0,0,0,.47,0,.39-.76-.09-.64Z" style="fill:#b70027"/><path d="M14.1,5.66a.45.45,0,0,0,0-.89.45.45,0,0,0,0,.89Z" style="fill:#b70027"/><path d="M15.12,4.9a.48.48,0,0,0,0-1,.48.48,0,0,0,0,1Z" style="fill:#b70027"/><path d="M16.25,4.15a.35.35,0,0,0,0-.7.35.35,0,0,0,0,.7Z" style="fill:#b70027"/><path d="M17.39,3.43a.48.48,0,0,0,0-1,.48.48,0,0,0,0,1Z" style="fill:#b70027"/><path d="M18.46,2.7a.48.48,0,0,0,0-1,.48.48,0,0,0,0,1Z" style="fill:#b70027"/><path d="M19.43,1.91a.43.43,0,0,0,0-.85.43.43,0,0,0,0,.85Z" style="fill:#b70027"/><path d="M20.51.7s0,0,0,0,0,0,0,0Z" style="fill:#b70027"/><path d="M20.45,1.2a.39.39,0,0,0,0-.78.39.39,0,0,0,0,.78Z" style="fill:#b70027"/><path d="M.59,3.39a.33.33,0,0,0,0-.65.33.33,0,0,0,0,.65Z" style="fill:#b70027"/><path d="M1.67,2.74a.41.41,0,0,0,0-.82.41.41,0,0,0,0,.82Z" style="fill:#b70027"/><path d="M2.86,2a.45.45,0,0,0,0-.9.45.45,0,0,0,0,.9Z" style="fill:#b70027"/><path d="M4.12,1.16l0,0a.38.38,0,0,0,0-.54l0,0a.43.43,0,0,0-.72.3.42.42,0,0,0,.72.3Z" style="fill:#b70027"/><path d="M1.16,60.38a.35.35,0,0,0,0-.69.35.35,0,0,0,0,.69Z" style="fill:#b70027"/><path d="M2.06,59.66a.31.31,0,0,0,0-.61.31.31,0,0,0,0,.61Z" style="fill:#b70027"/><path d="M3,59.08a.46.46,0,0,0,0-.91.46.46,0,0,0,0,.91Z" style="fill:#b70027"/><path d="M4.11,58.24a.47.47,0,0,0,0-.93.47.47,0,0,0,0,.93Z" style="fill:#b70027"/><path d="M5.18,57.29a.48.48,0,0,0,0-.95.48.48,0,0,0,0,.95Z" style="fill:#b70027"/><path d="M6.83,56.19l0,0a.43.43,0,0,0,0-.61l0,0a.47.47,0,1,0,0,.67Z" style="fill:#b70027"/><path d="M7.74,55.44a.44.44,0,0,0,0-.87.44.44,0,0,0,0,.87Z" style="fill:#b70027"/><path d="M8.87,54.47a.42.42,0,0,0,0-.84.42.42,0,0,0,0,.84Z" style="fill:#b70027"/><path d="M10.07,53.62a.42.42,0,0,0,0-.84.42.42,0,0,0,0,.84Z" style="fill:#b70027"/><path d="M11.09,52.79a.33.33,0,0,0,0-.65.33.33,0,0,0,0,.65Z" style="fill:#b70027"/><path d="M12.11,52.11a.38.38,0,0,0,0-.76.38.38,0,0,0,0,.76Z" style="fill:#b70027"/><path d="M13.07,51.24a.35.35,0,0,0,0-.7.35.35,0,0,0,0,.7Z" style="fill:#b70027"/><path d="M14.15,50.6a.45.45,0,0,0,0-.9.45.45,0,0,0,0,.9Z" style="fill:#b70027"/><path d="M15.12,49.86a.39.39,0,0,0,0-.77.39.39,0,0,0,0,.77Z" style="fill:#b70027"/><path d="M16.19,49.06a.44.44,0,0,0,0-.87.44.44,0,0,0,0,.87Z" style="fill:#b70027"/><path d="M17.21,47.49l0,0c-.43.19-.21.87.23.85h0a.46.46,0,0,0,.45-.59.47.47,0,0,0-.68-.28Z" style="fill:#b70027"/><path d="M18.52,47.4a.35.35,0,0,0,0-.7.35.35,0,0,0,0,.7Z" style="fill:#b70027"/><path d="M19.54,46.55a.29.29,0,0,0,0-.58.29.29,0,0,0,0,.58Z" style="fill:#b70027"/><path d="M20.62,46a.45.45,0,0,0,0-.9.45.45,0,0,0,0,.9Z" style="fill:#b70027"/><path d="M21.81,45a.42.42,0,0,0,0-.84.42.42,0,0,0,0,.84Z" style="fill:#b70027"/><path d="M22.89,44.2a.26.26,0,0,0,0-.52.26.26,0,0,0,0,.52Z" style="fill:#b70027"/><path d="M23.91,43.52a.37.37,0,0,0,0-.73.37.37,0,0,0,0,.73Z" style="fill:#b70027"/><path d="M25,42.65A.35.35,0,0,0,25,42a.35.35,0,0,0,0,.69Z" style="fill:#b70027"/><path d="M26,41.9A.45.45,0,0,0,26,41a.45.45,0,0,0,0,.89Z" style="fill:#b70027"/><path d="M26.92,41.05a.39.39,0,0,0,0-.77.39.39,0,0,0,0,.77Z" style="fill:#b70027"/><path d="M28,40.2a.33.33,0,0,0,0-.65.33.33,0,0,0,0,.65Z" style="fill:#b70027"/><path d="M29.08,39.43a.51.51,0,0,0,0-1,.51.51,0,0,0,0,1Z" style="fill:#b70027"/><path d="M30.27,38.47a.4.4,0,0,0,0-.8.4.4,0,0,0,0,.8Z" style="fill:#b70027"/><path d="M31.23,37.66a.38.38,0,0,0,0-.76.38.38,0,0,0,0,.76Z" style="fill:#b70027"/><path d="M32.43,36.8a.37.37,0,0,0,0-.74.37.37,0,0,0,0,.74Z" style="fill:#b70027"/><path d="M33.5,35.84a.31.31,0,0,0,0-.62.31.31,0,0,0,0,.62Z" style="fill:#b70027"/><path d="M34.47,35.12a.33.33,0,0,0,0-.65.33.33,0,0,0,0,.65Z" style="fill:#b70027"/><path d="M35.55,34.47a.47.47,0,0,0,0-.93.47.47,0,0,0,0,.93Z" style="fill:#b70027"/><path d="M36.85,33.34a.35.35,0,0,0,0-.7.35.35,0,0,0,0,.7Z" style="fill:#b70027"/><path d="M37.87,32.45a.31.31,0,0,0,0-.61.31.31,0,0,0,0,.61Z" style="fill:#b70027"/><path d="M39,31.86a.4.4,0,0,0,0-.79.4.4,0,0,0,0,.79Z" style="fill:#b70027"/><path d="M40.14,30.74s0,0,0,0Z" style="fill:#b70027"/><path d="M40.09,31.17a.39.39,0,0,0,0-.77.39.39,0,0,0,0,.77Z" style="fill:#b70027"/><path d="M18.41,61.76a.37.37,0,0,0,0-.74.37.37,0,0,0,0,.74Z" style="fill:#b70027"/><path d="M19.49,61.06a.29.29,0,0,0,0-.58.29.29,0,0,0,0,.58Z" style="fill:#b70027"/><path d="M20.51,60.53a.39.39,0,0,0,0-.77.39.39,0,0,0,0,.77Z" style="fill:#b70027"/><path d="M21.64,59.84a.43.43,0,0,0,0-.85.43.43,0,0,0,0,.85Z" style="fill:#b70027"/><path d="M22.78,58.24h-.05c-.52,0-.34.82.09.66l.05,0a.35.35,0,0,0,.24-.32.32.32,0,0,0-.33-.32Z" style="fill:#b70027"/><path d="M23.74,58a.32.32,0,0,0,0-.64.32.32,0,0,0,0,.64Z" style="fill:#b70027"/><path d="M24.76,57.52a.48.48,0,0,0,0-1,.48.48,0,0,0,0,1Z" style="fill:#b70027"/><path d="M25.79,56.69a.38.38,0,0,0,0-.76.38.38,0,0,0,0,.76Z" style="fill:#b70027"/><path d="M26.92,55.69a.29.29,0,0,0,0-.58.29.29,0,0,0,0,.58Z" style="fill:#b70027"/><path d="M27.83,55.26a.42.42,0,0,0,0-.84.42.42,0,0,0,0,.84Z" style="fill:#b70027"/><path d="M28.85,54.49a.27.27,0,0,0,0-.54.27.27,0,0,0,0,.54Z" style="fill:#b70027"/><path d="M29.87,54a.43.43,0,0,0,0-.86.43.43,0,0,0,0,.86Z" style="fill:#b70027"/><path d="M31.18,52.22h-.05a.43.43,0,0,0-.41.54.44.44,0,0,0,.63.26l0,0c.39-.18.19-.79-.21-.78Z" style="fill:#b70027"/><path d="M32.39,51.57l0,0a.29.29,0,1,0,.1.4l0,0a.26.26,0,0,0-.09-.35Z" style="fill:#b70027"/><path d="M33.54,51.38l0,0a.33.33,0,0,0,0-.47l0,0a.37.37,0,1,0,0,.53Z" style="fill:#b70027"/><path d="M34.3,50.46c.17.22.57.1.48-.21s-.71-.09-.48.21Z" style="fill:#b70027"/><path d="M35.2,49.55c-.14.38.45.62.66.27s-.47-.76-.66-.27Z" style="fill:#b70027"/><path d="M36.3,49.07l0,0a.27.27,0,0,0,.37,0l0,0a.31.31,0,0,0-.22-.52.3.3,0,0,0-.21.52Z" style="fill:#b70027"/><path d="M37.48,48.44a.27.27,0,0,0,0-.53.27.27,0,0,0,0,.53Z" style="fill:#b70027"/><path d="M38.44,47.7a.26.26,0,0,0,0-.51.26.26,0,0,0,0,.51Z" style="fill:#b70027"/><path d="M39.41,47.08a.32.32,0,0,0,0-.63.32.32,0,0,0,0,.63Z" style="fill:#b70027"/><path d="M40.37,46.21s0,0,0,0,0,0,0,0Z" style="fill:#b70027"/><path d="M40.27,46l0,0a.3.3,0,0,0,.15.56h0c.51,0,.31-.87-.16-.59Z" style="fill:#b70027"/><path d="M37.36,61.76a.37.37,0,0,0,0-.74.37.37,0,0,0,0,.74Z" style="fill:#b70027"/><path d="M38.56,61a.43.43,0,0,0,0-.86.43.43,0,0,0,0,.86Z" style="fill:#b70027"/><path d="M39.64,60.23a.36.36,0,0,0,0-.71.36.36,0,0,0,0,.71Z" style="fill:#b70027"/><path d="M14.15,43.05a1,1,0,1,0-1-1,1,1,0,0,0,1,1Z" style="fill:#191956"/><path d="M7.2,48.67a1.1,1.1,0,1,0-1.11-1.1,1.12,1.12,0,0,0,1.11,1.1Z" style="fill:#191956"/><path d="M-.77,53.39l0,0A1.14,1.14,0,0,0,1,53.18a1.14,1.14,0,0,0-1-1.7H0a1.15,1.15,0,0,0-1,.56,1.12,1.12,0,0,0,.17,1.35Z" style="fill:#191956"/><path d="M9.68,63.27h0a1.09,1.09,0,0,0,.94-.53v0a1,1,0,0,0-.16-1.25,1,1,0,0,0-.54-.31,1.08,1.08,0,1,0-.29,2.12Z" style="fill:#191956"/><path d="M16.85,57.16l.06,0a1.15,1.15,0,0,0,0-2l-.06,0a1.25,1.25,0,0,0-1.2,0,1.21,1.21,0,0,0-.59,1,1.19,1.19,0,0,0,.59,1,1.22,1.22,0,0,0,1.2,0Z" style="fill:#191956"/><path d="M23.57,51.72h0a1.06,1.06,0,1,0,0-2.12h0a1.06,1.06,0,1,0,0,2.12Z" style="fill:#191956"/><path d="M30.5,46.88a.85.85,0,0,0,0-1.7.85.85,0,1,0,0,1.7Z" style="fill:#191956"/><path d="M37.77,41.58a.93.93,0,1,0-.93-.92.93.93,0,0,0,.93.92Z" style="fill:#191956"/><path d="M20.73,38a1.06,1.06,0,1,0-1.06-1.06A1.07,1.07,0,0,0,20.73,38Z" style="fill:#191956"/><path d="M27.83,33.16l0,0a1.1,1.1,0,0,0,.76-1.33,1.08,1.08,0,0,0-1.33-.76h-.05a1.09,1.09,0,1,0,.58,2.1Z" style="fill:#191956"/><path d="M33.89,25.93l0,0a1.24,1.24,0,0,0-.68.53A1.14,1.14,0,0,0,35,27.85l0,0a1.15,1.15,0,0,0,.18-1.36,1.14,1.14,0,0,0-1.28-.52Z" style="fill:#191956"/><path d="M41.65,22.61h0A1,1,0,0,0,42,21.29v0a1,1,0,1,0-.36,1.34Z" style="fill:#191956"/><path d="M.47,38A1.13,1.13,0,1,0-.66,36.83,1.14,1.14,0,0,0,.47,38Z" style="fill:#191956"/><path d="M7.77,32.74a1.21,1.21,0,1,0-1.21-1.21,1.22,1.22,0,0,0,1.21,1.21Z" style="fill:#191956"/><path d="M15,24.68a1.36,1.36,0,0,0-.91.91,1.3,1.3,0,1,0,.91-.91Z" style="fill:#191956"/><path d="M22.55,21.88a1.26,1.26,0,1,0-1.26-1.26,1.27,1.27,0,0,0,1.26,1.26Z" style="fill:#191956"/><path d="M30.55,14.25a1.16,1.16,0,1,0,0,1.62,1.06,1.06,0,0,0,.31-.54,1.17,1.17,0,0,0-.29-1.08Z" style="fill:#191956"/><path d="M36.28,10.75a1,1,0,1,0-1-1,1,1,0,0,0,1,1Z" style="fill:#191956"/><path d="M.64,22.22A1.33,1.33,0,0,0,2,20.91,1.33,1.33,0,0,0,.64,19.59,1.33,1.33,0,0,0-.68,20.91,1.32,1.32,0,0,0,.64,22.22Z" style="fill:#191956"/><path d="M10.37,15.69v0a1.26,1.26,0,0,0-.9-.89A1.31,1.31,0,0,0,8,15.36l0,0a1.3,1.3,0,1,0,2.37.31Z" style="fill:#191956"/><path d="M18.54,9.82h0a1.3,1.3,0,0,0-2.37.31,1.37,1.37,0,0,0,.13,1h0a1.3,1.3,0,0,0,1.77.47h0a1.29,1.29,0,0,0,0-2.21h0a1.29,1.29,0,0,0-1.77.46h0a1.37,1.37,0,0,0-.13,1,1.25,1.25,0,0,0,.59.77,1.31,1.31,0,0,0,1.78-.46,1.4,1.4,0,0,0,0-1.29Z" style="fill:#191956"/><path d="M26,5.27v0A1.14,1.14,0,0,0,25.53,4l0,0a1.19,1.19,0,0,0-1.74,1.33,1.19,1.19,0,0,0,2.28,0Z" style="fill:#191956"/><path d="M30.34-.8a1.18,1.18,0,0,0-1,.85,1.07,1.07,0,0,0,.29,1.07A1.09,1.09,0,0,0,31,1.29l0,0a1.07,1.07,0,0,0,.38-1.45l0,0V.9l0-.06c.17-.37.14-.35-.09.07A1,1,0,0,0,31.5-.33,1.06,1.06,0,0,0,30.34-.8Z" style="fill:#191956"/><path d="M-.25,9.23A1,1,0,0,0,.81,8.81.93.93,0,0,0,.25,7.46.94.94,0,0,0-.89,8.1.93.93,0,0,0-.25,9.23Z" style="fill:#191956"/><path d="M6,4.23a1.14,1.14,0,0,0-.54.69,1.08,1.08,0,1,0,2-.26,2.92,2.92,0,0,0-.21-.28A1,1,0,0,0,6,4.23Z" style="fill:#191956"/><path d="M11.47.81v0a.94.94,0,0,0,.94.93h0a1,1,0,0,0,.85-.49A1,1,0,0,0,13.15.11a1,1,0,0,0-1.68.7Z" style="fill:#191956"/><path d="M27.85,63.4h0a1.33,1.33,0,0,0,1.56.2,1.28,1.28,0,1,0-1.89-1.45h0a1.25,1.25,0,0,0,.33,1.23Z" style="fill:#191956"/><path d="M35.44,58.34l0-.05a1.07,1.07,0,0,0-.64-1.57l-.07,0a1.14,1.14,0,0,0-1.39,1.38,1.13,1.13,0,0,0,2.06.27Z" style="fill:#191956"/><path d="M41,54.92a1.3,1.3,0,1,0-1.31-1.3A1.31,1.31,0,0,0,41,54.92Z" style="fill:#191956"/><path d="M28.41,60.4a.64.64,0,0,0-.4.3.58.58,0,0,0,.21.78.57.57,0,0,0,.78-.2l0,0-.34.27h0a.58.58,0,0,0,.41-.71.59.59,0,0,0-.72-.4Z" style="fill:#f70032"/><path d="M27.13,63.26a.59.59,0,0,0,0-1.18.59.59,0,0,0,0,1.18Z" style="fill:#f70032"/><path d="M30.08,63.05a.52.52,0,0,0,0-1,.52.52,0,0,0,0,1Z" style="fill:#f70032"/><path d="M34.47,56.91a.44.44,0,0,0,0-.87.44.44,0,0,0,0,.87Z" style="fill:#f70032"/><path d="M33.18,58.32a.57.57,0,0,0,0-1.13.57.57,0,0,0,0,1.13Z" style="fill:#f70032"/><path d="M34.58,59.48a.49.49,0,0,0,0-1,.49.49,0,0,0,0,1Z" style="fill:#f70032"/><path d="M35.38,58.13h0a.52.52,0,0,0,.8-.1v0a.53.53,0,0,0-.45-.79c-.43,0-.75.6-.38.9Z" style="fill:#f70032"/><path d="M39.54,54.34a.47.47,0,0,0,0-.93.47.47,0,0,0,0,.93Z" style="fill:#f70032"/><path d="M41,52.8a.43.43,0,0,0,0-.86.43.43,0,0,0,0,.86Z" style="fill:#f70032"/><path d="M41,55.7a.59.59,0,0,0,0-1.18.59.59,0,0,0,0,1.18Z" style="fill:#f70032"/><path d="M30.46,45.31a.58.58,0,0,0,0-1.15.58.58,0,0,0,0,1.15Z" style="fill:#f70032"/><path d="M29.4,46.73a.61.61,0,0,0,0-1.21.61.61,0,0,0,0,1.21Z" style="fill:#f70032"/><path d="M30.61,47.67a.45.45,0,0,0,0-.9.45.45,0,0,0,0,.9Z" style="fill:#f70032"/><path d="M31.75,46.57a.56.56,0,0,0,0-1.12.56.56,0,0,0,0,1.12Z" style="fill:#f70032"/><path d="M38.16,38.77l0,0a.66.66,0,1,0,0,1.13l0,0a.64.64,0,0,0,0-1.09Z" style="fill:#f70032"/><path d="M36.36,41.31a.57.57,0,0,0,0-1.14.57.57,0,0,0,0,1.14Z" style="fill:#f70032"/><path d="M38,42.82a.69.69,0,0,0,0-1.37.69.69,0,0,0,0,1.37Z" style="fill:#f70032"/><path d="M39.2,41.13a.5.5,0,0,0,0-1,.5.5,0,0,0,0,1Z" style="fill:#f70032"/><path d="M23.61,49.86a.61.61,0,0,0,0-1.22.61.61,0,0,0,0,1.22Z" style="fill:#f70032"/><path d="M22.21,51.26a.51.51,0,0,0,0-1,.51.51,0,0,0,0,1Z" style="fill:#f70032"/><path d="M25,51.26a.47.47,0,0,0,0-.93.47.47,0,0,0,0,.93Z" style="fill:#f70032"/><path d="M23.72,52.6a.45.45,0,0,0,0-.9.45.45,0,0,0,0,.9Z" style="fill:#f70032"/><path d="M16.12,55.12a.53.53,0,0,0,0-1,.53.53,0,0,0,0,1Z" style="fill:#f70032"/><path d="M14.72,56.89a.72.72,0,1,0-.72-.72.73.73,0,0,0,.72.72Z" style="fill:#f70032"/><path d="M17.75,56.78a.57.57,0,0,0,0-1.13.57.57,0,0,0,0,1.13Z" style="fill:#f70032"/><path d="M16.38,58.19a.47.47,0,0,0,0-.94.47.47,0,0,0,0,.94Z" style="fill:#f70032"/><path d="M9.65,61.16a.47.47,0,0,0,0-.93.47.47,0,0,0,0,.93Z" style="fill:#f70032"/><path d="M8.17,62.78a.62.62,0,0,0,0-1.24.62.62,0,0,0,0,1.24Z" style="fill:#f70032"/><path d="M11.09,62.61a.49.49,0,0,0,0-1,.49.49,0,0,0,0,1Z" style="fill:#f70032"/><path d="M-.11,51.77a.68.68,0,0,0,0-1.35.68.68,0,0,0,0,1.35Z" style="fill:#f70032"/><path d="M1.29,53.38a.63.63,0,1,0-.64-.63.64.64,0,0,0,.64.63Z" style="fill:#f70032"/><path d="M0,54.69a.66.66,0,0,0,0-1.32.66.66,0,0,0,0,1.32Z" style="fill:#f70032"/><path d="M5.78,47a.83.83,0,0,0-.18.13.59.59,0,0,0-.14.52.53.53,0,0,0,.52.39.74.74,0,0,0,.35-.1c.62-.34.07-1.28-.55-.94Z" style="fill:#f70032"/><path d="M7.34,46.62a.57.57,0,0,0,0-1.14.57.57,0,0,0,0,1.14Z" style="fill:#f70032"/><path d="M8.63,48.23a.75.75,0,0,0,0-1.5.75.75,0,0,0,0,1.5Z" style="fill:#f70032"/><path d="M7.66,49.42l0,0a.59.59,0,0,0,0-.6l0,0a.63.63,0,1,0-.71.93.66.66,0,0,0,.71-.29Z" style="fill:#f70032"/><path d="M14.14,41.25a.62.62,0,0,0,0-1.23.62.62,0,0,0,0,1.23Z" style="fill:#f70032"/><path d="M12.6,42.66a.6.6,0,0,0,0-1.2.6.6,0,0,0,0,1.2Z" style="fill:#f70032"/><path d="M16,41.62l0,0a.65.65,0,1,0,0,.92l0,0a.63.63,0,0,0,0-.88Z" style="fill:#f70032"/><path d="M14.15,44.05a.63.63,0,0,0,0-1.26.63.63,0,0,0,0,1.26Z" style="fill:#f70032"/><path d="M20.58,36.09a.58.58,0,0,0,0-1.16.58.58,0,0,0,0,1.16Z" style="fill:#f70032"/><path d="M19.37,37.6a.63.63,0,0,0,0-1.25.63.63,0,0,0,0,1.25Z" style="fill:#f70032"/><path d="M20.81,39a.68.68,0,0,0,0-1.35.68.68,0,0,0,0,1.35Z" style="fill:#f70032"/><path d="M22.36,37.39a.64.64,0,1,0,0-1.28.64.64,0,0,0,0,1.28Z" style="fill:#f70032"/><path d="M27.39,31.19a.61.61,0,0,0,0-1.22.61.61,0,0,0,0,1.22Z" style="fill:#f70032"/><path d="M26.07,32.9a.7.7,0,1,0-.7-.7.71.71,0,0,0,.7.7Z" style="fill:#f70032"/><path d="M29,32.62a.65.65,0,1,0-.65-.65.66.66,0,0,0,.65.65Z" style="fill:#f70032"/><path d="M27.73,34.22a.67.67,0,0,0,0-1.33.67.67,0,0,0,0,1.33Z" style="fill:#f70032"/><path d="M34.36,26.22a.61.61,0,0,0,0-1.21.61.61,0,0,0,0,1.21Z" style="fill:#f70032"/><path d="M32.84,27.69a.69.69,0,0,0,0-1.37.69.69,0,0,0,0,1.37Z" style="fill:#f70032"/><path d="M35.72,27.54a.61.61,0,0,0,0-1.22.61.61,0,0,0,0,1.22Z" style="fill:#f70032"/><path d="M34.43,28.51l.08,0s0,0,0,0l-.07,0s0,0,0,0Z" style="fill:#f70032"/><path d="M34.36,29.08a.61.61,0,0,0,0-1.21.61.61,0,0,0,0,1.21Z" style="fill:#f70032"/><path d="M39.55,22.74l0,0a.63.63,0,0,0,.92-.71v0a.64.64,0,1,0-1,.72Z" style="fill:#f70032"/><path d="M41.43,20.94a.6.6,0,0,0,0-1.2.6.6,0,0,0,0,1.2Z" style="fill:#f70032"/><path d="M41.43,23.9a.66.66,0,0,0,0-1.32.66.66,0,0,0,0,1.32Z" style="fill:#f70032"/><path d="M.34,35.7a.45.45,0,0,0,0-.9.45.45,0,0,0,0,.9Z" style="fill:#f70032"/><path d="M1.93,37.41a.51.51,0,0,0,0-1,.51.51,0,0,0,0,1Z" style="fill:#f70032"/><path d="M.64,38.88a.55.55,0,0,0,0-1.1.55.55,0,0,0,0,1.1Z" style="fill:#f70032"/><path d="M7.64,30.58a.68.68,0,0,0,0-1.36.68.68,0,0,0,0,1.36Z" style="fill:#f70032"/><path d="M6.17,32.3a.7.7,0,0,0,0-1.4.7.7,0,0,0,0,1.4Z" style="fill:#f70032"/><path d="M8.93,30.91l0,0a.6.6,0,1,0,.95.73l0,0c.4-.56-.46-1.17-.93-.72Z" style="fill:#f70032"/><path d="M7.3,33.25v0a.7.7,0,0,0,1.36-.37v0a.71.71,0,0,0-1.37.37Z" style="fill:#f70032"/><path d="M15.17,23.59h-.05a.62.62,0,0,0-.53.93.63.63,0,0,0,1.07,0l0,0a.59.59,0,0,0-.51-.89Z" style="fill:#f70032"/><path d="M13.85,26.84a.67.67,0,0,0,0-1.33.67.67,0,0,0,0,1.33Z" style="fill:#f70032"/><path d="M17.2,25.44h0a.66.66,0,1,0,.23.89h0a.65.65,0,0,0-.22-.87Z" style="fill:#f70032"/><path d="M15.7,28.43a.75.75,0,0,0,0-1.49.75.75,0,0,0,0,1.49Z" style="fill:#f70032"/><path d="M21.73,19.21v0A.56.56,0,1,0,22.78,19v0a.56.56,0,0,0-1,.28Z" style="fill:#f70032"/><path d="M21.34,20.15h-.05a.64.64,0,1,0,.55,1l0-.05a.61.61,0,0,0-.53-.91Z" style="fill:#f70032"/><path d="M23.86,21.26a.7.7,0,0,0,.7-.69.7.7,0,0,0-1.4,0,.7.7,0,0,0,.7.69Z" style="fill:#f70032"/><path d="M22.78,22.86a.68.68,0,0,0,0-1.35.68.68,0,0,0,0,1.35Z" style="fill:#f70032"/><path d="M29.66,14.23a.6.6,0,0,0,0-1.2.6.6,0,0,0,0,1.2Z" style="fill:#f70032"/><path d="M28.15,14.39h0a.69.69,0,0,0,0,1.37h0a.69.69,0,0,0,0-1.37Z" style="fill:#f70032"/><path d="M30.91,15.44a.52.52,0,0,0,0-1,.52.52,0,0,0,0,1Z" style="fill:#f70032"/><path d="M29.3,15.91l0,0a.67.67,0,0,0,.65,1.1H30a.68.68,0,0,0,.4-1,.69.69,0,0,0-1.06-.14Z" style="fill:#f70032"/><path d="M36.25,9a.56.56,0,0,0,0-1.11.56.56,0,0,0,0,1.11Z" style="fill:#f70032"/><path d="M34.81,10.32a.59.59,0,0,0,0-1.18.59.59,0,0,0,0,1.18Z" style="fill:#f70032"/><path d="M37.8,10.1A.56.56,0,0,0,37.8,9a.56.56,0,0,0,0,1.12Z" style="fill:#f70032"/><path d="M36.5,11.65a.62.62,0,0,0,0-1.24.62.62,0,0,0,0,1.24Z" style="fill:#f70032"/><path d="M.53,19.93a.64.64,0,0,0,0-1.28.64.64,0,0,0,0,1.28Z" style="fill:#f70032"/><path d="M2.16,21.48a.54.54,0,0,0,0-1.08.54.54,0,0,0,0,1.08Z" style="fill:#f70032"/><path d="M.57,23.19A.59.59,0,0,0,.57,22a.59.59,0,0,0,0,1.18Z" style="fill:#f70032"/><path d="M9.32,14.19l0,0a.57.57,0,0,0-.54,0,.54.54,0,0,0-.25.6l0,0a.56.56,0,0,0,.8.33.54.54,0,0,0,0-.94Z" style="fill:#f70032"/><path d="M7.53,16.82a.58.58,0,0,0,0-1.16.58.58,0,0,0,0,1.16Z" style="fill:#f70032"/><path d="M10.63,16.68a.56.56,0,0,0,0-1.11.56.56,0,0,0,0,1.11Z" style="fill:#f70032"/><path d="M9.12,18.23a.6.6,0,0,0,0-1.19.6.6,0,0,0,0,1.19Z" style="fill:#f70032"/><path d="M17.22,9.57a.71.71,0,1,0-.71-.71.71.71,0,0,0,.71.71Z" style="fill:#f70032"/><path d="M16.09,10l-.05,0a.66.66,0,0,0-.65,0,.63.63,0,0,0-.32.55A.65.65,0,0,0,16,11l.05,0a.62.62,0,0,0,0-1.07Z" style="fill:#f70032"/><path d="M18.88,10.79a.57.57,0,0,0,0-1.14.57.57,0,0,0,0,1.14Z" style="fill:#f70032"/><path d="M17.67,12.59a.57.57,0,0,0,0-1.13.57.57,0,0,0,0,1.13Z" style="fill:#f70032"/><path d="M24.82,3a.57.57,0,0,0-.42.17.51.51,0,0,0,0,.72.57.57,0,0,0,.42.17.53.53,0,0,0,0-1.06Z" style="fill:#f70032"/><path d="M23.57,5.28a.45.45,0,0,0,0-.89.45.45,0,0,0,0,.89Z" style="fill:#f70032"/><path d="M25,6.91a.57.57,0,0,0,0-1.14.57.57,0,0,0,0,1.14Z" style="fill:#f70032"/><path d="M26.49,5.52a.73.73,0,0,0,0-1.45.73.73,0,0,0,0,1.45Z" style="fill:#f70032"/><path d="M29.32-.12h-.05a.47.47,0,0,0,0,.93h.05c.61.07.61-1,0-.95Z" style="fill:#f70032"/><path d="M30.8,2.09a.68.68,0,0,0,0-1.36.68.68,0,0,0,0,1.36Z" style="fill:#f70032"/><path d="M31.49.27v0a.55.55,0,1,0,.93-.54l0,0a.54.54,0,0,0-.9.52Z" style="fill:#f70032"/><path d="M-.34,7.75a.55.55,0,0,0,0-1.09.55.55,0,0,0,0,1.09Z" style="fill:#f70032"/><path d="M1.06,8.72a.46.46,0,0,0,0-.92.46.46,0,0,0,0,.92Z" style="fill:#f70032"/><path d="M0,10A.46.46,0,0,0,0,9,.46.46,0,0,0,0,10Z" style="fill:#f70032"/><path d="M6.28,4.49a.48.48,0,0,0,0-1,.48.48,0,0,0,0,1Z" style="fill:#f70032"/><path d="M5.49,5a.61.61,0,0,0-.3,0,.46.46,0,1,0,.45.77l0,0A.44.44,0,0,0,5.49,5Z" style="fill:#f70032"/><path d="M7.72,5.47a.41.41,0,0,0,0-.82.41.41,0,0,0,0,.82Z" style="fill:#f70032"/><path d="M6.7,6.9a.57.57,0,0,0,0-1.14.57.57,0,0,0,0,1.14Z" style="fill:#f70032"/><path d="M11.28,1.48a.52.52,0,0,0,0-1,.52.52,0,0,0,0,1Z" style="fill:#f70032"/><path d="M12.26.09a.53.53,0,0,0,0-1,.53.53,0,0,0,0,1.05Z" style="fill:#f70032"/><path d="M13.55.81h0s0,0,0,0Z" style="fill:#f70032"/><path d="M13.66,1.34a.54.54,0,0,0,0-1.07.54.54,0,0,0,0,1.07Z" style="fill:#f70032"/><path d="M12.56,2.58a.5.5,0,0,0,0-1,.5.5,0,0,0,0,1Z" style="fill:#f70032"/><path d="M1.88,5.28a2.61,2.61,0,0,0,.67.21.05.05,0,0,0,0-.09c-.16-.16-.41-.17-.62-.26s-.18.1-.08.14Z" style="fill:#191956"/><path d="M1,5.58C1,5.73.91,5.89,1,6a.08.08,0,0,0,.11,0c.14-.11.08-.27.05-.42a.1.1,0,0,0-.2,0Z" style="fill:#191956"/><polygon points="3 6.57 3 6.57 3 6.57 3 6.57" style="fill:#191956"/><path d="M2.57,6.61c.07.23.24.58.54.49a.11.11,0,0,0,.07-.17c-.09-.16-.25-.26-.33-.44s-.33,0-.28.12Z" style="fill:#191956"/><polygon points="3.51 3.86 3.51 3.85 3.51 3.86 3.51 3.86" style="fill:#191956"/><path d="M3.41,4.53c.18-.08.39-.14.47-.34a.09.09,0,0,0-.09-.11,1,1,0,0,0-.52.23c-.15.08,0,.29.14.22Z" style="fill:#191956"/><path d="M4.12,6.46a1.52,1.52,0,0,0,.3.17s.1,0,.06-.07-.17-.14-.26-.22-.19.06-.1.12Z" style="fill:#191956"/><path d="M3.16,8.62a1.37,1.37,0,0,0,.57,0,.08.08,0,0,0,0-.11c-.13-.18-.35-.15-.54-.18s-.26.24-.08.27Z" style="fill:#191956"/><polygon points="4.79 7.84 4.79 7.83 4.79 7.84 4.79 7.84" style="fill:#191956"/><path d="M5,7.87a.42.42,0,0,0,.3.36.13.13,0,0,0,.16-.11.44.44,0,0,0-.29-.42c-.11,0-.19.08-.17.17Z" style="fill:#191956"/><polygon points="2.04 10.38 2.04 10.38 2.04 10.38 2.04 10.38" style="fill:#191956"/><path d="M2,10.4a.91.91,0,0,0,0,.49.11.11,0,0,0,.18,0c.14-.12.07-.29.11-.46s-.22-.24-.26-.07Z" style="fill:#191956"/><path d="M.58,11.25a.27.27,0,0,0,.19.2s.09,0,.07-.09a.8.8,0,0,1-.08-.16c0-.12-.22-.06-.18.05Z" style="fill:#191956"/><path d="M5.61,2.56a.89.89,0,0,0,.72-.27.15.15,0,0,0-.09-.21.9.9,0,0,0-.7.21c-.11.08-.09.29.07.27Z" style="fill:#191956"/><path d="M8.26.84c.09.16.11.39.33.41a.11.11,0,0,0,.1-.08C8.75,1,8.57.8,8.44.7a.12.12,0,0,0-.18.14Z" style="fill:#191956"/><polygon points="8.76 2.42 8.76 2.42 8.76 2.42 8.76 2.42" style="fill:#191956"/><path d="M8.46,2.61c.09.18.31.5.53.32a.18.18,0,0,0,0-.19c0-.2-.27-.43-.49-.36a.16.16,0,0,0-.09.23Z" style="fill:#191956"/><path d="M10.23,3.68a1.27,1.27,0,0,1,.51,0c.26,0,.37-.33.11-.4a1.46,1.46,0,0,0-.72,0,.2.2,0,1,0,.1.38Z" style="fill:#191956"/><path d="M9.76,5a1.11,1.11,0,0,0,.36,0,.12.12,0,0,0,.11-.18.55.55,0,0,0-.37-.24c-.25-.06-.35.33-.1.38Z" style="fill:#191956"/><path d="M12.41,3.69c.12,0,.25,0,.38-.07a.19.19,0,0,0,.12-.16.12.12,0,0,0-.05-.11.17.17,0,0,0-.2,0,.74.74,0,0,0-.31.27.06.06,0,0,0,.06.1Z" style="fill:#191956"/><path d="M15,.86a.88.88,0,0,0,.08.45.14.14,0,0,0,.14.08c.3,0,.12-.4.07-.56a.15.15,0,0,0-.29,0Z" style="fill:#191956"/><path d="M16.71.68c.18-.05.48,0,.56-.22a.08.08,0,0,0,0-.11c-.17-.17-.46,0-.64.09s0,.29.1.24Z" style="fill:#191956"/><path d="M2.52,15.91c.09.05.52.46.6.24s-.35-.51-.57-.42a.1.1,0,0,0,0,.18Z" style="fill:#191956"/><path d="M1.68,17a1.11,1.11,0,0,0,.07.16.06.06,0,1,0,.12,0l0-.17c0-.1-.19-.05-.15,0Z" style="fill:#191956"/><path d="M3.37,17.85a2.61,2.61,0,0,0,.79,0c.06,0,.08-.07,0-.1a.91.91,0,0,0-.82-.09.11.11,0,0,0,0,.21Z" style="fill:#191956"/><path d="M3.05,18.91c.11.19.28.41.52.41a.09.09,0,0,0,.07-.12c-.09-.18-.32-.25-.48-.37s-.15,0-.11.08Z" style="fill:#191956"/><path d="M4.68,15.22c.11.21.11.41.31.57s.33-.1.24-.23a4.38,4.38,0,0,0-.41-.45.09.09,0,0,0-.14.11Z" style="fill:#191956"/><path d="M5.92,18.76c.1.17.33.51.57.35a.11.11,0,0,0,0-.12c0-.17-.23-.26-.33-.4s-.41,0-.29.17Z" style="fill:#191956"/><path d="M5.1,20.56c.17.05.5.25.58,0a.18.18,0,0,0-.08-.21.58.58,0,0,0-.5,0,.11.11,0,0,0,0,.21Z" style="fill:#191956"/><path d="M4.29,22.63c.19-.09.36-.07.45-.28s0-.14-.09-.16c-.21-.06-.38.1-.53.23s0,.28.17.21Z" style="fill:#191956"/><path d="M.87,24.64c.1.15.22.41.43.39a.1.1,0,0,0,.08-.09c0-.18-.18-.34-.3-.45s-.29,0-.21.15Z" style="fill:#191956"/><path d="M2.93,24.14l.14,0s0-.07,0-.07l-.15,0s0,.1,0,.09Z" style="fill:#191956"/><path d="M2.88,24.31c.11.09.26,0,.39,0a.65.65,0,0,0,.46-.2c.06-.07,0-.17-.08-.2a1.07,1.07,0,0,0-.58.08c-.1,0-.34.18-.19.31Z" style="fill:#191956"/><path d="M1,26.34c.15.12.38.25.53,0a.11.11,0,0,0,0-.11c-.09-.11-.21-.12-.32-.2s-.37.14-.21.27Z" style="fill:#191956"/><path d="M7.08,21.31c.24,0,.49-.06.73-.12a.06.06,0,0,0,0-.11,1.31,1.31,0,0,0-.78.05c-.11,0-.06.2,0,.18Z" style="fill:#191956"/><path d="M8.34,19.75c0,.2.24.4.44.31a.11.11,0,0,0,0-.11c0-.14-.19-.21-.29-.31a.11.11,0,0,0-.19.11Z" style="fill:#191956"/><path d="M6.86,13.23a1.21,1.21,0,0,1,.16.16.14.14,0,0,0,.14,0,.11.11,0,0,0,.09-.06.15.15,0,0,0,0-.18L7,13c-.12-.07-.26.1-.15.19Z" style="fill:#191956"/><path d="M9.33,11.69c.21-.11.53-.11.68-.31a.09.09,0,0,0,0-.12c-.24-.14-.55.11-.76.23a.12.12,0,0,0,.12.2Z" style="fill:#191956"/><path d="M10.23,12.53a1,1,0,0,0,.6.28.12.12,0,0,0,.11-.15c-.07-.25-.33-.31-.53-.42s-.35.16-.18.29Z" style="fill:#191956"/><path d="M12.23,10.67l.46-.19c.08,0,0-.15,0-.16a1.54,1.54,0,0,0-.52.09.14.14,0,1,0,.1.26Z" style="fill:#191956"/><path d="M13.15,11.82c.08.16.14.36.33.41a.08.08,0,0,0,.1-.07c0-.18-.16-.3-.24-.45s-.25,0-.19.11Z" style="fill:#191956"/><path d="M12.57,13.7c0,.16.07.38.25.43a.08.08,0,0,0,.08,0c.14-.14,0-.33,0-.49a.17.17,0,0,0-.32.09Z" style="fill:#191956"/><polygon points="14.86 13.71 14.86 13.71 14.86 13.71 14.86 13.71" style="fill:#191956"/><path d="M14.87,14c.19,0,.77.18.77-.16s-.58-.2-.77-.16a.17.17,0,0,0,0,.32Z" style="fill:#191956"/><path d="M13.72,15.19a1,1,0,0,0,0,.52c.06.23.38.16.4-.05a1.49,1.49,0,0,0-.07-.47.16.16,0,0,0-.3,0Z" style="fill:#191956"/><polygon points="12.85 16.48 12.85 16.47 12.85 16.48 12.85 16.48" style="fill:#191956"/><path d="M12.55,16.67a.68.68,0,0,0-.11.54c0,.28.47.16.43-.12,0-.11,0-.22,0-.33a.18.18,0,0,0-.33-.09Z" style="fill:#191956"/><path d="M15.51,15.31c.23,0,.51.13.71-.06a.11.11,0,0,0,0-.15.74.74,0,0,0-.71,0,.14.14,0,0,0,0,.26Z" style="fill:#191956"/><path d="M13.53,9l0,0h-.1a.53.53,0,0,0,.62-.1A.12.12,0,0,0,14,8.71a.58.58,0,0,0-.39,0c-.14,0-.15.12-.18.23s0,.09.09.07Z" style="fill:#191956"/><path d="M15.9,6.92c0,.09,0,.18.08.27a.19.19,0,0,0,.21.12l0,0a.15.15,0,0,0,.08-.18l-.09-.28c-.07-.19-.37-.11-.31.09Z" style="fill:#191956"/><path d="M18.21,5.72a1.39,1.39,0,0,0,.48.32c.07,0,.15,0,.12-.12s-.24-.29-.37-.43-.38.09-.23.23Z" style="fill:#191956"/><polygon points="19 7.08 19 7.07 19 7.08 19 7.08" style="fill:#191956"/><path d="M18.13,7c0,.2.4.58.59.39s-.29-.58-.51-.49a.12.12,0,0,0-.08.1Z" style="fill:#191956"/><path d="M19.76,5.11c.15,0,.3-.07.45-.1a1.09,1.09,0,0,0,.4-.12.15.15,0,0,0,0-.26c-.28-.16-.66.09-.94.17a.16.16,0,1,0,.09.31Z" style="fill:#191956"/><path d="M20.54,6.22a3.45,3.45,0,0,0,.26.28.07.07,0,0,0,.11-.08c-.06-.12-.13-.23-.19-.33a.11.11,0,1,0-.18.13Z" style="fill:#191956"/><path d="M20.32,7.49c0,.21,0,.89.32.89a.14.14,0,0,0,.14-.18,2.32,2.32,0,0,1-.19-.67c0-.15-.25-.19-.27,0Z" style="fill:#191956"/><path d="M20.67,9.68c.21.07.53.17.72,0a.11.11,0,0,0,0-.19.77.77,0,0,0-.75-.1.13.13,0,0,0,0,.25Z" style="fill:#191956"/><path d="M20.56,11.57c.19-.1.46-.14.55-.35a.11.11,0,0,0-.09-.16c-.24,0-.44.18-.59.34s0,.24.13.17Z" style="fill:#191956"/><path d="M21.86,7.06h0a.13.13,0,0,0,0,.11c.14.14.53.23.67.06s0,0,0-.07S22.33,7,22.19,7s-.28-.06-.33.06Z" style="fill:#191956"/><path d="M22.81,8.63c.14-.16.43-.27.47-.49a.08.08,0,0,0-.05-.1c-.27-.09-.5.25-.62.44s.11.26.2.15Z" style="fill:#191956"/><path d="M22.58,9.74a.61.61,0,0,0,.28.11.06.06,0,0,0,.06-.1.45.45,0,0,0-.23-.2c-.12-.08-.23.12-.11.19Z" style="fill:#191956"/><path d="M24.63,8.83c.17-.17.6-.28.61-.57a.1.1,0,0,0-.11-.1c-.26,0-.57.32-.71.51a.13.13,0,0,0,.21.16Z" style="fill:#191956"/><path d="M21.68,3a1,1,0,0,1-.08.34c0,.1-.09.26,0,.35a.09.09,0,0,0,.08,0c.25,0,.45-.75.15-.82a.1.1,0,0,0-.13.09Z" style="fill:#191956"/><path d="M24.37,1.74l.25,0h0l-.25,0Z" style="fill:#191956"/><path d="M24.15,1.82c.22,0,.46,0,.65-.1a.11.11,0,0,0,0-.13.78.78,0,0,0-.73,0,.14.14,0,0,0,.08.27Z" style="fill:#191956"/><path d="M25.93.64c0,.18.14.69.41.53s-.16-.54-.28-.61a.09.09,0,0,0-.13.08Z" style="fill:#191956"/><path d="M27.48,1.34a.67.67,0,0,0,.5,0c.05,0,0-.08,0-.12s-.28-.15-.43-.2-.26.23-.08.28Z" style="fill:#191956"/><path d="M27.17,2.25c-.07.23.26.81.54.72s-.25-.69-.34-.77a.12.12,0,0,0-.2,0Z" style="fill:#191956"/><path d="M28.81,3.07a1.3,1.3,0,0,0,.83.19.09.09,0,0,0,.05-.12c-.13-.26-.53-.25-.78-.31s-.23.16-.1.24Z" style="fill:#191956"/><path d="M28.51,4.45a1,1,0,0,0,0,.49.07.07,0,0,0,.13,0,1,1,0,0,0,0-.49.12.12,0,0,0-.23,0Z" style="fill:#191956"/><path d="M27.89,6.29a1.52,1.52,0,0,0,.21,0,.06.06,0,0,0,0-.12l-.21,0c-.12,0-.12.19,0,.18Z" style="fill:#191956"/><path d="M30.64,4.34a3.57,3.57,0,0,0,.57-.1.13.13,0,0,0,0-.26,1.74,1.74,0,0,0-.6.13.12.12,0,0,0,.06.23Z" style="fill:#191956"/><path d="M32.81,2c-.15.17-.37.44-.19.66a.14.14,0,0,0,.18,0c.12-.12.15-.34.23-.5s-.11-.29-.22-.16Z" style="fill:#191956"/><polygon points="34.61 1.06 34.61 1.06 34.61 1.06 34.61 1.06" style="fill:#191956"/><path d="M34.16,1.1c.27,0,.64.11.87-.08a.11.11,0,0,0,0-.15.86.86,0,0,0-.92.06.09.09,0,0,0,0,.17Z" style="fill:#191956"/><path d="M1.45,31.42c.11.2.37.4.6.31a.07.07,0,0,0,0-.12c-.14-.13-.31-.21-.46-.33a.12.12,0,0,0-.18.14Z" style="fill:#191956"/><path d="M.9,32.85c.06.18,0,.55.29.59a.08.08,0,0,0,.1-.11,2.5,2.5,0,0,0-.09-.25,2.45,2.45,0,0,0-.08-.29.11.11,0,0,0-.22.06Z" style="fill:#191956"/><path d="M3.08,33a1.49,1.49,0,0,0,.63,0,.1.1,0,0,0,0-.17,1.16,1.16,0,0,0-.67-.17c-.21,0-.2.3,0,.32Z" style="fill:#191956"/><polygon points="3.99 30.11 3.99 30.11 3.99 30.11 3.99 30.11" style="fill:#191956"/><path d="M3.93,30.67c.21-.14.69-.16.72-.48a.09.09,0,0,0-.09-.08.71.71,0,0,0-.39.14.82.82,0,0,0-.37.29.1.1,0,0,0,.13.13Z" style="fill:#191956"/><path d="M5,34.2c0,.18-.07.46.09.58a.11.11,0,0,0,.13,0c.2-.14.14-.47,0-.67A.14.14,0,0,0,5,34.2Z" style="fill:#191956"/><path d="M3.09,34.62c.13.18.16.46.42.48A.11.11,0,0,0,3.62,35a1.24,1.24,0,0,0-.28-.56c-.11-.13-.34,0-.25.19Z" style="fill:#191956"/><path d="M4.2,36.59a2.77,2.77,0,0,1,.41-.12A1.6,1.6,0,0,0,5,36.36a.11.11,0,0,0,0-.19c-.26-.17-.66.06-.91.17a.13.13,0,0,0,.07.25Z" style="fill:#191956"/><polygon points="3.85 38.24 3.85 38.24 3.85 38.24 3.85 38.24" style="fill:#191956"/><path d="M3.65,38.36c.22,0,.61.15.79,0,0,0,0,0,0-.06-.09-.3-.59-.2-.81-.16a.12.12,0,0,0,0,.24Z" style="fill:#191956"/><path d="M1.52,39.8c0,.2,0,.54.29.55a.1.1,0,0,0,.1-.08.69.69,0,0,0-.19-.59.12.12,0,0,0-.2.12Z" style="fill:#191956"/><path d="M6.82,35.63c.17.14.31.4.55.4.06,0,.09-.05.08-.1,0-.23-.35-.36-.55-.45a.09.09,0,0,0-.08.15Z" style="fill:#191956"/><polygon points="9.07 34.88 9.07 34.88 9.07 34.88 9.07 34.88" style="fill:#191956"/><path d="M9.05,35c.22-.1.64,0,.69-.35a.15.15,0,0,0-.06-.16c-.25-.13-.61,0-.82.18a.19.19,0,0,0,.19.33Z" style="fill:#191956"/><path d="M5.58,28.25c.06.19.21.52.46.43a.1.1,0,0,0,.07-.07.55.55,0,0,0-.36-.52.14.14,0,0,0-.17.16Z" style="fill:#191956"/><polygon points="8.33 27.06 8.33 27.06 8.33 27.06 8.33 27.06" style="fill:#191956"/><path d="M8.21,27.18c.23-.12.61,0,.77-.27a.09.09,0,0,0,0-.11c-.24-.23-.74-.05-.93.16a.14.14,0,0,0,.17.22Z" style="fill:#191956"/><path d="M9.82,28.09c.17.22.42.53.73.46a.11.11,0,0,0,.08-.13c-.08-.25-.38-.4-.55-.59s-.4.08-.26.26Z" style="fill:#191956"/><path d="M11.12,26.57a1.85,1.85,0,0,0,.59-.31s0-.13-.06-.12a2.42,2.42,0,0,0-.62.22c-.16.06-.07.27.09.21Z" style="fill:#191956"/><polygon points="10.58 25.28 10.58 25.28 10.58 25.28 10.58 25.28" style="fill:#191956"/><path d="M10.24,24.88c-.07.19-.15.43,0,.6a.12.12,0,0,0,.16,0c.22-.1.18-.42.12-.62a.14.14,0,0,0-.27,0Z" style="fill:#191956"/><path d="M12.28,28.34a.89.89,0,0,0,.29.62.11.11,0,0,0,.15-.07c.07-.21-.12-.42-.15-.63s-.32-.1-.29.08Z" style="fill:#191956"/><path d="M11.58,30.47c.16.2.5.56.77.33,0,0,0-.08,0-.12-.09-.2-.42-.28-.58-.42s-.33.06-.21.21Z" style="fill:#191956"/><polygon points="11.91 32.48 11.91 32.48 11.91 32.48 11.91 32.48" style="fill:#191956"/><path d="M11.64,32.85c.23-.09.57,0,.76-.19a.09.09,0,0,0,0-.13c-.21-.23-.65-.07-.88,0a.15.15,0,0,0,.12.27Z" style="fill:#191956"/><path d="M14.31,30.21a1.44,1.44,0,0,0-.1.5.2.2,0,0,0,.39,0c0-.14,0-.28,0-.42a.16.16,0,0,0-.31-.08Z" style="fill:#191956"/><path d="M12.53,24c.23,0,.65,0,.75-.27,0,0,0-.1,0-.13-.21-.18-.5,0-.74,0s-.24.39,0,.37Z" style="fill:#191956"/><path d="M14.51,22c.17.15.35.37.58.4a.08.08,0,0,0,.07-.07c0-.25-.28-.38-.46-.52s-.33.07-.19.19Z" style="fill:#191956"/><path d="M16.88,22.77c.2-.25.52-.46.63-.76,0-.07-.05-.16-.12-.13-.33.12-.51.48-.7.74s.1.26.19.15Z" style="fill:#191956"/><path d="M16.7,20.93a1.08,1.08,0,0,1,.32-.28,1,1,0,0,0,.25-.14.12.12,0,0,0-.08-.2c-.27,0-.53.31-.65.52s.09.19.16.1Z" style="fill:#191956"/><path d="M18.83,21.23c.15.09.36.28.54.27s.11-.05.11-.11c0-.25-.3-.36-.47-.47a.18.18,0,0,0-.18.31Z" style="fill:#191956"/><path d="M18.76,23.11c.07.14.1.32.24.4s.08,0,.09,0,0-.34-.12-.49-.3,0-.21.12Z" style="fill:#191956"/><path d="M19.76,25a4.64,4.64,0,0,0,.65.11c.21,0,.23-.3.05-.36a2.44,2.44,0,0,0-.66,0c-.17,0-.21.26,0,.29Z" style="fill:#191956"/><path d="M21.27,23.89a1.76,1.76,0,0,0,.4.07.09.09,0,0,0,0-.17,3.08,3.08,0,0,0-.38-.16c-.17-.07-.25.21-.07.26Z" style="fill:#191956"/><path d="M18.85,26.58c.1.17.2.33.41.34s.15-.07.14-.14-.15-.27-.27-.41-.38.05-.28.21Z" style="fill:#191956"/><path d="M17.53,28.67a.77.77,0,0,0,.79,0,.16.16,0,0,0,0-.28.76.76,0,0,0-.79.08.1.1,0,0,0,0,.17Z" style="fill:#191956"/><path d="M22.49,24.91a.61.61,0,0,0,.73-.34.09.09,0,0,0,0-.1.81.81,0,0,0-.72.26.11.11,0,0,0,0,.18Z" style="fill:#191956"/><path d="M19.15,19.22c.18-.22.44-.36.62-.57a.08.08,0,0,0-.08-.13c-.29.05-.51.36-.68.59s.08.18.14.11Z" style="fill:#191956"/><path d="M21.2,17.22c.15.08.36.22.53.15a.12.12,0,0,0,.08-.1c0-.26-.33-.33-.54-.31a.14.14,0,0,0-.07.26Z" style="fill:#191956"/><path d="M23.06,16a7.63,7.63,0,0,0,.72-.26.08.08,0,0,0,0-.13c-.27-.14-.6.05-.83.19a.11.11,0,0,0,.11.2Z" style="fill:#191956"/><path d="M24.18,17c.15.25.17.52.48.6.05,0,.11-.05.08-.1s-.22-.42-.36-.62-.28,0-.2.12Z" style="fill:#191956"/><path d="M25.93,16.14c.22-.08.48,0,.68-.09a.07.07,0,0,0,0-.1.73.73,0,0,0-.78,0,.12.12,0,0,0,.09.22Z" style="fill:#191956"/><path d="M25.47,14.7a1.7,1.7,0,0,0,.46-.29c.14-.11.35-.22.39-.4s0-.09-.06-.09a.4.4,0,0,0-.36.15,4.77,4.77,0,0,1-.54.45.11.11,0,0,0,.11.18Z" style="fill:#191956"/><path d="M26.42,17.75c.1.18.24.54.5.51a.09.09,0,0,0,.09-.09c0-.22-.27-.41-.4-.56s-.25,0-.19.14Z" style="fill:#191956"/><path d="M26.16,20a1.41,1.41,0,0,0,.65.23.06.06,0,0,0,.05-.09c-.1-.19-.42-.21-.6-.31s-.21.11-.1.17Z" style="fill:#191956"/><path d="M26,22.27l.36-.08a.07.07,0,0,0,0-.14.9.9,0,0,0-.43,0c-.15,0-.09.28.07.24Z" style="fill:#191956"/><path d="M28.69,19.09a.87.87,0,0,0,.48,0c.12,0,.38-.16.31-.32s-.64.05-.81.15a.08.08,0,0,0,0,.14Z" style="fill:#191956"/><path d="M28.26,20.34h0a.14.14,0,0,0,0,.15l0,.05a.15.15,0,0,0,.19,0l0,0a.1.1,0,0,0,0-.14c0-.08-.26-.2-.31-.06Z" style="fill:#191956"/><path d="M30.92,18.35a1.52,1.52,0,0,0,.64-.22s0-.1,0-.1a1.38,1.38,0,0,0-.66.12c-.13,0-.08.24.05.2Z" style="fill:#191956"/><path d="M27.72,12.24c.1.17.32.4.53.32a.1.1,0,0,0,.07-.12c0-.18-.29-.27-.43-.36a.12.12,0,0,0-.17.16Z" style="fill:#191956"/><path d="M29.91,11.22a5,5,0,0,1,.57-.27c.15-.06.3-.1.36-.27a.09.09,0,0,0-.06-.11c-.17-.06-.31,0-.46.12a3.65,3.65,0,0,0-.54.32.12.12,0,0,0,.13.21Z" style="fill:#191956"/><path d="M31.19,12.09c.07.25.49.6.77.44a.17.17,0,0,0,0-.3c-.15-.1-.38-.09-.47-.27s-.36-.05-.3.13Z" style="fill:#191956"/><path d="M32.34,11.14c.18,0,.51,0,.61-.16a.08.08,0,0,0,0-.1.43.43,0,0,0-.66.15.09.09,0,0,0,.06.11Z" style="fill:#191956"/><path d="M32.16,9.71c.19-.12.58-.18.58-.46a.09.09,0,0,0-.09-.09,1.57,1.57,0,0,0-.64.3c-.15.11,0,.35.15.25Z" style="fill:#191956"/><path d="M33.5,12.72a1.28,1.28,0,0,0,.44.33S34,13,34,13c-.06-.2-.24-.27-.39-.38a.08.08,0,0,0-.12.11Z" style="fill:#191956"/><path d="M33.16,14.53a.35.35,0,0,0,.22.18s.06,0,.06-.05a.56.56,0,0,0-.16-.25c-.07-.09-.2,0-.12.12Z" style="fill:#191956"/><polygon points="33.11 16.05 33.11 16.05 33.11 16.05 33.11 16.05" style="fill:#191956"/><path d="M32.74,16.32c.19.06.42.2.61.07a.09.09,0,0,0,0-.13.51.51,0,0,0-.65-.13.1.1,0,0,0,0,.19Z" style="fill:#191956"/><path d="M35.33,14.1c.24,0,.62-.07.79-.28a.08.08,0,0,0,0-.14,1.88,1.88,0,0,0-.83.15c-.18,0-.1.31.08.27Z" style="fill:#191956"/><path d="M36.23,12.88c.13.13.32.3.5.18s.06-.07,0-.11-.22-.21-.35-.3a.15.15,0,0,0-.19.23Z" style="fill:#191956"/><path d="M34.53,7.29c.15-.1.38-.21.46-.39a.09.09,0,0,0-.07-.11c-.23-.07-.38.19-.53.32s0,.24.14.18Z" style="fill:#191956"/><path d="M36.77,5.89c.19.06.47.23.66.15a.13.13,0,0,0,.08-.19c-.15-.21-.63-.36-.79-.09a.09.09,0,0,0,.05.13Z" style="fill:#191956"/><path d="M38.39,4.73c.3-.08.62-.09.92-.19a.07.07,0,0,0,0-.13,1.32,1.32,0,0,0-1,.11c-.12.06,0,.24.09.21Z" style="fill:#191956"/><polygon points="40.37 3.66 40.37 3.66 40.37 3.66 40.37 3.66" style="fill:#191956"/><path d="M40,3.33a.54.54,0,0,0,.22.6.09.09,0,0,0,.14-.07c0-.19-.15-.38-.23-.55a.08.08,0,0,0-.13,0Z" style="fill:#191956"/><path d="M39.85,5.67A2.4,2.4,0,0,1,40.1,6c.09.19.36,0,.33-.14s-.19-.31-.3-.44-.4,0-.28.21Z" style="fill:#191956"/><path d="M38.78,6.9a1.79,1.79,0,0,0,.42.49.08.08,0,0,0,.11-.08A1.82,1.82,0,0,0,39,6.8c-.07-.1-.24,0-.17.1Z" style="fill:#191956"/><path d="M39.88,9.16a1.11,1.11,0,0,0,.32-.73s-.06-.07-.11-.06c-.26.06-.27.46-.38.65s.09.23.17.14Z" style="fill:#191956"/><path d="M39.49,11.13c.16-.06.32,0,.45-.14s0-.1,0-.12a.68.68,0,0,0-.48.06c-.12,0-.07.24.06.2Z" style="fill:#191956"/><path d="M1.13,47.77a.87.87,0,0,0,.68-.13.07.07,0,0,0,0-.12,1.18,1.18,0,0,0-.67,0,.1.1,0,0,0,0,.2Z" style="fill:#191956"/><path d="M3,46.43l.22-.13c.08,0,0-.19-.06-.15l-.24.09c-.14.06,0,.27.08.19Z" style="fill:#191956"/><path d="M3.12,47.7c0,.27.22.63.52.44a.1.1,0,0,0,0-.12c-.1-.16-.29-.21-.41-.36a.08.08,0,0,0-.14,0Z" style="fill:#191956"/><path d="M2.35,49.38a2.09,2.09,0,0,0,.95.13.07.07,0,0,0,0-.11c-.19-.24-.77-.41-1-.17a.09.09,0,0,0,0,.15Z" style="fill:#191956"/><path d="M3.83,50.76c.12.07.32.38.48.28a.16.16,0,0,0,.07-.17A.59.59,0,0,0,4,50.49c-.17-.07-.27.19-.12.27Z" style="fill:#191956"/><polygon points="5.16 50.04 5.16 50.04 5.16 50.04 5.16 50.04" style="fill:#191956"/><path d="M5,50.15a.66.66,0,0,0,.64.17.08.08,0,0,0,0-.14A.59.59,0,0,0,5,50a.07.07,0,0,0,0,.12Z" style="fill:#191956"/><path d="M3.45,52.5c0,.23,0,.79.3.84.09,0,.21,0,.2-.16a2.26,2.26,0,0,0-.11-.37,2.52,2.52,0,0,0-.12-.39c-.06-.13-.27-.06-.27.08Z" style="fill:#191956"/><path d="M2.43,55.14a3.35,3.35,0,0,0,.71-.06.1.1,0,0,0,0-.2,1,1,0,0,0-.75.12c-.07,0,0,.15,0,.14Z" style="fill:#191956"/><path d="M4.47,54.29c.18,0,.33,0,.47-.12a.09.09,0,0,0,0-.13c-.19-.15-.32,0-.52.05s-.07.23,0,.2Z" style="fill:#191956"/><path d="M1.1,56a.68.68,0,0,0,.22.68c.15.1.27-.09.22-.22a.89.89,0,0,1-.15-.42c0-.16-.26-.2-.29,0Z" style="fill:#191956"/><path d="M6,52.11A.92.92,0,0,0,6.73,52a.08.08,0,0,0,0-.14c-.25-.18-.51,0-.78.06a.1.1,0,0,0,0,.19Z" style="fill:#191956"/><path d="M8.33,50.79c.19-.09.51-.12.61-.33a.11.11,0,0,0,0-.14c-.23-.13-.53.08-.73.21a.15.15,0,0,0,.16.26Z" style="fill:#191956"/><path d="M10.41,48.84a1.29,1.29,0,0,0-.05.55.14.14,0,0,0,.1.1h0a.08.08,0,0,0,.09,0,.25.25,0,0,0,.05-.19,2.11,2.11,0,0,1,0-.35c0-.18-.25-.26-.28-.08Z" style="fill:#191956"/><path d="M4.59,44.66c.23.08.57.23.79.08a.11.11,0,0,0,0-.17.81.81,0,0,0-.81-.1.1.1,0,0,0,0,.19Z" style="fill:#191956"/><path d="M7.4,43.41c.18-.18.46-.31.55-.54,0-.07,0-.13-.1-.13-.28,0-.49.32-.64.52s.09.25.19.15Z" style="fill:#191956"/><path d="M9.13,44.27a1.47,1.47,0,0,0,.69-.1.07.07,0,0,0,0-.12c-.2-.12-.47,0-.69,0a.13.13,0,0,0,0,.26Z" style="fill:#191956"/><polygon points="10.12 42.31 10.12 42.3 10.12 42.31 10.12 42.31" style="fill:#191956"/><path d="M9.78,42.64c.24-.2.65-.39.7-.73a.11.11,0,0,0-.16-.12,1.64,1.64,0,0,0-.66.76c-.05.08.05.15.12.09Z" style="fill:#191956"/><path d="M9.44,41.24a2.49,2.49,0,0,0,.68-.37.08.08,0,0,0,0-.14.73.73,0,0,0-.76.37.1.1,0,0,0,.11.14Z" style="fill:#191956"/><path d="M11.23,40a1,1,0,0,0,0,.48.15.15,0,0,0,.14.11.22.22,0,0,0,.11,0,.14.14,0,0,0,0-.14,2.7,2.7,0,0,1-.14-.4c0-.08-.16-.08-.17,0Z" style="fill:#191956"/><path d="M11.17,43.71c.07.2.16.39.38.44a.07.07,0,0,0,.07-.12,1.17,1.17,0,0,1-.28-.37c0-.1-.21-.06-.17.05Z" style="fill:#191956"/><path d="M10.68,45.64c.16.14.3.33.52.33a.11.11,0,0,0,.11-.14c0-.2-.23-.31-.39-.43s-.4.09-.24.24Z" style="fill:#191956"/><path d="M11.74,47.57a2.49,2.49,0,0,0,.76-.14.08.08,0,0,0,0-.15,6.1,6.1,0,0,0-.74,0c-.21,0-.2.33,0,.31Z" style="fill:#191956"/><path d="M13,45.49a.93.93,0,0,0,.62.39.08.08,0,0,0,.06-.13,4.22,4.22,0,0,1-.51-.42.12.12,0,1,0-.17.16Z" style="fill:#191956"/><path d="M15,46.54a2.2,2.2,0,0,1,.2-.23.12.12,0,0,0-.14-.18,1.77,1.77,0,0,0-.32.21c-.17.14.11.4.26.2Z" style="fill:#191956"/><path d="M15.09,45.06c.21,0,.52,0,.7-.11a.1.1,0,0,0,0-.16.68.68,0,0,0-.75.15.07.07,0,0,0,.05.12Z" style="fill:#191956"/><path d="M13.11,38.44c.29.12.58.46.92.33a.08.08,0,0,0,0-.15,2.44,2.44,0,0,1-.46-.14,1.65,1.65,0,0,0-.42-.16.06.06,0,0,0,0,.12Z" style="fill:#191956"/><path d="M14.71,37.53a2.65,2.65,0,0,0,.69-.22c.16-.07.42-.11.48-.3a0,0,0,0,0,0,0c-.15-.14-.36,0-.52,0a4.74,4.74,0,0,0-.7.38.09.09,0,0,0,.06.16Z" style="fill:#191956"/><path d="M16,38.4a3.11,3.11,0,0,0,.4.22,1.58,1.58,0,0,0,.47.18.08.08,0,0,0,.06-.13,1.16,1.16,0,0,0-.9-.38.07.07,0,0,0,0,.11Z" style="fill:#191956"/><path d="M16.85,40a.73.73,0,0,0,0,.56.07.07,0,0,0,.13,0A.91.91,0,0,0,17,40c0-.08-.14-.08-.16,0Z" style="fill:#191956"/><path d="M17.41,42.88c.28-.08.58,0,.86-.08.07,0,.11-.15,0-.19a1.06,1.06,0,0,0-.95.09.1.1,0,0,0,.07.18Z" style="fill:#191956"/><path d="M18.62,41c.17.08.34.18.51.25s.16,0,.11-.11a1.24,1.24,0,0,0-.48-.39c-.16-.1-.3.16-.14.25Z" style="fill:#191956"/><path d="M17.79,44.21a1.46,1.46,0,0,0,.57-.21.08.08,0,0,0,0-.14,1.25,1.25,0,0,0-.6.1c-.16,0-.09.29.07.25Z" style="fill:#191956"/><path d="M18.21,39.28c.18.08.34.26.56.22a.07.07,0,0,0,0-.11.88.88,0,0,0-.54-.33c-.15-.05-.2.17-.06.22Z" style="fill:#191956"/><path d="M17.46,36.69c.13-.17.33-.27.4-.48a.11.11,0,0,0-.13-.14.91.91,0,0,0-.48.5.12.12,0,0,0,.21.12Z" style="fill:#191956"/><path d="M18.52,34.43a.66.66,0,0,0,.37-.06.07.07,0,0,0,0-.11.66.66,0,0,0-.37-.06.12.12,0,0,0,0,.23Z" style="fill:#191956"/><path d="M20.58,33a1.39,1.39,0,0,0,.59.36.07.07,0,0,0,.07-.12,3.31,3.31,0,0,0-.52-.38c-.1-.08-.24,0-.14.14Z" style="fill:#191956"/><path d="M22.87,34a2.22,2.22,0,0,0,.31-.59.09.09,0,0,0-.11-.11c-.26,0-.37.35-.49.54s.17.34.29.16Z" style="fill:#191956"/><path d="M22.44,32.11c.19,0,.36.15.56.06A.09.09,0,0,0,23,32a1.93,1.93,0,0,0-.53-.11c-.13,0-.15.19,0,.22Z" style="fill:#191956"/><polygon points="24.4 32.6 24.4 32.59 24.4 32.6 24.4 32.6" style="fill:#191956"/><path d="M24.27,32.75c-.05.24-.05.57.18.71.05,0,.1,0,.09-.06a4.71,4.71,0,0,1-.19-.64s-.07,0-.08,0Z" style="fill:#191956"/><path d="M24,35.22c.15.12.34.27.53.22a0,0,0,0,0,0-.07c-.06-.17-.25-.22-.39-.32s-.3.07-.18.17Z" style="fill:#191956"/><path d="M23.85,38.88a4.35,4.35,0,0,0,.58-.27c.07-.06,0-.18-.06-.21-.23-.08-.49.09-.67.22a.15.15,0,0,0,.15.26Z" style="fill:#191956"/><polygon points="24.88 37.08 24.88 37.08 24.88 37.08 24.88 37.08" style="fill:#191956"/><path d="M24.74,37.12c.21,0,.41.13.62.15s.1-.08.06-.13a1.08,1.08,0,0,0-.66-.21c-.11,0-.13.17,0,.19Z" style="fill:#191956"/><path d="M21.64,40.36a.49.49,0,0,0,.46.18c.08,0,.08-.12,0-.17s-.28-.14-.44-.16a.09.09,0,0,0-.06.15Z" style="fill:#191956"/><path d="M20.31,42.36a4.89,4.89,0,0,0,.46-.45.11.11,0,0,0-.12-.16.94.94,0,0,0-.53.47c-.06.11.1.25.19.14Z" style="fill:#191956"/><path d="M26,35.39c0,.28.36.64.65.41,0,0,0-.07,0-.09s-.39-.19-.49-.36-.17-.05-.16,0Z" style="fill:#191956"/><path d="M27.51,36.81a3.74,3.74,0,0,0,1-.53c.05-.06,0-.18-.07-.17a1.81,1.81,0,0,0-1,.53c-.1.08,0,.22.12.17Z" style="fill:#191956"/><path d="M29.37,34.92a1.32,1.32,0,0,0,.61-.19.09.09,0,0,0-.05-.17,2.25,2.25,0,0,0-.63.11c-.17,0-.1.28.07.25Z" style="fill:#191956"/><path d="M24.12,30.26a.81.81,0,0,0,.25.37s.08,0,.08-.05a2,2,0,0,0-.18-.4c-.05-.09-.19,0-.15.08Z" style="fill:#191956"/><path d="M25.93,29.14c.3-.11.69-.11.92-.34a.11.11,0,0,0,0-.18,1.51,1.51,0,0,0-1,.32c-.1.07,0,.25.09.2Z" style="fill:#191956"/><path d="M28.36,27.33c.19.1.46.35.68.27a.09.09,0,0,0,.07-.11c0-.23-.38-.38-.56-.48s-.4.22-.19.32Z" style="fill:#191956"/><polygon points="29.48 28.81 29.48 28.81 29.48 28.81 29.48 28.81" style="fill:#191956"/><path d="M29.33,29.07l.48-.05a.8.8,0,0,0,.43-.13.12.12,0,0,0,0-.16.82.82,0,0,0-1,.19s0,.15.06.15Z" style="fill:#191956"/><path d="M30.34,27.24a.86.86,0,0,0,.62.16.14.14,0,0,0,.11-.1v-.09a.14.14,0,0,0-.11-.1c-.17-.06-.35-.06-.51-.13s-.24.18-.11.26Z" style="fill:#191956"/><path d="M30.7,25.88c.26-.25.72-.36.91-.67a.14.14,0,0,0-.16-.2,1.49,1.49,0,0,0-.49.24,2.74,2.74,0,0,0-.5.4c-.14.15.08.37.24.23Z" style="fill:#191956"/><path d="M33.29,23.1a1.11,1.11,0,0,0,.45.25.08.08,0,0,0,.09-.11c-.09-.15-.26-.19-.39-.29s-.25.06-.15.15Z" style="fill:#191956"/><path d="M32.74,24.12l.25.05A.11.11,0,0,0,33.1,24a.4.4,0,0,0-.32-.24c-.22-.07-.29.29,0,.32Z" style="fill:#191956"/><path d="M35,22.49c.3-.08.63.2.92.09.06,0,.09-.08.06-.14-.16-.3-.82-.36-1.09-.22s0,.31.11.27Z" style="fill:#191956"/><path d="M35.45,23.8a1.73,1.73,0,0,0,.31.35c.06,0,.15,0,.13-.11a1,1,0,0,0-.3-.38.1.1,0,0,0-.14.14Z" style="fill:#191956"/><path d="M31.55,29.91c.16.15.32.37.54.41a.08.08,0,0,0,.1-.07,1,1,0,0,0-.36-.62c-.18-.18-.47.1-.28.28Z" style="fill:#191956"/><path d="M31.14,31.43c.23.11.45.23.68.33.07,0,.14,0,.11-.11-.12-.26-.43-.32-.66-.43s-.27.14-.13.21Z" style="fill:#191956"/><polygon points="31.75 33.19 31.75 33.19 31.75 33.19 31.75 33.19" style="fill:#191956"/><path d="M31.36,33.27a.73.73,0,0,0,.33.32.33.33,0,0,0,.39,0,.08.08,0,0,0,0-.11c-.15-.16-.45-.19-.65-.27,0,0-.1,0-.07.07Z" style="fill:#191956"/><path d="M33.44,32.14l.55-.22a.75.75,0,0,0,.43-.3.08.08,0,0,0,0-.12.65.65,0,0,0-.46.14c-.18.1-.36.24-.54.34s0,.2.06.16Z" style="fill:#191956"/><polygon points="34.3 30.22 34.3 30.22 34.3 30.22 34.3 30.22" style="fill:#191956"/><path d="M33.57,30.37a.81.81,0,0,0,.64.07s0-.08,0-.09a1.62,1.62,0,0,0-.62-.11.07.07,0,0,0,0,.13Z" style="fill:#191956"/><path d="M36,30.41l.33-.16a.1.1,0,0,0-.07-.18l-.35.13a.11.11,0,1,0,.09.21Z" style="fill:#191956"/><path d="M37.24,24.07a.88.88,0,0,0,.17.74.1.1,0,0,0,.16,0,2.84,2.84,0,0,0-.08-.7.13.13,0,0,0-.25,0Z" style="fill:#191956"/><path d="M36.74,21.09c.24.16.36.66.71.64,0,0,.11-.06.09-.11a1.07,1.07,0,0,0-.77-.62c-.06,0-.06.07,0,.09Z" style="fill:#191956"/><path d="M37.64,22.91a2,2,0,0,0,.55-.11.07.07,0,0,0,0-.13,1.14,1.14,0,0,0-.58.07c-.11,0-.07.2,0,.17Z" style="fill:#191956"/><path d="M35.34,21.14a.65.65,0,0,0,.29.14.09.09,0,0,0,.09-.11c0-.14-.14-.2-.25-.27s-.27.14-.13.24Z" style="fill:#191956"/><path d="M37.91,19.15c.24-.11.6-.12.79-.33a.08.08,0,0,0,0-.14,1.51,1.51,0,0,0-.87.26c-.14.08,0,.27.12.21Z" style="fill:#191956"/><polygon points="37.39 20.01 37.39 20 37.39 20.01 37.39 20.01" style="fill:#191956"/><path d="M38,20.21c.13.14.32.46.55.38,0,0,.07,0,.07-.08,0-.28-.33-.43-.55-.46s-.12.11-.07.16Z" style="fill:#191956"/><path d="M40,19.14c.23,0,.51.05.67-.15a.12.12,0,0,0,0-.15c-.19-.12-.47,0-.66.06s-.11.25,0,.24Z" style="fill:#191956"/><path d="M39.73,17.72a.91.91,0,0,1,.37-.27.4.4,0,0,0,.27-.28.08.08,0,0,0-.06-.1.88.88,0,0,0-.79.5c-.06.12.11.28.21.15Z" style="fill:#191956"/><path d="M38.7,24.28a.7.7,0,0,0,.46.57c.05,0,.12,0,.1-.1a1.13,1.13,0,0,0-.48-.53.05.05,0,0,0-.08.06Z" style="fill:#191956"/><path d="M38.05,26.23c.17.16.45.45.7.42a.08.08,0,0,0,.08-.07c0-.29-.43-.39-.65-.51s-.22.08-.13.16Z" style="fill:#191956"/><path d="M37.5,28.08c.08.2.09.5.26.65a.09.09,0,0,0,.14,0,1.17,1.17,0,0,0-.18-.7c0-.13-.27,0-.22.09Z" style="fill:#191956"/><path d="M40.05,26.35a2.16,2.16,0,0,0,.14.67c0,.05.13.05.14,0a1.52,1.52,0,0,0-.09-.7.1.1,0,0,0-.19.05Z" style="fill:#191956"/><path d="M4.25,61.14a1,1,0,0,0,.59-.09l.38-.11a1.57,1.57,0,0,0,.31-.08.08.08,0,0,0,0-.13c-.15-.11-.36,0-.53,0s-.51.15-.75.23c-.08,0-.09.16,0,.18Z" style="fill:#191956"/><path d="M6.11,59.12c.27.06.46.35.75.35a.06.06,0,0,0,0-.09A1,1,0,0,0,6.12,59s-.07.09,0,.1Z" style="fill:#191956"/><path d="M8.24,58.13c.08-.22.26-.37.36-.58s-.15-.28-.23-.13-.37.46-.22.72c0,0,.08,0,.09,0Z" style="fill:#191956"/><path d="M9.81,58.43a1.59,1.59,0,0,0,.77.27.08.08,0,0,0,.05-.14,2.51,2.51,0,0,0-.71-.31c-.12-.06-.24.12-.11.18Z" style="fill:#191956"/><path d="M6.67,60.54c0,.17-.15.36,0,.51s.07.05.1,0a1,1,0,0,0,.15-.47c0-.14-.19-.2-.21-.06Z" style="fill:#191956"/><path d="M10,56.65c.25-.14.64-.07.81-.33a.08.08,0,0,0,0-.12.74.74,0,0,0-.83.41s0,.06.07,0Z" style="fill:#191956"/><polygon points="12.25 56.62 12.25 56.62 12.25 56.62 12.25 56.62" style="fill:#191956"/><path d="M12.29,56.57c.06.31-.06,1,.4,1a.15.15,0,0,0,.15-.19c-.05-.15-.15-.28-.19-.44s-.06-.33-.1-.49-.3-.1-.26.07Z" style="fill:#191956"/><path d="M12.52,54.92a1.52,1.52,0,0,1,.39-.32c.1-.07.2-.13.22-.25a.09.09,0,0,0,0-.1c-.32-.16-.68.34-.78.59s.14.18.21.08Z" style="fill:#191956"/><path d="M12.74,59.26a2.28,2.28,0,0,0,1,0,.06.06,0,0,0,0-.12,3.33,3.33,0,0,0-1-.07c-.09,0-.11.14,0,.15Z" style="fill:#191956"/><path d="M13.23,61.16a2.8,2.8,0,0,0,.31.09,1.08,1.08,0,0,0,.3.11s.09,0,.08-.08c0-.29-.4-.31-.61-.4s-.24.21-.08.28Z" style="fill:#191956"/><polygon points="15.71 59.75 15.71 59.75 15.71 59.75 15.71 59.75" style="fill:#191956"/><path d="M15.44,59.52a.46.46,0,0,0,.41.51.12.12,0,0,0,.1-.17,1.65,1.65,0,0,0-.34-.41.1.1,0,0,0-.17.07Z" style="fill:#191956"/><path d="M15.44,53c.05-.14.08-.31.12-.46s.11-.31,0-.43a.05.05,0,0,0-.08,0c-.12.06-.17.25-.22.37a1,1,0,0,0-.1.54c0,.13.2.11.25,0Z" style="fill:#191956"/><path d="M17.27,51.37c.23.12.56.31.82.23a.1.1,0,0,0,0-.16c-.15-.19-.47-.25-.68-.36s-.38.2-.18.29Z" style="fill:#191956"/><path d="M18.15,53l.13.13a.1.1,0,0,0,.16-.13l-.09-.15c-.1-.15-.33,0-.2.15Z" style="fill:#191956"/><path d="M19.12,50.32c.29-.13.46-.4.74-.53s0-.41-.17-.3a1.53,1.53,0,0,0-.66.74.07.07,0,0,0,.09.09Z" style="fill:#191956"/><path d="M20,51.78a3.4,3.4,0,0,0,.71.42.07.07,0,0,0,.09-.09c-.06-.31-.41-.44-.65-.59s-.31.15-.15.26Z" style="fill:#191956"/><path d="M20.19,54.05a1.09,1.09,0,0,0,.15.46c0,.06.12,0,.12,0a2.26,2.26,0,0,0,0-.45c0-.18-.29-.15-.25,0Z" style="fill:#191956"/><path d="M20,56.33l.2.06a.12.12,0,0,0,.09-.22l-.18-.1a.14.14,0,1,0-.11.26Z" style="fill:#191956"/><path d="M18.4,58.22a1.41,1.41,0,0,0,.52.29s.12,0,.11-.09c0-.26-.3-.3-.5-.41a.12.12,0,0,0-.13.21Z" style="fill:#191956"/><path d="M24.4,60.81a1.22,1.22,0,0,0,.65-.18.08.08,0,0,0,0-.14c-.24-.05-.41.11-.63.18s-.07.15,0,.14Z" style="fill:#191956"/><path d="M26.19,59.49a4.5,4.5,0,0,0,.51-.2c.14,0,.3,0,.41-.17a.07.07,0,0,0,0-.1c-.25-.24-.73.12-1,.2a.14.14,0,0,0,.07.27Z" style="fill:#191956"/><polygon points="26.18 60.8 26.18 60.79 26.18 60.8 26.18 60.8" style="fill:#191956"/><path d="M26.11,60.59c-.12.21-.35.52-.2.76a.09.09,0,0,0,.15,0c.11-.19.16-.43.26-.63s-.14-.27-.21-.13Z" style="fill:#191956"/><path d="M23.54,61.46c.1.15.23.35.43.39s.15-.06.11-.14a2.25,2.25,0,0,0-.3-.39c-.1-.15-.34,0-.24.14Z" style="fill:#191956"/><path d="M22,53.73a1.26,1.26,0,0,0,.8.22.08.08,0,0,0,0-.11c-.14-.23-.55-.27-.8-.27a.09.09,0,0,0,0,.16Z" style="fill:#191956"/><polygon points="22.41 55.01 22.41 55.01 22.41 55.01 22.41 55.01" style="fill:#191956"/><path d="M22.4,55.46c.14-.06.28,0,.42-.07a.08.08,0,0,0,0-.15.47.47,0,0,0-.52,0,.1.1,0,0,0,.1.17Z" style="fill:#191956"/><path d="M24.53,54c.13-.07.24-.15.36-.23s.24-.12.31-.24a.08.08,0,0,0,0-.12c-.28-.08-.56.27-.76.42s0,.23.13.17Z" style="fill:#191956"/><path d="M22,47.34a.89.89,0,0,0-.28.59c0,.16.21.17.26,0a2.38,2.38,0,0,1,.18-.51c.06-.1-.08-.19-.16-.12Z" style="fill:#191956"/><path d="M23.82,46.29a1.17,1.17,0,0,0,.51.28,1.78,1.78,0,0,0,.6.18.1.1,0,0,0,.1-.12c-.07-.4-.82-.33-1.1-.48-.09,0-.19.07-.11.14Z" style="fill:#191956"/><path d="M25.77,45.26l.33-.3A.16.16,0,0,0,26,44.7c-.24,0-.37.14-.51.3a.18.18,0,0,0,.25.26Z" style="fill:#191956"/><polygon points="26.72 46.46 26.72 46.45 26.72 46.46 26.72 46.46" style="fill:#191956"/><path d="M26.57,46.65c.11.22.24.66.55.65a.13.13,0,0,0,.12-.11c0-.26-.34-.45-.48-.65a.11.11,0,0,0-.19.11Z" style="fill:#191956"/><path d="M25.68,48l.13.09c.1.07.25-.08.17-.18l-.09-.12a.15.15,0,1,0-.21.21Z" style="fill:#191956"/><path d="M26.91,49.58c.22,0,.46,0,.68,0a.15.15,0,0,0,.16-.12v-.08a.15.15,0,0,0-.16-.12,1.2,1.2,0,0,0-.74.18c-.08,0,0,.15.06.14Z" style="fill:#191956"/><path d="M28,48.35a1.71,1.71,0,0,0,.5-.1.09.09,0,0,0,0-.14c-.2-.13-.39,0-.57.07s0,.18.07.17Z" style="fill:#191956"/><path d="M29.74,48.5c.14.18.12.5.36.58a.09.09,0,0,0,.11-.09.74.74,0,0,0-.35-.6c-.07,0-.17,0-.12.11Z" style="fill:#191956"/><path d="M29.08,50.06c.13.17.27.45.51.47a.07.07,0,0,0,.07-.07c0-.24-.28-.4-.45-.53s-.18.06-.13.13Z" style="fill:#191956"/><path d="M27.08,51.23a1.29,1.29,0,0,0,.75.11.09.09,0,0,0,.06-.11c-.09-.27-.55-.29-.78-.24s-.12.18,0,.24Z" style="fill:#191956"/><polygon points="26.5 52.64 26.5 52.63 26.5 52.64 26.5 52.64" style="fill:#191956"/><path d="M26.43,53.09c.14-.1.4-.34.38-.54,0,0,0-.08-.06-.08-.24,0-.42.26-.51.43s.07.28.19.19Z" style="fill:#191956"/><path d="M27.87,44.86c.05-.19.18-.37.22-.56s-.06-.1-.1-.06a1.06,1.06,0,0,0-.26.59c0,.08.11.12.14,0Z" style="fill:#191956"/><path d="M28.27,43c.26-.07.61,0,.83-.16a.11.11,0,0,0-.05-.18,1.49,1.49,0,0,0-.86,0,.16.16,0,0,0,.08.3Z" style="fill:#191956"/><path d="M30.15,41.38c0,.17.08.41.29.42a.06.06,0,0,0,.06-.06,2.54,2.54,0,0,0-.12-.43c0-.15-.26-.08-.23.07Z" style="fill:#191956"/><path d="M31.1,43.15c.14-.28.43-.48.4-.82,0-.07-.1-.13-.16-.06a2.24,2.24,0,0,0-.44.8c0,.11.15.19.2.08Z" style="fill:#191956"/><path d="M32.23,40.16a.5.5,0,0,0,.23.38.05.05,0,0,0,.08-.06,2.79,2.79,0,0,1-.14-.37.09.09,0,1,0-.17,0Z" style="fill:#191956"/><path d="M33.28,41.66a.93.93,0,0,0,.55,0,.08.08,0,0,0,0-.14,1.13,1.13,0,0,0-.55,0,.12.12,0,1,0,0,.24Z" style="fill:#191956"/><path d="M33.34,43.77a1.86,1.86,0,0,1,.27-.45.13.13,0,0,0-.15-.2c-.21.11-.26.39-.3.6a.09.09,0,0,0,.18.05Z" style="fill:#191956"/><path d="M34.54,42.58c.17.13.54.42.77.28a.1.1,0,0,0,0-.1c0-.11-.1-.14-.2-.19a2.58,2.58,0,0,1-.44-.22c-.13-.1-.3.12-.17.23Z" style="fill:#191956"/><path d="M33.86,39.28a1.08,1.08,0,0,0,.07.62.1.1,0,0,0,.17,0,1.08,1.08,0,0,0,.07-.62.16.16,0,0,0-.31,0Z" style="fill:#191956"/><path d="M34.72,37.87a1.48,1.48,0,0,0,.47,0,.63.63,0,0,0,.4-.14.1.1,0,0,0,0-.17c-.24-.06-.75,0-.88.19a.09.09,0,0,0,0,.13Z" style="fill:#191956"/><path d="M36.53,36.43a.52.52,0,0,0,.44.31.08.08,0,0,0,.07-.12c-.07-.14-.23-.18-.32-.3s-.25,0-.19.11Z" style="fill:#191956"/><path d="M37.12,37.76c.26-.06.53.06.77-.1a.09.09,0,0,0,0-.14.94.94,0,0,0-.85,0,.15.15,0,0,0,.08.28Z" style="fill:#191956"/><path d="M38.28,35.24c.14.17.24.38.47.43s.18-.05.15-.14a.88.88,0,0,0-.49-.46.11.11,0,0,0-.13.17Z" style="fill:#191956"/><path d="M39.5,37.07c.16,0,.3.16.47.12a.11.11,0,0,0,.08-.14.62.62,0,0,0-.45-.35c-.23-.09-.34.3-.1.37Z" style="fill:#191956"/><path d="M40,34.44a.46.46,0,0,0,.16.18s.1,0,.07-.08l-.09-.16a.08.08,0,1,0-.14.06Z" style="fill:#191956"/><path d="M40.14,38.64c.09.12.21.29.37.28a.1.1,0,0,0,.09-.06c0-.2-.15-.29-.28-.4a.13.13,0,1,0-.18.18Z" style="fill:#191956"/><path d="M39.94,43.3c.11,0,.22,0,.33-.08a.08.08,0,0,0,0-.13.36.36,0,0,0-.43,0,.1.1,0,0,0,.1.18Z" style="fill:#191956"/><path d="M36.25,44.31c0,.21,0,.46.24.54.06,0,.12,0,.12-.09s-.07-.29-.06-.45-.29-.19-.3,0Z" style="fill:#191956"/><polygon points="34.67 45.47 34.67 45.47 34.67 45.47 34.67 45.47" style="fill:#191956"/><path d="M33.93,45.08a1.26,1.26,0,0,0,.94.46.11.11,0,0,0,.09-.16,1.15,1.15,0,0,0-1-.4.07.07,0,0,0-.06.1Z" style="fill:#191956"/><path d="M33.31,47.38a2.73,2.73,0,0,0,.57,0,.11.11,0,0,0,0-.2,1.34,1.34,0,0,0-.59-.1.17.17,0,0,0,0,.33Z" style="fill:#191956"/><path d="M31.8,48.82a1,1,0,0,0,.55,0,.07.07,0,0,0,0-.12c-.16-.16-.36-.12-.57-.11a.14.14,0,0,0,0,.27Z" style="fill:#191956"/><polygon points="38.13 44.23 38.13 44.22 38.13 44.23 38.13 44.23" style="fill:#191956"/><path d="M38.13,44.74c.12-.25.39-.45.38-.74a.07.07,0,0,0-.09-.07c-.32.06-.44.5-.42.77,0,.07.1.11.13,0Z" style="fill:#191956"/><path d="M28.36,57.63a.6.6,0,0,0,.55.54.09.09,0,0,0,.08-.11c-.08-.2-.39-.25-.45-.45a.09.09,0,0,0-.18,0Z" style="fill:#191956"/><path d="M29.46,59.44c.14,0,.29-.08.44-.12s.11-.19,0-.21a1.51,1.51,0,0,0-.52,0c-.19,0-.1.34.08.28Z" style="fill:#191956"/><polygon points="30.64 57.24 30.64 57.24 30.64 57.24 30.64 57.24" style="fill:#191956"/><path d="M30.67,57.38l.19,0h0l-.2,0s0,0,0,0Z" style="fill:#191956"/><path d="M30.58,57.44c.24,0,.53.26.74.06a.09.09,0,0,0,0-.13,1,1,0,0,0-.74-.16.12.12,0,0,0,0,.23Z" style="fill:#191956"/><polygon points="31.66 55.77 31.66 55.77 31.66 55.77 31.66 55.77" style="fill:#191956"/><polygon points="31.83 55.6 31.83 55.6 31.83 55.6 31.83 55.6" style="fill:#191956"/><path d="M31.24,55.88a.67.67,0,0,0,.71-.07.09.09,0,0,0,0-.16,1,1,0,0,0-.67.07.1.1,0,0,0,0,.16Z" style="fill:#191956"/><path d="M31.55,59.74l.34.31c.09.09.15.21.28.26s.1,0,.09-.07c-.06-.26-.42-.46-.62-.61s-.15.06-.09.11Z" style="fill:#191956"/><polygon points="32.74 61.59 32.74 61.58 32.74 61.59 32.74 61.59" style="fill:#191956"/><path d="M32.58,61.74l.34.14a1.36,1.36,0,0,0,.25.11.07.07,0,0,0,.08-.1c-.09-.21-.44-.23-.63-.29a.07.07,0,1,0,0,.14Z" style="fill:#191956"/><path d="M34.3,61l.45-.13a1.86,1.86,0,0,0,.48-.1.1.1,0,0,0,0-.17c-.29-.18-.71.06-1,.16s-.09.28.06.24Z" style="fill:#191956"/><path d="M36.91,59.2c.21,0,.47,0,.65-.13a.07.07,0,0,0-.05-.12,2.45,2.45,0,0,0-.66,0c-.13,0-.07.22.06.2Z" style="fill:#191956"/><path d="M37.11,56.64c.19.18.45.42.74.33a.1.1,0,0,0,0-.17c-.15-.16-.39-.23-.56-.38s-.37.08-.22.22Z" style="fill:#191956"/><path d="M39.25,56.75c-.13.16-.32.54-.08.69a.06.06,0,0,0,.09,0c.16-.12.11-.44.14-.62a.08.08,0,0,0-.15-.06Z" style="fill:#191956"/><path d="M40.2,56.57a.5.5,0,0,0,.17,0,.06.06,0,0,0,0-.1c0-.07-.07-.07-.16-.11s-.16.15,0,.19Z" style="fill:#191956"/><path d="M37.4,54.69c.05.16.19.62.45.46,0,0,0,0,0-.07a.36.36,0,0,0-.11-.16,1.23,1.23,0,0,1-.22-.29.08.08,0,0,0-.15.06Z" style="fill:#191956"/><path d="M35.09,54.71a1.62,1.62,0,0,0,.9,0,.1.1,0,0,0,0-.17,1.33,1.33,0,0,0-.92.07.07.07,0,0,0,0,.14Z" style="fill:#191956"/><path d="M33.44,54.52a3.47,3.47,0,0,1,.29-.38c.09-.1.21-.17.21-.32a.06.06,0,0,0,0-.06c-.33-.08-.54.45-.62.69s.12.15.17.07Z" style="fill:#191956"/><path d="M35.63,52.74a1.27,1.27,0,0,0,.54.28.07.07,0,0,0,.07-.09c-.07-.21-.32-.29-.49-.4s-.25.12-.12.21Z" style="fill:#191956"/><path d="M37.55,52.85c.13-.14.35-.31.34-.52,0,0,0-.09-.09-.07s-.3.3-.42.46.09.23.17.13Z" style="fill:#191956"/><path d="M37.65,51.12c.11-.1.25-.09.36-.17a0,0,0,0,0,0-.08.48.48,0,0,0-.47.12c-.09.08,0,.2.12.13Z" style="fill:#191956"/><path d="M39.2,49.37c.14.13.38.32.58.22,0,0,0-.08,0-.1s-.33-.14-.48-.26-.17.07-.11.14Z" style="fill:#191956"/><path d="M39.32,51.05a.39.39,0,0,1,.15.06.17.17,0,0,0,.17-.3.5.5,0,0,0-.32-.09.17.17,0,0,0,0,.33Z" style="fill:#191956"/><path d="M40.31,48.37a.25.25,0,0,0,.15.43s.08,0,.09-.09a.6.6,0,0,0-.1-.32s-.11-.07-.14,0Z" style="fill:#191956"/></g></svg>