<svg id="Layer_1" data-name="Layer 1" xmlns="http://www.w3.org/2000/svg" xmlns:xlink="http://www.w3.org/1999/xlink" viewBox="0 0 40.93 62.29"><defs><clipPath id="clip-path"><path d="M22.84,13.5a9.72,9.72,0,0,0-2.77,1.43,25.79,25.79,0,0,1-2.38,1.27c-.77.46-2.36,1.17-2.34-.29,0-.23-.58.19-.81.22a.72.72,0,0,0-.43.34c-.3.4-.52.63-.45,1.13a2.83,2.83,0,0,0,.61,1.27A10.51,10.51,0,0,1,15,20.28l1.23,2.4a2,2,0,0,0,.43.62.66.66,0,0,0,.7.14,1.33,1.33,0,0,0,.3-.28,9.09,9.09,0,0,1,1.68-1.6A31.76,31.76,0,0,1,24,19.29a5.89,5.89,0,0,0,3.42-3.66,3.65,3.65,0,0,0-.52-2.75.87.87,0,0,0-.36-.35.83.83,0,0,0-.54,0A26.85,26.85,0,0,0,22.84,13.5Z" style="fill:none"/></clipPath><clipPath id="clip-path-2"><path d="M13.2,16.82a3.76,3.76,0,0,1,2-2.29,2.81,2.81,0,0,1,1.26-.39,2.86,2.86,0,0,1,1.22.52,5.28,5.28,0,0,1,1.73,1.48,6.2,6.2,0,0,1-3.44-.6A7,7,0,0,1,13.2,16.82Z" style="fill:#b70027"/></clipPath><clipPath id="clip-path-3"><path d="M21.46,8.06c.22,1,.45,2.1.68,3.16a14,14,0,0,1,.44,3.39.19.19,0,0,0,.23.21c2.33-.48,4.38-1.84,6.6-2.71a.19.19,0,0,0,.07-.3A6.93,6.93,0,0,1,27.63,8a.2.2,0,0,0-.19-.16l-5.77.19C21.5,8.05,21.34,7.94,21.46,8.06Z" style="fill:#b70027"/></clipPath><clipPath id="clip-path-4"><path d="M18.08,48.68a9.4,9.4,0,0,0,2.78-1.43c.72-.53,1.61-.8,2.38-1.26s2.35-1.17,2.33.28c0,.23.58-.19.81-.22a.67.67,0,0,0,.43-.33c.3-.41.52-.64.45-1.13a3,3,0,0,0-.6-1.28,9.93,9.93,0,0,1-.74-1.41c-.41-.79-.82-1.6-1.24-2.4a2,2,0,0,0-.42-.62.69.69,0,0,0-.71-.13,1,1,0,0,0-.3.28,9.31,9.31,0,0,1-1.67,1.59,32.38,32.38,0,0,1-4.66,2.27c-1.54.77-3.05,2-3.41,3.67A3.7,3.7,0,0,0,14,49.31a.93.93,0,0,0,.36.35,1,1,0,0,0,.55,0A27.35,27.35,0,0,0,18.08,48.68Z" style="fill:none"/></clipPath><clipPath id="clip-path-5"><path d="M27.73,45.37a3.82,3.82,0,0,1-2,2.29,2.68,2.68,0,0,1-1.27.38,2.88,2.88,0,0,1-1.21-.51A5.33,5.33,0,0,1,21.49,46a6.18,6.18,0,0,1,3.44.61A7,7,0,0,1,27.73,45.37Z" style="fill:#b70027"/></clipPath><clipPath id="clip-path-6"><path d="M19.46,54.13C19.24,53.07,19,52,18.79,51a14,14,0,0,1-.44-3.4.19.19,0,0,0-.24-.2c-2.33.47-4.38,1.84-6.59,2.71a.19.19,0,0,0-.07.3,7,7,0,0,1,1.85,3.79.19.19,0,0,0,.19.16l5.76-.19C19.42,54.13,19.58,54.25,19.46,54.13Z" style="fill:#b70027"/></clipPath></defs><path d="M37.33,62.19H3.48A3.45,3.45,0,0,1,0,58.74V3.54A3.46,3.46,0,0,1,3.48.09H37.33A3.64,3.64,0,0,1,40.9,3.48v55.2A3.65,3.65,0,0,1,37.33,62.19Z" style="fill:#fff"/><path d="M31.93,36.24a23.61,23.61,0,0,1,2.48-4.19c1.32-1.7,1.26-4.8.52-5.61-2.15-2.35-2.87-1.41-5.6-3.5-.52-.4-1.78-1.54-2.3-2s.47-.75-.15-1.06a21.8,21.8,0,0,0-4.82-1.59,8.82,8.82,0,0,0-1.6-.29,7.17,7.17,0,0,0-1.53.11,19.61,19.61,0,0,0-6.65,3c-1.71,1.17-1,.52-5.6,3.65-2.2,1.5-1.92,5.31-1.61,6.1.85,2.17,4.3,4.55,4.46,5.55C15.37,37.38,31.93,38,31.93,36.24Z" style="fill:#f70032"/><path d="M9,26a23.61,23.61,0,0,1-2.48,4.19C5.17,31.91,5.23,35,6,35.82c2.15,2.35,2.87,1.41,5.6,3.5.52.4,1.77,1.54,2.3,2s-.47.75.15,1.07a21.77,21.77,0,0,0,4.82,1.58,8.82,8.82,0,0,0,1.6.29A7.17,7.17,0,0,0,22,44.1a19.61,19.61,0,0,0,6.65-3c1.71-1.17,1-.52,5.6-3.65,2.2-1.5,1.92-5.31,1.61-6.1-.85-2.17-4.29-4.54-4.46-5.55C25.53,24.88,9,24.25,9,26Z" style="fill:#f70032"/><path d="M17.27,24.47c.52.41,1.29.11,1.81-.3a3.55,3.55,0,0,1,1.66-1c.65-.07,1.25.33,1.9.4A1.85,1.85,0,0,0,24.12,23c.29-.29.49-.68.84-.88.59-.34,1.33,0,2-.09a2.66,2.66,0,0,0,1.45-.78.38.38,0,0,0,.1-.2c0-.14-.12-.26-.25-.33-.39-.19-.7-.35-1.86-1.68-.36-.41-.42-1.06-.86-1.39a2.54,2.54,0,0,0-1.36-.36,25.79,25.79,0,0,0-6.73.51,10.35,10.35,0,0,0-2.54.83,13.11,13.11,0,0,0-1.71,1.15c-1,.78-2.62,1.7-3.18,2.87a3.1,3.1,0,0,1,2.22-.35c.3.07.75,0,.91.29a4.64,4.64,0,0,1,.26.65,1.12,1.12,0,0,0,1.26.6c.43-.11.79-.48,1.23-.47a1.38,1.38,0,0,1,1,.7A2.12,2.12,0,0,0,17.27,24.47Z" style="fill:#990028"/><path d="M23.78,8.74a2.76,2.76,0,0,0-2.27-.92,9.84,9.84,0,0,0-4.39.31,2.18,2.18,0,0,0-1.25,1,5.44,5.44,0,0,0-.25.9,6.42,6.42,0,0,1-.74,1.54l-1.71,2.83a.34.34,0,0,0-.07.22c0,.18.28.21.47.18l2-.32c0,.33-.3.61-.33.95-.07.63-.31,1.12,0,1.68a2.87,2.87,0,0,0,2.45,1.1,4.74,4.74,0,0,0,2.1-1,15.34,15.34,0,0,0,3.24-3.39,5.09,5.09,0,0,0,.72-1.34,6.57,6.57,0,0,0,.26-2.21A2.73,2.73,0,0,0,23.78,8.74Z" style="fill:#ffd6a1"/><path d="M22.84,13.5a9.72,9.72,0,0,0-2.77,1.43,25.79,25.79,0,0,1-2.38,1.27c-.77.46-2.36,1.17-2.34-.29,0-.23-.58.19-.81.22a.72.72,0,0,0-.43.34c-.3.4-.52.63-.45,1.13a2.83,2.83,0,0,0,.61,1.27A10.51,10.51,0,0,1,15,20.28l1.23,2.4a2,2,0,0,0,.43.62.66.66,0,0,0,.7.14,1.33,1.33,0,0,0,.3-.28,9.09,9.09,0,0,1,1.68-1.6A31.76,31.76,0,0,1,24,19.29a5.89,5.89,0,0,0,3.42-3.66,3.65,3.65,0,0,0-.52-2.75.87.87,0,0,0-.36-.35.83.83,0,0,0-.54,0A26.85,26.85,0,0,0,22.84,13.5Z" style="fill:#b70027"/><path d="M16.61,7.48a.8.8,0,0,1,0-.31,8.09,8.09,0,0,1,.16-.83c.21-1,.4-2.19,1.26-2.8A3.7,3.7,0,0,1,19,3.11c.73-.25,1.56-.57,2.29-.82-.12-.18-.16-.34-.27-.51a.32.32,0,0,1,0-.35,4.86,4.86,0,0,0,.45-.77.12.12,0,0,1,.22,0,5.5,5.5,0,0,0,.39.72.42.42,0,0,1,.05.39,1.83,1.83,0,0,0-.18.53S23.57,2.81,24,3a4.5,4.5,0,0,1,2.19,1.31,4.56,4.56,0,0,1,.61,1.23l.49,1.32L23.65,7c-.5,0-1,0-1.49.06s-.76,0-1.14,0c-1.42.06-2.82.52-4.24.46a.18.18,0,0,1-.13,0S16.55,7.49,16.61,7.48Z" style="fill:#990028"/><path d="M17.27,10.9a2.78,2.78,0,0,1,1.62-.84,1.81,1.81,0,0,1,1.88.6,3.62,3.62,0,0,1-2.57.57A2.31,2.31,0,0,1,17.27,10.9Z" style="fill:#fff"/><path d="M18.55,10.37a.67.67,0,0,0-.06.44.59.59,0,0,0,.42.42.54.54,0,0,0,.62-.26.56.56,0,0,0-.09-.66.32.32,0,0,0-.12-.11c-.17-.07-.18-.07,0,0l.19.19a0,0,0,0,0,0,0,.54.54,0,0,0-.92,0Z" style="fill:#0c0a35"/><g style="clip-path:url(#clip-path)"><path d="M14.5,14.94c-.05,1-.19,2-.19,3s.12,2,.15,3c0,.08.14.11.15,0a11.68,11.68,0,0,0,.15-2.64c0-1.11,0-2.21,0-3.32a.12.12,0,0,0-.24,0Z" style="fill:#0c0a35"/><path d="M15.52,14.68c0,.7-.18,1.38-.22,2.07,0,.86,0,1.71,0,2.57,0,1.49-.4,3.18,0,4.64a.1.1,0,0,0,.2,0,23.49,23.49,0,0,0,.22-4.28c0-1.67,0-3.33,0-5,0-.11-.16-.1-.17,0Z" style="fill:#0c0a35"/><path d="M16.15,14.93a46.78,46.78,0,0,0,.51,11c0,.1.15.06.16,0a49.61,49.61,0,0,0-.24-5.44c-.06-1.84,0-3.67-.23-5.51,0-.12-.2-.13-.2,0Z" style="fill:#0c0a35"/><path d="M17.14,14.76a47.82,47.82,0,0,0,.51,11c0,.1.15.07.16,0a47.25,47.25,0,0,0-.24-5.44c-.05-1.84,0-3.67-.23-5.5a.1.1,0,1,0-.2,0Z" style="fill:#0c0a35"/><path d="M17.79,14.79a29.64,29.64,0,0,0,.35,5.87,15.42,15.42,0,0,0,1,4.82.08.08,0,0,0,.15,0c-.12-1.7-.44-3.43-.64-5.13s-.38-3.7-.66-5.54c0-.09-.15-.06-.16,0Z" style="fill:#0c0a35"/><path d="M18.71,13.86a10.07,10.07,0,0,0-.1,2.69,26.3,26.3,0,0,0,.26,3.07c.17,1.11.42,2.2.61,3.31.13.74,0,1.65.55,2.25a.11.11,0,0,0,.18-.08c-.22-1.64-.43-3.24-.74-4.87-.22-1.09-.33-2.2-.45-3.3a16.68,16.68,0,0,1-.24-3.06,0,0,0,0,0-.07,0Z" style="fill:#0c0a35"/><path d="M19.26,13.79a14.22,14.22,0,0,0,0,2.69c.1.8.29,1.58.44,2.37a32.66,32.66,0,0,0,1.42,5.69c0,.07.17.07.16,0a44,44,0,0,0-1.06-5.42c-.18-.89-.4-1.77-.58-2.66s-.14-1.77-.3-2.64a0,0,0,0,0-.06,0Z" style="fill:#0c0a35"/><path d="M20.26,13.61c-.41,1.31.15,2.91.49,4.18.47,1.73,1.05,3.44,1.51,5.17,0,.09.17.1.18,0a3.14,3.14,0,0,0-.18-1.51c-.21-.8-.43-1.6-.66-2.39s-.51-1.63-.74-2.45a6.11,6.11,0,0,1-.46-3,.07.07,0,0,0-.14,0Z" style="fill:#0c0a35"/><path d="M21.06,12.59a4.12,4.12,0,0,0,0,1.88,19.69,19.69,0,0,0,.75,3.12,44.45,44.45,0,0,0,2,5.61c0,.09.17,0,.17,0a10.17,10.17,0,0,0-.59-2.34c-.26-.91-.6-1.79-.92-2.68s-.59-1.8-.83-2.72a9.14,9.14,0,0,1-.49-2.82s-.08-.06-.1,0Z" style="fill:#0c0a35"/><path d="M21.84,12.53a15.61,15.61,0,0,0,.92,4.53A29.27,29.27,0,0,0,24.51,22c0,.1.18,0,.16-.07-.48-3.22-2.39-6.13-2.67-9.4a.08.08,0,0,0-.16,0Z" style="fill:#0c0a35"/><path d="M23.16,12.26a12.72,12.72,0,0,0,1,4.78c.27.76.62,1.49.9,2.25.21.59.19,1.22.62,1.71.08.09.2,0,.18-.11-.48-3-2.06-5.63-2.53-8.65,0-.08-.14-.06-.14,0Z" style="fill:#0c0a35"/><path d="M24.38,11.54c-.3,3.05,1.24,5.65,2.47,8.3,0,.08.15,0,.14-.06a19.62,19.62,0,0,0-1.47-4,24,24,0,0,1-1-4.27.05.05,0,0,0-.1,0Z" style="fill:#0c0a35"/><path d="M25.52,11.53c-.31,1.23.31,2.78.71,3.94a15.33,15.33,0,0,0,1.86,4.29c.05.07.21.07.19-.05A16.62,16.62,0,0,0,27,16c-.27-.67-.5-1.35-.73-2a5.84,5.84,0,0,1-.56-2.44c0-.1-.15-.12-.17,0Z" style="fill:#0c0a35"/><path d="M26.53,11.34c-.19,2.43,1.57,4.7,2.53,6.79,0,.09.15,0,.14-.05A9.29,9.29,0,0,0,28,15.16a12.54,12.54,0,0,1-1.34-3.84c0-.08-.13-.06-.13,0Z" style="fill:#0c0a35"/></g><path d="M13.2,16.82a3.76,3.76,0,0,1,2-2.29,2.81,2.81,0,0,1,1.26-.39,2.86,2.86,0,0,1,1.22.52,5.28,5.28,0,0,1,1.73,1.48,6.2,6.2,0,0,1-3.44-.6A7,7,0,0,1,13.2,16.82Z" style="fill:#b70027"/><g style="clip-path:url(#clip-path-2)"><path d="M14.34,13.07A18.13,18.13,0,0,0,13,18.57a.09.09,0,0,0,.17,0c.47-1.83.78-3.67,1.36-5.48,0-.1-.12-.14-.16,0Z" style="fill:#0c0a35"/><path d="M15.07,13a15.06,15.06,0,0,0-1.46,6.11.1.1,0,0,0,.18.05,13.14,13.14,0,0,0,.56-2.56,15.61,15.61,0,0,1,.86-3.52.08.08,0,0,0-.14-.08Z" style="fill:#0c0a35"/><path d="M15.87,12.57a30,30,0,0,0-.88,3,24.87,24.87,0,0,0-.72,3.07c0,.11.15.14.2.05,1-1.71,1.21-4.12,1.55-6.06a.08.08,0,1,0-.15,0Z" style="fill:#0c0a35"/><path d="M16.21,12.35a34.18,34.18,0,0,0,.33,5.9c0,.1.16.07.17,0a34.06,34.06,0,0,0-.32-5.88.09.09,0,1,0-.18,0Z" style="fill:#0c0a35"/><path d="M17,12.46c0,1.23.14,2.43.23,3.66a5.54,5.54,0,0,0,.62,2.66.09.09,0,0,0,.17-.07,23.52,23.52,0,0,1-.36-2.89c-.1-1.13-.34-2.24-.47-3.36,0-.11-.19-.12-.19,0Z" style="fill:#0c0a35"/><path d="M17.71,13.21a15.94,15.94,0,0,0,.51,3.14,12.8,12.8,0,0,0,.58,3.22.1.1,0,0,0,.19-.05c0-2.15-.92-4.19-1.06-6.31a.11.11,0,0,0-.22,0Z" style="fill:#0c0a35"/><path d="M18.59,13.77a15.83,15.83,0,0,0,.51,3.14,12.8,12.8,0,0,0,.58,3.22c0,.09.19.05.19-.05,0-2.15-.92-4.19-1.06-6.31a.11.11,0,0,0-.22,0Z" style="fill:#0c0a35"/></g><path d="M21.46,8.06c.22,1,.45,2.1.68,3.16a14,14,0,0,1,.44,3.39.19.19,0,0,0,.23.21c2.33-.48,4.38-1.84,6.6-2.71a.19.19,0,0,0,.07-.3A6.93,6.93,0,0,1,27.63,8a.2.2,0,0,0-.19-.16l-5.77.19C21.5,8.05,21.34,7.94,21.46,8.06Z" style="fill:#b70027"/><g style="clip-path:url(#clip-path-3)"><path d="M21.75,7.28a49.71,49.71,0,0,0,1,5.38C23,14,22.92,16.1,24,17a.12.12,0,0,0,.2-.12c-.11-.67-.44-1.31-.61-2s-.31-1.6-.46-2.39-.37-1.84-.56-2.75S22,8.12,21.85,7.27c0-.06-.11,0-.1,0Z" style="fill:#0c0a35"/><path d="M22.51,6.94A20.36,20.36,0,0,0,23.4,12c.43,1.58.4,3.59,1.31,5A.14.14,0,0,0,25,17a3,3,0,0,0-.3-1.55c-.29-.92-.39-1.91-.6-2.84A42,42,0,0,1,22.7,6.94a.1.1,0,0,0-.19,0Z" style="fill:#0c0a35"/><path d="M23.36,6.71c.43,1.74.62,3.51,1.19,5.23.3.9.55,1.82.82,2.73a2.37,2.37,0,0,0,.78,1.39c.07,0,.18,0,.15-.11-.53-1.47-.84-3-1.34-4.5s-.63-3.4-1.42-4.82a.1.1,0,0,0-.18.08Z" style="fill:#0c0a35"/><path d="M24.57,6.51a12.44,12.44,0,0,0,.85,4.78c.3.88.61,1.75.88,2.63a8,8,0,0,0,.93,2.31.13.13,0,0,0,.24-.1,25.29,25.29,0,0,0-1.41-4.66,27.72,27.72,0,0,1-1.29-5c0-.11-.19-.08-.2,0Z" style="fill:#0c0a35"/><path d="M25.61,6.38A17.38,17.38,0,0,0,27,11.89c.42,1.21.3,3.41,1.47,4.18a.1.1,0,0,0,.14-.11c-.14-.68-.4-1.33-.54-2a16.35,16.35,0,0,0-.56-2.19A24.17,24.17,0,0,1,25.9,6.38c0-.18-.29-.19-.29,0Z" style="fill:#0c0a35"/><path d="M26.82,6.36a7.9,7.9,0,0,0,.72,4.35c.32.79.66,1.56,1,2.35a7.61,7.61,0,0,0,1.06,2.29.12.12,0,0,0,.2-.08c.13-1.23-.88-2.82-1.37-3.92-.67-1.52-1.54-3.25-1.36-5,0-.13-.21-.16-.23,0Z" style="fill:#0c0a35"/></g><path d="M14.51,6.46A12.37,12.37,0,0,0,15,4.36c0-.07.06-.17.14-.14l0,0A28.77,28.77,0,0,1,17.4,7.15a0,0,0,0,0,.08,0l1.73-3s0-.07.08-.06a17,17,0,0,1,1.25,2.25,1.16,1.16,0,0,0,.51.63.11.11,0,0,0,.12,0A26.44,26.44,0,0,0,23.3,4.22l1.41,2.51c0,.06.09.14.16.11a.1.1,0,0,0,.06,0C25.65,6,26.29,4.93,27,4.05a0,0,0,0,1,.08,0,2,2,0,0,0,.29.56c.29.47.87,1.65.94,1.73a.46.46,0,0,1,.06.5c-.12.26-.24,1.53-.55,1.72a2.1,2.1,0,0,1-.75.06c-2.17-.15-4.35.27-6.52.2-.71,0-1.42-.11-2.12-.08a11.88,11.88,0,0,0-2.64.46,11.58,11.58,0,0,1-1.5-1.11C13.85,7.71,14.33,6.9,14.51,6.46Z" style="fill:#f70032"/><path d="M14.78,2.4c0-.08.11-.19.19-.16s0,0,.07,0a6.26,6.26,0,0,1,.6.76,1.28,1.28,0,0,1,.27.62c0,.12-.22.28-.37.48a4.14,4.14,0,0,1-.32.4c-.12.09-.27,0-.39-.1L14.21,4c-.05-.05-.18-.23-.16-.29C14.11,3.43,14.62,2.78,14.78,2.4Z" style="fill:#b70027"/><path d="M15,2.93s.05-.09.09-.08l0,0a2.69,2.69,0,0,1,.3.37.65.65,0,0,1,.12.3c0,.06-.1.13-.18.24L15.16,4c-.06,0-.13,0-.19,0l-.3-.25s-.09-.1-.08-.14S14.87,3.11,15,2.93Z" style="fill:#0c0a35"/><path d="M19,2.17c0-.08.11-.19.19-.15a.18.18,0,0,1,.07,0,5.48,5.48,0,0,1,.6.75,1.32,1.32,0,0,1,.27.62c0,.12-.22.28-.37.49s-.28.36-.32.39-.27,0-.39-.1l-.62-.5c-.05-.05-.18-.22-.16-.29C18.36,3.2,18.87,2.55,19,2.17Z" style="fill:#b70027"/><path d="M19.2,2.7s.05-.09.09-.08l0,0a3.47,3.47,0,0,1,.3.37.77.77,0,0,1,.13.3c0,.06-.11.13-.18.24a2.44,2.44,0,0,1-.16.19c-.06,0-.13,0-.19,0l-.3-.25s-.09-.1-.08-.13S19.12,2.88,19.2,2.7Z" style="fill:#0c0a35"/><path d="M22.93,2.32c0-.08.11-.19.19-.16a.18.18,0,0,1,.07,0,6.26,6.26,0,0,1,.6.76,1.28,1.28,0,0,1,.27.61c0,.13-.22.28-.37.49a3.87,3.87,0,0,1-.32.4c-.11.08-.27,0-.38-.1l-.63-.51c-.05,0-.18-.22-.16-.28C22.26,3.35,22.77,2.7,22.93,2.32Z" style="fill:#b70027"/><path d="M23.1,2.85s0-.09.09-.08l0,0a3.47,3.47,0,0,1,.3.37.84.84,0,0,1,.13.3c0,.07-.11.14-.18.24l-.16.2c-.06,0-.13,0-.19,0l-.3-.25s-.09-.11-.08-.14S23,3,23.1,2.85Z" style="fill:#0c0a35"/><path d="M26.69,2.24c0-.08.1-.19.19-.15a.18.18,0,0,1,.07.05,5.48,5.48,0,0,1,.6.75,1.23,1.23,0,0,1,.26.62c0,.12-.21.28-.36.49s-.28.36-.32.39-.28,0-.39-.1l-.62-.5c-.05,0-.18-.22-.16-.29C26,3.27,26.53,2.62,26.69,2.24Z" style="fill:#b70027"/><path d="M26.85,2.77s.06-.09.1-.07l0,0a2.06,2.06,0,0,1,.29.37.56.56,0,0,1,.13.3c0,.06-.1.14-.18.24a1.38,1.38,0,0,1-.15.19c-.06,0-.14,0-.19,0l-.3-.24s-.09-.11-.08-.15S26.78,3,26.85,2.77Z" style="fill:#0c0a35"/><path d="M19.81,11.6l-.25.11a1.12,1.12,0,0,0-.39.39,1.08,1.08,0,0,0-.14.53,1.06,1.06,0,0,0,1.58.91l0,0a1.08,1.08,0,0,0,.48-.61,1.06,1.06,0,0,0-.11-.8,1.18,1.18,0,0,0-.4-.4l.48.62h0a1.14,1.14,0,0,0-.48-.62,1,1,0,0,0-.79-.1Z" style="fill:#f70032"/><path d="M14.91,14.59c.65-.11,1.85-.05,2.16-.81a.63.63,0,0,0-.25-.87.72.72,0,0,0-.94.26c0,.06,0,.15.09.15s.49-.13.7,0,.09.53-.07.64a2.23,2.23,0,0,1-.66.22,9.23,9.23,0,0,0-1,.35,0,0,0,1,0,0,.08Z" style="fill:#0c0a35"/><path d="M20.86,9.41c-.6-.55-3.61-1-3.62.28a.23.23,0,0,0,.16.21c.39.13.86-.16,1.25-.24a4.84,4.84,0,0,1,2,0,.17.17,0,0,0,.17-.29Z" style="fill:#0c0a35"/><path d="M15.1,5.15a3.29,3.29,0,0,0,0,1.25,7.67,7.67,0,0,1,.19.93.45.45,0,0,0,.9,0,1.94,1.94,0,0,0-.28-.94c-.19-.42-.24-.88-.46-1.28a.19.19,0,0,0-.34,0Z" style="fill:#0c0a35"/><path d="M19,5.06a2.29,2.29,0,0,0-.27,1,4.24,4.24,0,0,0-.14,1.18c.09.53,1,.41.95-.13a11.43,11.43,0,0,0-.17-2A.21.21,0,0,0,19,5.06Z" style="fill:#0c0a35"/><path d="M23.05,5.27a17,17,0,0,0-.53,1.85c-.08.69,1.16.69,1.07,0a9.49,9.49,0,0,0-.09-1.85.23.23,0,0,0-.45,0Z" style="fill:#0c0a35"/><path d="M26.87,5.23a2,2,0,0,0-.4.73c-.11.32-.29.6-.37.93-.14.6.79.86.93.26.07-.3.15-.59.19-.89a7.44,7.44,0,0,1,0-.81.23.23,0,0,0-.39-.22Z" style="fill:#0c0a35"/><path d="M15.61,8.71a2.75,2.75,0,0,0,.17.29c.09.17.35,0,.25-.15a1.7,1.7,0,0,1-.15-.22c-.07-.16-.33-.09-.27.08Z" style="fill:#990028"/><path d="M16.13,8.44a.43.43,0,0,0,0,.45.23.23,0,0,0,.24.1.22.22,0,0,0,.12-.35.79.79,0,0,0-.19-.22.12.12,0,0,0-.19,0Z" style="fill:#990028"/><path d="M16.69,8.3a1.09,1.09,0,0,0,0,.25c0,.1.06.21.16.25a.18.18,0,0,0,.27-.1.53.53,0,0,0-.31-.52c-.08,0-.15.05-.16.12Z" style="fill:#990028"/><path d="M17.3,8.18c0,.18-.06.4.1.52a.18.18,0,0,0,.22,0,.28.28,0,0,0,0-.34.52.52,0,0,0-.19-.2.09.09,0,0,0-.14,0Z" style="fill:#990028"/><path d="M18,8.07c-.09,0-.13.13-.15.22a.31.31,0,0,0,.12.37.2.2,0,0,0,.26-.07.44.44,0,0,0,0-.34c0-.09-.1-.21-.22-.18Z" style="fill:#990028"/><path d="M18.58,8c-.12.05-.13.22-.14.33s.14.4.33.29.13-.27.08-.41-.13-.27-.27-.21Z" style="fill:#990028"/><path d="M19.21,8a.4.4,0,0,0,0,.63.17.17,0,0,0,.18,0c.14-.1.13-.23.09-.39s-.12-.28-.24-.24Z" style="fill:#990028"/><path d="M19.75,8a.48.48,0,0,0,0,.54.22.22,0,0,0,.4-.17A.91.91,0,0,0,19.94,8a.14.14,0,0,0-.19,0Z" style="fill:#990028"/><path d="M20.38,8a.29.29,0,0,0-.12.27.41.41,0,0,0,.09.34.21.21,0,0,0,.33,0,.5.5,0,0,0,0-.38c0-.13-.16-.25-.29-.19Z" style="fill:#990028"/><path d="M21,8.05a.42.42,0,0,0-.06.58.16.16,0,0,0,.23,0,.31.31,0,0,0,.06-.31,1.58,1.58,0,0,0-.13-.26.09.09,0,0,0-.1,0Z" style="fill:#990028"/><path d="M21.45,8.13a.51.51,0,0,0,0,.45.19.19,0,0,0,.34,0,.66.66,0,0,0-.12-.43c0-.1-.17-.06-.2,0Z" style="fill:#990028"/><path d="M22.11,8.05c-.08,0-.11.15-.13.23a.38.38,0,0,0,.14.39.2.2,0,0,0,.29-.12c.05-.12-.09-.59-.3-.5Z" style="fill:#990028"/><path d="M22.72,8.09a.47.47,0,0,0,0,.51.2.2,0,0,0,.36,0,.42.42,0,0,0-.22-.49.12.12,0,0,0-.11,0Z" style="fill:#990028"/><path d="M23.39,8.07a.34.34,0,0,0,0,.49.14.14,0,0,0,.19-.05.38.38,0,0,0-.14-.45.06.06,0,0,0-.09,0Z" style="fill:#990028"/><path d="M24,8c-.11.13-.16.45,0,.55a.12.12,0,0,0,.13,0c.11-.08.1-.17.08-.3A.44.44,0,0,0,24,8,.07.07,0,0,0,24,8Z" style="fill:#990028"/><path d="M24.51,8a1,1,0,0,0,0,.18.34.34,0,0,0,.07.32.19.19,0,0,0,.26,0,.32.32,0,0,0,.07-.35.36.36,0,0,0-.21-.24.13.13,0,0,0-.15.09Z" style="fill:#990028"/><path d="M25.15,7.92s-.06.14-.08.21a.33.33,0,0,0,.08.33.16.16,0,0,0,.26-.07.77.77,0,0,0,0-.26.74.74,0,0,0-.07-.21.08.08,0,0,0-.16,0Z" style="fill:#990028"/><path d="M25.83,7.81c-.18.07-.18.31-.16.47s.08.11.14.13a.16.16,0,0,0,.15,0c.07,0,.09-.1.1-.17a.52.52,0,0,0-.06-.3s-.1-.14-.17-.11Z" style="fill:#990028"/><path d="M26.4,7.91c0,.13-.18.36,0,.48a.13.13,0,0,0,.15,0c.19-.09.12-.39,0-.54s-.13,0-.16,0Z" style="fill:#990028"/><path d="M27,7.86c-.12.13-.27.4-.1.55a.17.17,0,0,0,.19,0c.17-.11.15-.4,0-.56a.08.08,0,0,0-.13,0Z" style="fill:#990028"/><path d="M27.52,8a1,1,0,0,0-.16.33.18.18,0,0,0,.34.09.61.61,0,0,0,0-.4.09.09,0,0,0-.15,0Z" style="fill:#990028"/><path d="M15.45,7.29a.24.24,0,0,0,.46-.12c-.08-.3-.55-.16-.46.12Z" style="fill:#f70032"/><path d="M15.54,6.84a.2.2,0,0,0,0-.39.2.2,0,0,0,0,.39Z" style="fill:#f70032"/><path d="M15.42,6.26a.14.14,0,0,0,0-.28.14.14,0,0,0,0,.28Z" style="fill:#f70032"/><path d="M19.12,7.36a.27.27,0,0,0,0-.53.27.27,0,0,0,0,.53Z" style="fill:#f70032"/><path d="M19.13,6.7a.18.18,0,0,0,0-.36.18.18,0,0,0,0,.36Z" style="fill:#f70032"/><path d="M19.16,6.2a.12.12,0,0,0,0-.23.12.12,0,0,0,0,.23Z" style="fill:#f70032"/><path d="M23.05,7.41a.25.25,0,0,0,0-.5.25.25,0,0,0,0,.5Z" style="fill:#f70032"/><path d="M23.16,6.7a.17.17,0,0,0,0-.33.17.17,0,0,0,0,.33Z" style="fill:#f70032"/><path d="M23.18,6.2c.11,0,.11-.19,0-.19a.1.1,0,0,0,0,.19Z" style="fill:#f70032"/><path d="M26.6,7.17a.22.22,0,0,0,0-.43.22.22,0,0,0,0,.43Z" style="fill:#f70032"/><path d="M26.78,6.63a.16.16,0,0,0,0-.31.16.16,0,0,0,0,.31Z" style="fill:#f70032"/><path d="M26.92,6h0c-.12,0-.12.2,0,.13h0c.06,0,0-.11,0-.13Z" style="fill:#f70032"/><path d="M13.85,20c-.34,0-.58.29-.81.51a5,5,0,0,0-.89.94c-.23.4.35.88.65.51A11.19,11.19,0,0,0,14,20.26a.17.17,0,0,0-.15-.25Z" style="fill:#f70032"/><path d="M14.74,21.36a1.35,1.35,0,0,1-.26.28,3.34,3.34,0,0,0-.35.4c-.21.27-.52.66-.38,1a.47.47,0,0,0,.89,0,8.3,8.3,0,0,1,.58-1.42c.16-.32-.32-.6-.48-.28Z" style="fill:#f70032"/><path d="M18.26,22.9a1.16,1.16,0,0,0-.08.88.35.35,0,0,0,.69-.09,1.47,1.47,0,0,0-.31-.79.17.17,0,0,0-.3,0Z" style="fill:#f70032"/><path d="M22.06,20.8c-.11.46.19.84.3,1.27s.41,1.06,1,.93a.53.53,0,0,0,.37-.65,1.12,1.12,0,0,0-.2-.38c-.08-.12-.13-.26-.21-.38a4.22,4.22,0,0,0-.85-.89.25.25,0,0,0-.41.1Z" style="fill:#f70032"/><path d="M25,19.43a1.78,1.78,0,0,0,.42,1.08,4.18,4.18,0,0,0,1,1.1.58.58,0,0,0,.58-1,11.48,11.48,0,0,1-.92-.78c-.25-.22-.57-.55-.93-.55a.19.19,0,0,0-.19.15Z" style="fill:#f70032"/><path d="M18.64,24.93a.32.32,0,1,0-.31-.32.32.32,0,0,0,.31.32Z" style="fill:#0c0a35"/><path d="M13.85,24.12a.32.32,0,0,0,0-.64.32.32,0,1,0,0,.64Z" style="fill:#0c0a35"/><path d="M10.25,22.85a.32.32,0,0,0,.32-.32.33.33,0,0,0-.32-.32.32.32,0,0,0-.32.32.32.32,0,0,0,.32.32Z" style="fill:#0c0a35"/><path d="M23.53,23.87a.42.42,0,1,0-.41-.41.42.42,0,0,0,.41.41Z" style="fill:#0c0a35"/><path d="M27,22.54a.4.4,0,0,0,.4-.11.42.42,0,0,0-.08-.65.41.41,0,0,0-.57.15.42.42,0,0,0,.25.61Z" style="fill:#0c0a35"/><path d="M28.58,21.49a.4.4,0,0,0,.4-.11.41.41,0,1,0-.4.11Z" style="fill:#0c0a35"/><path d="M19.48,23.13a.14.14,0,0,0-.09.08.17.17,0,0,0,.24.23h-.11a.18.18,0,0,0,.23-.17.18.18,0,0,0-.27-.15Z" style="fill:#f70032"/><path d="M20.22,23.1a.17.17,0,0,0,0-.34.17.17,0,0,0,0,.34Z" style="fill:#f70032"/><path d="M21,23a.2.2,0,0,0,0-.39A.2.2,0,0,0,21,23Z" style="fill:#f70032"/><path d="M21.63,23.05h0a.15.15,0,0,0,.2-.15.16.16,0,0,0-.2-.15h0a.15.15,0,0,0,0,.28Z" style="fill:#f70032"/><path d="M22.09,23v0a.2.2,0,0,0,0,.23h0a.18.18,0,0,0,.3-.08.19.19,0,0,0,0-.13.18.18,0,0,0-.33-.05Z" style="fill:#f70032"/><path d="M24.13,22.58a.14.14,0,1,0,0-.28.14.14,0,0,0,0,.28Z" style="fill:#f70032"/><path d="M24.48,22.14a.17.17,0,0,0,0-.33.17.17,0,0,0,0,.33Z" style="fill:#f70032"/><path d="M25.17,21.78h0c.13,0,.26-.14.14-.25a.39.39,0,0,0-.11-.06c-.09,0-.2.06-.2.15a.17.17,0,0,0,.2.16Z" style="fill:#f70032"/><path d="M25.83,21.83a.17.17,0,0,0,0-.34.17.17,0,0,0,0,.34Z" style="fill:#f70032"/><path d="M28,21.14a.16.16,0,0,0,0-.31.16.16,0,0,0,0,.31Z" style="fill:#f70032"/><path d="M17.9,24.2a.11.11,0,0,0,0-.22c-.13,0-.13.22,0,.22Z" style="fill:#f70032"/><path d="M17.25,24v0a.18.18,0,0,0,.3-.12.18.18,0,0,0-.3-.13v0a.14.14,0,0,0,0,.21Z" style="fill:#f70032"/><path d="M15.81,23.14a.16.16,0,0,0,0-.32.16.16,0,0,0,0,.32Z" style="fill:#f70032"/><path d="M15.12,23.23a.2.2,0,0,0,0-.39.2.2,0,0,0,0,.39Z" style="fill:#f70032"/><path d="M13.43,22.34a.16.16,0,0,0,0-.31.16.16,0,0,0,0,.31Z" style="fill:#f70032"/><path d="M11.51,21.66h0l.14-.05h0a.2.2,0,0,0-.14.34.2.2,0,0,0,.34-.14.24.24,0,0,0-.07-.16.18.18,0,0,0-.25,0Z" style="fill:#f70032"/><path d="M29.36,27.12a8,8,0,0,0,1.23-.94c.38-.33.23-1.17.52-1.85.05-.12.21-.13.33-.14A4.34,4.34,0,0,1,35,25.79a5.48,5.48,0,0,1,1.12,3.46,4.19,4.19,0,0,1-.17,1.27c-.14.43-1.45,1.13-1.63,1.55a5.42,5.42,0,0,0,0,3.62c-1.3.28-1.74-.1-3.07-.17a.73.73,0,0,1-.32-.06.67.67,0,0,1-.28-.58c0-.65.25-1.33,0-1.92s-1.68-.46-2.78-1.66a2.2,2.2,0,0,1-.33-2.41A4.25,4.25,0,0,1,29.36,27.12Z" style="fill:#990028"/><path d="M30.2,29.75A2.76,2.76,0,0,1,30.09,31c-.11.47-.13.55-.25.52s-.05,0-.08,0l-1.17-.84a.84.84,0,0,1-.38-.43.79.79,0,0,1,.1-.47l.54-1.3a.59.59,0,0,1,0-.08.27.27,0,0,1,.33,0A4.86,4.86,0,0,1,30.2,29.75Z" style="fill:#0c0a35"/><path d="M31,30.78a2.07,2.07,0,0,1-.49-1.33c0-.1.39-.85.63-1.31a.23.23,0,0,1,.39,0c.26.37.44.94.68,1.28a.24.24,0,0,1,0,.18c-.15.73-.3,1.17-.45,1.93h0a.22.22,0,0,1-.43,0A5.33,5.33,0,0,0,31,30.78Z" style="fill:#0c0a35"/><path d="M32.89,31.23,32.77,30c0-.11,0-.22,0-.33,0-.41.7-1.13,1.07-1.44a.18.18,0,0,1,.29.09c.12.34.21.74.32,1.1a.82.82,0,0,1-.15.74,16.6,16.6,0,0,0-1.12,1.39.12.12,0,0,1-.21,0A1,1,0,0,1,32.89,31.23Z" style="fill:#0c0a35"/><path d="M29.13,29.54h0a.37.37,0,0,0,0,.63.35.35,0,0,0,.37,0,.37.37,0,0,0,.18-.31s0,0,0,0a.36.36,0,0,0-.54-.31Z" style="fill:#f70032"/><path d="M31.37,30.05A.36.36,0,1,0,31,29.7a.36.36,0,0,0,.35.35Z" style="fill:#f70032"/><path d="M33.62,30.11a.4.4,0,0,0,0-.79.4.4,0,0,0,0,.79Z" style="fill:#f70032"/><path d="M29.3,28.21a.3.3,0,0,0,0-.59.3.3,0,0,0,0,.59Z" style="fill:#b70027"/><path d="M31.28,27.92a.3.3,0,0,0,0-.59.3.3,0,0,0,0,.59Z" style="fill:#b70027"/><path d="M33.88,28.07a.38.38,0,1,0,0-.76.38.38,0,0,0,0,.76Z" style="fill:#b70027"/><path d="M30,32.12a.26.26,0,0,0,0-.52.26.26,0,0,0,0,.52Z" style="fill:#b70027"/><path d="M31.64,32.41a.28.28,0,0,0,0-.56.28.28,0,0,0,0,.56Z" style="fill:#b70027"/><path d="M33,32.33a.32.32,0,0,0,0-.63.32.32,0,0,0,0,.63Z" style="fill:#b70027"/><path d="M21.13,2.89a1.38,1.38,0,0,1,.19.28c.05.06.11.17.2.12a.12.12,0,0,0,.05-.09c0-.18-.22-.32-.37-.41a.06.06,0,0,0-.07.1Z" style="fill:#b70027"/><path d="M20.71,3.92a.46.46,0,0,0,.11.39,0,0,0,0,0,.08,0A.44.44,0,0,0,21,4.15a1.57,1.57,0,0,0,0-.23.1.1,0,0,0-.2,0Z" style="fill:#b70027"/><path d="M21.72,4.29c0,.12.09.29.22.33a0,0,0,0,0,.06,0c0-.11-.1-.2-.14-.31a.07.07,0,0,0-.14,0Z" style="fill:#b70027"/><path d="M20.85,5.22c.07.13.15.32.29.39s.22,0,.18-.13A.86.86,0,0,0,21,5.11c-.07-.05-.15,0-.11.11Z" style="fill:#b70027"/><path d="M18,4.47c.13,0,.27,0,.39,0a0,0,0,0,0,0-.07.64.64,0,0,0-.41,0c-.05,0,0,.1,0,.08Z" style="fill:#b70027"/><path d="M17.79,5.45a.69.69,0,0,0-.24.21c-.05.06-.14.2-.06.27s.32-.34.37-.41a.05.05,0,0,0-.07-.07Z" style="fill:#b70027"/><path d="M24.43,4.43a.15.15,0,0,0-.13,0h0c.05,0,.09,0,.12,0Z" style="fill:#b70027"/><path d="M24.4,4.35l.29.07.13,0s.07,0,.11,0,0,0,0,0c-.07-.19-.37-.17-.53-.17a.07.07,0,0,0,0,.14Z" style="fill:#b70027"/><path d="M25.45,4.1a1,1,0,0,0,0,.35c0,.09.05.28.18.29s.12-.13.09-.21a1.89,1.89,0,0,1-.1-.41c0-.08-.16-.12-.17,0Z" style="fill:#b70027"/><path d="M24.75,5.19a.69.69,0,0,0,0,.32c0,.11.05.24.16.3a.11.11,0,0,0,.16-.07.62.62,0,0,0-.06-.3.59.59,0,0,0-.15-.28.06.06,0,0,0-.11,0Z" style="fill:#b70027"/><path d="M24.4,3.6a.14.14,0,0,0,.12,0,0,0,0,0,0,0-.07.14.14,0,0,0-.12,0,.08.08,0,1,0,0,.15Z" style="fill:#b70027"/><path d="M23.65,37.72c-.51-.41-1.29-.11-1.8.3a3.66,3.66,0,0,1-1.67,1c-.64.07-1.25-.34-1.89-.4a1.86,1.86,0,0,0-1.49.53c-.29.29-.48.68-.84.89-.59.34-1.33,0-2,.08a2.64,2.64,0,0,0-1.44.79.32.32,0,0,0-.1.19.38.38,0,0,0,.25.33c.39.2.7.36,1.85,1.68.36.42.42,1.06.87,1.4a2.43,2.43,0,0,0,1.36.35,25.26,25.26,0,0,0,6.72-.51A9.7,9.7,0,0,0,26,43.54a11.46,11.46,0,0,0,1.72-1.15c1-.78,2.61-1.69,3.17-2.86a3,3,0,0,1-2.22.34c-.29-.06-.75,0-.91-.28a4.73,4.73,0,0,1-.25-.66,1.14,1.14,0,0,0-1.27-.6c-.43.11-.78.48-1.23.48a1.45,1.45,0,0,1-1-.7A1.59,1.59,0,0,0,23.65,37.72Z" style="fill:#990028"/><path d="M17.14,53.44a2.81,2.81,0,0,0,2.27.93,10.12,10.12,0,0,0,4.39-.31,2.24,2.24,0,0,0,1.25-1,5.33,5.33,0,0,0,.25-.89,6.33,6.33,0,0,1,.75-1.55l1.7-2.82a.36.36,0,0,0,.07-.22c0-.19-.28-.21-.47-.18l-2,.32c0-.34.3-.62.34-.95.07-.64.3-1.12,0-1.68A2.88,2.88,0,0,0,23.2,44a4.87,4.87,0,0,0-2.1,1,15.06,15.06,0,0,0-3.24,3.38,5.81,5.81,0,0,0-.73,1.34A7.19,7.19,0,0,0,16.87,52,2.78,2.78,0,0,0,17.14,53.44Z" style="fill:#ffd6a1"/><path d="M18.08,48.68a9.4,9.4,0,0,0,2.78-1.43c.72-.53,1.61-.8,2.38-1.26s2.35-1.17,2.33.28c0,.23.58-.19.81-.22a.67.67,0,0,0,.43-.33c.3-.41.52-.64.45-1.13a3,3,0,0,0-.6-1.28,9.93,9.93,0,0,1-.74-1.41c-.41-.79-.82-1.6-1.24-2.4a2,2,0,0,0-.42-.62.69.69,0,0,0-.71-.13,1,1,0,0,0-.3.28,9.31,9.31,0,0,1-1.67,1.59,32.38,32.38,0,0,1-4.66,2.27c-1.54.77-3.05,2-3.41,3.67A3.7,3.7,0,0,0,14,49.31a.93.93,0,0,0,.36.35,1,1,0,0,0,.55,0A27.35,27.35,0,0,0,18.08,48.68Z" style="fill:#b70027"/><path d="M24.31,54.71a.76.76,0,0,1,0,.3,8.22,8.22,0,0,1-.15.84c-.21.94-.41,2.18-1.27,2.8a3.89,3.89,0,0,1-.95.43l-2.29.81c.13.19.17.35.28.52a.3.3,0,0,1,0,.34,6.6,6.6,0,0,0-.45.78.12.12,0,0,1-.22,0,4.9,4.9,0,0,0-.39-.71.39.39,0,0,1,0-.39,3.13,3.13,0,0,0,.18-.54s-1.66-.5-2.11-.67a4.59,4.59,0,0,1-2.2-1.3,4.53,4.53,0,0,1-.6-1.23l-.5-1.32,3.68-.21c.49,0,1-.06,1.48-.06h1.15c1.42-.06,2.81-.52,4.23-.47a.19.19,0,0,1,.13.05S24.37,54.7,24.31,54.71Z" style="fill:#990028"/><path d="M23.65,51.29a2.75,2.75,0,0,1-1.62.84,1.81,1.81,0,0,1-1.88-.61A3.65,3.65,0,0,1,22.73,51,2.34,2.34,0,0,1,23.65,51.29Z" style="fill:#fff"/><path d="M22.37,51.82a.64.64,0,0,0,.06-.45A.58.58,0,0,0,22,51a.53.53,0,0,0-.62.25.56.56,0,0,0,.08.67.41.41,0,0,0,.13.1c.17.07.18.08,0,0l-.2-.2v0a.56.56,0,0,0,.46.26.53.53,0,0,0,.46-.26Z" style="fill:#0c0a35"/><g style="clip-path:url(#clip-path-4)"><path d="M26.42,47.24c0-1,.2-2,.2-2.94s-.12-2-.16-3a.08.08,0,0,0-.15,0,11,11,0,0,0-.14,2.63c0,1.11-.05,2.22,0,3.32a.12.12,0,1,0,.23,0Z" style="fill:#0c0a35"/><path d="M25.4,47.5c0-.69.19-1.37.22-2.07s0-1.71,0-2.56c.05-1.49.39-3.19,0-4.65,0-.09-.19-.1-.21,0a23.64,23.64,0,0,0-.21,4.29c0,1.66,0,3.33,0,5a.09.09,0,0,0,.17,0Z" style="fill:#0c0a35"/><path d="M24.78,47.25a47.38,47.38,0,0,0-.52-11c0-.09-.15-.06-.15,0a49.67,49.67,0,0,0,.23,5.45c.06,1.84.05,3.67.24,5.5a.1.1,0,0,0,.2,0Z" style="fill:#0c0a35"/><path d="M23.78,47.43a46.83,46.83,0,0,0-.51-11c0-.09-.15-.06-.16,0a49.61,49.61,0,0,0,.24,5.44c.06,1.85,0,3.67.23,5.51a.1.1,0,0,0,.2,0Z" style="fill:#0c0a35"/><path d="M23.13,47.39a28.06,28.06,0,0,0-.35-5.86,15.14,15.14,0,0,0-1-4.82.07.07,0,0,0-.14,0c.11,1.7.44,3.42.63,5.12.22,1.85.38,3.71.66,5.55,0,.09.15.06.16,0Z" style="fill:#0c0a35"/><path d="M22.22,48.33a9.76,9.76,0,0,0,.09-2.7,24.14,24.14,0,0,0-.26-3.06c-.17-1.11-.42-2.2-.61-3.31-.12-.75,0-1.65-.54-2.25-.06-.06-.19,0-.18.07.21,1.65.42,3.25.74,4.88.21,1.09.33,2.19.44,3.3a16.56,16.56,0,0,1,.25,3.06,0,0,0,0,0,.07,0Z" style="fill:#0c0a35"/><path d="M21.66,48.39a14.22,14.22,0,0,0,0-2.69c-.11-.79-.3-1.58-.45-2.37a32.33,32.33,0,0,0-1.42-5.68c0-.08-.16-.08-.15,0a44.12,44.12,0,0,0,1.06,5.43c.18.88.39,1.77.57,2.66s.15,1.77.31,2.64c0,0,.05,0,.05,0Z" style="fill:#0c0a35"/><path d="M20.67,48.58c.4-1.31-.16-2.91-.5-4.18-.46-1.74-1-3.44-1.5-5.18a.1.1,0,0,0-.19,0,3.31,3.31,0,0,0,.18,1.52c.21.8.43,1.59.66,2.38s.51,1.63.75,2.45a6.25,6.25,0,0,1,.46,3c0,.09.11.13.14,0Z" style="fill:#0c0a35"/><path d="M19.86,49.6a4,4,0,0,0,0-1.89,19.54,19.54,0,0,0-.74-3.11,46.23,46.23,0,0,0-2-5.62.09.09,0,0,0-.17.05,9.61,9.61,0,0,0,.59,2.33c.26.91.59,1.8.92,2.68s.59,1.81.82,2.73a9.09,9.09,0,0,1,.5,2.81c0,.06.07.06.09,0Z" style="fill:#0c0a35"/><path d="M19.08,49.65a15.41,15.41,0,0,0-.92-4.53,30.47,30.47,0,0,0-1.74-4.94c-.05-.1-.18,0-.17.07.49,3.23,2.39,6.13,2.67,9.4,0,.11.17.11.16,0Z" style="fill:#0c0a35"/><path d="M17.77,49.92a12.87,12.87,0,0,0-1-4.77c-.27-.76-.61-1.49-.89-2.25-.22-.59-.19-1.23-.62-1.72a.11.11,0,0,0-.19.11c.49,3,2.06,5.64,2.54,8.65,0,.09.14.06.14,0Z" style="fill:#0c0a35"/><path d="M16.55,50.64c.29-3-1.25-5.64-2.48-8.29,0-.08-.14,0-.13.06a19,19,0,0,0,1.47,4,25.09,25.09,0,0,1,1,4.27c0,.06.09,0,.1,0Z" style="fill:#0c0a35"/><path d="M15.4,50.66c.32-1.23-.31-2.79-.7-3.94a15.29,15.29,0,0,0-1.87-4.3c-.05-.07-.2-.06-.19,0A16.24,16.24,0,0,0,14,46.18c.26.66.5,1.34.73,2a5.78,5.78,0,0,1,.55,2.43.09.09,0,0,0,.17,0Z" style="fill:#0c0a35"/><path d="M14.4,50.85c.18-2.43-1.58-4.7-2.53-6.8,0-.08-.15,0-.14.06A9.12,9.12,0,0,0,12.92,47a12.34,12.34,0,0,1,1.34,3.85c0,.08.13.05.14,0Z" style="fill:#0c0a35"/></g><path d="M27.73,45.37a3.82,3.82,0,0,1-2,2.29,2.68,2.68,0,0,1-1.27.38,2.88,2.88,0,0,1-1.21-.51A5.33,5.33,0,0,1,21.49,46a6.18,6.18,0,0,1,3.44.61A7,7,0,0,1,27.73,45.37Z" style="fill:#b70027"/><g style="clip-path:url(#clip-path-5)"><path d="M26.58,49.12A17.92,17.92,0,0,0,28,43.62c0-.1-.14-.12-.16,0-.47,1.83-.78,3.68-1.36,5.48,0,.1.11.14.15,0Z" style="fill:#0c0a35"/><path d="M25.85,49.2a15,15,0,0,0,1.46-6.11c0-.09-.14-.14-.18-.05a13.06,13.06,0,0,0-.55,2.57,16.1,16.1,0,0,1-.87,3.51c0,.1.09.18.14.08Z" style="fill:#0c0a35"/><path d="M25.05,49.62a26.22,26.22,0,0,0,.88-3,25.19,25.19,0,0,0,.73-3.06c0-.12-.15-.14-.2-.06-1.05,1.71-1.21,4.12-1.56,6.07a.08.08,0,0,0,.15,0Z" style="fill:#0c0a35"/><path d="M24.71,49.83a34.3,34.3,0,0,0-.33-5.9c0-.1-.16-.06-.17,0a33.94,33.94,0,0,0,.32,5.87c0,.12.19.12.18,0Z" style="fill:#0c0a35"/><path d="M23.94,49.72c0-1.23-.14-2.43-.22-3.65a5.55,5.55,0,0,0-.63-2.66.09.09,0,0,0-.16.07,25.33,25.33,0,0,1,.35,2.89c.1,1.12.35,2.23.48,3.35a.09.09,0,1,0,.18,0Z" style="fill:#0c0a35"/><path d="M23.21,49a16,16,0,0,0-.5-3.15,13.18,13.18,0,0,0-.58-3.21.11.11,0,0,0-.2.05c0,2.15.93,4.19,1.06,6.31a.11.11,0,0,0,.22,0Z" style="fill:#0c0a35"/><path d="M22.33,48.42a16,16,0,0,0-.5-3.15,13.27,13.27,0,0,0-.58-3.21.11.11,0,0,0-.2,0c0,2.15.93,4.18,1.06,6.31a.11.11,0,0,0,.22,0Z" style="fill:#0c0a35"/></g><path d="M19.46,54.13C19.24,53.07,19,52,18.79,51a14,14,0,0,1-.44-3.4.19.19,0,0,0-.24-.2c-2.33.47-4.38,1.84-6.59,2.71a.19.19,0,0,0-.07.3,7,7,0,0,1,1.85,3.79.19.19,0,0,0,.19.16l5.76-.19C19.42,54.13,19.58,54.25,19.46,54.13Z" style="fill:#b70027"/><g style="clip-path:url(#clip-path-6)"><path d="M19.18,54.9a52.09,52.09,0,0,0-1-5.37c-.26-1.3-.22-3.45-1.31-4.37a.12.12,0,0,0-.21.11c.12.67.45,1.32.62,2s.3,1.6.46,2.4.37,1.83.56,2.75.54,1.67.74,2.52c0,.06.1,0,.1,0Z" style="fill:#0c0a35"/><path d="M18.42,55.25a20.45,20.45,0,0,0-.9-5.08c-.43-1.57-.39-3.58-1.31-5-.06-.09-.22-.09-.24,0a3,3,0,0,0,.29,1.55c.3.91.39,1.9.61,2.84a45.25,45.25,0,0,1,1.36,5.63.1.1,0,0,0,.19,0Z" style="fill:#0c0a35"/><path d="M17.56,55.48c-.43-1.75-.61-3.51-1.19-5.23-.3-.9-.54-1.82-.82-2.73a2.22,2.22,0,0,0-.78-1.39.1.1,0,0,0-.14.11c.53,1.47.83,3,1.33,4.49s.63,3.4,1.43,4.82a.09.09,0,0,0,.17-.07Z" style="fill:#0c0a35"/><path d="M16.35,55.68a12.44,12.44,0,0,0-.85-4.78c-.29-.88-.61-1.75-.88-2.64A7.81,7.81,0,0,0,13.7,46a.13.13,0,0,0-.24.1,25,25,0,0,0,1.41,4.66,27.61,27.61,0,0,1,1.29,5c0,.12.18.08.19,0Z" style="fill:#0c0a35"/><path d="M15.32,55.8a17.87,17.87,0,0,0-1.43-5.5c-.43-1.21-.31-3.42-1.47-4.19-.08,0-.17,0-.15.12.14.68.41,1.33.55,2a15.26,15.26,0,0,0,.55,2.19A24.09,24.09,0,0,1,15,55.8a.15.15,0,0,0,.3,0Z" style="fill:#0c0a35"/><path d="M14.1,55.83a7.8,7.8,0,0,0-.72-4.35c-.31-.79-.66-1.57-1-2.35a7.54,7.54,0,0,0-1.06-2.3.12.12,0,0,0-.2.09c-.13,1.23.88,2.81,1.38,3.92.67,1.52,1.54,3.25,1.35,4.95,0,.14.21.17.23,0Z" style="fill:#0c0a35"/></g><path d="M26.42,55.73A11.38,11.38,0,0,0,26,57.82c0,.08-.07.18-.14.14a.09.09,0,0,1,0,0A29.84,29.84,0,0,1,23.53,55a.06.06,0,0,0-.09,0l-1.72,3s0,.06-.08.06a16.57,16.57,0,0,1-1.26-2.25,1.12,1.12,0,0,0-.5-.64.1.1,0,0,0-.12,0A27.55,27.55,0,0,0,17.62,58l-1.4-2.5c0-.07-.1-.14-.17-.12L16,55.4c-.71.84-1.36,1.86-2,2.74a.05.05,0,0,1-.09,0,1.86,1.86,0,0,0-.29-.56c-.29-.46-.87-1.65-.93-1.72a.46.46,0,0,1-.07-.5c.13-.26.25-1.54.56-1.73a2.06,2.06,0,0,1,.75-.06c2.17.16,4.34-.27,6.52-.19.7,0,1.41.1,2.12.08A13.15,13.15,0,0,0,25.16,53a13.34,13.34,0,0,1,1.5,1.1C27.07,54.47,26.59,55.29,26.42,55.73Z" style="fill:#f70032"/><path d="M26.14,59.78c0,.09-.1.19-.19.16s0,0-.06,0a8.69,8.69,0,0,1-.61-.75,1.43,1.43,0,0,1-.26-.62c0-.12.22-.28.37-.49s.27-.36.31-.4.28,0,.39.1l.62.51c.06,0,.18.22.17.29C26.82,58.76,26.3,59.41,26.14,59.78Z" style="fill:#b70027"/><path d="M26,59.26s-.05.09-.1.07l0,0c-.1-.12-.2-.24-.29-.37a.6.6,0,0,1-.13-.3c0-.06.11-.14.18-.24a1.37,1.37,0,0,1,.16-.2c.05,0,.13,0,.18,0l.31.25s.09.11.08.14S26.06,59.07,26,59.26Z" style="fill:#0c0a35"/><path d="M21.89,60c0,.09-.1.19-.19.16a.1.1,0,0,1-.06-.05,6.34,6.34,0,0,1-.61-.76,1.33,1.33,0,0,1-.26-.61c0-.13.21-.28.37-.49a4.14,4.14,0,0,1,.31-.4c.12-.08.28,0,.39.1l.62.51c.06,0,.18.22.16.29S22.05,59.64,21.89,60Z" style="fill:#b70027"/><path d="M21.73,59.48c0,.05-.05.1-.1.08l0,0c-.1-.12-.2-.24-.29-.37a.6.6,0,0,1-.13-.3c0-.06.11-.14.18-.24l.15-.2c.06,0,.14,0,.19,0l.31.25a.39.39,0,0,1,.08.14C22.06,59,21.81,59.3,21.73,59.48Z" style="fill:#0c0a35"/><path d="M18,59.87c0,.08-.1.18-.19.15a.1.1,0,0,1-.06-.05,6.24,6.24,0,0,1-.61-.75,1.32,1.32,0,0,1-.26-.62c0-.12.21-.28.37-.49a3.72,3.72,0,0,1,.31-.39c.12-.09.28,0,.39.1l.62.5c.06,0,.18.22.16.29C18.66,58.84,18.15,59.49,18,59.87Z" style="fill:#b70027"/><path d="M17.83,59.34s0,.09-.1.07l0,0a3.65,3.65,0,0,1-.29-.37.6.6,0,0,1-.13-.3c0-.06.1-.14.18-.24a1.38,1.38,0,0,1,.15-.19c.06,0,.14,0,.19.05l.31.24a.5.5,0,0,1,.08.14C18.16,58.84,17.91,59.15,17.83,59.34Z" style="fill:#0c0a35"/><path d="M14.24,59.94c0,.09-.11.19-.2.16L14,60.05a7.51,7.51,0,0,1-.61-.76,1.33,1.33,0,0,1-.26-.61c0-.12.22-.28.37-.49a2.87,2.87,0,0,1,.32-.4c.11-.08.27,0,.38.1l.62.51c.06,0,.19.22.17.29S14.4,59.57,14.24,59.94Z" style="fill:#b70027"/><path d="M14.07,59.41s-.05.1-.09.08,0,0,0,0a3.47,3.47,0,0,1-.3-.37.7.7,0,0,1-.13-.3c0-.06.11-.14.18-.24a1.26,1.26,0,0,1,.16-.19c.05,0,.13,0,.18,0l.31.25s.09.11.08.14S14.15,59.23,14.07,59.41Z" style="fill:#0c0a35"/><path d="M21.11,50.58l.26-.1a1.18,1.18,0,0,0,.38-.39,1,1,0,0,0,.14-.53,1,1,0,0,0-1.58-.91h0a1,1,0,0,0-.47.62,1,1,0,0,0,.1.79,1.12,1.12,0,0,0,.4.41l-.47-.62h0a1.1,1.1,0,0,0,.47.61,1,1,0,0,0,.79.1Z" style="fill:#f70032"/><path d="M26,47.6c-.65.11-1.85,0-2.16.81a.62.62,0,0,0,.25.86A.71.71,0,0,0,25,49c0-.06,0-.15-.08-.14-.23,0-.49.12-.71,0s-.09-.52.08-.63A1.84,1.84,0,0,1,25,48,9.94,9.94,0,0,0,26,47.68c.05,0,0-.09,0-.08Z" style="fill:#0c0a35"/><path d="M20.06,52.78c.61.55,3.61,1,3.62-.28a.2.2,0,0,0-.16-.21c-.38-.14-.86.16-1.25.24a4.84,4.84,0,0,1-2-.05.18.18,0,0,0-.17.3Z" style="fill:#0c0a35"/><path d="M25.83,57a3.1,3.1,0,0,0,0-1.25,7.47,7.47,0,0,1-.18-.92.46.46,0,0,0-.91,0,2.15,2.15,0,0,0,.29.94c.18.41.24.87.46,1.28a.19.19,0,0,0,.34,0Z" style="fill:#0c0a35"/><path d="M21.88,57.12a2.22,2.22,0,0,0,.28-1,4,4,0,0,0,.13-1.18c-.09-.53-1-.41-.95.13a12.42,12.42,0,0,0,.17,2,.2.2,0,0,0,.37,0Z" style="fill:#0c0a35"/><path d="M17.87,56.92a17,17,0,0,0,.54-1.85c.08-.69-1.16-.69-1.08,0a9.49,9.49,0,0,0,.09,1.85c.07.2.4.24.45,0Z" style="fill:#0c0a35"/><path d="M14.05,57a2.23,2.23,0,0,0,.41-.74c.11-.31.28-.6.36-.92.14-.61-.78-.86-.93-.26a8.57,8.57,0,0,0-.18.88,7.19,7.19,0,0,1-.05.81c-.05.22.23.41.39.23Z" style="fill:#0c0a35"/><path d="M25.31,53.48a1.69,1.69,0,0,0-.17-.29c-.08-.17-.34,0-.25.14s.12.14.16.22.32.1.26-.07Z" style="fill:#990028"/><path d="M24.79,53.74a.45.45,0,0,0,0-.45.24.24,0,0,0-.25-.1.23.23,0,0,0-.12.35,1.06,1.06,0,0,0,.19.23.12.12,0,0,0,.19,0Z" style="fill:#990028"/><path d="M24.23,53.88a.55.55,0,0,0,0-.25.32.32,0,0,0-.15-.25c-.11,0-.25,0-.27.11a.52.52,0,0,0,.3.51c.08,0,.15,0,.16-.12Z" style="fill:#990028"/><path d="M23.63,54c0-.17.06-.4-.1-.51a.18.18,0,0,0-.22,0,.27.27,0,0,0,0,.33.58.58,0,0,0,.2.21.1.1,0,0,0,.14-.06Z" style="fill:#990028"/><path d="M22.92,54.12c.1,0,.14-.14.16-.23a.31.31,0,0,0-.12-.36.18.18,0,0,0-.26.06.39.39,0,0,0,0,.35c0,.09.1.2.21.18Z" style="fill:#990028"/><path d="M22.34,54.19c.12,0,.14-.23.15-.34s-.15-.4-.33-.29-.13.27-.08.41.12.28.26.22Z" style="fill:#990028"/><path d="M21.71,54.21a.4.4,0,0,0,0-.63.25.25,0,0,0-.19,0c-.14.11-.12.24-.09.39s.12.29.24.24Z" style="fill:#990028"/><path d="M21.18,54.17a.5.5,0,0,0,0-.54.23.23,0,0,0-.41.18,1.22,1.22,0,0,0,.18.36.13.13,0,0,0,.2,0Z" style="fill:#990028"/><path d="M20.55,54.19c.1,0,.11-.17.12-.27a.47.47,0,0,0-.1-.34.21.21,0,0,0-.32,0,.53.53,0,0,0,0,.39c0,.12.16.24.3.18Z" style="fill:#990028"/><path d="M19.94,54.13a.42.42,0,0,0,.06-.58.17.17,0,0,0-.23,0,.34.34,0,0,0-.05.31.77.77,0,0,0,.12.26.08.08,0,0,0,.1,0Z" style="fill:#990028"/><path d="M19.48,54.05a.51.51,0,0,0,0-.45.18.18,0,0,0-.33,0,.68.68,0,0,0,.11.43c.05.1.18.05.21,0Z" style="fill:#990028"/><path d="M18.81,54.13a.26.26,0,0,0,.13-.23.37.37,0,0,0-.14-.39.21.21,0,0,0-.29.12c-.05.13.1.59.3.5Z" style="fill:#990028"/><path d="M18.2,54.1a.45.45,0,0,0,0-.51.19.19,0,0,0-.35,0,.42.42,0,0,0,.21.5.11.11,0,0,0,.11,0Z" style="fill:#990028"/><path d="M17.53,54.12c.12-.11.12-.42,0-.49a.14.14,0,0,0-.19,0,.38.38,0,0,0,.15.45.08.08,0,0,0,.08,0Z" style="fill:#990028"/><path d="M17,54.19c.12-.13.17-.45,0-.54a.1.1,0,0,0-.13,0,.26.26,0,0,0-.08.29.55.55,0,0,0,.13.25s.07,0,.09,0Z" style="fill:#990028"/><path d="M16.42,54.2s0-.13,0-.17a.31.31,0,0,0-.08-.32.19.19,0,0,0-.26,0,.3.3,0,0,0-.06.34.31.31,0,0,0,.2.24.13.13,0,0,0,.16-.09Z" style="fill:#990028"/><path d="M15.77,54.27a.79.79,0,0,0,.08-.22.36.36,0,0,0-.07-.33.16.16,0,0,0-.26.07.58.58,0,0,0,0,.26,1.42,1.42,0,0,0,.07.22.08.08,0,0,0,.16,0Z" style="fill:#990028"/><path d="M15.1,54.38c.18-.07.18-.31.15-.47s-.07-.12-.13-.14a.22.22,0,0,0-.16,0,.2.2,0,0,0-.09.17.54.54,0,0,0,.05.31s.11.13.18.11Z" style="fill:#990028"/><path d="M14.52,54.28c.06-.14.18-.37,0-.49a.14.14,0,0,0-.16,0c-.19.09-.11.39,0,.53a.09.09,0,0,0,.16,0Z" style="fill:#990028"/><path d="M14,54.33c.11-.13.26-.4.09-.55a.14.14,0,0,0-.18,0,.42.42,0,0,0,0,.56.09.09,0,0,0,.14,0Z" style="fill:#990028"/><path d="M13.4,54.23a1,1,0,0,0,.17-.33.18.18,0,0,0-.34-.09.55.55,0,0,0,0,.4.08.08,0,0,0,.14,0Z" style="fill:#990028"/><path d="M25.47,54.89A.23.23,0,0,0,25,55a.23.23,0,0,0,.45-.13Z" style="fill:#f70032"/><path d="M25.39,55.34a.2.2,0,0,0,0,.4.2.2,0,0,0,0-.4Z" style="fill:#f70032"/><path d="M25.5,55.93a.14.14,0,0,0,0,.27.14.14,0,1,0,0-.27Z" style="fill:#f70032"/><path d="M21.8,54.83a.26.26,0,0,0,0,.52.26.26,0,0,0,0-.52Z" style="fill:#f70032"/><path d="M21.8,55.48a.19.19,0,0,0,0,.37.19.19,0,0,0,0-.37Z" style="fill:#f70032"/><path d="M21.77,56a.12.12,0,0,0,0,.23.12.12,0,0,0,0-.23Z" style="fill:#f70032"/><path d="M17.87,54.77a.26.26,0,0,0,0,.51.26.26,0,0,0,0-.51Z" style="fill:#f70032"/><path d="M17.77,55.49a.16.16,0,0,0,0,.32.16.16,0,0,0,0-.32Z" style="fill:#f70032"/><path d="M17.75,56a.09.09,0,1,0,0,.18.09.09,0,0,0,0-.18Z" style="fill:#f70032"/><path d="M14.32,55a.21.21,0,0,0,0,.42.21.21,0,0,0,0-.42Z" style="fill:#f70032"/><path d="M14.15,55.56a.15.15,0,1,0,0,.3.15.15,0,0,0,0-.3Z" style="fill:#f70032"/><path d="M14,56.15h0c.12.05.13-.2,0-.14h0c-.06,0,0,.1,0,.13Z" style="fill:#f70032"/><path d="M27.07,42.18c.34,0,.59-.3.81-.51a4.45,4.45,0,0,0,.89-1c.23-.39-.35-.88-.65-.5a11,11,0,0,0-1.19,1.7.17.17,0,0,0,.14.26Z" style="fill:#f70032"/><path d="M26.18,40.83a1.39,1.39,0,0,1,.26-.28,3.52,3.52,0,0,0,.36-.41c.2-.26.51-.66.37-1a.46.46,0,0,0-.88,0,8.92,8.92,0,0,1-.58,1.43c-.16.31.31.59.47.28Z" style="fill:#f70032"/><path d="M22.67,39.29a1.19,1.19,0,0,0,.07-.89.35.35,0,0,0-.69.1,1.64,1.64,0,0,0,.31.79.19.19,0,0,0,.31,0Z" style="fill:#f70032"/><path d="M18.86,41.38c.11-.46-.18-.84-.29-1.26s-.42-1.07-1-.94a.56.56,0,0,0-.37.66,1.16,1.16,0,0,0,.21.37c.07.13.12.26.2.39a4.77,4.77,0,0,0,.85.89.25.25,0,0,0,.41-.11Z" style="fill:#f70032"/><path d="M15.93,42.76a1.77,1.77,0,0,0-.41-1.08,4.23,4.23,0,0,0-1-1.1.56.56,0,0,0-.78.21.59.59,0,0,0,.2.79,11.3,11.3,0,0,1,.93.78c.25.21.57.54.92.55a.19.19,0,0,0,.19-.15Z" style="fill:#f70032"/><path d="M22.28,37.26a.32.32,0,1,0,.32.31.32.32,0,0,0-.32-.31Z" style="fill:#0c0a35"/><path d="M27.08,38.06a.33.33,0,0,0,0,.65.33.33,0,0,0,0-.65Z" style="fill:#0c0a35"/><path d="M30.68,39.33a.32.32,0,0,0-.32.32.32.32,0,0,0,.32.32.32.32,0,0,0,.32-.32.33.33,0,0,0-.32-.32Z" style="fill:#0c0a35"/><path d="M17.39,38.32a.41.41,0,0,0-.41.41.42.42,0,0,0,.83,0,.41.41,0,0,0-.42-.41Z" style="fill:#0c0a35"/><path d="M13.94,39.65a.37.37,0,0,0-.4.11.41.41,0,0,0,.08.65.43.43,0,0,0,.57-.15.42.42,0,0,0-.25-.61Z" style="fill:#0c0a35"/><path d="M12.35,40.7a.39.39,0,0,0-.41.1.42.42,0,1,0,.66.51.42.42,0,0,0-.25-.61Z" style="fill:#0c0a35"/><path d="M21.45,39.06a.24.24,0,0,0,.08-.09.17.17,0,0,0-.23-.23h0l.13,0h0a.18.18,0,0,0-.22.17.18.18,0,0,0,.27.16Z" style="fill:#f70032"/><path d="M20.7,39.09a.17.17,0,0,0,0,.33.17.17,0,1,0,0-.33Z" style="fill:#f70032"/><path d="M19.92,39.17a.2.2,0,0,0,0,.4.2.2,0,0,0,0-.4Z" style="fill:#f70032"/><path d="M19.29,39.13h0a.16.16,0,0,0-.2.15.16.16,0,0,0,.2.16s0,0,0,0a.14.14,0,0,0,0-.28Z" style="fill:#f70032"/><path d="M18.83,39.2v0a.18.18,0,0,0,0-.23h0a.18.18,0,0,0-.3.08.33.33,0,0,0,0,.14.18.18,0,0,0,.33,0Z" style="fill:#f70032"/><path d="M16.79,39.6a.15.15,0,0,0,0,.29.15.15,0,0,0,0-.29Z" style="fill:#f70032"/><path d="M16.45,40a.17.17,0,0,0,0,.34.17.17,0,0,0,0-.34Z" style="fill:#f70032"/><path d="M15.75,40.41h0c-.13,0-.26.13-.14.24a.21.21,0,0,0,.1.06c.1,0,.2-.05.2-.15a.16.16,0,0,0-.2-.15Z" style="fill:#f70032"/><path d="M15.1,40.36a.17.17,0,0,0,0,.34.17.17,0,0,0,0-.34Z" style="fill:#f70032"/><path d="M12.92,41a.16.16,0,0,0,0,.32.16.16,0,0,0,0-.32Z" style="fill:#f70032"/><path d="M23,38a.11.11,0,0,0,0,.21A.11.11,0,0,0,23,38Z" style="fill:#f70032"/><path d="M23.68,38.21h0a.17.17,0,1,0,0,.24h0a.16.16,0,0,0,0-.22Z" style="fill:#f70032"/><path d="M25.11,39.05a.16.16,0,0,0,0,.31.16.16,0,0,0,0-.31Z" style="fill:#f70032"/><path d="M25.8,39a.19.19,0,0,0,0,.38.19.19,0,0,0,0-.38Z" style="fill:#f70032"/><path d="M27.49,39.85a.16.16,0,0,0,0,.31.16.16,0,0,0,0-.31Z" style="fill:#f70032"/><path d="M29.41,40.52h0l-.13.06h0a.2.2,0,0,0,.14-.34.2.2,0,0,0-.34.14.22.22,0,0,0,.06.15.18.18,0,0,0,.25,0Z" style="fill:#f70032"/><path d="M11.57,35.07a7.94,7.94,0,0,0-1.24.94c-.38.33-.36,1.11-.64,1.79,0,.12-.21.13-.33.14A4,4,0,0,1,6,36.4a5.5,5.5,0,0,1-1.12-3.46A4.19,4.19,0,0,1,5,31.67c.14-.44,1.45-1.13,1.63-1.55a3.63,3.63,0,0,0,.12-2.94,8.5,8.5,0,0,1,2.93-.52.88.88,0,0,1,.32.07.68.68,0,0,1,.29.58c0,.64-.26,1.32,0,1.91s1.69.47,2.78,1.66a2.23,2.23,0,0,1,.34,2.42A4.36,4.36,0,0,1,11.57,35.07Z" style="fill:#990028"/><path d="M10.73,32.44a2.65,2.65,0,0,1,.1-1.28c.11-.46.14-.54.25-.52l.08,0,1.18.84a.83.83,0,0,1,.37.44.86.86,0,0,1-.09.47l-.54,1.29a.59.59,0,0,1,0,.08.26.26,0,0,1-.33,0A4.45,4.45,0,0,1,10.73,32.44Z" style="fill:#0c0a35"/><path d="M9.93,31.41a2.11,2.11,0,0,1,.48,1.32A13.62,13.62,0,0,1,9.79,34a.23.23,0,0,1-.39,0c-.26-.37-.45-1-.68-1.29a.2.2,0,0,1,0-.18c.15-.73.29-1.16.44-1.92h0a.22.22,0,0,1,.42,0A5.5,5.5,0,0,0,9.93,31.41Z" style="fill:#0c0a35"/><path d="M8,31l.12,1.23a1.9,1.9,0,0,1,0,.34c0,.4-.7,1.12-1.06,1.43a.18.18,0,0,1-.3-.08c-.11-.34-.21-.75-.31-1.1A.79.79,0,0,1,6.65,32a12.52,12.52,0,0,0,1.11-1.39.12.12,0,0,1,.21,0A1,1,0,0,1,8,31Z" style="fill:#0c0a35"/><path d="M11.8,32.65h0a.38.38,0,0,0,0-.64.42.42,0,0,0-.38,0,.41.41,0,0,0-.18.32v0a.36.36,0,0,0,.54.31Z" style="fill:#f70032"/><path d="M9.55,32.13a.36.36,0,0,0-.35.36.36.36,0,1,0,.71,0,.36.36,0,0,0-.36-.36Z" style="fill:#f70032"/><path d="M7.3,32.08a.39.39,0,0,0,0,.78.39.39,0,0,0,0-.78Z" style="fill:#f70032"/><path d="M11.63,34a.3.3,0,0,0,0,.6.3.3,0,0,0,0-.6Z" style="fill:#b70027"/><path d="M9.65,34.27a.3.3,0,0,0,0,.59.3.3,0,0,0,0-.59Z" style="fill:#b70027"/><path d="M7,34.12a.39.39,0,0,0-.38.38.39.39,0,0,0,.38.38.39.39,0,0,0,.38-.38A.38.38,0,0,0,7,34.12Z" style="fill:#b70027"/><path d="M11,30.07a.26.26,0,0,0,0,.51.26.26,0,0,0,0-.51Z" style="fill:#b70027"/><path d="M9.29,29.78a.28.28,0,0,0,0,.56.28.28,0,0,0,0-.56Z" style="fill:#b70027"/><path d="M7.91,29.86a.32.32,0,0,0,0,.63.32.32,0,0,0,0-.63Z" style="fill:#b70027"/><path d="M19.79,59.3A1.81,1.81,0,0,1,19.6,59c0-.06-.1-.16-.2-.11s0,.05,0,.08c0,.19.21.33.36.41a.06.06,0,0,0,.07-.09Z" style="fill:#b70027"/><path d="M20.21,58.27a.48.48,0,0,0-.1-.4.06.06,0,0,0-.09,0A.42.42,0,0,0,20,58a1.81,1.81,0,0,0,0,.23.1.1,0,0,0,.2,0Z" style="fill:#b70027"/><path d="M19.2,57.89a.47.47,0,0,0-.21-.33.06.06,0,0,0-.07,0c0,.12.11.21.14.32s.17,0,.14,0Z" style="fill:#b70027"/><path d="M20.08,57c-.08-.13-.15-.32-.3-.39s-.22,0-.18.14a.86.86,0,0,0,.37.36c.07,0,.15,0,.11-.11Z" style="fill:#b70027"/><path d="M22.92,57.71c-.13,0-.26,0-.39.06a0,0,0,0,0,0,.06.58.58,0,0,0,.41,0s0-.1,0-.09Z" style="fill:#b70027"/><path d="M23.13,56.73a.62.62,0,0,0,.25-.2c.05-.07.14-.2.06-.28s-.33.35-.37.42a0,0,0,0,0,.06.06Z" style="fill:#b70027"/><path d="M16.5,57.76a.13.13,0,0,0,.12,0h0a.12.12,0,0,1-.12,0Z" style="fill:#b70027"/><path d="M16.52,57.84l-.29-.07-.13,0a.12.12,0,0,0-.1,0,.05.05,0,0,0,0,.05c.07.19.37.17.53.16a.07.07,0,0,0,0-.13Z" style="fill:#b70027"/><path d="M15.48,58.08a1,1,0,0,0,0-.34c0-.1,0-.29-.17-.29s-.12.13-.1.21a2,2,0,0,1,.11.4c0,.09.15.13.17,0Z" style="fill:#b70027"/><path d="M16.18,57a.92.92,0,0,0,0-.33c0-.11,0-.24-.15-.29a.11.11,0,0,0-.16.07c0,.1,0,.19.06.29a.67.67,0,0,0,.15.29.07.07,0,0,0,.11,0Z" style="fill:#b70027"/><path d="M16.53,58.59c-.06,0-.09,0-.13,0a.06.06,0,0,0,0,.08.18.18,0,0,0,.13,0c.09,0,.09-.15,0-.14Z" style="fill:#b70027"/><path d="M6.81,27.29c-.68-.22-1.33-.74-1.28-1a6,6,0,0,1,2.78-3.08,2.11,2.11,0,0,1,2.32.35c.82.48,6.22,3.32,9.08,4.79s5.7,3.11,7.54,4.16c1.29.74,3.92,1.59,5.16,2.15,2.32,1.05,2.92,1.4,2.8,1.63A17,17,0,0,1,33,39.11a1.58,1.58,0,0,1-.68.52,1.22,1.22,0,0,1-.86-.1c-4.29-2.15-8.48-4.79-12.88-7.21A65.52,65.52,0,0,0,6.81,27.29Z" style="fill:#222272"/><path d="M17.84,31.11a.17.17,0,0,1,0-.28,18,18,0,0,1,1.83-1.56.3.3,0,0,1,.36,0l1.75,1.23a.15.15,0,0,1,0,.25c-.55.36-1.11.95-1.63,1.27-.09,0-.2.13-.29.09A16.39,16.39,0,0,1,17.84,31.11Z" style="fill:#0c0a35"/><path d="M19.88,31.22a.54.54,0,0,0,.54-.54.54.54,0,0,0-.54-.54.54.54,0,0,0-.54.54.55.55,0,0,0,.54.54Z" style="fill:#f70032"/><path d="M19.94,32.8a.24.24,0,0,0,0-.48.24.24,0,0,0,0,.48Z" style="fill:#f70032"/><path d="M19.75,29a.16.16,0,0,0,0-.31.16.16,0,0,0,0,.31Z" style="fill:#f70032"/><path d="M17.25,31.2a.2.2,0,1,0,0-.39.2.2,0,0,0-.19.19.2.2,0,0,0,.19.2Z" style="fill:#f70032"/><path d="M22.08,30.54a.25.25,0,0,0,.06.26.23.23,0,0,0,.3,0,.22.22,0,0,0,.12-.19.24.24,0,0,0-.12-.2l-.15,0,.11,0,0,0a.21.21,0,0,0-.35.09Z" style="fill:#f70032"/><path d="M16.28,28.1c0,.13,0,.48.25.44s.06-.15,0-.2a1.71,1.71,0,0,1-.09-.3c0-.13-.22-.07-.2.06Z" style="fill:#0c0a35"/><path d="M22.66,32.75c0,.13.05.48.25.44s.05-.15,0-.2a1.67,1.67,0,0,1-.08-.3c0-.13-.22-.07-.2.06Z" style="fill:#0c0a35"/><path d="M32.13,35.22c0,.14,0,.48.24.45s.06-.15,0-.2-.06-.2-.09-.3-.22-.07-.19,0Z" style="fill:#0c0a35"/><path d="M9.46,23.8c0,.13,0,.48.25.44s0-.15,0-.2a1.67,1.67,0,0,1-.08-.3c0-.13-.22-.07-.2.06Z" style="fill:#0c0a35"/><path d="M29,35.51c-.08.11-.32.37-.15.49s.14-.06.17-.12a2.2,2.2,0,0,1,.15-.26c.08-.11-.09-.21-.17-.11Z" style="fill:#0c0a35"/><path d="M14.86,26.52c0,.13.05.48.25.44s.06-.14,0-.2a1.38,1.38,0,0,1-.08-.29c0-.14-.22-.08-.2.05Z" style="fill:#0c0a35"/><path d="M11,26.82c0,.13.05.48.25.44s.06-.14,0-.2a1.4,1.4,0,0,1-.09-.29c0-.14-.22-.08-.2.05Z" style="fill:#0c0a35"/><path d="M28.65,34c0,.13.05.48.25.44s.06-.15,0-.2a1.57,1.57,0,0,1-.08-.29c0-.14-.22-.08-.2,0Z" style="fill:#0c0a35"/><path d="M9.21,26.45c0,.13,0,.48.25.44s0-.15,0-.2a1.67,1.67,0,0,1-.08-.3c0-.13-.22-.07-.2.06Z" style="fill:#0c0a35"/><path d="M6.36,25.56c-.05.13-.2.44,0,.51s.12-.1.13-.15a2.63,2.63,0,0,1,.08-.3c0-.13-.15-.18-.2-.06Z" style="fill:#0c0a35"/><path d="M15.36,29.4c0,.13.05.48.25.44s.06-.15,0-.2a1.67,1.67,0,0,1-.08-.3c0-.13-.22-.07-.2.06Z" style="fill:#0c0a35"/><path d="M13.83,29.15c0,.11,0,.39.2.36s.05-.12,0-.16A1.82,1.82,0,0,1,14,29.1c0-.11-.18-.06-.16,0Z" style="fill:#0c0a35"/><path d="M27.37,36.29c0,.11,0,.4.21.37s.05-.12,0-.17a1.09,1.09,0,0,1-.07-.24c0-.11-.18-.06-.17,0Z" style="fill:#0c0a35"/><path d="M26.15,35.31c-.09.06-.35.2-.25.34s.13,0,.16,0a1.06,1.06,0,0,1,.2-.17c.09-.06,0-.19-.11-.13Z" style="fill:#0c0a35"/><path d="M24,33c0,.11,0,.4.21.37s.05-.13,0-.17a1.09,1.09,0,0,1-.07-.24c0-.11-.18-.06-.17,0Z" style="fill:#0c0a35"/><path d="M24.82,34.61c0,.11,0,.4.2.37s.05-.12,0-.17a2.17,2.17,0,0,1-.07-.24c0-.11-.18-.06-.16,0Z" style="fill:#0c0a35"/><path d="M30.27,34.64c0,.11,0,.4.21.37s.05-.13,0-.17a1.09,1.09,0,0,1-.07-.24c0-.11-.18-.06-.17,0Z" style="fill:#0c0a35"/><path d="M17.33,29.51c.11,0,.19.11.31.09s0,0,0-.06-.18-.18-.3-.22-.17.14-.05.19Z" style="fill:#0c0a35"/><path d="M21.26,31.92a.56.56,0,0,0,.31.09.07.07,0,0,0,0-.07c0-.13-.18-.17-.3-.22s-.17.15,0,.2Z" style="fill:#0c0a35"/><path d="M23.19,34.21c.1,0,.19.12.3.1a.05.05,0,0,0,0-.07c0-.13-.17-.18-.29-.22s-.17.15,0,.19Z" style="fill:#0c0a35"/><path d="M21.41,33.22a.56.56,0,0,0,.31.09.05.05,0,0,0,0-.07c0-.13-.17-.18-.29-.22s-.17.15-.05.2Z" style="fill:#0c0a35"/><path d="M14.65,28c.11,0,.19.11.31.09A0,0,0,0,0,15,28c0-.14-.18-.18-.29-.22s-.17.14-.06.19Z" style="fill:#0c0a35"/><path d="M27.18,34.76c.11,0,.19.12.31.09s0,0,0-.06-.18-.18-.3-.22-.17.14-.05.19Z" style="fill:#0c0a35"/><path d="M29.55,37.51c.11,0,.19.11.31.09a0,0,0,0,0,0-.06c0-.14-.18-.18-.29-.22s-.17.14-.06.19Z" style="fill:#0c0a35"/><path d="M10.5,25.34c.11,0,.19.11.31.09a.06.06,0,0,0,0-.07c0-.13-.18-.17-.29-.22s-.17.15-.06.2Z" style="fill:#0c0a35"/><path d="M27,33.27c.11,0,.19.11.31.09a.07.07,0,0,0,0-.07c0-.13-.18-.17-.3-.22s-.17.15-.05.2Z" style="fill:#0c0a35"/><path d="M30.66,36.19c.11,0,.19.11.31.09s0,0,0-.06-.18-.18-.3-.22-.17.14-.05.19Z" style="fill:#0c0a35"/><path d="M12.2,25.41c.11,0,.19.12.31.09a0,0,0,0,0,0-.06c0-.14-.18-.18-.29-.22s-.17.14-.06.19Z" style="fill:#0c0a35"/><path d="M8.3,24.79c.11,0,.19.11.31.09a.06.06,0,0,0,0-.07c0-.13-.18-.18-.29-.22s-.17.15-.06.2Z" style="fill:#0c0a35"/><path d="M7.33,24.57c.11,0,.19.11.31.09a.06.06,0,0,0,0-.07c0-.13-.18-.17-.29-.22s-.18.15-.06.2Z" style="fill:#0c0a35"/><path d="M13,26.66c.11,0,.19.12.31.09s0,0,0-.06-.18-.18-.3-.22-.17.14-.05.19Z" style="fill:#0c0a35"/><path d="M33.36,36.92c.11,0,.19.11.31.09a.07.07,0,0,0,0-.07c0-.13-.18-.17-.29-.22s-.18.15-.06.2Z" style="fill:#0c0a35"/><path d="M25.79,33.77c.1,0,.19.11.3.09a.06.06,0,0,0,0-.07c0-.13-.17-.17-.29-.22s-.17.15-.05.2Z" style="fill:#0c0a35"/><path d="M7.63,26.19c.11,0,.19.11.31.09a.07.07,0,0,0,0-.07c0-.13-.18-.17-.3-.22s-.17.15,0,.2Z" style="fill:#0c0a35"/><path d="M18.25,28.46c.11,0,.19.11.31.09a0,0,0,0,0,0-.06c0-.14-.18-.18-.29-.22s-.17.14-.06.19Z" style="fill:#0c0a35"/><path d="M23.45,31.59c.11,0,.19.11.31.09a.06.06,0,0,0,0-.07c0-.13-.18-.17-.29-.22s-.17.15-.06.2Z" style="fill:#0c0a35"/><path d="M25.46,32.44c.1,0,.18.11.3.09a.06.06,0,0,0,0-.07c0-.13-.18-.17-.29-.22s-.17.15-.05.2Z" style="fill:#0c0a35"/><path d="M12.83,28.26c.11,0,.19.12.31.09s0,0,0-.06-.18-.18-.3-.22-.17.14-.05.19Z" style="fill:#0c0a35"/><path d="M8.4,27.38c.11.05.19.12.31.1a.06.06,0,0,0,0-.07c0-.13-.18-.18-.29-.22s-.17.15-.06.19Z" style="fill:#0c0a35"/><path d="M11.3,28.39c.11,0,.19.11.31.09a.06.06,0,0,0,0-.07c0-.13-.18-.18-.29-.22s-.17.15-.06.2Z" style="fill:#0c0a35"/><path d="M31.53,37.84c.11,0,.19.11.31.09a.07.07,0,0,0,0-.07c0-.13-.18-.17-.3-.22s-.17.15,0,.2Z" style="fill:#0c0a35"/><path d="M5.23,12.71a.22.22,0,0,0,.13,0,17.14,17.14,0,0,0,1.3-1.24.27.27,0,0,0,.08-.16.25.25,0,0,0-.08-.12c-.34-.34-.69-.65-1-1-.14-.15-.3-.33-.4-.33h0c-.1,0-.26.18-.4.33-.32.36-.67.67-1,1a.19.19,0,0,0-.07.12.21.21,0,0,0,.07.16,17.14,17.14,0,0,0,1.3,1.24.23.23,0,0,0,.14,0Z" style="fill:#d6002b"/><path d="M35.6,52.24a.2.2,0,0,0,.13,0A15.38,15.38,0,0,0,37,51a.21.21,0,0,0,.08-.16.23.23,0,0,0-.08-.12c-.33-.33-.69-.65-1-1-.13-.15-.3-.32-.4-.33h0c-.1,0-.26.18-.4.33-.31.36-.67.68-1,1,0,0-.07.07-.07.12a.18.18,0,0,0,.08.16,13.86,13.86,0,0,0,1.29,1.24.23.23,0,0,0,.14,0Z" style="fill:#d6002b"/><path d="M7.81,8.74H7L5.3,5.57,4,7.21V8.74H3.26V3H4V6.33L6.58,3h.78L5.8,5Z" style="fill:#d6002b"/><path d="M33,53.54h.79l1.72,3.18,1.32-1.65V53.54h.72v5.75h-.72V56l-2.61,3.33h-.77l1.55-2Z" style="fill:#d6002b"/><path d="M12.18,59.11h-6a3.1,3.1,0,0,1-3-3.19V15.66h.19V55.92a2.92,2.92,0,0,0,2.81,3h6.05Z" style="fill:#d6002b"/><rect x="27.56" y="58.93" width="5.16" height="0.19" style="fill:#d6002b"/><path d="M37.68,46.82h-.19V6.36a2.92,2.92,0,0,0-2.82-3H28.79V3.17h5.88a3.11,3.11,0,0,1,3,3.19Z" style="fill:#d6002b"/><rect x="8.38" y="3.17" width="4.8" height="0.19" style="fill:#d6002b"/><path d="M20.58,25.87a.35.35,0,0,0,.28.32A.1.1,0,0,0,21,26a1.14,1.14,0,0,0-.21-.28c-.08-.08-.2,0-.18.11Z" style="fill:#b70027"/><path d="M23,27.37a.59.59,0,0,0,.43.09c.1,0,.11-.15.05-.21a.34.34,0,0,0-.48,0,.09.09,0,0,0,0,.16Z" style="fill:#b70027"/><path d="M24.75,25.79a3,3,0,0,0,.68-.21.1.1,0,0,0,0-.18c-.27-.08-.51.14-.71.31a0,0,0,0,0,.05.08Z" style="fill:#b70027"/><path d="M26.9,23.36a.79.79,0,0,0,.3.4c.06,0,.13-.05.1-.11a1.9,1.9,0,0,0-.26-.37c-.05-.06-.17,0-.14.08Z" style="fill:#b70027"/><path d="M28,25.2a1,1,0,0,0,.31.41.08.08,0,0,0,.12-.07.71.71,0,0,0-.22-.46c-.09-.13-.3,0-.21.12Z" style="fill:#b70027"/><path d="M29.84,24.49a2.15,2.15,0,0,0,.32.13.09.09,0,0,0,.11-.1c0-.19-.18-.26-.35-.32s-.26.22-.08.29Z" style="fill:#b70027"/><path d="M26.09,28.19a.42.42,0,0,0,.11.34s.09,0,.09,0,0-.2,0-.3-.17-.11-.18,0Z" style="fill:#b70027"/><path d="M24.26,29.54c0,.17,0,.3.21.36a.06.06,0,0,0,.07-.06c0-.1,0-.2,0-.3s-.27-.16-.25,0Z" style="fill:#b70027"/><path d="M26.43,31a.55.55,0,0,1,.2.17c.05.06.14,0,.13-.08a.38.38,0,0,0-.22-.27c-.13-.06-.23.13-.11.18Z" style="fill:#b70027"/><path d="M16.6,25.56a2.29,2.29,0,0,0,.09.28.12.12,0,0,0,.17,0l0-.05a.14.14,0,0,0,0-.15.23.23,0,0,0-.26-.21.08.08,0,0,0-.08.1Z" style="fill:#b70027"/><path d="M20.2,27.67a.39.39,0,0,0,.14.12.12.12,0,0,0,.13,0l.05,0s.06-.09,0-.12-.14-.09-.18-.13-.25,0-.16.16Z" style="fill:#b70027"/><path d="M15.81,33c.14,0,.26,0,.4-.06s.08-.15,0-.18a.58.58,0,0,0-.48,0c-.11.05,0,.23.08.19Z" style="fill:#b70027"/><path d="M5.88,28.66h0a.16.16,0,0,0-.14.11.32.32,0,0,0,.2.41A.1.1,0,0,0,6,29.09,1,1,0,0,0,6,28.7a.08.08,0,0,0-.07,0Z" style="fill:#b70027"/><path d="M34.71,33c.19.06.33.11.49,0a.09.09,0,0,0,0-.12c-.16-.14-.3-.09-.49,0a.09.09,0,0,0,0,.17Z" style="fill:#b70027"/><path d="M34.9,34.74a.44.44,0,0,0,0,.3.1.1,0,0,0,.17,0l0-.05a.17.17,0,0,0,0-.19.36.36,0,0,0-.15-.15.08.08,0,0,0-.13.07Z" style="fill:#b70027"/><path d="M29.2,33c.12,0,.23,0,.35,0a.06.06,0,0,0,0-.11.35.35,0,0,0-.41,0,.06.06,0,0,0,.05.11Z" style="fill:#b70027"/><path d="M14.18,31.16a.78.78,0,0,0,0,.5s.08.07.11,0a.56.56,0,0,0,.1-.53c0-.1-.17-.09-.2,0Z" style="fill:#b70027"/><path d="M13.9,35c.1,0,.17.09.26.12a.09.09,0,0,0,.11-.09.28.28,0,0,0-.34-.27.12.12,0,0,0,0,.24Z" style="fill:#b70027"/><path d="M16.55,35.39a.84.84,0,0,0,.34.38c.07,0,.17,0,.12-.12s-.2-.23-.29-.36-.23,0-.17.1Z" style="fill:#b70027"/><path d="M14.43,37.22c.05.2.05.44.22.57a.07.07,0,0,0,.09,0c.1-.19,0-.42-.11-.61a.1.1,0,0,0-.2.06Z" style="fill:#b70027"/><path d="M12,37.05a1.29,1.29,0,0,1-.08.26.13.13,0,0,0,.16.15.31.31,0,0,0,.2-.41.15.15,0,0,0-.28,0Z" style="fill:#b70027"/><path d="M12.69,39l.17.08a.06.06,0,0,0,.07-.08.37.37,0,0,0-.16-.14c-.09-.06-.17.1-.08.14Z" style="fill:#b70027"/><path d="M19.15,34.2c.13.07.21.2.36.22a.09.09,0,0,0,.11-.08c0-.25-.25-.32-.46-.27a.07.07,0,0,0,0,.13Z" style="fill:#b70027"/><path d="M19.68,37.44a.67.67,0,0,0,.45-.2.07.07,0,0,0-.05-.12.75.75,0,0,0-.45.14c-.07.05-.05.19.05.18Z" style="fill:#b70027"/><path d="M22.8,35.71c0,.17.09.33.28.32a.1.1,0,0,0,.09-.07c0-.18-.1-.25-.24-.35s-.16,0-.13.1Z" style="fill:#b70027"/><path d="M25.13,37.65a1,1,0,0,0,.49-.09.08.08,0,0,0,0-.14.45.45,0,0,0-.54,0c-.09.06-.06.22.05.21Z" style="fill:#b70027"/><path d="M28.7,39a1.23,1.23,0,0,0,.36.25c.06,0,.11,0,.1-.1a.5.5,0,0,0-.35-.34c-.1,0-.2.12-.11.19Z" style="fill:#b70027"/><path d="M11.1,35.93a.86.86,0,0,1,.24-.11s0-.06,0-.06a.34.34,0,0,0-.28.1s0,.09,0,.07Z" style="fill:#b70027"/></svg>