<?xml version="1.0" encoding="utf-8"?>
<!-- Generator: Adobe Illustrator 24.3.0, SVG Export Plug-In . SVG Version: 6.00 Build 0)  -->
<svg version="1.1" id="Layer_1" xmlns="http://www.w3.org/2000/svg" xmlns:xlink="http://www.w3.org/1999/xlink" x="0px" y="0px"
	 viewBox="0 0 40.9 62.3" style="enable-background:new 0 0 40.9 62.3;" xml:space="preserve">
<style type="text/css">
	.st0{fill:#FFFFFF;}
	.st1{fill:#D6002B;}
</style>
<path class="st0" d="M3.5,0.1h33.8c1.9,0,3.5,1.5,3.5,3.5v55.2c0,1.9-1.5,3.5-3.5,3.5H3.5c-1.9,0-3.5-1.5-3.5-3.5V3.5
	C0.1,1.6,1.6,0.1,3.5,0.1z"/>
<path class="st1" d="M20.3,35.9c0.2,0,0.3,0,0.4-0.1c1.5-1.3,2.9-2.6,4.3-4.1c0.2-0.1,0.3-0.3,0.3-0.5c0-0.2-0.1-0.3-0.2-0.4
	c-1.1-1.1-2.3-2.1-3.3-3.3c-0.5-0.5-1-1.1-1.3-1.1h-0.2c-0.3,0-0.9,0.6-1.3,1.1c-1,1.2-2.2,2.2-3.3,3.3c-0.1,0.1-0.2,0.2-0.2,0.4
	c0,0.2,0.1,0.4,0.3,0.5c1.3,1.4,2.8,2.8,4.3,4.1C20,35.9,20.1,35.9,20.3,35.9L20.3,35.9z"/>
<path class="st1" d="M5.3,12.7c0,0,0.1,0,0.1,0c0.5-0.4,0.9-0.8,1.3-1.2c0,0,0.1-0.1,0.1-0.2c0,0,0-0.1-0.1-0.1
	c-0.3-0.3-0.7-0.6-1-1C5.6,10,5.4,9.9,5.3,9.9l0,0c-0.1,0-0.3,0.2-0.4,0.3c-0.3,0.4-0.7,0.7-1,1c0,0-0.1,0.1-0.1,0.1
	c0,0.1,0,0.1,0.1,0.2C4.3,11.9,4.8,12.3,5.3,12.7C5.3,12.7,5.3,12.7,5.3,12.7L5.3,12.7z"/>
<path class="st1" d="M35.7,52.2c0,0,0.1,0,0.1,0c0.5-0.4,0.9-0.8,1.3-1.2c0,0,0.1-0.1,0.1-0.2c0,0,0-0.1-0.1-0.1
	c-0.3-0.3-0.7-0.7-1-1c-0.1-0.2-0.3-0.3-0.4-0.3h-0.1c-0.1,0-0.3,0.2-0.4,0.3c-0.3,0.4-0.7,0.7-1,1c0,0-0.1,0.1-0.1,0.1
	c0,0.1,0,0.1,0.1,0.2c0.4,0.4,0.8,0.9,1.3,1.2C35.6,52.3,35.6,52.3,35.7,52.2z"/>
<path class="st1" d="M7.6,8.7H6.8L6.3,7.1H4.1L3.6,8.7H3L4.9,3h0.8L7.6,8.7z M6.1,6.5L5.2,3.8L4.3,6.5H6.1z"/>
<path class="st1" d="M33.4,53.5h0.7l0.6,1.7h2.1l0.5-1.7h0.6l-1.9,5.8h-0.8L33.4,53.5z M34.9,55.8l0.9,2.8l0.9-2.8H34.9z"/>
</svg>
