<?xml version="1.0" encoding="utf-8"?>
<!-- Generator: Adobe Illustrator 24.3.0, SVG Export Plug-In . SVG Version: 6.00 Build 0)  -->
<svg version="1.1" id="Layer_1" xmlns="http://www.w3.org/2000/svg" xmlns:xlink="http://www.w3.org/1999/xlink" x="0px" y="0px"
	 viewBox="0 0 40.9 62.3" style="enable-background:new 0 0 40.9 62.3;" xml:space="preserve">
<style type="text/css">
	.st0{fill:#FFFFFF;}
	.st1{fill:#D6002B;}
</style>
<path class="st0" d="M3.5,0.1h33.8c1.9,0,3.5,1.5,3.5,3.5v55.2c0,1.9-1.5,3.5-3.5,3.5H3.5c-1.9,0-3.5-1.5-3.5-3.5V3.5
	C0.1,1.6,1.6,0.1,3.5,0.1z"/>
<path class="st1" d="M5.3,12.7c0,0,0.1,0,0.1,0c0.5-0.4,0.9-0.8,1.3-1.2c0,0,0.1-0.1,0.1-0.2c0,0,0-0.1-0.1-0.1
	c-0.3-0.3-0.7-0.6-1-1C5.6,10,5.4,9.9,5.3,9.9l0,0c-0.1,0-0.3,0.2-0.4,0.3c-0.3,0.4-0.7,0.7-1,1c0,0-0.1,0.1-0.1,0.1
	c0,0.1,0,0.1,0.1,0.2C4.3,11.9,4.8,12.3,5.3,12.7C5.3,12.7,5.3,12.7,5.3,12.7L5.3,12.7z"/>
<path class="st1" d="M35.7,52.2c0,0,0.1,0,0.1,0c0.5-0.4,0.9-0.8,1.3-1.2c0,0,0.1-0.1,0.1-0.2c0,0,0-0.1-0.1-0.1
	c-0.3-0.3-0.7-0.7-1-1c-0.1-0.2-0.3-0.3-0.4-0.3h-0.1c-0.1,0-0.3,0.2-0.4,0.3c-0.3,0.4-0.7,0.7-1,1c0,0-0.1,0.1-0.1,0.1
	c0,0.1,0,0.1,0.1,0.2c0.4,0.4,0.8,0.9,1.3,1.2C35.6,52.3,35.6,52.3,35.7,52.2L35.7,52.2z"/>
<path class="st1" d="M7.3,8.1v0.6H3.2V8.1c1-0.7,2-1.5,2.9-2.4C6.4,5.4,6.6,5,6.6,4.6c0-0.3-0.1-0.7-0.4-0.8c-0.5-0.4-1.3-0.4-1.8,0
	C4.1,4,3.9,4.4,3.9,4.8L3.2,4.6c0.2-1,1-1.7,2.1-1.7c0.5,0,1,0.2,1.4,0.5c0.4,0.3,0.6,0.8,0.6,1.2c0,0.4-0.1,0.7-0.3,1
	C6.8,6,6.4,6.4,6,6.7C5.5,7.1,4.9,7.6,4.1,8.1H7.3z"/>
<path class="st1" d="M33.6,54.1v-0.6h4.1v0.6c-1,0.7-2,1.5-2.9,2.4c-0.3,0.3-0.4,0.7-0.5,1.1c0,0.3,0.1,0.7,0.4,0.9
	c0.3,0.2,0.6,0.3,0.9,0.3c0.7,0,1.3-0.6,1.3-1.3l0.7,0.2c-0.2,1-1,1.7-2.1,1.7c-0.5,0-1.1-0.2-1.5-0.5c-0.4-0.3-0.6-0.8-0.5-1.2
	c0-0.4,0.1-0.7,0.3-1c0.3-0.4,0.6-0.8,1-1.1c0.6-0.5,1.2-1,1.9-1.5L33.6,54.1z"/>
<path class="st1" d="M20.5,13.2c0.2,0,0.3,0,0.4-0.1c1.5-1.3,2.9-2.6,4.3-4.1c0.2-0.1,0.3-0.3,0.3-0.5c0-0.2-0.1-0.3-0.2-0.4
	c-1.1-1.1-2.3-2.2-3.3-3.3c-0.5-0.5-1-1.1-1.3-1.1h-0.2c-0.3,0-0.9,0.6-1.3,1.1C18,5.9,16.9,7,15.8,8.1c-0.1,0.1-0.2,0.2-0.3,0.4
	c0,0.2,0.1,0.4,0.3,0.5c1.3,1.4,2.8,2.8,4.2,4.1C20.1,13.2,20.3,13.2,20.5,13.2L20.5,13.2z"/>
<path class="st1" d="M20.5,49.1c-0.2,0-0.3,0-0.4,0.1c-1.5,1.3-2.9,2.6-4.3,4.1c-0.2,0.1-0.2,0.3-0.3,0.5c0,0.2,0.1,0.3,0.3,0.4
	c1.1,1.1,2.3,2.2,3.3,3.3c0.5,0.5,1,1.1,1.3,1.1h0.2c0.3,0,0.9-0.6,1.3-1.1c1-1.2,2.2-2.2,3.3-3.3c0.1-0.1,0.2-0.2,0.2-0.4
	c0-0.2-0.1-0.4-0.3-0.5c-1.3-1.4-2.8-2.8-4.3-4.1C20.8,49.1,20.6,49.1,20.5,49.1L20.5,49.1z"/>
</svg>
