<?xml version="1.0" encoding="utf-8"?>
<!-- Generator: Adobe Illustrator 24.3.0, SVG Export Plug-In . SVG Version: 6.00 Build 0)  -->
<svg version="1.1" id="Layer_1" xmlns="http://www.w3.org/2000/svg" xmlns:xlink="http://www.w3.org/1999/xlink" x="0px" y="0px"
	 viewBox="0 0 40.9 62.3" style="enable-background:new 0 0 40.9 62.3;" xml:space="preserve">
<style type="text/css">
	.st0{fill:#FFFFFF;}
	.st1{fill:#D6002B;}
</style>
<path class="st0" d="M3.5,0.1h33.8c1.9,0,3.5,1.5,3.5,3.5v55.2c0,1.9-1.5,3.5-3.5,3.5H3.5c-1.9,0-3.5-1.5-3.5-3.5V3.5
	C0.1,1.6,1.6,0.1,3.5,0.1z"/>
<path class="st1" d="M5.4,12.6c0,0,0.1,0,0.1,0c0.5-0.4,0.9-0.8,1.3-1.2c0,0,0.1-0.1,0.1-0.1s0-0.1-0.1-0.1c-0.3-0.3-0.7-0.6-1-1
	C5.7,9.9,5.5,9.8,5.4,9.7l0,0c-0.1,0-0.3,0.2-0.4,0.3c-0.3,0.4-0.7,0.7-1,1c0,0-0.1,0.1-0.1,0.1c0,0.1,0,0.1,0.1,0.1
	C4.4,11.8,4.9,12.2,5.4,12.6C5.4,12.6,5.4,12.6,5.4,12.6L5.4,12.6z"/>
<path class="st1" d="M35.8,52.1c0,0,0.1,0,0.1,0c0.5-0.4,0.9-0.8,1.3-1.2c0,0,0.1-0.1,0.1-0.2c0,0,0-0.1-0.1-0.1
	c-0.3-0.3-0.7-0.7-1-1c-0.1-0.2-0.3-0.3-0.4-0.3h0c-0.1,0-0.3,0.2-0.4,0.3c-0.3,0.4-0.7,0.7-1,1c0,0-0.1,0.1-0.1,0.1
	c0,0.1,0,0.1,0.1,0.2c0.4,0.4,0.8,0.8,1.3,1.2C35.7,52.2,35.7,52.2,35.8,52.1L35.8,52.1z"/>
<path class="st1" d="M4.6,6V5.4h0.7c0.4,0,0.7-0.1,1-0.3c0.2-0.2,0.3-0.4,0.3-0.7c0-0.3-0.1-0.6-0.3-0.7C5.9,3.4,5.6,3.3,5.3,3.3
	C4.7,3.3,4.2,3.7,4,4.3L3.3,4.1c0.3-0.9,1.1-1.4,2.1-1.3c0.5,0,1,0.1,1.4,0.4c0.3,0.3,0.5,0.7,0.5,1.1c0,0.3-0.1,0.6-0.3,0.9
	C6.8,5.4,6.5,5.6,6.2,5.6c0.4,0.1,0.7,0.2,0.9,0.5c0.3,0.3,0.4,0.6,0.4,1c0,0.5-0.2,0.9-0.6,1.2c-0.5,0.3-1,0.5-1.6,0.5
	c-0.5,0-1-0.1-1.4-0.4c-0.4-0.2-0.6-0.6-0.8-1l0.7-0.2c0.2,0.7,0.8,1.1,1.5,1c0.4,0,0.8-0.1,1.1-0.3C6.7,7.6,6.8,7.3,6.8,7
	c0-0.3-0.1-0.6-0.4-0.8C6,6,5.6,5.9,5.2,6H4.6z"/>
<path class="st1" d="M36.6,56.1v0.6h-0.7c-0.4,0-0.7,0.1-1,0.3c-0.2,0.2-0.3,0.4-0.3,0.7c0,0.3,0.1,0.6,0.3,0.7
	c0.2,0.2,0.6,0.3,0.9,0.3c0.6,0,1.2-0.4,1.3-0.9l0.7,0.2c-0.5,1.1-1.9,1.6-3,1.1c-0.1-0.1-0.3-0.1-0.4-0.2c-0.3-0.3-0.5-0.7-0.5-1.1
	c0-0.3,0.1-0.6,0.3-0.9c0.2-0.2,0.5-0.4,0.8-0.5c-0.4,0-0.7-0.2-1-0.5c-0.3-0.3-0.4-0.6-0.4-1c0-0.5,0.2-0.9,0.6-1.2
	c0.5-0.4,1-0.5,1.6-0.5c0.5,0,1,0.1,1.4,0.4c0.4,0.2,0.7,0.6,0.8,1l-0.7,0.2c-0.2-0.7-0.8-1.1-1.5-1c-0.4,0-0.8,0.1-1.1,0.3
	c-0.2,0.2-0.4,0.5-0.3,0.8c0,0.3,0.2,0.6,0.4,0.8c0.3,0.2,0.7,0.3,1.1,0.3L36.6,56.1z"/>
<path class="st1" d="M20.6,13.1c0.2,0,0.3,0,0.4-0.1c1.5-1.3,2.9-2.6,4.3-4.1c0.2-0.1,0.3-0.3,0.3-0.5c0-0.2-0.1-0.3-0.2-0.4
	C24.2,6.9,23,5.8,22,4.7c-0.5-0.5-1-1.1-1.3-1.1h-0.2c-0.3,0-0.9,0.6-1.3,1.1C18.1,5.8,17,6.9,15.8,8c-0.1,0.1-0.2,0.2-0.2,0.4
	c0,0.2,0.1,0.4,0.3,0.5c1.3,1.5,2.8,2.8,4.3,4.1C20.3,13.1,20.4,13.1,20.6,13.1L20.6,13.1z"/>
<path class="st1" d="M20.6,49c-0.2,0-0.3,0-0.4,0.1c-1.5,1.3-2.9,2.6-4.3,4.1c-0.2,0.1-0.3,0.3-0.3,0.5c0,0.2,0.1,0.3,0.2,0.4
	c1.1,1.1,2.3,2.2,3.3,3.3c0.5,0.5,1,1.1,1.3,1.1h0.2c0.3,0,0.9-0.6,1.3-1.1c1-1.2,2.2-2.2,3.3-3.3c0.1-0.1,0.2-0.2,0.2-0.4
	c0-0.2-0.1-0.4-0.3-0.5c-1.3-1.5-2.8-2.8-4.3-4.1C20.9,49,20.7,49,20.6,49L20.6,49z"/>
<path class="st1" d="M20.4,35.8c0.2,0,0.3,0,0.4-0.1c1.5-1.3,2.9-2.6,4.3-4.1c0.3-0.2,0.3-0.5,0.2-0.7c0-0.1-0.1-0.1-0.2-0.2
	c-1.1-1.1-2.3-2.1-3.3-3.3c-0.5-0.5-1-1.1-1.3-1.1h-0.2c-0.3,0-0.9,0.6-1.3,1.1c-1,1.2-2.2,2.2-3.3,3.3c-0.1,0.1-0.2,0.2-0.2,0.4
	c0,0.2,0.1,0.4,0.3,0.5c1.3,1.5,2.8,2.8,4.3,4.1C20.1,35.8,20.2,35.8,20.4,35.8L20.4,35.8z"/>
</svg>
