<svg id="Layer_1" data-name="Layer 1" xmlns="http://www.w3.org/2000/svg" viewBox="0 0 40.93 62.29"><path d="M37.37,62.21l-33.85,0A3.45,3.45,0,0,1,.07,58.73l0-55.2A3.45,3.45,0,0,1,3.56.08L37.41.1a3.47,3.47,0,0,1,3.45,3.46l0,55.2A3.46,3.46,0,0,1,37.37,62.21Z" style="fill:#fff"/><path d="M5.75,12.71c.17-.15.35-.27.53-.4a3.24,3.24,0,0,0,.57-.47,1.44,1.44,0,0,0,.26-.49,1.22,1.22,0,0,0,0-.78.94.94,0,0,0-1.74.16s0,0,0,0h0a.05.05,0,0,1,0,0,.94.94,0,0,0-1.74-.16,1.22,1.22,0,0,0,0,.78,1.27,1.27,0,0,0,.25.49,3.65,3.65,0,0,0,.57.47c.18.13.37.25.54.4l.45.48Z" style="fill:#d6002b"/><path d="M35.22,49.65c-.17.15-.35.27-.53.4a3.24,3.24,0,0,0-.57.47,1.44,1.44,0,0,0-.26.49,1.22,1.22,0,0,0,0,.78.94.94,0,0,0,1.74-.16s0,0,0,0h0s0,0,0,0a.94.94,0,0,0,1.74.16,1.16,1.16,0,0,0,0-.78,1.27,1.27,0,0,0-.25-.49,3.24,3.24,0,0,0-.57-.47,5.25,5.25,0,0,1-.53-.4c-.09-.08-.46-.48-.46-.48Z" style="fill:#d6002b"/><path d="M7,3,7,3.61H4.12L4,5.48a2,2,0,0,1,1.41-.63,2,2,0,0,1,1.39.56,1.93,1.93,0,0,1,.59,1.44A1.84,1.84,0,0,1,6.75,8.3a2.28,2.28,0,0,1-1.56.56A2.22,2.22,0,0,1,3.9,8.48a1.79,1.79,0,0,1-.74-1l.61-.21a1.41,1.41,0,0,0,1.43,1,1.46,1.46,0,0,0,1.09-.4,1.41,1.41,0,0,0,.4-1,1.35,1.35,0,0,0-.4-1,1.37,1.37,0,0,0-1-.37A1.59,1.59,0,0,0,4,6.23L3.41,6.1,3.6,3Z" style="fill:#d6002b"/><path d="M33.94,59.29l.06-.62h2.83L37,56.81a2,2,0,0,1-1.41.62,1.91,1.91,0,0,1-1.39-.56A2,2,0,0,1,34.2,54a2.24,2.24,0,0,1,1.56-.57,2.3,2.3,0,0,1,1.29.38,1.81,1.81,0,0,1,.74,1l-.61.2a1.43,1.43,0,0,0-1.43-1,1.47,1.47,0,0,0-1.09.41,1.42,1.42,0,0,0-.41,1,1.32,1.32,0,0,0,1.36,1.4A1.6,1.6,0,0,0,37,56.06l.56.12-.18,3.11Z" style="fill:#d6002b"/><path d="M15.08,12c.47-.42,1-.75,1.5-1.13a9.57,9.57,0,0,0,1.6-1.3,4.1,4.1,0,0,0,.72-1.41,3.38,3.38,0,0,0-.1-2.18c-.87-1.39-3.3-2.61-4.89.46a.15.15,0,0,1-.12.07h0a.15.15,0,0,1-.12-.07c-1.59-3.07-4-1.85-4.89-.46a3.38,3.38,0,0,0-.1,2.18A3.93,3.93,0,0,0,9.4,9.52a9.57,9.57,0,0,0,1.6,1.3c.51.38,1,.71,1.5,1.13.24.22,1.29,1.35,1.29,1.35S14.84,12.17,15.08,12Z" style="fill:#d6002b"/><path d="M28.43,12c.47-.42,1-.75,1.5-1.13a9.18,9.18,0,0,0,1.6-1.3,3.93,3.93,0,0,0,.72-1.41,3.38,3.38,0,0,0-.1-2.18c-.87-1.39-3.29-2.61-4.89.46a.15.15,0,0,1-.12.07h0A.12.12,0,0,1,27,6.39c-1.6-3.07-4-1.85-4.9-.46A3.38,3.38,0,0,0,22,8.11a4.28,4.28,0,0,0,.72,1.41,9.57,9.57,0,0,0,1.6,1.3c.51.38,1,.71,1.5,1.13.24.22,1.29,1.35,1.29,1.35S28.19,12.17,28.43,12Z" style="fill:#d6002b"/><path d="M25.85,50.33a16.34,16.34,0,0,1-1.5,1.13,9.63,9.63,0,0,0-1.6,1.31,4.23,4.23,0,0,0-.72,1.4,3.42,3.42,0,0,0,.1,2.19C23,57.75,25.43,59,27,55.9a.12.12,0,0,1,.11-.07h0a.15.15,0,0,1,.12.07c1.6,3.07,4,1.85,4.89.46a3.42,3.42,0,0,0,.1-2.19,3.89,3.89,0,0,0-.72-1.4,9.24,9.24,0,0,0-1.6-1.31,16.34,16.34,0,0,1-1.5-1.13c-.24-.21-1.29-1.34-1.29-1.34S26.09,50.12,25.85,50.33Z" style="fill:#d6002b"/><path d="M12.5,50.33A16.34,16.34,0,0,1,11,51.46a9.63,9.63,0,0,0-1.6,1.31,3.89,3.89,0,0,0-.72,1.4,3.42,3.42,0,0,0,.1,2.19c.87,1.39,3.3,2.61,4.89-.46a.15.15,0,0,1,.12-.07h0a.15.15,0,0,1,.12.07c1.59,3.07,4,1.85,4.89.46a3.42,3.42,0,0,0,.1-2.19,4.05,4.05,0,0,0-.72-1.4,9.63,9.63,0,0,0-1.6-1.31,16.34,16.34,0,0,1-1.5-1.13c-.24-.21-1.29-1.34-1.29-1.34S12.74,50.12,12.5,50.33Z" style="fill:#d6002b"/><path d="M21.75,34.21c.48-.42,1-.75,1.5-1.13a8.47,8.47,0,0,0,1.6-1.31,3.81,3.81,0,0,0,.72-1.4,3.32,3.32,0,0,0-.09-2.18c-.87-1.4-3.3-2.62-4.9.45a.12.12,0,0,1-.11.07h0a.12.12,0,0,1-.11-.07c-1.6-3.07-4-1.85-4.9-.45a3.32,3.32,0,0,0-.09,2.18,3.81,3.81,0,0,0,.72,1.4,8.47,8.47,0,0,0,1.6,1.31c.51.38,1,.71,1.5,1.13.23.21,1.29,1.35,1.29,1.35S21.52,34.42,21.75,34.21Z" style="fill:#d6002b"/></svg>