<?xml version="1.0" encoding="utf-8"?>
<!-- Generator: Adobe Illustrator 24.3.0, SVG Export Plug-In . SVG Version: 6.00 Build 0)  -->
<svg version="1.1" id="Layer_1" xmlns="http://www.w3.org/2000/svg" xmlns:xlink="http://www.w3.org/1999/xlink" x="0px" y="0px"
	 viewBox="0 0 40.9 62.3" style="enable-background:new 0 0 40.9 62.3;" xml:space="preserve">
<style type="text/css">
	.st0{fill:#FFFFFF;}
	.st1{fill:#222272;}
	.st2{fill:#0C0A35;}
	.st3{fill:#F70032;}
	.st4{fill:#D6002B;}
	.st5{fill:#FFD6A1;}
	.st6{fill:#191956;}
	.st7{fill:#B70027;}
	.st8{fill:#990028;}
	.st9{fill:#141247;}
</style>
<path class="st0" d="M3.5,0.1h33.8c1.9,0,3.5,1.5,3.5,3.5v55.2c0,1.9-1.5,3.5-3.5,3.5H3.5c-1.9,0-3.5-1.5-3.5-3.5V3.5
	C0.1,1.6,1.6,0.1,3.5,0.1z"/>
<path class="st1" d="M13.5,24.9l-2.7,1.4c-0.5,0.3-1.1,0.4-1.6,0.3c-0.7-0.2-1.3-0.8-1.4-1.6c-0.9-3-0.6-5.1-1-8.2
	c0-0.2,0-0.4,0.1-0.6C7,16,6.8,16,7,16c0.4-0.1,0.9-0.1,1.3-0.1C8,17.2,8.6,18.3,9,20.2c0.2,0.9,0.4,1.8,0.4,2.8
	c0,0.2,0.4,0.5,0.5,0.4c1.4-0.6,2.1-1,2.6-1.1C13,23.1,13.1,24,13.5,24.9z"/>
<path class="st2" d="M34.6,26.8c0.8,1.4,1.2,2.9,1.4,4.5c0,0.3,0,0.7-0.1,1c-0.1,0.3-0.2,0.7-0.3,1c-0.9,2.6-2.4,3.5-2.2,6.2
	c-0.5-0.1-1.1-0.2-1.6-0.3c-0.1-1.7,0.1-3.4,0.6-5c0.3-1.2,0.6-2.3,0.7-3.5c-0.3-0.9-0.7-1.8-1.2-2.6C32.7,27.6,33.7,27.1,34.6,26.8
	z"/>
<path class="st2" d="M23.5,41.4c0.8-0.8,1.4-1.8,1.5-2.9c0.2-1.8-0.8-0.8-1.6-1.3c-0.4-0.3-0.8-0.4-1.3-0.4c-0.4,0-2.2-1.3-2.4-1
	c-1.8,1.8-3.1,4.6-4.9,6.8c-0.5,0.4-0.8,1-0.8,1.7c0.2,0.6,0.5,1.2,0.9,1.8c1.5,2.6,2.8,5,4.3,7.5c0.1,0.1,0.1,0.2,0.2,0.3
	c0.8,0.5,1.7,0.9,2.6,1.2c-0.8-3-1.1-7.3-3.4-10c-0.2-0.2-0.1-0.5,0.1-0.6c0,0,0,0,0.1,0C20.4,43.6,22,42.5,23.5,41.4z"/>
<path class="st3" d="M20.1,19.2c-1.9-0.1-3.8,0.6-5.2,1.9c-0.3,0.2-0.5,0.5-0.6,0.9c-0.1,0.6,0.5,1.1,1,1.5s1.8-0.2,2.1,0.6
	c0.2,0.7,0.3,1.5,0.4,2.2c0.1,3.1,0.6,7,2,9.7c1.3,0.1,2,0.2,3.3,0.3c0.4,0,3.4,1,3.4,0.6c-0.1-2.4-1.3-2.5-1-4.1s1-2,1.8-4
	c0.6-1.2,1.5-2.2,2.7-2.9c0.9-0.5,1.9-1,2.9-1.3c0.1,0,0.2-0.1,0.3-0.2c0.1-0.1,0.1-0.3,0-0.4c-0.4-1.2-1.2-2.1-2.2-2.8
	c-1-0.6-2.1-1.2-3.3-1.6c-1.7-0.7-3.7-1.4-5.4-0.6L20.1,19.2z"/>
<path class="st4" d="M22.3,12.6c0.1-0.5,0.2-1.1,0.3-1.6c0.2-0.9,0.1-1.9-0.1-2.9c-0.2-1-0.9-1.8-1.8-2.2c0.6-0.1,1.1,0.1,1.6,0.4
	c0.6,0.4,1.1,1.1,1.3,1.8c0.1,0.4,0.1,0.7,0.2,1.1c0,0.5,0.1,1,0.2,1.5c0,0,0.1,0.1,0.1,0c0,0,0,0,0,0c0.3-1.2,0.5-2.3,0.5-3.5
	c0.1-0.9,0.4-1.9,0.9-2.6c0.5,1,0.6,2.2,0.4,3.3c-0.1,1-0.3,2-0.3,3 M25.7,11c0.3-1.5,1-2.9,2.1-4c0.4-0.3,0.8-0.5,1.2-0.7
	c0.3-0.2,0.6-0.4,1-0.4c-0.9,1.2-1.8,2.5-2.4,3.9c-0.3,0.5-0.4,1.1-0.5,1.6c0,0,0,0.1,0.1,0.1c0,0,0,0,0.1,0c0.5-0.9,1.2-1.7,2-2.4
	c1.1-0.7,2.5-1,3.8-0.8c-0.6,0.2-1.1,0.4-1.6,0.6c-0.7,0.5-1.4,1.1-1.9,1.8c-0.6,0.7-1,1.6-1.2,2.6c0,0.1-0.1,0.2-0.1,0.3
	c-0.2,0.2-0.4,0.2-0.6,0.2c-0.4-0.1-0.8-0.3-1.2-0.5c-1.3-0.5-2.7-0.1-3.9-0.7L25.7,11z"/>
<path class="st1" d="M22.6,18c-1.6,0.5-3.2,0.7-4.9,0.5c0,0-0.1,0-0.1,0s0.2,0.3,0.3,0.3c0.8,0.3,1.6,0.4,2.4,0.6
	c0.2,0.1-0.4,0.2-0.6,0.3c-0.8,0.3-1.5,0.6-2.3,0.8c0,0-0.1,0-0.1,0c0,0.1,0,0.1,0,0.2c0.1,0,0.1,0.1,0.2,0.1c1,0.3,2.1,0.3,3.1,0.2
	c0.1,0,0.1,0,0.1,0.1c0,0,0,0,0,0c-0.4,0.8-0.9,1.6-1.5,2.3l-0.3,0.3c0,0,0,0.1,0,0.1c0,0,0.1,0,0.1,0c0.8-0.1,1.6-0.5,2.2-1.1
	c0.2-0.2,0.5-0.5,0.7-0.7c0,0,0.1,0,0.1,0c0,0,0,0,0,0c0,1.1,0.4,2.1,1.1,3c0,0,0.1,0.1,0.1,0c0,0,0,0,0,0c0.1-0.7,0.3-1.4,0.6-2
	c0.1-0.1,0.1-0.3,0.2-0.4c0,0,0.1-0.1,0.1,0c0,0,0,0,0,0c0.2,0.4,0.4,0.7,0.6,1.1c0.1,0.2,0.3,0.4,0.5,0.6c0.1,0.2,0.3,0.3,0.4,0.4
	l0.5,0.4h0.1c-0.3-0.9-0.4-1.8-0.3-2.8c0-0.1,0.1-0.2,0.2-0.1c0,0,0,0,0,0c0.5,0.2,0.9,0.3,1.4,0.6c0.6,0.3,1.9,1,2,0.8
	s-0.4-0.6-0.6-0.8c-0.5-0.5-0.9-1-1.3-1.6 M27.8,21.2c1,0.1,2,0.4,3,0.7c0,0,0.1,0,0.1-0.1c0,0,0-0.1,0-0.1c-0.6-0.4-1.2-1-1.7-1.4
	c-0.6-0.4-1-1.1-1.1-1.9c0-0.3,0.1-0.7-0.1-0.9c-0.2-0.2-0.4-0.2-0.6-0.3c-0.6-0.1-1.2-0.1-1.7-0.1c-0.6,0-1.2,0-1.8,0.1
	c-0.4,0.1-0.6,0.5-1.1,0.6L27.8,21.2z"/>
<path class="st5" d="M22.1,13.2c0,0.1,0,0.3,0,0.4c-0.2,0.7-0.4,1.4-0.5,2.1c-0.1,0.3-0.1,0.6,0,0.9c0.1,0.2,0.3,0.4,0.2,0.6
	s0,0.3-0.2,0.3c-0.1,0-0.3,0.1-0.5,0.1c-0.2,0.1-0.4,0.2-0.4,0.5c0,0.2,0,0.4,0.2,0.6c0.1,0.1,0.3,0.1,0.4,0.2c1,0.4,2,0.5,3.1,0.2
	c0.6-0.3,1.1-0.6,1.5-1.1c0.5-0.4,1-0.9,1.3-1.5c0.3-0.6,0.3-1.3,0-1.9c-0.1-0.2-0.3-0.4-0.5-0.5c-1.3-0.8-2.7-1.2-4.2-1.1
	c-0.1,0-0.3,0-0.4,0C22.1,13,22.1,13,22.1,13.2z"/>
<path class="st4" d="M22.3,15.6c0.1,0,0.3-0.1,0.4-0.2c0.2-0.3-0.1-0.6-0.4-0.6c-0.6-0.3-1.2-0.4-1.9-0.4c-0.2,0-0.4,0.1-0.5,0.2
	c-0.1,0.1,0,0.3,0.1,0.4c0.3,0.2,0.6,0.4,1,0.4C21.4,15.5,21.8,15.6,22.3,15.6z"/>
<path class="st0" d="M24.4,15c-0.2,0-0.3-0.1-0.5-0.2c-0.2-0.1-0.5-0.2-0.7-0.4c0.5-0.2,1-0.2,1.5-0.1c0.4,0.1,0.8,0.3,1.1,0.6
	C25.4,15.1,24.9,15.1,24.4,15z"/>
<path class="st2" d="M23.5,16.7c0,0.1,0,0.1,0,0.1c0,0,0,0,0,0c-0.1,0.1-0.3,0.1-0.5,0.1c-0.9,0.2-0.7-0.7-1-0.2
	c0,0.1,0,0.2,0.1,0.3c0.1,0.1,0.2,0.2,0.4,0.2c0.3,0.1,0.6,0,0.9-0.1c0.1,0,0.2-0.1,0.3-0.1s0,0.1,0.1,0.2s0.1,0,0.1,0
	c0.1,0,0.1-0.1,0.1-0.1c0,0,0,0,0,0c-0.1-0.2-0.1-0.3-0.2-0.5c0-0.1-0.1,0-0.2,0S23.4,16.6,23.5,16.7z"/>
<path class="st3" d="M25.8,16.9c0.1-0.1,0.2-0.3,0.2-0.4c0-0.1,0-0.2,0-0.2c-0.1-0.3-0.4-0.4-0.6-0.4c-0.5-0.1-0.6,0.5-0.6,0.7
	c0,0.1,0,0.2,0.1,0.3c0.1,0,0.1,0.1,0.2,0.1C25.3,17.1,25.6,17.1,25.8,16.9z"/>
<path class="st6" d="M21.8,12.3c0.1-0.1,0.3-0.2,0.5-0.2c2,0.4,3.9,0.8,5.9,1.4c0.6,0.2,0.3,1.1,0,1c-0.5,0-3.2-0.7-5-1.1
	c-0.4-0.1-0.8-0.2-1.2-0.3C21.8,12.9,21.6,12.5,21.8,12.3z"/>
<path class="st2" d="M20.6,6.6c-0.1,0-0.1,0-0.2,0c-0.3-0.1-0.4-0.4-0.3-0.7c0.1-0.1,0.2-0.2,0.3-0.3c0.1,0,0.1,0,0.2,0
	c0.3,0,0.5,0.2,0.6,0.5C21.2,6.3,21.1,6.6,20.6,6.6z"/>
<path class="st2" d="M25,4.3c-0.1,0.2-0.1,0.5,0,0.7c0.1,0.2,0.3,0.4,0.6,0.4c0.3,0,0.6-0.3,0.6-0.6c0-0.3-0.1-0.5-0.4-0.6
	C25.3,4,25.1,4.2,25,4.3z"/>
<path class="st2" d="M30.6,5.9c0-0.1,0-0.2-0.1-0.3c-0.1-0.2-0.3-0.3-0.5-0.3c-0.3,0-0.6,0.2-0.7,0.5c0,0.2,0,0.3,0.1,0.5
	c0.1,0.2,0.4,0.3,0.6,0.3c0.2,0,0.4-0.2,0.4-0.4C30.6,6.1,30.6,6,30.6,5.9z"/>
<path class="st2" d="M32.6,8.6c0.2,0.3,0.5,0.3,0.8,0.2c0.2-0.1,0.3-0.4,0.2-0.7c-0.1-0.1-0.2-0.2-0.3-0.3c-0.3-0.1-0.6,0-0.7,0.3
	C32.5,8.3,32.5,8.5,32.6,8.6z"/>
<path class="st7" d="M19.5,15.6c-0.5-0.1-0.9-0.1-1.4,0.2c-0.4,0.3-0.7,0.7-0.7,1.1c0,0.1,0,0.2,0,0.3c0,0,0.1,0.1,0.1,0.1
	c0.2,0,0.5-0.1,0.6-0.2c0.2-0.2,0.3-0.3,0.5-0.5c0.2-0.1,0.4-0.2,0.6,0c0.2,0.2,0.2,0.5,0.3,0.7c0.1,0.2,0.4,0.3,0.6,0.3
	c0.5-0.1,0.8-0.7,1.2-0.7c0,0,0.1,0,0.1,0c0.1,0,0.1,0.2,0.1,0.3c0.1,0.2,0.3,0.3,0.4,0.2c0,0,0.1,0,0.1-0.1
	c0.2-0.2,0.2-0.4,0.1-0.6c-0.2-0.4-0.7-0.5-1.1-0.3c0,0,0,0,0,0c-0.2,0.2-0.4,0.4-0.7,0.4s-0.3-0.5-0.5-0.7
	C19.9,15.8,19.7,15.7,19.5,15.6z"/>
<path class="st2" d="M24.5,15c0.1,0,0.3-0.1,0.3-0.2c0-0.1,0-0.3-0.2-0.3c0,0,0,0,0,0c-0.1,0-0.3,0.1-0.3,0.2
	C24.3,14.8,24.4,15,24.5,15z"/>
<path class="st2" d="M24.4,15.6L24.4,15.6c0.1,0,0.1-0.1,0.1-0.2c0,0,0,0,0,0l0,0c-0.1-0.1-0.2-0.1-0.2,0c0,0,0,0,0,0.1
	C24.2,15.5,24.2,15.6,24.4,15.6C24.3,15.6,24.3,15.6,24.4,15.6L24.4,15.6z"/>
<path class="st2" d="M21.3,15.3c0.1,0,0.1-0.1,0.1-0.1c0,0,0-0.1-0.1-0.1C21.2,15.1,21.1,15.3,21.3,15.3z"/>
<path class="st2" d="M21.5,15.4c0.2,0,0.2-0.2,0.1-0.3S21.4,15.4,21.5,15.4z"/>
<path class="st1" d="M22.5,13.1c0.2,0,0.4-0.1,0.4-0.3c0-0.2-0.1-0.4-0.3-0.4s-0.4,0.1-0.4,0.3C22.2,12.8,22.4,13,22.5,13.1
	L22.5,13.1z"/>
<path class="st1" d="M23.5,13.3c0.2,0.1,0.4-0.1,0.5-0.3c0,0,0,0,0,0c0-0.2-0.1-0.4-0.3-0.5c0,0,0,0,0,0c-0.2,0-0.4,0.1-0.5,0.3
	C23.2,13,23.3,13.2,23.5,13.3L23.5,13.3z"/>
<path class="st1" d="M24.3,13.3L24.3,13.3c0.1,0.1,0.3,0.2,0.4,0.2c0.1,0,0.2-0.1,0.2-0.2c0.1-0.2,0-0.3-0.1-0.4
	c-0.1-0.1-0.4-0.1-0.5,0l0,0C24.2,13,24.2,13.2,24.3,13.3L24.3,13.3z"/>
<path class="st1" d="M25.8,13.1L25.8,13.1c-0.2,0-0.4,0.1-0.5,0.3c0,0.1,0,0.2,0,0.3c0.1,0.1,0.1,0.1,0.2,0.2c0.2,0.1,0.4,0,0.5-0.3
	c0,0,0,0,0,0c0-0.1,0-0.2,0-0.3C26,13.2,25.9,13.1,25.8,13.1l0.3,0.4l0,0c0-0.1,0-0.1,0-0.2C26,13.2,25.9,13.1,25.8,13.1L25.8,13.1z
	"/>
<path class="st1" d="M26.4,13.9c0.1,0.1,0.2,0.2,0.3,0.2c0.1,0,0.2,0,0.3-0.1c0.1-0.1,0.2-0.1,0.2-0.2c0-0.1,0-0.3-0.1-0.4
	c-0.1-0.1-0.1-0.1-0.2-0.1c-0.1,0-0.2,0-0.3,0.1C26.3,13.5,26.3,13.8,26.4,13.9z"/>
<path class="st1" d="M27.8,14.4h0.2c0.1,0,0.2-0.1,0.3-0.2L28,14.3l0,0c0.1,0,0.1-0.1,0.2-0.2c0-0.1,0-0.2,0-0.3v0.1
	c0-0.1-0.1-0.1-0.1-0.2c-0.1-0.1-0.1-0.1-0.2-0.1c-0.2,0-0.3,0-0.5,0.1c-0.1,0.1-0.1,0.3-0.1,0.4C27.4,14.3,27.6,14.4,27.8,14.4
	L27.8,14.4z"/>
<path class="st8" d="M26.9,18.7c0.2,0.5,0.7,0.8,1.3,0.7c0.1,0,0.1,0,0.1-0.1c0.3-0.1,0.5-0.4,0.4-0.7c0,0,0,0,0,0
	c0.3,0.2,0.8,0.3,1.1,0.1c0.2-0.1,0.4-0.3,0.5-0.5c0.1-0.2,0.1-0.4,0.1-0.7c0-0.4-0.5-0.6-0.9-0.7c0.3,0,0.5-0.2,0.5-0.5
	c0,0,0-0.1,0-0.1c-0.1-0.3-0.4-0.5-0.7-0.5c0.3-0.1,0.5-0.5,0.4-0.8c0,0,0,0,0,0c-0.1-0.3-0.4-0.5-0.8-0.6c-0.3,0-0.7,0-1,0.2
	c-0.4-0.4-0.9-0.4-1.4-0.2c-0.2,0.2-0.4,0.4-0.5,0.7c0,0.4,0.4,0.7,0.8,0.9c-0.4,0.2-0.7,0.5-0.7,0.9c0,0.4,0.3,0.7,0.7,0.7
	c0,0,0.1,0,0.1,0C26.9,17.8,26.8,18.2,26.9,18.7z"/>
<path class="st2" d="M23,9.5c-0.1,0.4-0.1,0.9-0.1,1.3c-0.1,0.3-0.3,0.8,0,1c0.1,0.1,0.4,0.1,0.5,0c0,0,0,0,0,0
	c0.2-0.3,0.3-0.7,0.2-1.1c0-0.5-0.1-0.9-0.5-1.3C23.1,9.4,23,9.4,23,9.5C23,9.5,23,9.5,23,9.5L23,9.5z"/>
<path class="st2" d="M24.8,10c-0.3,0.6-0.5,1.3-0.5,1.9c-0.1,0.2,0.1,0.4,0.3,0.5c0.2,0.1,0.4-0.1,0.5-0.3c0.1-0.7,0.2-1.4,0.1-2.1
	c0-0.1-0.1-0.1-0.2-0.1C24.9,9.9,24.8,9.9,24.8,10z"/>
<path class="st2" d="M26.4,10.4c-0.2,0.4-0.4,0.8-0.5,1.3c-0.1,0.3-0.1,0.6,0,0.9c0.1,0.2,0.4,0.3,0.6,0.1c0.2-0.1,0.2-0.3,0.2-0.5
	c0-0.2,0-0.3,0.1-0.5c0.1-0.4,0.1-0.9,0.1-1.3c0-0.1-0.1-0.2-0.2-0.2C26.5,10.3,26.4,10.3,26.4,10.4L26.4,10.4z"/>
<path class="st2" d="M28.2,11c0,0.1-0.2,0.2-0.3,0.3c-0.2,0.2-0.3,0.4-0.5,0.6c-0.2,0.3-0.5,1,0.1,1.2c0.2,0.1,0.4-0.1,0.5-0.3
	c0,0,0-0.4,0-0.2s0,0,0-0.1s0.1-0.3,0.2-0.5c0.1-0.3,0.2-0.6,0.3-0.8C28.7,11,28.4,10.8,28.2,11L28.2,11z"/>
<path class="st2" d="M25.5,7.9L25.5,7.9c0.1-0.2,0-0.4-0.1-0.5c-0.1-0.1-0.2-0.1-0.3,0l0,0c-0.2,0.1-0.3,0.3-0.3,0.5
	c0,0,0,0.1,0,0.1c0.1,0.1,0.2,0.2,0.4,0.2C25.3,8.1,25.5,8,25.5,7.9L25.5,7.9z"/>
<path class="st2" d="M22.8,8.1c0.2,0,0.3-0.1,0.4-0.2c0-0.1,0-0.3-0.2-0.3c-0.1,0-0.3,0-0.3,0.2c0,0,0,0,0,0
	C22.6,7.9,22.7,8.1,22.8,8.1L22.8,8.1z"/>
<path class="st2" d="M27.4,8.6L27.4,8.6c0.2,0.1,0.3,0,0.5-0.1l0,0C28,8.5,28,8.4,28,8.2l0,0C27.9,8.1,27.8,8,27.6,8l0,0
	c-0.2,0-0.3,0.1-0.4,0.3C27.2,8.5,27.3,8.6,27.4,8.6L27.4,8.6z"/>
<path class="st2" d="M29.4,10.1c0.2,0,0.3,0,0.4-0.1c0.1-0.1,0.1-0.4,0-0.5c0,0,0,0,0,0c-0.1-0.1-0.1-0.1-0.2-0.1
	c-0.1,0-0.2,0-0.3,0c-0.2,0.1-0.3,0.2-0.3,0.4C29.2,9.9,29.3,10,29.4,10.1L29.4,10.1z"/>
<path class="st2" d="M25,8.7c0.1,0,0.3,0,0.3-0.2c0,0,0,0,0,0c0-0.1,0-0.3-0.2-0.3c-0.1,0-0.3,0-0.3,0.2c0,0,0,0,0,0
	C24.8,8.6,24.9,8.7,25,8.7z"/>
<path class="st2" d="M25.1,7.2c0.1,0,0.2,0,0.3-0.2c0-0.1,0-0.2-0.2-0.3c0,0,0,0,0,0C25.1,6.8,25,6.9,25,7C25,7.1,25.1,7.2,25.1,7.2
	L25.1,7.2z"/>
<path class="st2" d="M23,8.6c0.2,0.1,0.3-0.3,0.1-0.4c-0.1,0-0.2,0-0.2,0.1C22.8,8.5,22.9,8.6,23,8.6z"/>
<path class="st2" d="M22.6,7.4c0.1,0,0.2,0,0.2-0.1c0-0.1,0-0.1-0.1-0.2c-0.1,0-0.2,0-0.2,0.1C22.5,7.3,22.6,7.4,22.6,7.4z"/>
<path class="st2" d="M27.1,9.1L27.1,9.1c0.1,0.1,0.2,0.1,0.3,0s0.1-0.2,0-0.3l0,0c-0.1-0.1-0.2-0.1-0.3-0.1C27,8.8,27,9,27.1,9.1
	C27.1,9.1,27.1,9.1,27.1,9.1L27.1,9.1z"/>
<path class="st2" d="M27.9,7.9c0.1,0,0.2,0,0.2-0.1s0-0.2-0.1-0.2l0,0c-0.1,0-0.2,0-0.2,0.1S27.8,7.9,27.9,7.9L27.9,7.9L27.9,7.9z"
	/>
<path class="st2" d="M29,10.4c0.1,0,0.2,0,0.2-0.1c0-0.1,0-0.2-0.1-0.2c-0.1,0-0.2,0-0.3,0.1C28.8,10.3,28.8,10.4,29,10.4
	C28.9,10.4,29,10.4,29,10.4z"/>
<path class="st2" d="M30,9.2c0,0,0,0.1,0,0.1c0,0.1,0.1,0.1,0.1,0.1c0,0,0.1,0,0.1,0c0.1,0,0.1-0.1,0.1-0.2c0,0,0,0-0.1-0.1l0,0
	C30.2,9.1,30.1,9.1,30,9.2C30,9.2,30,9.2,30,9.2L30,9.2z"/>
<path class="st3" d="M23.2,11c0.2,0.1,0.3-0.3,0.1-0.3c-0.1,0-0.2,0-0.2,0.1C23.1,10.9,23.1,11,23.2,11C23.2,11,23.2,11,23.2,11z"/>
<path class="st3" d="M25,11.2L25,11.2c0-0.1-0.1-0.1-0.2-0.1c-0.1,0-0.2,0.1-0.2,0.1c0,0.1,0,0.1,0.1,0.2c0.1,0.1,0.2,0.1,0.2,0l0,0
	C25,11.4,25.1,11.2,25,11.2C25,11.2,25,11.2,25,11.2L25,11.2z"/>
<path class="st3" d="M26.2,11.9c0.1,0,0.2-0.1,0.2-0.2c0-0.1,0-0.2-0.1-0.2c-0.1,0-0.2,0.1-0.2,0.2C26.1,11.8,26.1,11.8,26.2,11.9z"
	/>
<path class="st3" d="M27.8,12.4c0.3,0.1,0.4-0.3,0.1-0.4c-0.1,0-0.2,0.1-0.2,0.2C27.7,12.3,27.7,12.3,27.8,12.4z"/>
<path class="st3" d="M23.2,10.5L23.2,10.5c0.1,0.1,0.2-0.1,0.1-0.2l0,0c-0.1,0-0.1,0-0.1,0.1C23.1,10.4,23.1,10.5,23.2,10.5
	L23.2,10.5z"/>
<path class="st3" d="M23.2,11.4c0.1,0,0.2-0.2,0-0.2S23,11.4,23.2,11.4z"/>
<path class="st3" d="M24.7,11.6c-0.1,0-0.1,0.2,0,0.2c0.1,0,0.1-0.1,0.1-0.1C24.8,11.6,24.8,11.6,24.7,11.6L24.7,11.6z"/>
<path class="st3" d="M24.7,10.8L24.7,10.8c0,0.1,0,0.1,0.1,0.1c0.1,0,0.1,0,0.1-0.1l0,0C25,10.7,24.8,10.6,24.7,10.8z"/>
<path class="st3" d="M26.4,11.3c0.1,0,0.1-0.2,0-0.2S26.2,11.3,26.4,11.3z"/>
<path class="st3" d="M26.1,12.1L26.1,12.1c0,0.1,0,0.1,0,0.2l0,0c0.1,0,0.1,0,0.2,0c0,0,0,0,0-0.1c0,0,0,0,0-0.1
	C26.2,12,26.2,12,26.1,12.1C26.1,12.1,26.1,12.1,26.1,12.1L26.1,12.1z"/>
<path class="st3" d="M27.8,12.5c0-0.1-0.1-0.1-0.2,0c-0.1,0-0.1,0.1,0,0.2C27.7,12.8,27.9,12.7,27.8,12.5z"/>
<path class="st3" d="M28,11.9c0.1,0,0.1,0,0.1-0.1s0-0.1-0.1-0.1s-0.1,0-0.1,0.1S27.9,11.9,28,11.9z"/>
<path class="st8" d="M25.2,6.6c0.2,0,0.4-0.1,0.4-0.2c0,0,0,0,0,0c0-0.2-0.1-0.4-0.2-0.4S25,6,25,6.2S25,6.5,25.2,6.6
	C25.2,6.6,25.2,6.6,25.2,6.6z"/>
<path class="st8" d="M22.3,7c0.1,0,0.2-0.1,0.2-0.2c0-0.1,0-0.1-0.1-0.2c-0.1,0-0.2,0.1-0.2,0.2C22.1,6.9,22.2,7,22.3,7z"/>
<path class="st8" d="M28.3,7.5c0.1,0.1,0.2,0.1,0.3,0c0.2-0.1,0.2-0.3,0.2-0.5s-0.3-0.2-0.5-0.2c0,0-0.1,0.1-0.1,0.1
	c-0.1,0.1-0.1,0.2-0.1,0.2C28.1,7.4,28.2,7.5,28.3,7.5L28.3,7.5z"/>
<path class="st8" d="M30.3,9.1L30.3,9.1c0,0.1,0.1,0.2,0.2,0.2c0.1,0,0.2,0,0.3,0C30.9,9.2,31,9,30.9,8.9c-0.1-0.1-0.2-0.2-0.3-0.2
	C30.4,8.7,30.3,8.9,30.3,9.1C30.3,9,30.3,9.1,30.3,9.1L30.3,9.1z"/>
<path class="st4" d="M28.7,14.3C28.3,14,28,14.8,28,15.1c0.1,0.4,0.5,0.7,0.9,0.6c0.1,0,0.2-0.1,0.3-0.1c0.4-0.3,0.4-1.1-0.1-1.2
	c-0.3,0-0.6,0.1-0.6,0.4c0,0.2,0.1,0.4,0.3,0.5c0.1,0,0.2,0,0.2,0c0.2-0.1,0-0.3-0.1-0.3s0-0.2,0.1-0.3s0.2,0.2,0.2,0.3
	c0,0.3-0.2,0.5-0.5,0.5c0,0,0,0,0,0c-0.3,0-0.5-0.3-0.5-0.5C28.3,14.7,28.4,14.4,28.7,14.3C28.7,14.4,28.8,14.4,28.7,14.3L28.7,14.3
	z"/>
<path class="st4" d="M28.2,15.2c-0.2,0.2-0.5,0.3-0.8,0.2c-0.2,0-0.3-0.2-0.3-0.4c0-0.2,0-0.5,0.3-0.5c0.1,0,0.2,0,0.3,0.1
	c0,0.1,0.2,0.4,0.1,0.4S27.5,15,27.4,15s0-0.1,0,0s0-0.1,0,0c0,0,0-0.1,0-0.1c0,0-0.1-0.1-0.2-0.1c-0.1,0-0.1,0.1-0.1,0.1
	c0,0.3,0.4,0.5,0.7,0.4s0.2-0.4,0.1-0.6c-0.1-0.2-0.3-0.4-0.5-0.4c-0.7-0.1-0.9,0.8-0.5,1.3c0.4,0.4,1.3,0.4,1.4-0.2
	c0,0,0-0.1,0-0.1C28.3,15.2,28.2,15.3,28.2,15.2L28.2,15.2L28.2,15.2z"/>
<path class="st4" d="M29,15.6c-0.2-0.4-0.5,0.2-0.5,0.4c0,0.4,0.4,0.8,0.8,0.8c0,0,0.1,0,0.1,0c0.5-0.1,0.8-0.7,0.3-1
	c-0.5-0.3-1,0.2-0.6,0.5c0.1,0.1,0.3,0,0.2-0.1s0-0.1,0-0.1c0.1,0,0.2,0,0.2,0.1c0,0,0,0,0,0c0,0.1-0.1,0.2-0.1,0.3
	c-0.1,0-0.2,0-0.3,0c-0.2,0-0.4-0.2-0.4-0.4c0-0.2,0.1-0.3,0.1-0.3C28.9,15.8,29,15.7,29,15.6C29,15.7,29,15.7,29,15.6L29,15.6z"/>
<path class="st4" d="M28.6,15.6c-0.1-0.1-0.2-0.3-0.3-0.3c-0.1,0-0.3,0.1-0.4,0.1c-0.2,0.1-0.3,0.4-0.1,0.6c0,0,0,0,0,0
	c0.1,0.2,0.4,0.2,0.5,0.1c0,0,0.1,0,0.1-0.1c0.1-0.1,0.1-0.2,0-0.3c0-0.1-0.1-0.1-0.1-0.1c-0.1,0-0.1,0-0.2,0c0,0-0.1,0.1,0,0.1
	c0,0,0,0,0,0l0,0v-0.1c0,0.1,0.1,0.1,0.1,0.2c0,0.1-0.3,0-0.3-0.1c0,0,0.1-0.2,0.2-0.3S28.5,15.7,28.6,15.6
	C28.8,15.7,28.6,15.7,28.6,15.6L28.6,15.6z"/>
<path class="st4" d="M27.9,16.2c0.1,0.3,0,0.6-0.3,0.8c-0.2,0.1-0.5,0.1-0.6-0.1c-0.1-0.1-0.1-0.3-0.1-0.4c0-0.1,0.2-0.2,0.3-0.2
	s0.2,0.1,0.2,0.2s0,0.1,0,0.1s0,0,0,0l0,0.1l0,0c0.2-0.1,0-0.4-0.2-0.3C27,16.5,27,16.6,27,16.7c0,0.1,0.1,0.2,0.2,0.2
	c0.2,0.1,0.4-0.1,0.5-0.3c0,0,0,0,0,0c0.1-0.2-0.1-0.5-0.3-0.6c-0.3,0-0.5,0.1-0.7,0.3c-0.2,0.3-0.2,0.6,0,0.8
	c0.1,0.2,0.4,0.4,0.7,0.4c0.6,0,0.9-0.8,0.6-1.2c0,0,0,0-0.1,0C28,16.2,27.9,16.2,27.9,16.2L27.9,16.2z"/>
<path class="st4" d="M28.6,16.3c-0.1-0.4-0.6,0-0.7,0.2c-0.2,0.4,0,0.9,0.5,1.1c0,0,0,0,0,0c0.3,0.1,0.5-0.1,0.6-0.3
	c0-0.2,0-0.3-0.1-0.4c-0.3-0.3-0.8,0.1-0.4,0.4c0.1,0.1,0.3-0.1,0.2-0.2s0,0,0,0s0.1,0.3,0,0.3s-0.4-0.1-0.4-0.3
	c-0.1-0.2-0.1-0.3,0-0.5c0.1-0.1,0.2-0.2,0.3-0.2S28.6,16.4,28.6,16.3L28.6,16.3z"/>
<path class="st4" d="M29.2,16.8c0.1,0.1,0.3,0.2,0.4,0.4c0.2,0.1,0.3,0.4,0.3,0.7c-0.1,0.2-0.3,0.4-0.5,0.3c0,0,0,0-0.1,0
	c-0.1-0.1-0.2-0.2-0.1-0.3c0-0.1,0.3-0.1,0.2-0.1c-0.1,0-0.2,0.1-0.1,0.2c0,0,0,0.1,0,0.1l0,0c0.1,0.1,0.1,0.1,0.2,0
	c0.2-0.1,0.3-0.3,0.3-0.6c-0.1-0.2-0.3-0.3-0.6-0.3l0,0c-0.3,0.1-0.5,0.5-0.4,0.9c0.1,0.2,0.2,0.3,0.4,0.4c0.4,0.2,0.9-0.1,1-0.5
	c0-0.1,0.1-0.2,0-0.3c0-0.3-0.2-0.6-0.4-0.7c-0.2-0.2-0.4-0.4-0.7-0.3C29.2,16.7,29.2,16.8,29.2,16.8L29.2,16.8z"/>
<path class="st4" d="M28.5,17.5C28.6,17.5,28.6,17.5,28.5,17.5c0-0.1-0.1-0.2-0.1-0.2c-0.5-0.1-1,0.2-1.2,0.7
	c-0.2,0.5,0.1,1.2,0.8,1.1c0.5-0.1,0.9-0.8,0.4-1.2s-0.9,0-0.7,0.5c0,0.1,0.1,0.1,0.2,0.1h0.1c0.1,0,0.1-0.1,0.1-0.1c0,0,0,0,0-0.1
	c-0.1-0.1,0-0.2,0.1-0.1s0.1,0.3,0,0.4c-0.1,0.2-0.3,0.2-0.5,0.2c-0.1-0.1-0.2-0.2-0.2-0.4c0-0.3,0.2-0.6,0.5-0.7
	c0.1,0,0.2,0,0.3-0.1c0,0,0.2,0,0.1,0C28.4,17.6,28.5,17.6,28.5,17.5L28.5,17.5z"/>
<path class="st8" d="M22.2,16.9c0-0.3-0.3-0.6-0.6-0.5c-0.1,0-0.1,0-0.2,0c-0.2,0.1-0.4,0.2-0.6,0.4c-0.5,0.4-0.7-0.1-0.9-0.5
	c-0.5-1-2-0.4-2.2,0.5c0,0.1,0,0.1,0.1,0.2c0,0,0.1,0,0.1,0c0.5-0.3,0.5-0.7,1.1-0.8c0.9-0.1,0.6,0.7,1,1c0.8,0.5,1.3-0.9,2-0.2
	C22.1,16.9,22.1,16.9,22.2,16.9C22.1,16.9,22.1,16.9,22.2,16.9L22.2,16.9z"/>
<path class="st3" d="M19.7,20.6c0.3,0.1,0.6,0.1,0.9,0c0.3-0.1,0.6-0.2,0.8-0.3c0.5-0.1,0.4-0.9-0.1-0.7c-0.2,0.1-0.5,0.2-0.7,0.4
	c-0.3,0.2-0.6,0.3-0.9,0.3C19.5,20.3,19.5,20.6,19.7,20.6L19.7,20.6z"/>
<path class="st3" d="M19.9,19.2c0.3,0,0.5,0,0.8,0c0.1,0,0.2-0.2,0.2-0.3c0-0.1-0.2-0.2-0.3-0.2c-0.1,0-0.2,0-0.3,0
	c-0.1,0-0.2,0.1-0.4,0.1c-0.1,0-0.1,0.1-0.1,0.2C19.8,19.1,19.9,19.1,19.9,19.2L19.9,19.2z"/>
<path class="st3" d="M21.1,22.3c0.6-0.4,1.1-1,1.5-1.6c0.2-0.5-0.5-0.9-0.7-0.4c-0.3,0.6-0.7,1.2-1,1.8C20.8,22.3,21,22.4,21.1,22.3
	L21.1,22.3z"/>
<path class="st3" d="M23.2,23.1c0.1-0.3,0.2-0.6,0.4-0.9c0.1-0.3,0.2-0.6,0.3-0.9c0.2-0.5-0.5-0.9-0.7-0.4c-0.3,0.7-0.4,1.5-0.3,2.2
	c0,0.1,0.1,0.2,0.2,0.1C23.1,23.2,23.2,23.1,23.2,23.1L23.2,23.1z"/>
<path class="st3" d="M25.5,23.3c0-0.5,0-0.9-0.1-1.4c0-0.3,0-0.7-0.1-1c-0.1-0.2-0.3-0.3-0.5-0.3c-0.1,0-0.2,0.1-0.3,0.3
	c0,0.3,0,0.7,0.1,1c0.1,0.5,0.3,0.9,0.6,1.3C25.3,23.4,25.4,23.4,25.5,23.3C25.5,23.4,25.5,23.4,25.5,23.3L25.5,23.3z"/>
<path class="st3" d="M27.9,22c-0.3-0.2-0.6-0.5-0.8-0.8c-0.2-0.3-0.2-0.6-0.6-0.6c-0.2,0-0.4,0.2-0.4,0.4s0.3,0.6,0.5,0.8
	c0.3,0.3,0.7,0.5,1.1,0.5c0.1,0,0.2,0,0.2-0.1C28,22.1,28,22.1,27.9,22z"/>
<path class="st3" d="M29,20.5c-0.2-0.1-0.4-0.3-0.5-0.4c-0.2-0.2-0.4-0.3-0.7-0.4c-0.2-0.1-0.5,0-0.6,0.2c0,0,0,0.1,0,0.1
	c0,0.2,0.1,0.4,0.2,0.5l0.7,0.3c0.2,0.1,0.5,0.1,0.7,0.2S29.3,20.6,29,20.5L29,20.5z"/>
<path class="st7" d="M17.2,18.8L17.2,18.8c0.1,0.2,0.4,0.2,0.5,0.1c0,0,0,0,0,0l0,0c0.1-0.1,0.2-0.2,0.2-0.4c0-0.2-0.2-0.4-0.4-0.4
	c-0.1,0-0.2,0-0.3,0.1C17.1,18.4,17,18.6,17.2,18.8L17.2,18.8z"/>
<path class="st7" d="M17.1,21.1c0.2,0,0.4-0.1,0.5-0.3c0-0.2-0.1-0.4-0.3-0.5s-0.4,0.1-0.5,0.3C16.8,20.8,16.9,21,17.1,21.1
	L17.1,21.1z"/>
<path class="st7" d="M18.8,24.4c0.2,0.1,0.4-0.1,0.5-0.3c0,0,0,0,0,0c0.1-0.2-0.1-0.4-0.3-0.5c0,0,0,0,0,0c-0.2,0-0.4,0.1-0.5,0.3
	C18.5,24.2,18.6,24.4,18.8,24.4z"/>
<path class="st7" d="M23,25L23,25c-0.1,0.2,0,0.4,0.1,0.5c0.2,0.1,0.4,0,0.5-0.1l0,0c0.1-0.2,0-0.4-0.2-0.5
	C23.3,24.7,23.1,24.8,23,25z"/>
<path class="st7" d="M26,25.1L26,25.1c-0.1,0.1-0.1,0.2-0.1,0.3c0,0.1,0.1,0.3,0.2,0.3h0.1c0.2,0,0.4-0.1,0.4-0.3c0,0,0,0,0,0l0,0
	c0-0.1,0-0.3-0.1-0.4l0,0C26.4,24.9,26.2,24.9,26,25.1L26,25.1z"/>
<path class="st7" d="M29.7,24.1L29.7,24.1c0.1,0,0.2,0,0.3-0.1c0.1-0.1,0.1-0.2,0.1-0.4l0,0c-0.1-0.2-0.3-0.3-0.5-0.2
	c-0.1,0-0.1,0.1-0.2,0.1c-0.1,0.1-0.1,0.2-0.1,0.4C29.3,24,29.5,24.1,29.7,24.1L29.7,24.1z"/>
<path class="st7" d="M30.7,22L30.7,22c0.1,0.2,0.3,0.2,0.5,0.2c0.2-0.1,0.3-0.2,0.3-0.4l0,0c0-0.2-0.2-0.4-0.4-0.4c0,0-0.1,0-0.1,0
	c-0.1,0-0.2,0.1-0.2,0.2C30.6,21.7,30.6,21.9,30.7,22L30.7,22z"/>
<path class="st8" d="M21.1,19.2c0.1,0,0.2-0.1,0.2-0.2c0-0.1,0-0.1-0.1-0.1C21,18.8,21,18.9,21,19C21,19.1,21,19.1,21.1,19.2z"/>
<path class="st8" d="M21.8,19.8c0.1,0,0.2,0,0.2-0.1c0-0.1,0-0.2-0.1-0.2s-0.2,0-0.2,0.1C21.6,19.7,21.7,19.8,21.8,19.8L21.8,19.8z"
	/>
<path class="st8" d="M22.6,20.2c0.1,0,0.2-0.1,0.2-0.2c0-0.1,0-0.2-0.1-0.2c-0.1,0-0.2,0.1-0.2,0.2C22.4,20.1,22.5,20.2,22.6,20.2z"
	/>
<path class="st8" d="M23.6,20.6c0.1,0,0.2,0,0.3-0.1c0-0.1,0-0.2-0.1-0.3c0,0-0.1,0-0.1,0c-0.1,0-0.2,0-0.2,0.1c0,0,0,0,0,0
	C23.4,20.5,23.5,20.6,23.6,20.6z"/>
<path class="st8" d="M24.7,20.7c0.1,0,0.2,0,0.3-0.2s0-0.2-0.2-0.3c-0.1,0-0.2,0-0.3,0.2C24.5,20.6,24.6,20.7,24.7,20.7z"/>
<path class="st8" d="M26.1,20.6c0.1,0,0.2,0,0.2-0.1c0-0.1,0-0.2-0.1-0.2s-0.2,0-0.2,0.1C25.9,20.4,26,20.6,26.1,20.6
	C26.1,20.6,26.1,20.6,26.1,20.6z"/>
<path class="st8" d="M26.8,19.7L26.8,19.7c0,0.2,0.4,0.1,0.4-0.1l0,0c0-0.1-0.1-0.2-0.2-0.2c0,0,0,0,0,0
	C26.8,19.5,26.7,19.5,26.8,19.7C26.7,19.7,26.8,19.7,26.8,19.7L26.8,19.7z"/>
<path class="st8" d="M22.1,19.6c0.1,0,0.2,0,0.2-0.1c0-0.1,0-0.2-0.1-0.2s-0.2,0-0.2,0.1C22,19.4,22,19.5,22.1,19.6L22.1,19.6z"/>
<path class="st8" d="M22.9,19.7c0.1,0,0.2,0,0.2-0.1c0-0.1,0-0.2-0.1-0.2l0,0c-0.1,0-0.2,0-0.2,0.1C22.7,19.6,22.8,19.7,22.9,19.7z"
	/>
<path class="st8" d="M23.6,20.1L23.6,20.1c0.1,0,0.2,0,0.2-0.1c0,0,0,0,0,0c0-0.1,0-0.2-0.1-0.2l0,0c-0.1,0-0.2,0-0.2,0.1
	c0,0,0,0,0,0C23.5,20,23.5,20,23.6,20.1L23.6,20.1z"/>
<path class="st8" d="M24.7,20.2c0.1,0,0.2-0.1,0.2-0.2c0-0.1,0-0.1-0.1-0.2c-0.1,0-0.2,0.1-0.2,0.2C24.6,20.1,24.6,20.2,24.7,20.2z"
	/>
<path class="st8" d="M25.8,20.2c0.1,0,0.2-0.1,0.2-0.2c0-0.1,0-0.2-0.2-0.3c0,0,0,0,0,0c-0.1,0-0.2,0-0.3,0.2
	C25.5,20,25.6,20.1,25.8,20.2L25.8,20.2z"/>
<path class="st8" d="M26.5,19.5c0.1,0,0.2,0,0.2-0.1c0-0.1,0-0.2-0.1-0.2l0,0c-0.1,0-0.2,0-0.2,0.1C26.4,19.4,26.5,19.5,26.5,19.5z"
	/>
<path class="st8" d="M26.3,19.2c0.1,0,0.1-0.1,0.1-0.1c0-0.1,0-0.1-0.1-0.1c-0.1,0-0.1,0.1-0.1,0.1C26.2,19.2,26.2,19.2,26.3,19.2z"
	/>
<path class="st8" d="M26,18.9c0.1,0,0.1,0,0.1-0.1s0-0.1-0.1-0.1l0,0C25.9,18.6,25.8,18.9,26,18.9z"/>
<path class="st8" d="M25.8,18.6c0.1,0,0.1,0,0.1-0.1c0-0.1,0-0.1-0.1-0.1s-0.1,0-0.1,0.1C25.7,18.5,25.8,18.6,25.8,18.6L25.8,18.6z"
	/>
<path class="st8" d="M25.5,19.7c0.1,0,0.2,0,0.2-0.1c0-0.1,0-0.2-0.1-0.2s-0.2,0-0.2,0.1C25.4,19.6,25.5,19.7,25.5,19.7z"/>
<path class="st8" d="M25.4,19.3c0.1,0,0.1,0,0.2-0.1s0-0.1-0.1-0.2s-0.1,0-0.2,0.1S25.3,19.3,25.4,19.3z"/>
<path class="st8" d="M25.2,19c0.1,0,0.2-0.2,0-0.2S25.1,19,25.2,19z"/>
<path class="st8" d="M24.6,19.7c0.1,0,0.1,0,0.1-0.1s0-0.1-0.1-0.1C24.5,19.5,24.5,19.7,24.6,19.7z"/>
<path class="st8" d="M24.6,19.4c0.1,0,0.1-0.1,0.1-0.1c0,0,0-0.1-0.1-0.1C24.5,19.2,24.5,19.3,24.6,19.4z"/>
<path class="st8" d="M23.7,19.5c0,0,0.1-0.1,0.1-0.1c0,0,0,0-0.1-0.1C23.6,19.4,23.6,19.5,23.7,19.5z"/>
<path class="st2" d="M20.6,19.1c0.1,0,0.2,0,0.2-0.1s0-0.2-0.1-0.2s-0.2,0-0.2,0.1S20.5,19.1,20.6,19.1z"/>
<path class="st2" d="M21.3,20.1c0.1,0,0.2-0.1,0.2-0.2c0-0.1,0-0.2-0.1-0.2c-0.1-0.1-0.2,0-0.3,0.1C21,19.9,21.1,20,21.3,20.1
	C21.2,20.1,21.2,20.1,21.3,20.1z"/>
<path class="st2" d="M22.2,20.7c0.1,0,0.2-0.1,0.3-0.2c0-0.1-0.1-0.2-0.2-0.3c-0.1,0-0.2,0-0.3,0.2c0,0,0,0,0,0
	C22,20.6,22.1,20.7,22.2,20.7z"/>
<path class="st2" d="M23.4,21.3c0.1,0,0.3-0.1,0.3-0.2c0,0,0,0,0,0c0-0.1,0-0.3-0.2-0.3c0,0,0,0,0,0c-0.1,0-0.3,0.1-0.3,0.2
	C23.3,21.2,23.3,21.3,23.4,21.3z"/>
<path class="st2" d="M24.9,21.4c0.1,0,0.2-0.1,0.3-0.2c0-0.1-0.1-0.2-0.1-0.2c-0.1,0-0.2,0.1-0.3,0.2C24.7,21.3,24.8,21.4,24.9,21.4
	z"/>
<path class="st2" d="M26.5,21.2c0.1,0,0.2,0,0.3-0.2c0,0,0,0,0,0c0-0.1,0-0.2-0.2-0.3c0,0,0,0,0,0c-0.1,0-0.2,0-0.3,0.2c0,0,0,0,0,0
	C26.3,21.1,26.4,21.2,26.5,21.2z"/>
<path class="st2" d="M27.5,20.3c0.1,0,0.3,0,0.3-0.2c0,0,0,0,0,0c0-0.2-0.1-0.3-0.2-0.4c-0.2,0-0.3,0.1-0.4,0.2
	C27.2,20.1,27.3,20.3,27.5,20.3z"/>
<path class="st3" d="M22.6,12.8c0.1,0,0.1,0,0.1-0.1c0-0.1,0-0.1-0.1-0.1C22.5,12.6,22.5,12.8,22.6,12.8z"/>
<path class="st3" d="M23.6,13c0.1,0,0.1,0,0.1-0.1c0-0.1,0-0.1-0.1-0.1c-0.1,0-0.1,0-0.1,0.1C23.5,13,23.6,13,23.6,13z"/>
<path class="st3" d="M24.6,13.3c0.1,0,0.1,0,0.1-0.1s0-0.1-0.1-0.1l0,0C24.5,13,24.4,13.2,24.6,13.3z"/>
<path class="st3" d="M25.7,13.6c0.1,0,0.2-0.2,0-0.2S25.6,13.5,25.7,13.6z"/>
<path class="st3" d="M26.8,13.9c0.1,0,0.2-0.2,0.1-0.2c-0.1,0-0.1,0-0.1,0.1C26.7,13.8,26.7,13.9,26.8,13.9z"/>
<path class="st3" d="M27.8,14.1c0.1,0,0.1,0,0.2-0.1s0-0.1-0.1-0.2l0,0c-0.1,0-0.1,0-0.2,0.1S27.7,14.1,27.8,14.1z"/>
<path class="st2" d="M23.8,14c0.6,0.2,1.2,0.4,1.8,0.4c0.1,0,0.1-0.1,0.1-0.1c0,0,0-0.1-0.1-0.1c-0.3-0.1-0.7-0.2-1-0.3
	c-0.3-0.1-0.6-0.1-0.9-0.1C23.8,13.8,23.8,13.9,23.8,14C23.8,14,23.8,14,23.8,14L23.8,14z"/>
<path class="st9" d="M15,20.7c0,0.5,0,1.1,0.2,1.5c0.1,0.7,0.4,1.3,0.8,1.9c0.3,0.3,0.9,0.3,1.2,0c0.1-0.1,0.2-0.3,0.2-0.5
	c-0.1-0.7-0.3-1.3-0.7-1.9c-0.2-0.6-0.7-1-1.2-1.2C15.3,20.4,15.1,20.5,15,20.7L15,20.7z"/>
<path class="st9" d="M12.3,21.8c-0.5,0.5-0.1,1.4,0.1,1.8c0.3,0.7,0.6,1.5,1.4,1.8c0.4,0.1,0.8-0.1,1-0.5c0-0.1,0-0.1,0-0.2
	c-0.1-0.3-0.2-0.7-0.5-0.9c-0.2-0.4-0.4-0.8-0.6-1.1S12.9,21.2,12.3,21.8L12.3,21.8z"/>
<path class="st1" d="M15.8,24.7c1-0.4,0-2.4-0.5-3.4c-0.3-0.6-1-0.9-1.7-0.7c-0.6,0.3-0.9,1-0.7,1.7c0.3,1,0.9,1.9,1.8,2.7
	C15,25.1,15.5,25,15.8,24.7L15.8,24.7z"/>
<path class="st3" d="M14.6,21.2L14.6,21.2c0.1,0.2,0.3,0,0.2-0.1l0,0c0-0.1-0.1-0.1-0.2,0C14.6,21.1,14.6,21.2,14.6,21.2z"/>
<path class="st3" d="M14.3,21.6c0,0,0.1,0.1,0.1,0.1c0,0,0.1,0,0.1,0c0,0,0-0.1,0-0.1C14.5,21.4,14.2,21.5,14.3,21.6L14.3,21.6z"/>
<path class="st3" d="M15,21.9L15,21.9c0,0,0.1,0,0.1,0c0,0,0-0.1,0-0.1l0,0C15.2,21.7,14.9,21.8,15,21.9L15,21.9z"/>
<path class="st3" d="M13.8,21L13.8,21c-0.1,0,0,0.2,0.1,0.2l0,0c0,0,0.1-0.1,0.1-0.1C13.9,21,13.9,21,13.8,21L13.8,21L13.8,21z"/>
<path class="st3" d="M13.5,21.8C13.5,21.8,13.6,21.9,13.5,21.8c0.1,0.1,0.2,0.1,0.2,0c0,0,0-0.1,0-0.1
	C13.7,21.6,13.5,21.7,13.5,21.8z"/>
<path class="st3" d="M14.2,22.3c0,0,0.1,0.1,0.1,0c0,0,0.1-0.1,0-0.1c0,0-0.1-0.1-0.1,0C14.2,22.2,14.1,22.2,14.2,22.3z"/>
<path class="st3" d="M15,22.5c0.1,0.1,0.3,0,0.2-0.1c0-0.1-0.1-0.1-0.2,0C15,22.4,15,22.5,15,22.5z"/>
<path class="st3" d="M15.5,23.2c0,0.1,0.1,0.1,0.2,0c0,0,0.1-0.1,0-0.1c0-0.1-0.1-0.1-0.2,0C15.5,23.1,15.5,23.2,15.5,23.2z"/>
<path class="st3" d="M14.5,23.1L14.5,23.1c0,0,0.1,0.1,0.1,0s0.1-0.1,0-0.1l0,0l0,0C14.6,22.9,14.4,23,14.5,23.1L14.5,23.1z"/>
<path class="st3" d="M14,22.9c0-0.1-0.1-0.1-0.1-0.1c0,0,0,0,0,0c0,0-0.1,0-0.1,0.1c0,0,0,0.1,0.1,0.1l0,0h-0.1l0,0c0,0,0.1,0,0.1,0
	C14,23,14,22.9,14,22.9L14,22.9z"/>
<path class="st3" d="M14.3,23.7c0.1,0.1,0.2,0,0.2-0.1S14.2,23.7,14.3,23.7z"/>
<path class="st3" d="M15.1,23.7c0,0.1,0.2,0,0.2-0.1S15,23.7,15.1,23.7z"/>
<path class="st3" d="M15.9,23.9L15.9,23.9c0-0.1-0.1-0.1-0.1-0.1l0,0c0,0-0.1,0.1,0,0.1c0,0,0.1,0.1,0.1,0l0,0
	C15.9,24,15.9,24,15.9,23.9C16,23.9,16,23.9,15.9,23.9L15.9,23.9z"/>
<path class="st3" d="M15.2,24.5L15.2,24.5c0.1,0.1,0.2,0,0.2-0.1l0,0c0-0.1-0.1-0.1-0.1-0.1S15.2,24.3,15.2,24.5
	C15.2,24.4,15.2,24.5,15.2,24.5L15.2,24.5z"/>
<path class="st3" d="M14.6,24.4c0,0,0,0.1,0,0.1c0,0,0.1,0.1,0.1,0c0,0,0,0,0,0l0,0C14.9,24.5,14.8,24.2,14.6,24.4L14.6,24.4z"/>
<path class="st2" d="M15.8,21c-0.1,0-0.2,0.1-0.3,0.2c0,0,0,0.1,0.1,0.1c0.1,0,0.2,0,0.3-0.1c0.1,0,0.1-0.1,0.1-0.1S15.9,21,15.8,21
	C15.9,21,15.8,21,15.8,21z"/>
<path class="st2" d="M16.3,21.5c-0.1,0-0.1,0-0.2,0l-0.3,0.1c-0.1,0-0.1,0.2-0.1,0.2c0,0.1,0.1,0.1,0.2,0.1c0.2,0,0.4-0.1,0.5-0.2
	C16.4,21.6,16.4,21.5,16.3,21.5C16.3,21.4,16.3,21.4,16.3,21.5L16.3,21.5z"/>
<path class="st2" d="M16.6,22.1c-0.2,0-0.3,0-0.4,0.1c-0.2,0-0.1,0.4,0.1,0.3c0.2,0,0.3-0.1,0.5-0.2C16.8,22.2,16.7,22.1,16.6,22.1z
	"/>
<path class="st2" d="M16.9,22.8c-0.2,0-0.3,0-0.5,0.1c-0.1,0-0.1,0.1-0.1,0.2c0,0.1,0.1,0.1,0.2,0.1l0.4-0.1c0.1,0,0.1-0.1,0-0.2
	C16.9,22.8,16.9,22.8,16.9,22.8z"/>
<path class="st2" d="M17.1,23.4c-0.2,0-0.4,0.1-0.6,0.2c-0.1,0-0.1,0.2-0.1,0.3c0,0.1,0.1,0.1,0.2,0.1c0.2-0.1,0.4-0.2,0.5-0.4
	C17.3,23.6,17.2,23.4,17.1,23.4z"/>
<path class="st2" d="M12.7,22.3c-0.1,0-0.2,0-0.3,0.1c0,0-0.1,0.1,0,0.2c0,0,0.1,0,0.1,0c0.1,0,0.2-0.1,0.2-0.1c0,0,0.1-0.1,0-0.1
	C12.8,22.3,12.7,22.2,12.7,22.3z"/>
<path class="st2" d="M13,22.8c-0.2,0-0.5,0.1-0.4,0.3c0,0.1,0.1,0.1,0.1,0.1c0.1,0,0.2,0,0.2-0.1c0.1-0.1,0.1-0.1,0.2-0.2
	C13.1,22.9,13.1,22.9,13,22.8C13,22.8,13,22.8,13,22.8z"/>
<path class="st2" d="M13.3,23.6c-0.1,0-0.2,0-0.3,0.1c-0.1,0-0.2,0.2-0.2,0.3c0,0.1,0.1,0.1,0.2,0.1c0.1,0,0.1,0,0.2-0.1l0.1-0.1
	c0.1,0,0.1-0.1,0.1-0.2C13.4,23.7,13.4,23.6,13.3,23.6z"/>
<path class="st2" d="M13.7,24.1c-0.1,0-0.2,0.1-0.3,0.1c-0.1,0.1-0.2,0.1-0.3,0.2c-0.1,0-0.1,0.1,0,0.2c0,0,0,0,0,0
	C13.4,24.8,13.7,24.5,13.7,24.1C13.7,24.2,13.7,24.1,13.7,24.1L13.7,24.1z"/>
<path class="st2" d="M14.2,24.7c-0.1,0-0.2,0-0.3,0.1c-0.1,0-0.2,0.1-0.3,0.2c0,0,0,0,0,0.1c0.1,0.1,0.2,0.1,0.3,0
	c0.1,0,0.2-0.1,0.3-0.2C14.2,24.8,14.2,24.7,14.2,24.7L14.2,24.7z"/>
<path class="st9" d="M33.5,23.7c-0.3,0.5-0.6,0.9-1,1.2c-0.5,0.5-1,0.9-1.6,1.2c-0.5,0.1-0.9-0.2-1-0.7c0-0.2,0-0.4,0.1-0.5
	c0.4-0.5,1-0.9,1.6-1.2c0.5-0.3,1.1-0.5,1.7-0.4C33.4,23.3,33.5,23.5,33.5,23.7L33.5,23.7z"/>
<path class="st9" d="M35.1,26.1c0.1,0.7-0.7,1.2-1.1,1.5c-0.6,0.5-1.4,0.8-2.2,0.7c-0.4-0.1-0.6-0.6-0.5-1c0-0.1,0-0.1,0.1-0.2
	c0.3-0.2,0.6-0.4,0.9-0.5c0.4-0.2,0.8-0.4,1.2-0.6S35,25.4,35.1,26.1z"/>
<path class="st1" d="M30.6,26.6c-0.6-0.9,1.3-2,2.3-2.6c1.4-0.9,2.8,1.2,1.4,2.1c-0.9,0.7-1.9,1.1-2.9,1.2
	C31,27.3,30.7,27,30.6,26.6z"/>
<path class="st3" d="M33.4,24.1L33.4,24.1c-0.1,0.1,0,0.3,0.2,0.2l0,0c0.1-0.1,0.1-0.1,0-0.2C33.5,24.1,33.4,24.1,33.4,24.1z"/>
<path class="st3" d="M33.4,24.7c0,0-0.1,0.1-0.1,0.1c0,0,0,0.1,0,0.1c0,0,0.1,0,0.1,0C33.6,24.8,33.5,24.6,33.4,24.7L33.4,24.7z"/>
<path class="st3" d="M32.7,24.5L32.7,24.5c0,0-0.1,0.1,0,0.1c0,0,0.1,0.1,0.1,0l0,0l0,0C33,24.6,32.8,24.4,32.7,24.5L32.7,24.5z"/>
<path class="st3" d="M34.2,24.7L34.2,24.7c0.1,0.1,0.2,0,0.2-0.1l0,0C34.2,24.4,34.1,24.6,34.2,24.7z"/>
<path class="st3" d="M34,25.2c0,0-0.1,0.1-0.1,0.1c0,0,0,0.1,0,0.1c0,0,0,0,0,0c0,0,0.1,0,0.1,0C34.3,25.4,34.1,25.2,34,25.2
	L34,25.2z"/>
<path class="st3" d="M33.3,25.5c0.1-0.1,0-0.2-0.1-0.2c0,0,0,0.1,0,0.1C33.2,25.5,33.3,25.5,33.3,25.5z"/>
<path class="st3" d="M32.5,25.2c0.1-0.1,0-0.3-0.1-0.2c0,0.1,0,0.1,0,0.2C32.4,25.2,32.4,25.2,32.5,25.2z"/>
<path class="st3" d="M31.6,25.5c0.1,0,0.1-0.1,0.1-0.2s-0.1-0.1-0.2-0.1c0,0,0,0-0.1,0C31.4,25.4,31.5,25.6,31.6,25.5z"/>
<path class="st3" d="M32.5,25.8L32.5,25.8c0,0,0,0.1,0,0.1c0,0,0.1,0,0.1,0l0,0C32.7,25.9,32.5,25.7,32.5,25.8L32.5,25.8z"/>
<path class="st3" d="M33.2,26.2L33.2,26.2c0,0,0.1,0,0.1,0c0,0,0-0.1,0-0.1c0,0,0,0,0,0c0,0-0.1,0-0.2,0c0,0,0,0,0,0
	C33.1,26.1,33.1,26.2,33.2,26.2C33.2,26.3,33.2,26.3,33.2,26.2L33.2,26.2z"/>
<path class="st3" d="M32.4,26.6c0.1-0.1,0-0.2-0.1-0.2S32.3,26.7,32.4,26.6z"/>
<path class="st3" d="M31.7,26.2c0,0,0.1-0.1,0-0.1s-0.1-0.1-0.1,0s-0.1,0.1,0,0.1S31.7,26.2,31.7,26.2L31.7,26.2z"/>
<path class="st3" d="M31,26L31,26L31,26L31,26c0,0.1,0.1,0.1,0.1,0.1s0.1-0.1,0.1-0.1c0,0,0,0,0,0l0,0c0,0-0.1,0-0.1,0H31
	C31,25.9,31,26,31,26z"/>
<path class="st3" d="M31,26.5L31,26.5c-0.1,0-0.1,0.1,0,0.2c0,0,0.1,0.1,0.1,0l0,0c0.1,0,0.1-0.1,0.1-0.2c0,0,0,0,0,0
	C31.1,26.4,31.1,26.4,31,26.5C31,26.5,31,26.5,31,26.5L31,26.5z"/>
<path class="st3" d="M31.6,27L31.6,27c0,0.1,0.1,0.1,0.1,0.1c0,0,0-0.1,0-0.1C31.7,26.8,31.5,26.9,31.6,27L31.6,27z"/>
<path class="st2" d="M32.5,23.6c0.1,0.1,0.1,0.2,0.2,0.2c0,0,0.1,0,0.1-0.1c0-0.1-0.1-0.2-0.2-0.3S32.4,23.5,32.5,23.6z"/>
<path class="st2" d="M31.8,23.8c0,0.2,0.1,0.3,0.2,0.5c0.1,0.1,0.2,0.1,0.3,0c0-0.1,0.1-0.1,0-0.2l-0.2-0.2
	c-0.1-0.1-0.1-0.1-0.2-0.2C31.9,23.6,31.9,23.6,31.8,23.8C31.8,23.7,31.8,23.7,31.8,23.8z"/>
<path class="st2" d="M31.1,24.1c0,0.2,0.1,0.3,0.3,0.5c0.1,0.1,0.4-0.1,0.2-0.2c-0.1-0.1-0.2-0.2-0.3-0.3C31.3,24,31.2,24,31.1,24.1
	C31.1,24,31.1,24.1,31.1,24.1z"/>
<path class="st2" d="M30.6,24.6l0.2,0.3c0.1,0.1,0.2,0.1,0.2,0c0,0,0,0,0,0c0.1-0.1,0.1-0.2,0-0.2c-0.1-0.1-0.2-0.2-0.3-0.3
	c-0.1,0-0.1,0-0.2,0C30.5,24.4,30.5,24.5,30.6,24.6L30.6,24.6z"/>
<path class="st2" d="M30,24.9c0,0.2,0.1,0.4,0.2,0.6c0.1,0.1,0.2,0.1,0.3,0.1c0.1-0.1,0.1-0.2,0.1-0.3c-0.1-0.2-0.2-0.3-0.4-0.5
	C30.1,24.7,30,24.8,30,24.9z"/>
<path class="st2" d="M34.4,26.4c0,0.1,0.1,0.2,0.1,0.2c0.1,0.1,0.2,0,0.2-0.1c0-0.1-0.1-0.2-0.2-0.2C34.5,26.3,34.4,26.3,34.4,26.4
	C34.4,26.3,34.4,26.3,34.4,26.4z"/>
<path class="st2" d="M33.8,26.7c0,0.1,0,0.2,0,0.2c0,0.1,0,0.2,0.1,0.2c0.1,0,0.1,0,0.2,0c0.2-0.1-0.1-0.4-0.2-0.5
	C33.9,26.6,33.8,26.6,33.8,26.7C33.8,26.7,33.8,26.7,33.8,26.7L33.8,26.7z"/>
<path class="st2" d="M33.1,27.1c0,0.1,0,0.2,0,0.3c0,0.1,0.1,0.3,0.2,0.2s0.1-0.2,0.1-0.4S33.3,27.1,33.1,27.1
	C33.2,27,33.1,27.1,33.1,27.1L33.1,27.1z"/>
<path class="st2" d="M32.5,27.3c-0.1,0.2,0,0.7,0.3,0.7c0.1,0,0.2-0.1,0.2-0.1c0,0,0,0,0,0c0-0.1-0.1-0.2-0.2-0.3
	c0-0.1-0.1-0.2-0.2-0.3C32.6,27.3,32.5,27.3,32.5,27.3C32.5,27.3,32.5,27.3,32.5,27.3L32.5,27.3z"/>
<path class="st2" d="M31.8,27.6c0,0.1,0,0.2,0.1,0.3c0.1,0.1,0.1,0.2,0.3,0.2s0,0,0.1,0c0-0.1,0-0.2-0.1-0.3
	c-0.1-0.1-0.1-0.2-0.3-0.3C31.9,27.5,31.9,27.5,31.8,27.6C31.8,27.6,31.8,27.6,31.8,27.6z"/>
<path class="st1" d="M15.9,33.1c2.6,0.2,5.3,0.6,7.8,1.3c1.3,0.2,2.4,1,3,2.2c0.7,1.4-0.5,4-2,4.2c-0.7,0.1-1.4,0-2.1-0.3
	c-1.8-0.7-3.5-1.5-5.2-2.5c-0.4-0.3-0.9-0.5-1.4-0.6c-0.4,0.1-1.1,1.5-1.6,2.2c-1.2,1.8-3.8,2.9-4.4,4.2c-0.4,0.8-1.4,2.3-2.3,2.3
	c-0.6,0-0.3-0.6-0.4-1.1S8,44,8.2,43.5c1.4-3.2,3.1-6.3,4.9-9.3c0.3-0.4,0.7-0.7,1.1-1C14.7,33,15.3,33,15.9,33.1z"/>
<path class="st3" d="M10.9,44c-0.9,0.5-1.6,1.2-2,2.1c0.6,0.1,0.6,1,0.3,1.5s-0.9,0.8-1.2,1.3c-0.5,1-0.8,2.1-0.6,3.2
	c0.1,0.9,0,1.8-0.3,2.7c-0.3,0.6-0.8,1-1.5,1.1c0.6-0.5,0.9-1.3,0.8-2.1c-0.1-0.8-0.2-1.6-0.4-2.3c-0.2-1.2-0.3-2.5-0.2-3.7
	c0-0.8,0.3-1.5,0.7-2.2c0.3-0.5,0.8-0.8,1.2-1.3c0.4-0.6,0.6-1.3,0.6-2C9.2,42.6,9.8,43.6,10.9,44z"/>
<path class="st3" d="M19.8,58c-1.1,0.1-2.2,0.2-3.3,0.2c-1,0-1.9-0.3-2.7-0.8c-0.9-0.5-1.3-1.5-1.1-2.5c0.5,0.8,1.2,1.4,2.1,1.6
	c0.6,0.1,1.2,0.2,1.8,0.2c0.8,0,1.6-0.4,2.1-1c0.4-0.6,0.6-1.3,0.5-2c0.6,0.2,1.1,0.4,1.5,0.8c0.3-0.6,0.8-1.1,1.4-1.5
	c0,1.3,0.2,2.5,0.8,3.6c0.2,0.2,0.3,0.5,0.3,0.8c-0.1,0.4-0.5,0.6-0.8,0.6c-0.4,0-0.7-0.1-1.1-0.2C20.7,57.9,20.2,57.9,19.8,58z"/>
<path class="st3" d="M10.4,11.4c0.1,0.3-2.2,1.9-1.7,2.1c0.2,0.1,1.9-1.8,2.2-1.1c0.1,0.3-0.1,0.3-0.5,0.5c-0.5,0.3-1,0.7-1.4,1.2
	c-0.2,0.2-0.5,0.5-0.3,0.7s1.1-0.8,1.6-0.4c0.2,0.1-0.2,0.5-0.9,0.9c-0.2,0.1-0.6,0.2-0.8,0.4c-0.4,0.3-0.4,0.9-0.4,1.4
	c-0.5,0-1.1,0-1.6,0c-0.8-1.8-0.6-3.9,0.5-5.6c0.3-0.3,0.8-1,1.1-0.7s-0.5,0.8-0.8,1.1s-0.6,0.8-0.3,1s1.2-1.9,2-1.9
	c0.4,0-0.3,0.8-0.6,1s-0.8,0.9-0.6,1c0.2,0.1,0.7-0.6,0.9-0.9C9.3,11.7,10.1,10.8,10.4,11.4z"/>
<path class="st3" d="M30.3,41.7c-0.3-0.2,0.2-0.7,0.5-0.9c0.6-0.9,1-1.9,1-3c0.6-0.1,1.3-0.1,1.9-0.2c-0.2,0.9-0.2,1.8,0.1,2.7
	c0.2,1.2,0,2.4-0.6,3.4c-0.2,0.4-0.5,1.2-0.8,0.9s1.2-2.3,0.6-2.2c-0.2,0-0.2,0.6-0.7,1.4c-0.2,0.3-0.5,1.1-0.8,0.9s1.2-2.2,0.9-2.3
	s-0.9,2.5-1.8,2.1c-0.5-0.2,1.3-2.2,1.2-2.3s-0.5,0.5-0.8,0.9s-0.8,1-1,0.8c-0.4-0.5,0.5-1.1,1-1.6c0.5-0.5,0.8-1.1,1-1.8
	C31.8,40.2,30.9,42.1,30.3,41.7z"/>
<path class="st7" d="M31.2,35.9c0.2,0.3,0.7,0.6,0.9,0.9c0.1-0.4,0.2-0.8,0.3-1.1l0.5,1.2c0.1-0.4,0.4-0.8,0.8-1v1
	c0.3-0.4,0.8-0.6,1.3-0.5c-0.5,0.6-1,1.2-1.4,1.9L31.7,38C31.6,37.3,31.4,36.6,31.2,35.9z"/>
<path class="st7" d="M6.5,19.2c0.3-0.2,0.5-0.5,0.7-0.8c0.1,0.3,0.3,0.6,0.5,0.8c0.1,0,0.1-0.7,0.2-0.9c0.3,0.3,0.6,0.6,1,0.7
	c0-0.3-0.1-0.7-0.2-1c0.3,0.2,0.6,0.4,1,0.5c-0.2-0.3-0.4-0.6-0.7-0.9c-0.3-0.3-0.6-0.7-0.7-1.1c-0.5,0.2-1.1,0.2-1.7,0.2
	C6.6,17.6,6.6,18.4,6.5,19.2z"/>
<path class="st7" d="M7.9,43.6c0.3-1,0.4-2,0.1-3c-0.2-1-1.1-1.7-2.1-1.8c0.5-0.2,1-0.2,1.5,0c0.5,0.2,0.9,0.6,1.2,1
	c0.7,0.9,1.6,2.3,1.4,3.4c0.9-0.3,1.9-0.2,2.8,0.3c-0.5,0-1,0.1-1.5,0.3c-0.3,0.2-0.6,0.3-0.9,0.5c-0.4,0-0.8-0.1-1.2-0.3
	C8.7,43.9,8.2,43.7,7.9,43.6z"/>
<path class="st7" d="M18.6,53.3c-1.1-0.9-2.4-1.4-3.8-1.5c1.2-0.4,2.5-0.3,3.7,0.1c0.9,0.4,1.8,1,2.4,1.8c0.3-0.7,0.8-1.2,1.5-1.5
	c-0.3,0.7-0.4,1.4-0.3,2.2c-1,0.3-2,0.3-3-0.1C19.1,53.9,18.9,53.6,18.6,53.3z"/>
<path class="st1" d="M5.7,55.5c0,0.2-0.2,0.4-0.4,0.4s-0.4-0.2-0.4-0.4c0-0.2,0.2-0.4,0.4-0.4S5.7,55.3,5.7,55.5L5.7,55.5z"/>
<path class="st1" d="M13.4,54.6c0,0.2-0.2,0.4-0.4,0.4c-0.2,0-0.4-0.2-0.4-0.4c0-0.2,0.2-0.4,0.4-0.4c0,0,0,0,0,0
	C13.2,54.2,13.4,54.4,13.4,54.6L13.4,54.6z"/>
<path class="st2" d="M15.1,52c0,0.2-0.2,0.3-0.3,0.2c-0.1,0-0.2-0.1-0.2-0.2c0-0.2,0.1-0.3,0.2-0.3s0.3,0.1,0.3,0.2
	C15.1,51.9,15.1,52,15.1,52z"/>
<path class="st2" d="M6.1,38.8c0,0.2-0.2,0.3-0.3,0.2c-0.1,0-0.2-0.1-0.2-0.2c0-0.2,0.1-0.3,0.2-0.3c0.2,0,0.3,0.1,0.3,0.2
	C6.1,38.8,6.1,38.8,6.1,38.8z"/>
<path class="st2" d="M22.8,52.2c0,0.2-0.1,0.3-0.3,0.3s-0.3-0.1-0.3-0.3c0-0.2,0.1-0.3,0.3-0.3c0,0,0,0,0,0
	C22.6,51.9,22.8,52,22.8,52.2z"/>
<circle class="st2" cx="12.7" cy="43.5" r="0.3"/>
<path class="st2" d="M6.7,19.3c0,0.1-0.1,0.2-0.2,0.2c0,0,0,0,0,0c-0.1,0-0.2-0.1-0.2-0.2c0,0,0,0,0,0c0-0.1,0.1-0.2,0.2-0.2
	c0,0,0,0,0,0C6.6,19.1,6.7,19.2,6.7,19.3L6.7,19.3z"/>
<path class="st2" d="M9.1,19.1c0,0.1-0.1,0.2-0.2,0.2s-0.2-0.1-0.2-0.2c0-0.1,0.1-0.2,0.2-0.2C9,18.9,9.1,19,9.1,19.1L9.1,19.1z"/>
<path class="st1" d="M31.4,35.9c0,0.1-0.1,0.2-0.2,0.2c-0.1,0-0.2-0.1-0.2-0.2c0-0.1,0.1-0.2,0.2-0.2C31.3,35.7,31.4,35.8,31.4,35.9
	z"/>
<path class="st1" d="M32.7,35.7c0,0.1-0.1,0.2-0.2,0.2c-0.1,0-0.2-0.1-0.2-0.2c0-0.1,0.1-0.2,0.2-0.2C32.6,35.5,32.7,35.6,32.7,35.7
	L32.7,35.7z"/>
<path class="st1" d="M33.9,35.8c0,0.1-0.1,0.2-0.2,0.2c-0.1,0-0.2-0.1-0.2-0.2c0-0.1,0.1-0.2,0.2-0.2C33.8,35.6,33.9,35.7,33.9,35.8
	L33.9,35.8z"/>
<path class="st1" d="M35.1,36.3c0,0.1-0.1,0.2-0.2,0.2c-0.1,0-0.2-0.1-0.2-0.2c0-0.1,0.1-0.2,0.2-0.2C35,36.1,35.1,36.1,35.1,36.3
	L35.1,36.3z"/>
<path class="st2" d="M8,19.2c0,0.1-0.1,0.2-0.2,0.2s-0.2-0.1-0.2-0.2c0-0.1,0.1-0.2,0.2-0.2c0,0,0,0,0,0C7.9,19.1,8,19.1,8,19.2z"/>
<path class="st2" d="M10,18.6c0,0.1-0.1,0.2-0.2,0.2c-0.1,0-0.2-0.1-0.2-0.2c0-0.1,0.1-0.2,0.2-0.2C9.9,18.4,10,18.5,10,18.6z"/>
<path class="st7" d="M18.5,26.9c0.1,0,0.1-0.1,0.1-0.1c0-0.1-0.1-0.1-0.1-0.1s-0.1,0.1-0.1,0.1C18.4,26.8,18.5,26.9,18.5,26.9z"/>
<path class="st7" d="M19.4,27.1c0.1,0,0.1-0.1,0.1-0.2c0-0.1-0.1-0.1-0.1-0.1c-0.1,0-0.1,0.1-0.1,0.2C19.3,27,19.3,27.1,19.4,27.1z"
	/>
<path class="st7" d="M20.9,28.2c0.1,0,0.1-0.1,0.1-0.2c0-0.1-0.1-0.1-0.1-0.1c-0.1,0-0.1,0.1-0.1,0.2C20.7,28.1,20.8,28.2,20.9,28.2
	z"/>
<path class="st7" d="M20.4,27.3L20.4,27.3c0.1,0,0.1,0,0.1-0.1c0-0.1,0-0.1-0.1-0.1l0,0C20.2,27.1,20.2,27.3,20.4,27.3z"/>
<path class="st7" d="M18.9,28.5L18.9,28.5c0.1,0,0.1-0.1,0.1-0.2c0,0,0,0-0.1-0.1l0,0c-0.1,0-0.1,0-0.1,0.1
	C18.8,28.5,18.9,28.5,18.9,28.5C18.9,28.5,18.9,28.5,18.9,28.5z"/>
<path class="st7" d="M18.9,30L18.9,30c0.1,0,0.1,0,0.1-0.1c0-0.1,0-0.1-0.1-0.1l0,0c-0.1,0-0.1,0-0.1,0.1C18.8,30,18.9,30,18.9,30
	C18.9,30,18.9,30,18.9,30z"/>
<path class="st7" d="M21.3,27.5c0.1,0,0.1,0,0.1-0.1c0-0.1,0-0.1-0.1-0.1c-0.1,0-0.1,0-0.1,0.1C21.2,27.5,21.2,27.5,21.3,27.5z"/>
<path class="st7" d="M22.3,27.7L22.3,27.7C22.3,27.6,22.3,27.6,22.3,27.7c0-0.1,0-0.1,0-0.1l0,0C22.1,27.4,22.1,27.8,22.3,27.7
	L22.3,27.7z"/>
<path class="st7" d="M23.1,34L23.1,34C23.2,34,23.2,33.9,23.1,34C23.1,33.9,23.1,33.9,23.1,34L23.1,34C23,33.8,23,34.1,23.1,34
	L23.1,34z"/>
<path class="st7" d="M21,33.4L21,33.4C21,33.4,21,33.4,21,33.4c0-0.1,0-0.1,0-0.1l0,0C20.9,33.2,20.9,33.5,21,33.4L21,33.4z"/>
<path class="st7" d="M23.4,27.9c0.1,0,0.1-0.1,0.1-0.2c0-0.1-0.1-0.1-0.1-0.1c-0.1,0-0.1,0.1-0.1,0.2C23.3,27.9,23.3,27.9,23.4,27.9
	z"/>
<path class="st7" d="M22.1,29.2c0.1,0,0.1-0.1,0.1-0.1c0-0.1-0.1-0.1-0.1-0.1S22,29,22,29.1C22,29.2,22.1,29.2,22.1,29.2L22.1,29.2z
	"/>
<path class="st7" d="M22.2,30.5c0.1,0,0.1-0.1,0.1-0.2c0-0.1-0.1-0.1-0.1-0.1c-0.1,0-0.1,0.1-0.1,0.2C22.2,30.5,22.2,30.5,22.2,30.5
	z"/>
<path class="st7" d="M21.8,29.9c0.1,0,0.1-0.1,0.1-0.1c0-0.1-0.1-0.1-0.1-0.1s-0.1,0.1-0.1,0.1C21.6,29.8,21.7,29.9,21.8,29.9
	L21.8,29.9z"/>
<path class="st7" d="M21.6,33.3c0.1,0,0.1-0.1,0.1-0.1c0-0.1-0.1-0.1-0.1-0.1c-0.1,0-0.1,0.1-0.1,0.1C21.5,33.3,21.6,33.3,21.6,33.3
	z"/>
<path class="st7" d="M22.8,28.6c0.1,0,0.1-0.1,0.1-0.2c0-0.1-0.1-0.1-0.1-0.1c-0.1,0-0.1,0.1-0.1,0.2C22.7,28.5,22.7,28.6,22.8,28.6
	z"/>
<path class="st7" d="M21.8,28.5c0.1,0,0.1-0.1,0.1-0.2c0-0.1-0.1-0.1-0.1-0.1c-0.1,0-0.1,0.1-0.1,0.2C21.7,28.4,21.7,28.5,21.8,28.5
	z"/>
<path class="st7" d="M21,29c0.1,0,0.1-0.1,0.1-0.1c0-0.1-0.1-0.1-0.1-0.1s-0.1,0.1-0.1,0.1C20.9,28.9,20.9,29,21,29L21,29z"/>
<path class="st7" d="M21.4,31.1c0.1,0,0.1-0.1,0.1-0.1c0-0.1-0.1-0.1-0.1-0.1s-0.1,0.1-0.1,0.1C21.3,31.1,21.3,31.1,21.4,31.1z"/>
<path class="st7" d="M19.1,33.1c0.1,0,0.1-0.1,0.1-0.2c0-0.1-0.1-0.1-0.1-0.1C19,32.8,19,32.9,19,33C19,33,19,33.1,19.1,33.1z"/>
<path class="st7" d="M23.2,32.1c0.1,0,0.1-0.1,0.1-0.2c0-0.1-0.1-0.1-0.1-0.1c-0.1,0-0.1,0.1-0.1,0.2C23.2,32,23.2,32.1,23.2,32.1z"
	/>
<path class="st7" d="M22.5,32.7c0.1,0,0.1-0.1,0.1-0.2c0-0.1-0.1-0.1-0.1-0.1c-0.1,0-0.1,0.1-0.1,0.2C22.4,32.7,22.5,32.7,22.5,32.7
	z"/>
<path class="st7" d="M20.8,30.4c0.1,0,0.1-0.1,0.1-0.2c0-0.1-0.1-0.1-0.1-0.1c-0.1,0-0.1,0.1-0.1,0.2C20.7,30.3,20.8,30.4,20.8,30.4
	z"/>
<path class="st7" d="M18.5,30.8c0.1,0,0.1-0.1,0.1-0.1c0-0.1-0.1-0.1-0.1-0.1s-0.1,0.1-0.1,0.1C18.3,30.7,18.4,30.8,18.5,30.8
	L18.5,30.8z"/>
<path class="st7" d="M18.7,31.5c0.1,0,0.1-0.1,0.1-0.2c0-0.1-0.1-0.1-0.1-0.1c-0.1,0-0.1,0.1-0.1,0.2C18.6,31.4,18.6,31.5,18.7,31.5
	z"/>
<path class="st7" d="M20.5,29.6c0.1,0,0.1-0.1,0.1-0.1c0-0.1-0.1-0.1-0.1-0.1s-0.1,0.1-0.1,0.1C20.4,29.5,20.4,29.6,20.5,29.6z"/>
<path class="st7" d="M19.3,30.7c0.1,0,0.1-0.1,0.1-0.1c0-0.1-0.1-0.1-0.1-0.1s-0.1,0.1-0.1,0.1C19.2,30.7,19.2,30.7,19.3,30.7z"/>
<path class="st7" d="M19.9,32.4c0.1,0,0.1-0.1,0.1-0.1c0-0.1-0.1-0.1-0.1-0.1c0,0,0,0,0,0c-0.1,0-0.1,0.1-0.1,0.1
	C19.7,32.3,19.8,32.4,19.9,32.4z"/>
<path class="st7" d="M19.6,31.5c0.1,0,0.1-0.1,0.1-0.1c0-0.1-0.1-0.1-0.1-0.1s-0.1,0.1-0.1,0.1C19.4,31.5,19.5,31.5,19.6,31.5z"/>
<path class="st7" d="M18.9,32.3c0.1,0,0.1-0.1,0.1-0.1c0-0.1-0.1-0.1-0.1-0.1c0,0,0,0,0,0c-0.1,0-0.1,0.1-0.1,0.1
	C18.8,32.3,18.8,32.3,18.9,32.3z"/>
<path class="st7" d="M24.6,27.9c0.1-0.2-0.2-0.2-0.2-0.1c0,0.1,0,0.1,0.1,0.2S24.6,28,24.6,27.9z"/>
<path class="st7" d="M23.9,28.6c0.1-0.2-0.2-0.2-0.2-0.1c0,0.1,0,0.1,0.1,0.2S23.8,28.6,23.9,28.6L23.9,28.6z"/>
<path class="st7" d="M23.5,29.2c0-0.1,0-0.1,0-0.2c-0.1,0-0.1,0-0.2,0c0,0,0,0,0,0c0,0.1,0,0.1,0.1,0.1
	C23.4,29.3,23.4,29.3,23.5,29.2z"/>
<path class="st7" d="M23.5,30.7c0.1-0.2-0.2-0.2-0.2-0.1c0,0.1,0,0.1,0.1,0.2C23.4,30.8,23.5,30.7,23.5,30.7z"/>
<path class="st7" d="M22.8,33.5c0.1-0.2-0.2-0.2-0.2-0.1c0,0.1,0,0.1,0.1,0.2C22.7,33.6,22.8,33.6,22.8,33.5z"/>
<path class="st7" d="M23.8,31.4c0.1-0.1-0.2-0.2-0.2-0.1c0,0.1,0,0.1,0.1,0.2C23.7,31.5,23.8,31.5,23.8,31.4z"/>
<path class="st7" d="M24.3,32.3c0-0.1,0-0.1,0-0.2c-0.1,0-0.1,0-0.2,0c0,0,0,0,0,0c0,0.1,0,0.1,0.1,0.1
	C24.3,32.4,24.3,32.3,24.3,32.3z"/>
<path class="st7" d="M23.9,33.6c0.1-0.2-0.2-0.2-0.2-0.1S23.8,33.7,23.9,33.6z"/>
<path class="st7" d="M23.8,32.8c0-0.1,0-0.1-0.1-0.2c-0.1,0-0.1,0-0.2,0.1C23.5,32.9,23.7,33,23.8,32.8z"/>
<path class="st7" d="M23.1,30c0.1-0.2-0.2-0.2-0.2-0.1c0,0.1,0,0.1,0.1,0.2C23,30.1,23.1,30.1,23.1,30z"/>
<path class="st7" d="M22.2,33.9c0-0.1,0-0.1,0-0.2c-0.1,0-0.1,0-0.2,0c0,0,0,0,0,0c0,0.1,0,0.1,0.1,0.1
	C22.1,33.9,22.2,33.9,22.2,33.9z"/>
<path class="st7" d="M22.9,31.2c0.1-0.2-0.2-0.2-0.2-0.1c0,0.1,0,0.1,0.1,0.2C22.8,31.3,22.9,31.2,22.9,31.2z"/>
<path class="st7" d="M25.4,28.1c0.1,0,0.1-0.1,0.1-0.2c0-0.1-0.1-0.1-0.1-0.1c-0.1,0-0.1,0.1-0.1,0.2C25.3,28.1,25.4,28.1,25.4,28.1
	z"/>
<path class="st7" d="M24.9,28.9c0.1,0,0.1-0.1,0.1-0.2c0-0.1-0.1-0.1-0.1-0.1c-0.1,0-0.1,0.1-0.1,0.2C24.8,28.9,24.8,28.9,24.9,28.9
	z"/>
<path class="st7" d="M24.4,29.5c0.1,0,0.1-0.1,0.1-0.2c0-0.1-0.1-0.1-0.1-0.1c-0.1,0-0.1,0.1-0.1,0.2C24.3,29.5,24.4,29.5,24.4,29.5
	z"/>
<path class="st7" d="M24.2,30.3c0.1,0,0.2-0.1,0.2-0.1S24.3,30,24.2,30c0,0,0,0,0,0c-0.1,0-0.1,0.1-0.1,0.2
	C24,30.2,24.1,30.3,24.2,30.3z"/>
<path class="st7" d="M24.5,31.1c0.1,0,0.1-0.1,0.1-0.2c0-0.1-0.1-0.1-0.1-0.1c-0.1,0-0.1,0.1-0.1,0.2C24.3,31,24.4,31.1,24.5,31.1z"
	/>
<path class="st7" d="M26.4,28.2c0.1,0,0.1-0.1,0.1-0.2c0,0,0-0.1-0.1-0.1c-0.1,0-0.1,0-0.2,0.1C26.2,28.1,26.3,28.2,26.4,28.2
	C26.4,28.2,26.4,28.2,26.4,28.2z"/>
<path class="st7" d="M25.8,29c0.1,0,0.1-0.1,0.1-0.2c0,0,0-0.1-0.1-0.1c-0.1,0-0.1,0-0.2,0.1C25.6,28.9,25.6,29,25.8,29
	C25.7,29,25.8,29,25.8,29z"/>
<path class="st7" d="M25.4,29.7c0.1,0,0.1-0.1,0.1-0.1c0-0.1-0.1-0.1-0.1-0.1s-0.1,0.1-0.1,0.1C25.3,29.6,25.4,29.7,25.4,29.7
	L25.4,29.7z"/>
<path class="st7" d="M22,31.9c0.1,0,0.1-0.1,0.1-0.1c0-0.1-0.1-0.1-0.1-0.1s-0.1,0.1-0.1,0.1C21.9,31.8,21.9,31.9,22,31.9L22,31.9z"
	/>
<path class="st7" d="M25.1,30.5c0.1,0,0.1-0.1,0.1-0.2c0,0,0-0.1-0.1-0.1c-0.1,0-0.1,0-0.2,0.1C25,30.4,25,30.5,25.1,30.5
	C25.1,30.5,25.1,30.5,25.1,30.5z"/>
<path class="st7" d="M25.3,31.3c0.1,0,0.1,0,0.2-0.1c0-0.1,0-0.1-0.1-0.2c0,0,0,0-0.1,0C25.2,31.1,25.2,31.2,25.3,31.3
	C25.2,31.3,25.3,31.3,25.3,31.3z"/>
<path class="st7" d="M24.9,31.9c0.1,0,0.1-0.1,0.1-0.1c0-0.1-0.1-0.1-0.1-0.1s-0.1,0.1-0.1,0.1C24.8,31.8,24.8,31.9,24.9,31.9z"/>
<path class="st7" d="M25,32.6c0.1,0,0.1,0,0.2-0.1c0-0.1,0-0.1-0.1-0.2c0,0,0,0-0.1,0C24.9,32.4,24.9,32.4,25,32.6
	C24.9,32.5,25,32.6,25,32.6z"/>
<path class="st7" d="M27.1,28.2c0.1,0,0.1,0,0.1-0.1c0-0.1,0-0.1-0.1-0.1c-0.1,0-0.1,0-0.1,0.1C27,28.2,27,28.2,27.1,28.2z"/>
<path class="st7" d="M26.7,29.1c0.1,0,0.1,0,0.1-0.1s0-0.1-0.1-0.1l0,0c-0.1,0-0.1,0-0.1,0.1S26.6,29.1,26.7,29.1z"/>
<path class="st7" d="M26.5,29.8c0.1,0,0.1-0.1,0.1-0.1c0,0,0-0.1-0.1-0.1C26.4,29.6,26.4,29.6,26.5,29.8
	C26.4,29.7,26.4,29.8,26.5,29.8z"/>
<path class="st7" d="M26,30.5c0.1,0,0.1-0.1,0.1-0.1c0,0,0-0.1-0.1-0.1c-0.1,0-0.1,0-0.1,0.1C25.8,30.5,25.9,30.5,26,30.5
	C26,30.5,26,30.5,26,30.5z"/>
<path class="st7" d="M24.2,34.4c0.1,0,0.1-0.1,0.1-0.1c0,0,0-0.1-0.1-0.1C24.2,34.2,24.1,34.3,24.2,34.4
	C24.2,34.4,24.2,34.4,24.2,34.4z"/>
<path class="st7" d="M24.5,33.3c0.1,0,0.1-0.1,0.1-0.1c0,0,0-0.1-0.1-0.1C24.5,33.1,24.4,33.2,24.5,33.3
	C24.5,33.3,24.5,33.3,24.5,33.3z"/>
<path class="st7" d="M18.7,27.7c0.1,0,0.1-0.1,0.1-0.1s-0.1-0.1-0.1-0.1c0,0,0,0,0,0c-0.1,0-0.1,0.1-0.1,0.1
	C18.6,27.7,18.7,27.7,18.7,27.7z"/>
<path class="st7" d="M17.9,27.5L17.9,27.5c0,0,0.1,0.1,0.1,0l0,0C18.1,27.4,17.9,27.3,17.9,27.5L17.9,27.5z"/>
<path class="st7" d="M19.8,28c0.1,0,0.1,0,0.1-0.1s0-0.1-0.1-0.1s-0.1,0-0.1,0.1S19.7,28,19.8,28L19.8,28z"/>
<path class="st7" d="M18.2,30c0.1,0,0.1,0,0.1-0.1s0-0.1-0.1-0.1s-0.1,0-0.1,0.1S18.2,30,18.2,30z"/>
<path class="st7" d="M20,28.7c0.1,0,0.1,0,0.1-0.1s0-0.1-0.1-0.1s-0.1,0-0.1,0.1S19.9,28.7,20,28.7L20,28.7z"/>
<path class="st7" d="M19.8,30.1c0.1,0,0.1,0,0.1-0.1s0-0.1-0.1-0.1s-0.1,0-0.1,0.1S19.8,30.1,19.8,30.1z"/>
<path class="st7" d="M19.9,33.4c0.1,0,0.1,0,0.1-0.1c0-0.1,0-0.1-0.1-0.1s-0.1,0-0.1,0.1C19.8,33.3,19.8,33.4,19.9,33.4L19.9,33.4z"
	/>
<path class="st7" d="M20.2,30.9c0.1,0,0.1,0,0.1-0.1s0-0.1-0.1-0.1s-0.1,0-0.1,0.1S20.1,30.9,20.2,30.9L20.2,30.9z"/>
<path class="st7" d="M20.6,31.6c0.1,0,0.1,0,0.1-0.1s0-0.1-0.1-0.1s-0.1,0-0.1,0.1S20.6,31.6,20.6,31.6z"/>
<path class="st7" d="M20.5,33c0.1,0,0.1-0.1,0.1-0.1c0,0,0-0.1-0.1-0.1C20.4,32.8,20.4,32.9,20.5,33C20.4,33,20.4,33,20.5,33z"/>
<path class="st7" d="M21,32.4c0.1,0,0.1,0,0.1-0.1c0-0.1,0-0.1-0.1-0.1s-0.1,0-0.1,0.1C20.9,32.3,21,32.4,21,32.4z"/>
<path class="st7" d="M18.5,29.2c0.1,0,0.1,0,0.1-0.1s0-0.1-0.1-0.1s-0.1,0-0.1,0.1S18.5,29.2,18.5,29.2z"/>
<path class="st7" d="M19.4,29.3c0.1,0,0.1,0,0.1-0.1s0-0.1-0.1-0.1s-0.1,0-0.1,0.1S19.4,29.3,19.4,29.3z"/>
<path class="st7" d="M24.9,34.2c0.1,0,0.1,0,0.1-0.1c0-0.1,0-0.1-0.1-0.1s-0.1,0-0.1,0.1C24.8,34.1,24.8,34.2,24.9,34.2z"/>
<path class="st7" d="M25.4,34.9c0.1,0,0.1,0,0.1-0.1c0-0.1,0-0.1-0.1-0.1s-0.1,0-0.1,0.1C25.3,34.8,25.3,34.9,25.4,34.9L25.4,34.9z"
	/>
<path class="st7" d="M18.1,28.5c0.1,0,0.1,0,0.1-0.1s0-0.1-0.1-0.1s-0.1,0-0.1,0.1S18.1,28.5,18.1,28.5z"/>
<path class="st9" d="M14.7,35.4c0.4,0,0.8-0.4,0.8-0.8c0-0.4-0.4-0.8-0.8-0.8c-0.4,0-0.8,0.4-0.8,0.8S14.2,35.4,14.7,35.4
	C14.7,35.4,14.7,35.4,14.7,35.4z"/>
<path class="st9" d="M17.5,34.4L17.5,34.4c-0.2,0.3-0.1,0.6,0.2,0.7c0.3,0.2,0.6,0.1,0.7-0.2c0.1-0.2,0.1-0.4,0-0.5l0,0
	c-0.2-0.3-0.5-0.3-0.7-0.2C17.6,34.2,17.5,34.3,17.5,34.4L17.5,34.4z"/>
<path class="st9" d="M16.8,37.4c0.3,0,0.5-0.3,0.5-0.6c0-0.3-0.2-0.5-0.5-0.5c-0.3,0-0.5,0.3-0.5,0.6C16.3,37.1,16.5,37.3,16.8,37.4
	z"/>
<path class="st9" d="M13.2,38L13.2,38c0.1,0.4,0.5,0.6,0.9,0.5c0.4-0.1,0.6-0.5,0.5-0.9l0,0c-0.1-0.4-0.6-0.6-0.9-0.4
	C13.3,37.3,13.1,37.7,13.2,38L13.2,38z"/>
<path class="st9" d="M11.5,38.8L11.5,38.8c-0.3,0-0.3,0.5-0.1,0.5h0.1c0.1,0,0.3-0.1,0.3-0.2s-0.1-0.3-0.2-0.3
	C11.6,38.8,11.6,38.8,11.5,38.8L11.5,38.8z"/>
<path class="st9" d="M11.1,41.9c0.3,0,0.5-0.3,0.5-0.7c0-0.3-0.2-0.5-0.5-0.5c-0.3,0-0.5,0.3-0.5,0.7C10.6,41.7,10.8,41.9,11.1,41.9
	z"/>
<path class="st9" d="M19.6,36.9L19.6,36.9c0.3,0.1,0.6,0.1,0.7-0.2c0.1-0.2,0-0.5-0.2-0.7c0,0-0.1,0-0.1,0H20
	c-0.2-0.1-0.4,0-0.5,0.2C19.4,36.4,19.4,36.7,19.6,36.9L19.6,36.9z"/>
<path class="st9" d="M22.7,35.8c0.3,0,0.6-0.4,0.5-0.7c0-0.3-0.3-0.5-0.5-0.5c-0.3,0-0.6,0.4-0.5,0.7C22.2,35.5,22.5,35.7,22.7,35.8
	z"/>
<path class="st9" d="M22.6,39.5c0.4,0,0.8-0.3,0.8-0.7c0-0.4-0.3-0.8-0.7-0.8c-0.1,0-0.1,0-0.2,0c-0.4,0-0.7,0.4-0.7,0.8
	C22,39.2,22.3,39.4,22.6,39.5z"/>
<path class="st9" d="M24.7,37.5L24.7,37.5c0,0.4,0.4,0.8,0.8,0.8s0.8-0.4,0.8-0.8c0-0.1,0-0.3-0.1-0.4l0,0c-0.2-0.4-0.7-0.5-1.1-0.3
	C24.9,37,24.7,37.3,24.7,37.5L24.7,37.5z"/>
<path class="st9" d="M18.4,41.3c0.5,0,0.8-0.4,0.8-0.8c0-0.5-0.4-0.8-0.8-0.8c-0.5,0-0.8,0.4-0.8,0.8c0,0,0,0,0,0
	C17.6,40.9,17.9,41.2,18.4,41.3z"/>
<path class="st9" d="M21.4,41.8c0.3,0,0.6-0.4,0.5-0.7c0-0.3-0.3-0.5-0.5-0.5c-0.3,0-0.6,0.4-0.5,0.7C20.9,41.5,21.1,41.7,21.4,41.8
	z"/>
<path class="st9" d="M18,44.2c0.4,0,0.8-0.3,0.8-0.8c0-0.4-0.4-0.8-0.8-0.8c-0.4,0-0.8,0.4-0.8,0.8C17.2,43.8,17.6,44.2,18,44.2z"/>
<path class="st9" d="M15.1,44.8c0.3,0,0.5-0.3,0.5-0.6c0-0.2-0.2-0.4-0.5-0.5c-0.3,0-0.5,0.3-0.5,0.6C14.7,44.6,14.9,44.7,15.1,44.8
	z"/>
<path class="st9" d="M17.6,46.8c0.4,0,0.6-0.3,0.6-0.6c0-0.4-0.2-0.7-0.6-0.7c-0.4,0-0.7,0.2-0.7,0.6c0,0.1,0,0.1,0,0.2
	C17,46.5,17.3,46.8,17.6,46.8z"/>
<path class="st9" d="M17.8,49.1L17.8,49.1c0.2-0.1,0.3-0.4,0.2-0.6c-0.1-0.2-0.4-0.3-0.6-0.2c-0.1,0.1-0.2,0.2-0.2,0.3l0,0
	c-0.1,0.2,0.1,0.5,0.3,0.5C17.5,49.2,17.6,49.1,17.8,49.1L17.8,49.1z"/>
<path class="st9" d="M19.7,51c0.4,0,0.8-0.4,0.8-0.8s-0.4-0.8-0.8-0.8c-0.4,0-0.8,0.4-0.8,0.8C18.9,50.6,19.3,51,19.7,51z"/>
<path class="st9" d="M33.2,29L33.2,29c0,0.3,0.3,0.6,0.6,0.6c0.3,0,0.6-0.3,0.6-0.6c0-0.2-0.1-0.4-0.3-0.5l0,0
	c-0.3-0.2-0.6-0.1-0.8,0.2C33.3,28.8,33.3,28.9,33.2,29L33.2,29z"/>
<path class="st9" d="M35,31.1c0.2,0,0.4-0.2,0.4-0.4s-0.2-0.4-0.4-0.4s-0.4,0.2-0.4,0.4S34.8,31.1,35,31.1z"/>
<path class="st9" d="M33.9,33c0.3,0,0.5-0.2,0.5-0.5s-0.2-0.6-0.5-0.6s-0.5,0.2-0.5,0.6S33.6,33,33.9,33L33.9,33z"/>
<path class="st9" d="M34,34.1L34,34.1c-0.2,0-0.4,0.2-0.4,0.4c0,0,0,0.1,0,0.1l0,0c0.1,0.2,0.3,0.3,0.5,0.3c0.1,0,0.2-0.1,0.3-0.3
	l0,0l-0.1,0.2l0,0c0.1-0.1,0.2-0.4,0-0.5C34.2,34.2,34.1,34.1,34,34.1L34,34.1z"/>
<path class="st9" d="M8.2,21.4c0.3,0,0.6-0.3,0.6-0.6s-0.3-0.6-0.6-0.6c-0.3,0-0.6,0.3-0.6,0.6S7.9,21.4,8.2,21.4z"/>
<path class="st9" d="M8.1,23.9c0.3-0.1,0.5-0.3,0.4-0.6c0-0.2-0.2-0.4-0.4-0.4c-0.3,0.1-0.5,0.3-0.4,0.6C7.7,23.7,7.9,23.9,8.1,23.9
	z"/>
<path class="st9" d="M9.1,26.2c0.3,0,0.5-0.2,0.5-0.5s-0.2-0.5-0.5-0.5s-0.5,0.2-0.5,0.5S8.9,26.2,9.1,26.2L9.1,26.2z"/>
<path class="st9" d="M10.8,24.6c0.4,0,0.6-0.4,0.6-0.7c0-0.3-0.3-0.5-0.6-0.6c-0.4,0-0.6,0.4-0.6,0.7C10.3,24.4,10.5,24.6,10.8,24.6
	z"/>
<path class="st9" d="M12.1,25.3c0.2,0,0.4-0.3,0.4-0.5c0-0.2-0.2-0.3-0.4-0.4c-0.2,0-0.4,0.3-0.4,0.5C11.8,25.1,11.9,25.3,12.1,25.3
	z"/>
<path class="st9" d="M7.9,43.9c0.1,0,0.2-0.2,0.2-0.3c0-0.1-0.1-0.2-0.2-0.2c-0.1,0-0.2,0.2-0.2,0.3C7.7,43.8,7.8,43.8,7.9,43.9z"/>
<path class="st9" d="M8.9,44.4c0.2,0,0.3-0.2,0.3-0.4c0-0.2-0.2-0.3-0.3-0.3c-0.2,0-0.3,0.2-0.3,0.4C8.6,44.3,8.7,44.4,8.9,44.4z"/>
<path class="st9" d="M10,44.7c0.2,0,0.3-0.2,0.2-0.3c0-0.1-0.1-0.2-0.2-0.2c-0.2,0-0.3,0.2-0.2,0.3C9.8,44.6,9.9,44.7,10,44.7z"/>
<path class="st9" d="M19.3,54.8c0.2,0,0.4-0.2,0.4-0.4c0-0.2-0.2-0.4-0.4-0.4S19,54.2,19,54.4C19,54.6,19.1,54.8,19.3,54.8z"/>
<path class="st9" d="M20.7,55.1c0.2,0,0.4-0.2,0.3-0.5c0-0.2-0.2-0.3-0.3-0.3c-0.2,0-0.4,0.2-0.3,0.5C20.4,54.9,20.6,55,20.7,55.1z"
	/>
<path class="st9" d="M22.1,54.7c0.2,0,0.3-0.2,0.3-0.4c0-0.1-0.1-0.2-0.3-0.3c-0.2,0-0.3,0.2-0.3,0.4C21.8,54.6,21.9,54.7,22.1,54.7
	z"/>
<path class="st1" d="M21.8,27.4C21.7,27.2,21.8,27.7,21.8,27.4c0-0.2,0-0.2,0-0.3c0-0.1,0-0.3-0.1-0.4c-0.1-0.4-0.3-0.7-0.5-0.9
	c-0.3-0.3-0.8-0.3-1.1,0c0,0,0,0,0,0c-0.3,0.3-0.3,0.8,0,1.1c0,0,0.1,0.1,0.1,0.1l0.3,0.2c0.2,0.1-0.1-0.1,0.1,0.1l0.1,0.1l0,0
	c0.1,0.1,0.2,0.2,0.3,0.2c0.1,0.1,0.2,0.1,0.3,0.2c0.1,0.1,0.3,0,0.4-0.1C21.8,27.5,21.8,27.5,21.8,27.4L21.8,27.4z"/>
<path class="st1" d="M22.2,27.9c0.4,0.5,1.4,0,1.8-0.2c0.4-0.1,0.6-0.5,0.5-0.8c-0.1-0.4-0.5-0.6-0.9-0.5c-0.1,0-0.1,0-0.1,0.1
	c-0.4,0.2-0.7,0.5-1,0.8C22.3,27.3,21.9,27.7,22.2,27.9L22.2,27.9z"/>
<path class="st1" d="M21.2,28.1c0,0-0.2,0-0.2,0l-0.4,0.1c-0.3,0-0.6,0.1-0.9,0.2c-0.6,0.4-0.2,1.4,0.5,1.2c0.3-0.1,0.6-0.3,0.8-0.5
	c0.2-0.2,0.5-0.4,0.5-0.7c0,0.1-0.1,0.1-0.1,0.2v-0.1C21.5,28.3,21.4,28,21.2,28.1L21.2,28.1z"/>
<path class="st1" d="M21.9,28.5c-0.1,0.3-0.1,0.7,0.1,1c0.2,0.4,0.4,0.8,0.8,0.9c0.4,0.1,0.7-0.1,0.8-0.5c0-0.1,0-0.1,0-0.2
	c0-0.4-0.2-0.7-0.5-1c-0.2-0.3-0.4-0.5-0.7-0.6C22.1,28.3,21.9,28.3,21.9,28.5z"/>
<path class="st3" d="M6.5,3v4C6.5,7.5,6.4,8.1,6,8.4C5.6,8.7,5.2,8.9,4.8,8.9c-0.3,0-0.6,0-0.8-0.1V8.1c0.2,0.1,0.5,0.1,0.7,0.1
	c0.2,0,0.5,0,0.7-0.1C5.5,8,5.6,7.9,5.7,7.7C5.7,7.5,5.8,7.2,5.8,7V3H6.5z"/>
<path class="st2" d="M34.5,59.3v-4c-0.1-0.5,0.1-1.1,0.5-1.5c0.3-0.3,0.8-0.4,1.2-0.4c0.3,0,0.6,0,0.8,0.1v0.6
	c-0.2-0.1-0.5-0.1-0.8-0.1c-0.2,0-0.5,0-0.7,0.2c-0.1,0.1-0.3,0.2-0.3,0.4c-0.1,0.2-0.1,0.5-0.1,0.7v4H34.5z"/>
<path class="st3" d="M13.2,59.1h-7c-1.7-0.1-3.1-1.5-3-3.2V15.7c0,0,0-0.1,0.1-0.1c0,0,0,0,0,0c0,0,0.1,0,0.1,0.1l0,0v40.3
	c0,1.6,1.2,2.9,2.8,3h7c0,0,0.1,0,0.1,0.1S13.2,59.1,13.2,59.1L13.2,59.1z"/>
<path class="st6" d="M37.7,46.9C37.6,46.9,37.6,46.9,37.7,46.9C37.5,46.8,37.5,46.8,37.7,46.9L37.6,6.4c0-1.6-1.2-2.9-2.8-3h-6.7
	c0,0-0.1,0-0.1-0.1c0,0,0,0,0,0c0,0,0-0.1,0.1-0.1c0,0,0,0,0,0h6.7c1.7,0.1,3.1,1.5,3,3.2L37.7,46.9C37.7,46.9,37.7,46.9,37.7,46.9
	C37.7,46.9,37.7,46.9,37.7,46.9z"/>
</svg>
