<svg id="Layer_1" data-name="Layer 1" xmlns="http://www.w3.org/2000/svg" xmlns:xlink="http://www.w3.org/1999/xlink" viewBox="0 0 40.93 62.29"><defs><clipPath id="clip-path"><path d="M25.77,56.33C26.9,55.18,27,49.08,27,48.92c0-.73-.61-4.67-.32-5.37s.79-.83,1.12-1.34a1.83,1.83,0,0,0,.17-1.74,2.07,2.07,0,0,0-1.16-1,4.28,4.28,0,0,0-3.67.33,4,4,0,0,0-.68.56,1.63,1.63,0,0,0-.4.58,3.64,3.64,0,0,0-.19,1.54,23.55,23.55,0,0,0,.93,4.83,5.42,5.42,0,0,0,.48,1.29C23.8,49.55,22.31,57,25.77,56.33Z" style="fill:none"/></clipPath><clipPath id="clip-path-2"><path d="M25,57.34a2.45,2.45,0,0,0,1-1.55,5.14,5.14,0,0,0,0-1.3,2.29,2.29,0,0,0-1-.06,35.27,35.27,0,0,1-6.08,0c.44-2.84-.16-5.73-.14-8.61a14.05,14.05,0,0,0-.31-4.53c-.43-1.63-1.34-1.7-2.5-1.68a4.92,4.92,0,0,0-3.14.93,3.06,3.06,0,0,0-.6,3.24,2.88,2.88,0,0,0,1.95,1.55.88.88,0,0,1,.54.3.86.86,0,0,1,.08.36l.36,6.28a9.61,9.61,0,0,0,.5,2.55,3.57,3.57,0,0,0,1.85,1.88,4.77,4.77,0,0,0,2.12,1l3.1.15A4.23,4.23,0,0,0,24,57.74Z" style="fill:none"/></clipPath><clipPath id="clip-path-3"><path d="M15.42,6.15c-1.13,1.16-1.18,7.26-1.18,7.42,0,.73.62,4.67.32,5.37s-.79.82-1.12,1.34A1.83,1.83,0,0,0,13.27,22a2.1,2.1,0,0,0,1.16,1,4.31,4.31,0,0,0,3.67-.33,6,6,0,0,0,.69-.56,1.69,1.69,0,0,0,.39-.59A3.59,3.59,0,0,0,19.37,20a23.55,23.55,0,0,0-.93-4.83A5,5,0,0,0,18,13.9C17.39,12.94,18.88,5.53,15.42,6.15Z" style="fill:none"/></clipPath><clipPath id="clip-path-4"><path d="M16.2,5.14a2.48,2.48,0,0,0-1,1.55,5.22,5.22,0,0,0,0,1.31,2.29,2.29,0,0,0,1,.06,35.27,35.27,0,0,1,6.08,0c-.44,2.84.16,5.73.14,8.61a14.26,14.26,0,0,0,.31,4.52c.43,1.63,1.34,1.71,2.51,1.69A4.91,4.91,0,0,0,28.35,22a3.08,3.08,0,0,0,.6-3.25A2.86,2.86,0,0,0,27,17.18a.88.88,0,0,1-.54-.3.91.91,0,0,1-.08-.37L26,10.23a9.69,9.69,0,0,0-.5-2.55A3.57,3.57,0,0,0,23.67,5.8a4.81,4.81,0,0,0-2.12-1l-3.1-.15a4.57,4.57,0,0,0-1.28.06Z" style="fill:none"/></clipPath></defs><rect x="0.02" y="-0.02" width="40.89" height="62.32" rx="3.46" style="fill:#fff"/><path d="M31.69,38.25a2.05,2.05,0,0,1-.24.94,2.48,2.48,0,0,1-1.08.88,11.29,11.29,0,0,1-5.49.84,2.33,2.33,0,0,0-1.69.34,1.55,1.55,0,0,0-.39.93,7,7,0,0,0,0,2.09.67.67,0,0,1,0,.42.79.79,0,0,1-.39.3c-1.06.49-3.27,2.39-4.38,2.8-.18-1.25.72-4-.25-5S15,41.51,13.42,41.3s-3.29-.49-4.35-1.56a3.85,3.85,0,0,1-1-2.4,11.39,11.39,0,0,1,.19-2.6.64.64,0,0,1,.15-.37A.88.88,0,0,1,9,34.25a17.31,17.31,0,0,0,3.05-.2,35.77,35.77,0,0,1,9.07-.15c1,.14,2,.35,3,.49a20.52,20.52,0,0,0,4.43.17,4.93,4.93,0,0,1,1.92.08c.61.21,1.09.82.84,1.35A4.88,4.88,0,0,1,31.69,38.25Z" style="fill:#fcc07e"/><path d="M9.5,24.24a2.09,2.09,0,0,1,.24-.95,2.56,2.56,0,0,1,1.09-.87,11.25,11.25,0,0,1,5.48-.84A2.38,2.38,0,0,0,18,21.24a1.55,1.55,0,0,0,.39-.93,7,7,0,0,0,0-2.09.7.7,0,0,1,0-.43.78.78,0,0,1,.39-.29c1.06-.5,3.27-2.4,4.38-2.8.19,1.25-.71,4,.25,5s2.8,1.31,4.38,1.52,3.29.49,4.35,1.55a3.87,3.87,0,0,1,1,2.4A10.94,10.94,0,0,1,33,27.75a.58.58,0,0,1-.15.37.88.88,0,0,1-.63.12,17.2,17.2,0,0,0-3,.2,35.4,35.4,0,0,1-9.08.14c-1-.13-2-.34-3-.48a20.5,20.5,0,0,0-4.43-.17,5.13,5.13,0,0,1-1.92-.08c-.61-.21-1.09-.82-.84-1.35A4.9,4.9,0,0,1,9.5,24.24Z" style="fill:#fcc07e"/><path d="M30.36,25c.37,0,2.64-.88,2.87-.05.34,1.25-.55,3.42-.2,4.47.29.86-1.34,2.12-1.27,3,.12,1.78.55,5.3-.15,5.34s-2.42-.22-3.11-.25c-6.58-.25-10.49-.14-16.27-.4a15.93,15.93,0,0,0-2.59.2c-.54.08-2,1.15-2.18-.15a36.14,36.14,0,0,1,0-5c.07-.84.14-1.69.25-2.53a30.42,30.42,0,0,1,.85-4.29A1,1,0,0,1,8.77,25a1.21,1.21,0,0,1,.53-.3c2.87-1.06,6.13-.81,9.23-.55a23,23,0,0,1,3.33.45C22.63,24.75,28.8,24.93,30.36,25Z" style="fill:#191956"/><path d="M25.77,56.33C26.9,55.18,27,49.08,27,48.92c0-.73-.61-4.67-.32-5.37s.79-.83,1.12-1.34a1.83,1.83,0,0,0,.17-1.74,2.07,2.07,0,0,0-1.16-1,4.28,4.28,0,0,0-3.67.33,4,4,0,0,0-.68.56,1.63,1.63,0,0,0-.4.58,3.64,3.64,0,0,0-.19,1.54,23.55,23.55,0,0,0,.93,4.83,5.42,5.42,0,0,0,.48,1.29C23.8,49.55,22.31,57,25.77,56.33Z" style="fill:#0c0a35"/><path d="M7.51,37.91a.69.69,0,0,1,0-.49.73.73,0,0,1,.38-.31,40.05,40.05,0,0,0,8-5.75c1.32-1.1,9.45-8,12-10a1.45,1.45,0,0,1,.43-.26,1.55,1.55,0,0,1,.74,0,8.64,8.64,0,0,1,2.82,1A2.88,2.88,0,0,1,33.23,25c-2.84,1.42-6.95,5.49-11.36,8.42-1,.66-7.42,6-9.08,8.12a1,1,0,0,1-.32.3,2.72,2.72,0,0,1-1.1,0A6.4,6.4,0,0,1,7.51,37.91Z" style="fill:#0c0a35"/><path d="M25.13,53c1.2-.85,2.28-3.58.5-4.46a.1.1,0,0,0-.13.14,2.94,2.94,0,0,1,.58,2.22,4.28,4.28,0,0,1-1,2,.06.06,0,0,0,.07.09Z" style="fill:#b70027"/><path d="M25.59,48.61a3.1,3.1,0,0,0-.46-.86,2,2,0,0,0-.71-.74.1.1,0,0,0-.14.11,1.91,1.91,0,0,0,.53.74c.23.27.46.54.67.81a.07.07,0,0,0,.11-.06Z" style="fill:#b70027"/><path d="M24.69,52.41a1.57,1.57,0,0,0,.11-2.82c-.08,0-.19,0-.13.13a3.91,3.91,0,0,1,.6,1.05,1.47,1.47,0,0,1-.64,1.49c-.09,0,0,.19.06.15Z" style="fill:#b70027"/><g style="clip-path:url(#clip-path)"><path d="M26.27,56.89a3.91,3.91,0,0,1-.52-2.83c.18-.93,1.12-1.45,1.47-2.3A4.74,4.74,0,0,0,26.36,47,5.28,5.28,0,0,1,25.54,44c0-.9.36-1.78.36-2.69a3.11,3.11,0,0,0-.7-1.74c-.27-.35-.56-.64-.81-1a10.69,10.69,0,0,1-.51-1.37.11.11,0,0,0-.2.09,7.64,7.64,0,0,0,.76,2c.23.35.53.64.75,1a3.12,3.12,0,0,1,.22,2.17c-.26,1.75-.37,3.25.6,4.84a6.11,6.11,0,0,1,1.17,3.19c0,1.23-1,2-1.59,3a3.13,3.13,0,0,0,.65,3.48s.05,0,0,0Z" style="fill:#b70027"/><path d="M26.92,56.11c-.73-.32-.63-1-.27-1.61s.85-.78,1-1.31a.11.11,0,0,0-.16-.12A3.28,3.28,0,0,0,26,55c-.06.58.26,1.24.92,1.2,0,0,.06-.06,0-.08Z" style="fill:#b70027"/><path d="M28.26,47.51a.78.78,0,0,0-.3-.35,4.21,4.21,0,0,1-.74-1,3.09,3.09,0,0,1-.09-3.48,3.23,3.23,0,0,0-1-4.46.11.11,0,0,0-.15.15c.35.55.84.86,1.07,1.51A3.83,3.83,0,0,1,27,42a12.45,12.45,0,0,0-.75,1.93A2.73,2.73,0,0,0,26.64,46c.25.32.44.76.71,1.06s.57.3.79.52a.07.07,0,0,0,.12-.06Z" style="fill:#b70027"/><path d="M24.23,45.89a5.21,5.21,0,0,1,.27-2.68A3.66,3.66,0,0,0,25,41.55a3.56,3.56,0,0,0-1.88-2.67A.08.08,0,0,0,23,39a7.86,7.86,0,0,0,.85,1,2.45,2.45,0,0,1,.47,2.48c-.13.51-.43.92-.54,1.43a6.79,6.79,0,0,0,.26,2c0,.12.2.13.2,0Z" style="fill:#b70027"/><path d="M23.28,44.62a3.75,3.75,0,0,1,.15-2.2,2.34,2.34,0,0,0,.11-1.26,2.55,2.55,0,0,0-1.38-1.87.08.08,0,0,0-.1.13c.83.88,1.44,1.65,1.11,2.93a4.2,4.2,0,0,0-.11,2.33c0,.14.25.08.22-.06Z" style="fill:#b70027"/><path d="M22.56,44.67c-.31-1.08.33-2.28,0-3.4-.19-.69-.71-1.5-1.49-1.52A.12.12,0,0,0,21,40a3,3,0,0,1,1.22,2.93c0,.46-.19,1.45.23,1.8,0,0,.08,0,.07,0Z" style="fill:#b70027"/></g><path d="M16.87,58c0,.07-.09.08-.16.07a7.76,7.76,0,0,1-.82-.25A4.49,4.49,0,0,1,14,56.54a6.12,6.12,0,0,1-1.1-3.83,20,20,0,0,0-.63-4.33c0-.34,2.49-.34,2.95-.31.14,2,.27,4,.6,6a5.92,5.92,0,0,0,.45,1.66,2.22,2.22,0,0,0,1.23,1.16,1.84,1.84,0,0,1-1,1.17Z" style="fill:#222272"/><path d="M24.61,55.53a4.12,4.12,0,0,0,.51-3.89.79.79,0,0,1-.1-.42,19.53,19.53,0,0,1,1.46-2,.74.74,0,0,0,.12-.31c0-.28-.3-.45-.57-.49a1.94,1.94,0,0,1-.8-.17c-.38-.24-.37-.79-.35-1.24A3.83,3.83,0,0,0,24,44.08a2.93,2.93,0,0,0-3.1-.45A4.49,4.49,0,0,0,18.6,46a8.73,8.73,0,0,0-.46,1.2,18.44,18.44,0,0,0-.79,4.29,7,7,0,0,0,.11,2.09,3.22,3.22,0,0,0,1,1.78,3.57,3.57,0,0,0,1,.56,6.33,6.33,0,0,0,4.1.17,2.41,2.41,0,0,0,1.18-.67Z" style="fill:#ffd6a1"/><path d="M25,57.34a2.45,2.45,0,0,0,1-1.55,5.14,5.14,0,0,0,0-1.3,2.29,2.29,0,0,0-1-.06,35.27,35.27,0,0,1-6.08,0c.44-2.84-.16-5.73-.14-8.61a14.05,14.05,0,0,0-.31-4.53c-.43-1.63-1.34-1.7-2.5-1.68a4.92,4.92,0,0,0-3.14.93,3.06,3.06,0,0,0-.6,3.24,2.88,2.88,0,0,0,1.95,1.55.88.88,0,0,1,.54.3.86.86,0,0,1,.08.36l.36,6.28a9.61,9.61,0,0,0,.5,2.55,3.57,3.57,0,0,0,1.85,1.88,4.77,4.77,0,0,0,2.12,1l3.1.15A4.23,4.23,0,0,0,24,57.74Z" style="fill:#0c0a35"/><path d="M25.2,45.92a.32.32,0,0,0,0-.22.58.58,0,0,0-.76-.23l-.48.3a6.15,6.15,0,0,1-1.53.69,3.05,3.05,0,0,1,1.33.38,5.06,5.06,0,0,0,.73.38.65.65,0,0,0,.8-.15.29.29,0,0,0,0-.13.66.66,0,0,0-.36-.58S25.15,46.15,25.2,45.92Z" style="fill:#f70032"/><path d="M19.82,53.53a3,3,0,0,0,3.61,0,.1.1,0,0,0-.08-.17c-.56.05-1.08.31-1.64.38a3.81,3.81,0,0,1-1.83-.28.06.06,0,0,0-.06.1Z" style="fill:#0c0a35"/><path d="M22.85,51.91c.09.13.15.27.24.4s.15.25.28.22.05,0,.06-.06a.16.16,0,0,0-.06-.13,1,1,0,0,1-.12-.17c-.07-.13-.12-.26-.2-.38a.12.12,0,0,0-.2.12Z" style="fill:#0c0a35"/><path d="M21.64,51.83a2.23,2.23,0,0,0-.2.68c-.06.17-.13.47,0,.6a.08.08,0,0,0,.1,0,.84.84,0,0,0,.14-.56,3.35,3.35,0,0,0,0-.71s0,0-.05,0Z" style="fill:#0c0a35"/><path d="M22.1,51.86a.79.79,0,0,0,.06.56l.12.3c0,.08,0,.16.13.2a.06.06,0,0,0,.07,0c.13-.1.05-.32,0-.45a2.6,2.6,0,0,0-.25-.62.08.08,0,0,0-.14,0Z" style="fill:#0c0a35"/><path d="M20.48,51.67c-.34,0-.91.23-1,.62a.06.06,0,0,0,.07.07,1,1,0,0,0,.41-.24,4.39,4.39,0,0,1,.51-.37,0,0,0,0,0,0-.08Z" style="fill:#0c0a35"/><path d="M20.92,52a1.07,1.07,0,0,0-.54.81.08.08,0,0,0,.09.08c.34-.09.44-.55.51-.85,0,0,0-.06-.06,0Z" style="fill:#0c0a35"/><path d="M21.61,51.61a1.1,1.1,0,0,0,.08-.54c0-.15,0-.35-.11-.46a.08.08,0,0,0-.11,0c-.12.12-.07.31,0,.46s.09.36.13.54.05,0,.06,0Z" style="fill:#0c0a35"/><path d="M22.19,51.55c0-.15.1-.29.14-.43a.54.54,0,0,0,0-.41.08.08,0,0,0-.11,0c-.13.07-.14.23-.17.36a1.62,1.62,0,0,0,0,.49.08.08,0,0,0,.15,0Z" style="fill:#0c0a35"/><path d="M22.78,51.57A1.9,1.9,0,0,0,23,51.2c.06-.12.17-.23.18-.37a.06.06,0,0,0,0-.06c-.16,0-.23.15-.3.28a4.47,4.47,0,0,0-.19.46.06.06,0,0,0,.1.06Z" style="fill:#0c0a35"/><path d="M20.93,51.66c.28-.14,0-1-.28-.85s0,.4.07.51.1.39.21.34Z" style="fill:#0c0a35"/><path d="M20.45,51.71a1.37,1.37,0,0,0-.05-.4.52.52,0,0,0-.29-.31A.13.13,0,0,0,20,51c-.11.11,0,.26.11.34l.14.19.17.17a0,0,0,0,0,0,0Z" style="fill:#0c0a35"/><path d="M23.79,51.61a3.48,3.48,0,0,1-4.25.11,2.54,2.54,0,0,1,1-.36,7.49,7.49,0,0,1,1.06-.13,5.46,5.46,0,0,1,1.27.11A3.43,3.43,0,0,1,23.79,51.61Z" style="fill:#fff"/><path d="M21.64,51.31a.44.44,0,0,0-.44.43.44.44,0,1,0,.87,0,.43.43,0,0,0-.43-.43Z" style="fill:#0c0a35"/><g style="clip-path:url(#clip-path-2)"><path d="M24.68,58.07a1.62,1.62,0,0,0,.81-1.72,2.3,2.3,0,0,0-.36-.94c-.61-1-.25-1.62.14-2.58,0-.06-.07-.13-.12-.09a2.12,2.12,0,0,0-.77,2.14,2.15,2.15,0,0,0,.49.93A1.76,1.76,0,0,1,24.61,58a.06.06,0,0,0,.07.09Z" style="fill:#b70027"/><path d="M23.71,58.38a1.88,1.88,0,0,0,.54-1.65,4.73,4.73,0,0,0-.55-1.13c-.58-1,.07-1.79.3-2.7a.11.11,0,0,0-.19-.11A2.83,2.83,0,0,0,23.07,55a2.47,2.47,0,0,0,.44,1.12,2.18,2.18,0,0,1,.12,2.23s0,.11.08.06Z" style="fill:#b70027"/><path d="M22.52,58a2,2,0,0,0,.12-2c-.15-.41-.42-.77-.59-1.18-.29-.73.27-1.43.39-2.14a.11.11,0,0,0-.18-.1,2.35,2.35,0,0,0-.77,2c.1,1.27,1.49,1.94,1,3.37a0,0,0,0,0,.06,0Z" style="fill:#b70027"/><path d="M21.68,58.13a1.86,1.86,0,0,0-.45-1.8,2.85,2.85,0,0,1-.6-1.66c0-.72.39-1.25.51-1.91a.1.1,0,0,0-.14-.11c-.81.36-.88,1.55-.83,2.32.07,1.23,1.44,1.93,1.37,3.14,0,.08.11.09.14,0Z" style="fill:#b70027"/><path d="M20.68,58.35a2.78,2.78,0,0,0-1-2.3c-1.17-1.2.11-2.53.26-3.8a.1.1,0,0,0-.18-.07,4.39,4.39,0,0,0-1,2.89,1.76,1.76,0,0,0,.42,1.06,4.43,4.43,0,0,1,1.43,2.23s.06,0,.07,0Z" style="fill:#b70027"/><path d="M19.79,58c-.15-.56-.7-1-1-1.49a4.94,4.94,0,0,1-.66-3.74c.23-1,.78-1.85,1-2.84a4.22,4.22,0,0,0-.46-2.28,14.07,14.07,0,0,1-.88-2.95,6.41,6.41,0,0,1,.84-2.79,3.39,3.39,0,0,0-.8-3.59c-.06-.06-.18,0-.12.1,1.24,1.88.48,3.33-.13,5.24-.49,1.53.49,3.42,1.07,4.81.77,1.87-.94,3.8-1,5.72a5.14,5.14,0,0,0,.64,2.19c.36.75.93,1,1.36,1.67a.07.07,0,0,0,.12-.05Z" style="fill:#b70027"/><path d="M20.18,47.26a3.94,3.94,0,0,1-1.29-2.36,17.86,17.86,0,0,1,.27-2.29.1.1,0,0,0-.19,0A3.53,3.53,0,0,0,20,47.41c.1.08.25,0,.15-.15Z" style="fill:#b70027"/><path d="M17.9,57.73a4.87,4.87,0,0,1-1-2,6.38,6.38,0,0,1,.48-3.33c.48-1.43,1.25-2.64.5-4.17a13.56,13.56,0,0,1-1.09-2.31,5.09,5.09,0,0,1,.45-3.51A3.53,3.53,0,0,0,17,38.5c-.07-.07-.22,0-.18.11a4.38,4.38,0,0,1,.26,2.9A15.49,15.49,0,0,0,16.18,44a6.7,6.7,0,0,0,.22,2.36,22.34,22.34,0,0,0,1.1,2.38c.7,1.85-1,3.79-1.12,5.66-.09,1.27.2,2.84,1.44,3.45,0,0,.11,0,.08-.08Z" style="fill:#b70027"/><path d="M15.8,56.5a11.23,11.23,0,0,1-.05-2.78c.22-.95.6-1.84.9-2.76.6-1.88-.32-3.32-.95-5a4.32,4.32,0,0,1-.2-3,24.88,24.88,0,0,0,1-2.51c.33-1.47-.55-2.38-1.67-3.12-.12-.08-.24.07-.18.19.35.67,1,1,1.25,1.77.4,1.06-.37,2.23-.8,3.15a4.77,4.77,0,0,0,.19,4c.31.81.76,1.56,1,2.39a4.76,4.76,0,0,1-.38,3.1,19,19,0,0,0-.74,2.44,4.53,4.53,0,0,0,.44,2.19.08.08,0,0,0,.15,0Z" style="fill:#b70027"/><path d="M14.54,52.78a4.39,4.39,0,0,0,1-3.36c-.11-1-.45-2.3-1.5-2.66a.15.15,0,0,0-.17.22c1.12,1.64,1.79,3.88.52,5.67-.07.1.09.23.17.13Z" style="fill:#b70027"/><path d="M14.64,45.74a3.09,3.09,0,0,1-.39-3.15,10.22,10.22,0,0,0,1-2.37,2.35,2.35,0,0,0-2-2.44.13.13,0,0,0-.12.22c.56.53,1.28.85,1.54,1.64.32,1-.68,2.16-1,3a2.54,2.54,0,0,0,.89,3.18c.07,0,.15,0,.11-.11Z" style="fill:#b70027"/><path d="M13.41,45.38A3.59,3.59,0,0,1,13.22,42a4.16,4.16,0,0,0,.54-1.75,2.16,2.16,0,0,0-1.8-2c-.08,0-.11.1-.06.15a5.19,5.19,0,0,1,1.3,1.53c.34.83-.43,1.78-.68,2.55a3.25,3.25,0,0,0,.74,3,.09.09,0,1,0,.15-.09Z" style="fill:#b70027"/></g><path d="M25.72,59.75a8.05,8.05,0,0,1,.22.85.1.1,0,0,1-.13.11c-.16,0-1.3-1-1.77-1.29a.14.14,0,0,0-.21.06,12.07,12.07,0,0,0-.62,2.23.11.11,0,0,1-.19,0,13.21,13.21,0,0,1-1.27-2,.05.05,0,0,0-.1,0,20.91,20.91,0,0,1-1,2.15.14.14,0,0,1-.26,0c-.32-.72-.37-1.4-.63-2.15,0-.09-.08-.19-.17-.21s-.18.07-.23.16a14.18,14.18,0,0,1-1.28,2,.18.18,0,0,1-.29-.09c-.2-.82-.12-2.23-.37-2.4s-1.44,1.4-2,1.4c0,0,0,0,0,0a10.56,10.56,0,0,1,.46-2.65,15,15,0,0,1,.46-2.11,6.74,6.74,0,0,0,2.46,1.13,13.9,13.9,0,0,0,5.85.29.52.52,0,0,1,.33,0,.38.38,0,0,1,.14.19C25.27,57.8,25.41,58.61,25.72,59.75Z" style="fill:#191956"/><path d="M25.32,59.56a4.68,4.68,0,0,0-.4-.73c-.16-.25-.58,0-.4.24a4.63,4.63,0,0,1,.52.65c.1.19.36,0,.28-.16Z" style="fill:#f70032"/><path d="M23.14,60.34c0-.38.22-.9-.14-1.2a.33.33,0,0,0-.54.32c0,.15.13.28.17.44s.12.32.16.48.37.16.35,0Z" style="fill:#f70032"/><path d="M20.78,60.52a4.27,4.27,0,0,0,.27-1.05c0-.43-.65-.43-.66,0a5.27,5.27,0,0,0,.11,1.05c0,.15.24.13.28,0Z" style="fill:#f70032"/><path d="M18.46,60.11a4.18,4.18,0,0,0,.44-.87c.07-.32-.41-.55-.55-.23a6.35,6.35,0,0,0-.22,1c-.06.19.24.32.33.14Z" style="fill:#f70032"/><path d="M16.25,59.35c.27-.34,1.08-.58.78-1.16a.32.32,0,0,0-.5-.07.69.69,0,0,0-.14.25,2.61,2.61,0,0,1-.17.28,3.81,3.81,0,0,0-.29.52c-.06.17.2.33.32.18Z" style="fill:#f70032"/><path d="M25,58a.15.15,0,0,0,0,.29A.15.15,0,0,0,25,58Z" style="fill:#0c0a35"/><path d="M24.41,58.16a.19.19,0,0,0,0,.37.19.19,0,0,0,0-.37Z" style="fill:#0c0a35"/><path d="M23.86,58.3a.2.2,0,0,0,0,.39.2.2,0,0,0,0-.39Z" style="fill:#0c0a35"/><path d="M23.17,58.42a.19.19,0,0,0,0,.38.19.19,0,0,0,0-.38Z" style="fill:#0c0a35"/><path d="M22.43,58.48a.2.2,0,1,0,0,.39.2.2,0,0,0,0-.39Z" style="fill:#0c0a35"/><path d="M21.72,58.5a.21.21,0,1,0,0,.42.21.21,0,0,0,0-.42Z" style="fill:#0c0a35"/><path d="M20.94,58.47a.2.2,0,0,0,0,.4.2.2,0,0,0,0-.4Z" style="fill:#0c0a35"/><path d="M20.17,58.36a.23.23,0,0,0,0,.46.23.23,0,0,0,0-.46Z" style="fill:#0c0a35"/><path d="M19.4,58.22a.24.24,0,0,0,0,.48.24.24,0,0,0,0-.48Z" style="fill:#0c0a35"/><path d="M18.62,58a.21.21,0,0,0,0,.41.21.21,0,0,0,0-.41Z" style="fill:#0c0a35"/><path d="M18,57.76a.24.24,0,0,0,0,.48.24.24,0,0,0,0-.48Z" style="fill:#0c0a35"/><path d="M17.38,57.52a.23.23,0,0,0,0,.45.23.23,0,0,0,0-.45Z" style="fill:#0c0a35"/><path d="M16.73,57.39h0a.15.15,0,0,0,0,.28h0a.14.14,0,1,0,0-.28Z" style="fill:#0c0a35"/><path d="M16.21,57.25s0,0,0,0,0,0,0,0Z" style="fill:#0c0a35"/><path d="M16.25,57.11a.21.21,0,0,0,0,.41.21.21,0,0,0,0-.41Z" style="fill:#0c0a35"/><path d="M15.82,56.51a3.57,3.57,0,0,1-.27-.28c-.07-.06-.19-.15-.28-.07s0,.21.08.27l.28.26c.13.11.31-.06.19-.18Z" style="fill:#191956"/><path d="M15.2,56.8a1.51,1.51,0,0,1-.21-.23.52.52,0,0,0-.27-.22.12.12,0,0,0-.16.11c0,.25.3.44.49.54s.27-.1.15-.2Z" style="fill:#191956"/><path d="M15.77,55.66a1.41,1.41,0,0,0-.19-.34.17.17,0,0,0-.29.16c0,.11.11.21.16.32s.4.05.32-.14Z" style="fill:#191956"/><path d="M14.75,55.67a.68.68,0,0,0-.31-.44c-.1,0-.23,0-.19.14a2.75,2.75,0,0,0,.24.41c.08.14.32,0,.26-.11Z" style="fill:#191956"/><path d="M15,54.73a2.21,2.21,0,0,0-.14-.41.23.23,0,0,0-.14-.15c.07,0,0,0,0,0h-.07c-.14,0-.14.23-.1.33s.14.25.2.39.33,0,.29-.13Z" style="fill:#191956"/><path d="M15,53.35a.9.9,0,0,0-.33-.51.14.14,0,0,0-.2.15c0,.18.22.29.31.45a.12.12,0,0,0,.22-.09Z" style="fill:#191956"/><path d="M14,54.43c0-.15,0-.32-.16-.42a.2.2,0,0,0-.21,0,.18.18,0,0,0-.08.19c0,.11.1.22.14.33a.16.16,0,0,0,.31-.08Z" style="fill:#191956"/><path d="M13.88,53.2c0-.16,0-.37-.06-.51a.13.13,0,0,0-.24,0,.41.41,0,0,0,0,.27,1.67,1.67,0,0,0,0,.31c0,.19.31.11.28-.07Z" style="fill:#191956"/><path d="M13.87,55.38c0-.15,0-.29-.12-.4a.14.14,0,0,0-.24.13,1.11,1.11,0,0,0,.18.34.1.1,0,0,0,.18-.07Z" style="fill:#191956"/><path d="M14.31,52.22l0-.37c0-.08,0-.2-.15-.2s-.14.12-.15.2a1.37,1.37,0,0,0,.09.4.12.12,0,0,0,.24,0Z" style="fill:#191956"/><path d="M14.81,51.53c0-.19.08-.49-.09-.63a.17.17,0,0,0-.28.07c-.07.19.1.38.12.56s.22.12.25,0Z" style="fill:#191956"/><path d="M13.5,51.91c0-.15,0-.38-.19-.44s-.07,0-.09,0,0,.34,0,.51.32.1.28-.08Z" style="fill:#191956"/><path d="M13.82,50.65c-.05-.12,0-.28-.19-.33a.09.09,0,0,0-.09,0c0,.12,0,.29.07.4s.28,0,.21-.12Z" style="fill:#191956"/><path d="M14.5,50a1.09,1.09,0,0,0-.08-.43.12.12,0,0,0-.22,0c0,.13,0,.27,0,.4a.14.14,0,0,0,.27,0Z" style="fill:#191956"/><path d="M13.18,50.05a1.55,1.55,0,0,0,0-.21c0-.07,0-.15,0-.22a.13.13,0,0,0-.08-.08h0a.13.13,0,0,0-.11.09,1.06,1.06,0,0,0,.07.46c0,.14.26.1.24,0Z" style="fill:#191956"/><path d="M13.7,49.29a1.67,1.67,0,0,0-.06-.38.14.14,0,0,0-.25,0,1.19,1.19,0,0,0,0,.42c0,.18.31.11.28-.08Z" style="fill:#191956"/><path d="M14.55,48.81a.64.64,0,0,0-.14-.36.15.15,0,0,0-.14,0c-.2.07,0,.34,0,.48s.34.12.3-.08Z" style="fill:#191956"/><path d="M13.08,48.74a.34.34,0,0,0-.13-.25.12.12,0,0,0-.17.1c0,.06,0,.12,0,.19a.13.13,0,1,0,.26,0Z" style="fill:#191956"/><path d="M20.57,47.92a.89.89,0,1,0,.89.89.9.9,0,0,0-.89-.89Z" style="fill:#f70032"/><path d="M23.14,40.36a.24.24,0,0,0,0,.47.24.24,0,0,0,0-.47Z" style="fill:#f70032"/><path d="M22.6,39.91a.2.2,0,0,0,0,.39.2.2,0,0,0,0-.39Z" style="fill:#f70032"/><path d="M22,39.68a.22.22,0,0,0,0,.43.22.22,0,0,0,0-.43Z" style="fill:#f70032"/><path d="M21.29,39.55a.21.21,0,0,0,0,.42.21.21,0,0,0,0-.42Z" style="fill:#f70032"/><path d="M20.61,39.51a.23.23,0,0,0,0,.45.23.23,0,0,0,0-.45Z" style="fill:#f70032"/><path d="M19.94,39.53a.23.23,0,0,0,0,.46.23.23,0,0,0,0-.46Z" style="fill:#f70032"/><path d="M19.24,39.67a.2.2,0,0,0,0,.4.2.2,0,0,0,0-.4Z" style="fill:#f70032"/><path d="M18.55,39.88a.23.23,0,1,0,0,.46.23.23,0,0,0,0-.46Z" style="fill:#f70032"/><path d="M20.65,38.39a.49.49,0,1,0,.49.48.49.49,0,0,0-.49-.48Z" style="fill:#f70032"/><path d="M29.81,31.82a8,8,0,0,0,0,2.13c.22,0,.73,2.75.84,2.84,1,.76,1.06-.95.9,0-.06.31-.63.64-.43.93a1.75,1.75,0,0,0,1.29-.19,1.73,1.73,0,0,0,.87-1.11A1.12,1.12,0,0,0,33,35.21c-.11-.11-.25-.21-.35-.32a1.43,1.43,0,0,1-.31-.88,14.06,14.06,0,0,0-.52-2.08.27.27,0,0,0-.17-.21,1.16,1.16,0,0,0-.28,0,10.37,10.37,0,0,0-1.12-.06.89.89,0,0,0-.29,0A.19.19,0,0,0,29.81,31.82Z" style="fill:#222272"/><path d="M31.73,48.67c0,.83,0,1.26,0,1.76,0,.18-.19.38-.28.28s-.35-3.46-.85-3.37a25.07,25.07,0,0,0-.05,3c0,.23-.13.48-.25.46s-.3-2.87-.58-3.24c-.14-.19-.29,1.84-.47,2.73-.05.23-.2.59-.33.41a9.3,9.3,0,0,1-.19-2.64c0-1-.09-1.24.19-1.68s.42-.16.8-.45c.1-.08.13-.47.13-.6.06-1,0-1.77.08-2.76,0-.78-.38-6.66-.43-7.34a.87.87,0,0,1,.06-.48c.08-.14.25-.4.37,1.48a88.8,88.8,0,0,1,.24,9.44.39.39,0,0,0,.32.37c.24.06.47-.15.93.51A6.14,6.14,0,0,1,31.73,48.67Z" style="fill:#f70032"/><path d="M32.19,39.8a1.09,1.09,0,0,1-.77.48,12.53,12.53,0,0,1-1.68-.16.36.36,0,0,1-.27-.17c0-.06-.14-.35.3-.48a1.51,1.51,0,0,1,.42,0c.35,0,1.18.13,1.21,0s-1.5-.26-2-.57a.36.36,0,0,1-.15-.15c-.09-.18,0-.34.23-.4.46-.14,1.1.24,1.78.26.06,0,.07-.07,0-.1-.63-.27-1.53-.52-1.86-1-.11-.17.08-.37.29-.39s1.22.53,1.42.49.07-.14-.19-.27a4.87,4.87,0,0,1-.87-.58.39.39,0,0,1-.1-.4c.07-.2.36-.08.53-.07a3.67,3.67,0,0,1,.87.41c.19.11.12-.3.1-.52s0-.7.19-.76a1.19,1.19,0,0,1,1,.3.72.72,0,0,1,.26.23,2.14,2.14,0,0,1,.23.54A4.75,4.75,0,0,1,32.19,39.8Z" style="fill:#ffd6a1"/><path d="M30.2,39.9c-.06-.15-.16-.19-.3-.25a.78.78,0,0,0-.21,0h-.12l-.05,0a.19.19,0,0,0-.13.23c0-.09,0,.08,0,.09l.06.08a.51.51,0,0,0,.22.11.57.57,0,0,0,.41,0,.18.18,0,0,0,.09-.21Z" style="fill:#990028"/><path d="M29.81,38.56a.57.57,0,0,0-.49-.19.28.28,0,0,0-.12.47.61.61,0,0,0,.44.14.24.24,0,0,0,.17-.42Z" style="fill:#990028"/><path d="M30,37.52v0s0-.16,0-.09a.86.86,0,0,0-.15-.22.36.36,0,0,0-.33-.11.25.25,0,0,0-.19.18.32.32,0,0,0,.09.29l.06.05h0l.12.08c.16.08.4.06.42-.15Z" style="fill:#990028"/><path d="M30.51,36.57a.58.58,0,0,0-.1-.19.43.43,0,0,0-.26-.2c-.17,0-.36.11-.3.3s.31.4.52.32a.19.19,0,0,0,.14-.23Z" style="fill:#990028"/><path d="M32.2,39.84a.39.39,0,0,0,0-.21.11.11,0,0,0-.21,0,1.21,1.21,0,0,0-.05.18c-.05.14.17.2.22.06Z" style="fill:#0c0a35"/><path d="M32.29,39.07a.36.36,0,0,0,.05-.3c-.06-.15-.3-.14-.29,0a1.27,1.27,0,0,1,0,.2c0,.12.17.16.23.06Z" style="fill:#0c0a35"/><path d="M32.39,38.19a.32.32,0,0,0,0-.3.11.11,0,0,0-.19,0,1.7,1.7,0,0,0,0,.22.12.12,0,0,0,.23,0Z" style="fill:#0c0a35"/><path d="M32.36,37.16a.37.37,0,0,0-.16-.24.13.13,0,0,0-.19.14,1.24,1.24,0,0,0,.1.2c.07.14.3,0,.25-.1Z" style="fill:#0c0a35"/><path d="M31.31,41.69a1,1,0,0,0-.83-.44.74.74,0,0,0-.26,0s-.06,0-.07,0,0,.12,0,.18a1.16,1.16,0,0,0,.51.66,1.83,1.83,0,0,0,1,.3v0A5.87,5.87,0,0,0,31.31,41.69Z" style="fill:#f70032"/><path d="M30,40.53a.09.09,0,0,1,0,.07.85.85,0,0,1-.65.64,6.14,6.14,0,0,1-1,.12,2.26,2.26,0,0,1,.26-.42,1.8,1.8,0,0,1,.19-.2A1.16,1.16,0,0,1,30,40.5.07.07,0,0,1,30,40.53Z" style="fill:#f70032"/><path d="M29,28.5a3.85,3.85,0,0,0-.55,2.37,5.44,5.44,0,0,0,.22,1.34,5.39,5.39,0,0,0,1,1.61c.14.17.05.5.22.64.7.56,1.63-.1,2.53-.05a1.48,1.48,0,0,1,.42-.71c.53-.59,1-.57,1.52-1.47.79-1.29.24-2.78-.66-4-.57-.74-1.76-.71-2.59-.69A2.56,2.56,0,0,0,29,28.5Z" style="fill:#222272"/><path d="M30,32.56a8.63,8.63,0,0,1-.15-2.27c0-.65.6-1.08.56-1.69a.38.38,0,0,0-.71-.19,3.6,3.6,0,0,0-.62,1.88,6.49,6.49,0,0,0,.56,2.42c.1.22.4.06.36-.15Z" style="fill:#990028"/><path d="M31.41,32.77a4.65,4.65,0,0,0,.48-2c0-.69-.18-1.36-.12-2.05.06-.54-.8-.54-.84,0a15.31,15.31,0,0,0,.17,1.78c0,.73,0,1.46-.05,2.2a.19.19,0,0,0,.36.09Z" style="fill:#990028"/><path d="M32.75,32.9a3.91,3.91,0,0,0,.7-2.27c0-.63-.11-1.64-.71-2a.22.22,0,0,0-.33.13c-.21.56.27,1.24.29,1.84a7.23,7.23,0,0,1-.29,2.12.19.19,0,0,0,.34.15Z" style="fill:#990028"/><path d="M29.94,33.72h0a.15.15,0,0,0,.11.11h0a.17.17,0,0,0,.17-.28.17.17,0,0,0-.28.16Z" style="fill:#f70032"/><path d="M30.6,33.5a.18.18,0,0,0,0,.36.18.18,0,0,0,0-.36Z" style="fill:#f70032"/><path d="M31.17,33.52a.16.16,0,0,0,0,.32.16.16,0,0,0,0-.32Z" style="fill:#f70032"/><path d="M31.7,33.51a.19.19,0,1,0,0,.37.19.19,0,0,0,0-.37Z" style="fill:#f70032"/><path d="M32.26,33.55a.18.18,0,0,0,0,.35.18.18,0,0,0,0-.35Z" style="fill:#f70032"/><path d="M26.64,36.74a.19.19,0,0,0,0,.38.19.19,0,0,0,0-.38Z" style="fill:#f70032"/><path d="M27.68,34.57v0c-.06-.15-.3-.09-.34.05v0a.19.19,0,0,0,.19.24.19.19,0,0,0,.16-.29Z" style="fill:#f70032"/><path d="M28.34,35.62a.16.16,0,1,0,0,.31.16.16,0,0,0,0-.31Z" style="fill:#f70032"/><path d="M29.47,33.51a.2.2,0,0,0,0,.39.2.2,0,0,0,0-.39Z" style="fill:#f70032"/><path d="M28.05,33h0a.16.16,0,0,0-.24.13v0a.17.17,0,0,0,.25.14.17.17,0,0,0,0-.29Z" style="fill:#f70032"/><path d="M26.11,35.07v0a.19.19,0,0,0-.37,0v0a.19.19,0,0,0,.19.25.2.2,0,0,0,.19-.25Z" style="fill:#f70032"/><path d="M24.56,36.43a.23.23,0,0,0,0,.46.23.23,0,0,0,0-.46Z" style="fill:#f70032"/><path d="M23.26,34.61a.19.19,0,0,0,0,.38.19.19,0,0,0,0-.38Z" style="fill:#f70032"/><path d="M22,36.51a.19.19,0,0,0,0,.37.19.19,0,0,0,0-.37Z" style="fill:#f70032"/><path d="M24.44,33.53a.24.24,0,0,0,.07-.23.15.15,0,0,0-.15-.11.16.16,0,0,0-.16.15v0a.19.19,0,0,1,0-.08h0c-.15.14.09.38.23.23Z" style="fill:#f70032"/><path d="M25.43,31.55a.18.18,0,0,0,0,.36.18.18,0,0,0,0-.36Z" style="fill:#f70032"/><path d="M22,35a.23.23,0,0,0,0,.46A.23.23,0,0,0,22,35Z" style="fill:#f70032"/><path d="M23.39,36.11h0a.17.17,0,0,0-.26.15v0a.19.19,0,1,0,.28-.16Z" style="fill:#f70032"/><path d="M20.5,35.12a.18.18,0,0,0,0,.36.18.18,0,0,0,0-.36Z" style="fill:#f70032"/><path d="M20.35,36.33a.23.23,0,0,0,0,.45.23.23,0,0,0,0-.45Z" style="fill:#f70032"/><path d="M27.26,36a.19.19,0,0,0,0-.12c0-.19-.3-.25-.34,0h0l.05-.07h0c-.19.15.12.44.28.22Z" style="fill:#f70032"/><path d="M27.9,29.64a.16.16,0,0,0,0,.31.16.16,0,1,0,0-.31Z" style="fill:#f70032"/><path d="M27.19,31.83a.22.22,0,0,0,0,.43.22.22,0,0,0,0-.43Z" style="fill:#f70032"/><path d="M25.05,34a.23.23,0,0,0,0,.45.23.23,0,1,0,0-.45Z" style="fill:#f70032"/><path d="M26.5,33.4v0a.2.2,0,1,0-.36-.18.2.2,0,0,0,.08.27.21.21,0,0,0,.27-.07Z" style="fill:#f70032"/><path d="M26.49,30.5h0a.21.21,0,0,0-.1.39l0,0a.22.22,0,0,0,.32-.13.22.22,0,0,0-.21-.27Z" style="fill:#f70032"/><path d="M28,31.08v0a.16.16,0,0,0-.11-.16.17.17,0,0,0-.21.12v0c-.05.26.36.27.33,0Z" style="fill:#f70032"/><path d="M32.86,26.09v0c0-.22-.33-.21-.34,0v0c0,.22.34.22.34,0Z" style="fill:#f70032"/><path d="M31.4,26.62a.24.24,0,0,0,0,.48.24.24,0,0,0,0-.48Z" style="fill:#f70032"/><path d="M32.47,27c-.07,0-.12.05-.11.11v0a.11.11,0,0,0,.17,0,.1.1,0,0,0-.05-.16Z" style="fill:#f70032"/><path d="M15.42,6.15c-1.13,1.16-1.18,7.26-1.18,7.42,0,.73.62,4.67.32,5.37s-.79.82-1.12,1.34A1.83,1.83,0,0,0,13.27,22a2.1,2.1,0,0,0,1.16,1,4.31,4.31,0,0,0,3.67-.33,6,6,0,0,0,.69-.56,1.69,1.69,0,0,0,.39-.59A3.59,3.59,0,0,0,19.37,20a23.55,23.55,0,0,0-.93-4.83A5,5,0,0,0,18,13.9C17.39,12.94,18.88,5.53,15.42,6.15Z" style="fill:#0c0a35"/><path d="M16.06,9.49c-1.2.85-2.28,3.58-.5,4.46.08,0,.19,0,.14-.14a2.93,2.93,0,0,1-.59-2.23,4.3,4.3,0,0,1,1-2c.05-.05,0-.14-.07-.09Z" style="fill:#b70027"/><path d="M15.6,13.88a3.25,3.25,0,0,0,.46.86,2,2,0,0,0,.71.74.1.1,0,0,0,.14-.11,1.87,1.87,0,0,0-.53-.75c-.22-.26-.46-.53-.67-.8a.07.07,0,0,0-.11.06Z" style="fill:#b70027"/><path d="M16.5,10.07a1.57,1.57,0,0,0-.11,2.83c.09,0,.19,0,.13-.13a4.07,4.07,0,0,1-.6-1,1.47,1.47,0,0,1,.64-1.49c.09,0,0-.19-.06-.16Z" style="fill:#b70027"/><g style="clip-path:url(#clip-path-3)"><path d="M14.92,5.6a3.91,3.91,0,0,1,.52,2.83c-.17.93-1.12,1.45-1.47,2.3a4.7,4.7,0,0,0,.87,4.72,5.4,5.4,0,0,1,.81,3.08c0,.9-.36,1.78-.36,2.69A3,3,0,0,0,16,23c.26.36.56.65.8,1a10.55,10.55,0,0,1,.51,1.36.11.11,0,0,0,.2-.08,7.51,7.51,0,0,0-.76-2c-.23-.35-.53-.64-.75-1a3.13,3.13,0,0,1-.22-2.17,6.57,6.57,0,0,0-.6-4.84A6.11,6.11,0,0,1,14,12.06c0-1.23,1-2,1.59-3A3.14,3.14,0,0,0,15,5.57a0,0,0,1,0,0,0Z" style="fill:#b70027"/><path d="M14.27,6.38c.73.32.63,1,.27,1.61s-.85.78-1,1.3a.11.11,0,0,0,.16.13A3.27,3.27,0,0,0,15.21,7.5c.06-.58-.26-1.24-.92-1.2,0,0-.06.06,0,.08Z" style="fill:#b70027"/><path d="M12.94,15a.64.64,0,0,0,.29.34,4.49,4.49,0,0,1,.74,1,3.07,3.07,0,0,1,.1,3.48,3.22,3.22,0,0,0,1,4.46c.09,0,.21-.06.15-.15-.35-.55-.83-.86-1.07-1.51a3.93,3.93,0,0,1,0-2.07,14.07,14.07,0,0,0,.76-1.93,2.78,2.78,0,0,0-.39-2.09c-.25-.32-.44-.76-.71-1.06s-.57-.3-.79-.52a.06.06,0,0,0-.11.06Z" style="fill:#b70027"/><path d="M17,16.6a5.1,5.1,0,0,1-.27,2.68,3.62,3.62,0,0,0-.48,1.66,3.57,3.57,0,0,0,1.88,2.67.09.09,0,0,0,.12-.12,8.87,8.87,0,0,0-.86-1A2.45,2.45,0,0,1,16.88,20c.13-.51.44-.92.54-1.44a6.76,6.76,0,0,0-.26-2c0-.12-.2-.13-.2,0Z" style="fill:#b70027"/><path d="M17.92,17.87a3.72,3.72,0,0,1-.16,2.19,2.36,2.36,0,0,0-.11,1.26A2.59,2.59,0,0,0,19,23.2a.08.08,0,0,0,.1-.13c-.83-.88-1.43-1.65-1.11-2.93a4.21,4.21,0,0,0,.12-2.33.11.11,0,0,0-.22.06Z" style="fill:#b70027"/><path d="M18.63,17.82c.31,1.08-.33,2.27,0,3.39.18.69.7,1.51,1.48,1.53a.12.12,0,0,0,.06-.22,3,3,0,0,1-1.22-2.93c0-.47.19-1.45-.23-1.81,0,0-.08,0-.07,0Z" style="fill:#b70027"/></g><path d="M24.32,4.53c0-.07.09-.09.16-.07a6,6,0,0,1,.82.25A4.39,4.39,0,0,1,27.15,6a6.11,6.11,0,0,1,1.1,3.82,19.39,19.39,0,0,0,.64,4.33c0,.35-2.5.35-3,.31-.14-2-.27-4-.6-6a5.92,5.92,0,0,0-.45-1.66,2.22,2.22,0,0,0-1.23-1.16,1.86,1.86,0,0,1,1-1.18Z" style="fill:#222272"/><path d="M16.58,7a4.1,4.1,0,0,0-.51,3.88.83.83,0,0,1,.1.43,20.67,20.67,0,0,1-1.46,2,.61.61,0,0,0-.11.31c0,.27.29.45.56.49a1.91,1.91,0,0,1,.8.17c.38.24.37.78.36,1.23a3.76,3.76,0,0,0,.92,2.91,2.91,2.91,0,0,0,3.1.46,4.58,4.58,0,0,0,2.26-2.33,10.18,10.18,0,0,0,.45-1.2A18.53,18.53,0,0,0,23.84,11,7,7,0,0,0,23.73,9a3.28,3.28,0,0,0-1-1.79,3.94,3.94,0,0,0-1-.56,6.47,6.47,0,0,0-4.1-.17,2.39,2.39,0,0,0-1.19.67Z" style="fill:#ffd6a1"/><path d="M16.2,5.14a2.48,2.48,0,0,0-1,1.55,5.22,5.22,0,0,0,0,1.31,2.29,2.29,0,0,0,1,.06,35.27,35.27,0,0,1,6.08,0c-.44,2.84.16,5.73.14,8.61a14.26,14.26,0,0,0,.31,4.52c.43,1.63,1.34,1.71,2.51,1.69A4.91,4.91,0,0,0,28.35,22a3.08,3.08,0,0,0,.6-3.25A2.86,2.86,0,0,0,27,17.18a.88.88,0,0,1-.54-.3.91.91,0,0,1-.08-.37L26,10.23a9.69,9.69,0,0,0-.5-2.55A3.57,3.57,0,0,0,23.67,5.8a4.81,4.81,0,0,0-2.12-1l-3.1-.15a4.57,4.57,0,0,0-1.28.06Z" style="fill:#0c0a35"/><path d="M16,16.57a.34.34,0,0,0,0,.22.58.58,0,0,0,.76.23l.48-.3A6.15,6.15,0,0,1,18.79,16a3.09,3.09,0,0,1-1.33-.39c-.25-.14-.45-.26-.72-.38a.67.67,0,0,0-.8.15.25.25,0,0,0-.06.14c0,.4.27.48.36.58S16,16.33,16,16.57Z" style="fill:#f70032"/><path d="M21.37,9a3,3,0,0,0-3.6,0,.1.1,0,0,0,.07.18c.56-.05,1.08-.31,1.64-.38a3.59,3.59,0,0,1,1.83.28.06.06,0,0,0,.06-.1Z" style="fill:#0c0a35"/><path d="M18.34,10.58c-.09-.13-.15-.27-.23-.4S18,9.93,17.82,10a.08.08,0,0,0-.05.07.13.13,0,0,0,.05.13,1,1,0,0,1,.12.17c.07.12.12.26.2.38s.29,0,.2-.12Z" style="fill:#0c0a35"/><path d="M19.56,10.65a2.46,2.46,0,0,0,.19-.67c.06-.17.13-.47,0-.6a.08.08,0,0,0-.11,0,.84.84,0,0,0-.14.56,4.22,4.22,0,0,0,0,.71s0,0,.06,0Z" style="fill:#0c0a35"/><path d="M19.09,10.63a.78.78,0,0,0-.06-.56l-.12-.3c0-.09,0-.16-.13-.2a0,0,0,0,0-.07,0c-.13.1-.05.31,0,.45a2.4,2.4,0,0,0,.26.62.07.07,0,0,0,.13,0Z" style="fill:#0c0a35"/><path d="M20.71,10.82c.35,0,.91-.23,1-.62,0,0,0-.08-.07-.07a.91.91,0,0,0-.41.24,5.88,5.88,0,0,1-.51.36,0,0,0,0,0,0,.09Z" style="fill:#0c0a35"/><path d="M20.27,10.54a1.07,1.07,0,0,0,.54-.81.08.08,0,0,0-.09-.08c-.34.09-.44.55-.5.84,0,0,0,.07.05,0Z" style="fill:#0c0a35"/><path d="M19.58,10.87a1.29,1.29,0,0,0-.08.55c0,.14,0,.35.11.46a.09.09,0,0,0,.11,0c.12-.13.07-.31.05-.46s-.09-.37-.13-.55c0,0-.05,0-.06,0Z" style="fill:#0c0a35"/><path d="M19,10.94c-.05.14-.1.29-.14.43a.49.49,0,0,0,0,.41.08.08,0,0,0,.1,0c.13-.08.14-.23.17-.37a1.54,1.54,0,0,0,0-.48.08.08,0,0,0-.15,0Z" style="fill:#0c0a35"/><path d="M18.41,10.92a1.64,1.64,0,0,0-.26.37c-.06.12-.17.23-.18.37a.06.06,0,0,0,.05.06c.16,0,.23-.16.3-.28a4.47,4.47,0,0,0,.19-.46.06.06,0,0,0-.1-.06Z" style="fill:#0c0a35"/><path d="M20.27,10.83c-.29.14,0,1,.27.85s0-.4-.06-.52-.11-.39-.21-.33Z" style="fill:#0c0a35"/><path d="M20.74,10.77a1,1,0,0,0,.06.4.47.47,0,0,0,.28.32.14.14,0,0,0,.12,0c.11-.1,0-.25-.11-.33L21,10.93l-.17-.18s-.05,0,0,0Z" style="fill:#0c0a35"/><path d="M17.4,10.87a3.5,3.5,0,0,1,4.25-.1,2.54,2.54,0,0,1-1,.36,7.49,7.49,0,0,1-1.06.13,5.46,5.46,0,0,1-1.27-.11A3.12,3.12,0,0,1,17.4,10.87Z" style="fill:#fff"/><path d="M19.56,11.18a.44.44,0,1,0-.44-.43.44.44,0,0,0,.44.43Z" style="fill:#0c0a35"/><g style="clip-path:url(#clip-path-4)"><path d="M16.51,4.41a1.61,1.61,0,0,0-.8,1.73,2.19,2.19,0,0,0,.35.93c.61,1,.25,1.63-.14,2.58,0,.07.07.14.12.1a2.12,2.12,0,0,0,.77-2.14,2.09,2.09,0,0,0-.49-.93,1.76,1.76,0,0,1,.26-2.17.06.06,0,0,0-.07-.1Z" style="fill:#b70027"/><path d="M17.48,4.1a1.91,1.91,0,0,0-.54,1.66,4.92,4.92,0,0,0,.55,1.13c.59,1-.07,1.79-.3,2.7a.11.11,0,0,0,.19.11,2.85,2.85,0,0,0,.74-2.18,2.42,2.42,0,0,0-.44-1.12,2.2,2.2,0,0,1-.12-2.24.05.05,0,0,0-.08-.06Z" style="fill:#b70027"/><path d="M18.67,4.47a2,2,0,0,0-.11,2c.14.41.42.77.58,1.17.29.74-.27,1.44-.38,2.15a.1.1,0,0,0,.17.1,2.35,2.35,0,0,0,.77-2c-.09-1.28-1.49-1.94-1-3.37a0,0,0,0,0-.06,0Z" style="fill:#b70027"/><path d="M19.52,4.36A1.83,1.83,0,0,0,20,6.16a2.79,2.79,0,0,1,.6,1.66c0,.72-.39,1.25-.51,1.91a.11.11,0,0,0,.15.11c.8-.36.87-1.55.82-2.32C21,6.28,19.58,5.59,19.65,4.38c0-.08-.11-.09-.13,0Z" style="fill:#b70027"/><path d="M20.52,4.14a2.75,2.75,0,0,0,1,2.3c1.17,1.2-.1,2.53-.26,3.8a.1.1,0,0,0,.18.07,4.43,4.43,0,0,0,1-2.89A1.79,1.79,0,0,0,22,6.36a4.38,4.38,0,0,1-1.44-2.23s-.06,0-.06,0Z" style="fill:#b70027"/><path d="M21.4,4.48c.15.56.7,1,1,1.49a4.94,4.94,0,0,1,.66,3.74c-.23,1-.78,1.84-1,2.84a4.24,4.24,0,0,0,.46,2.28,14.07,14.07,0,0,1,.88,3,6.41,6.41,0,0,1-.84,2.79,3.36,3.36,0,0,0,.8,3.58c.06.07.18,0,.12-.09-1.24-1.88-.47-3.33.13-5.24.49-1.53-.49-3.42-1.07-4.81-.77-1.87.95-3.8,1-5.72a5.14,5.14,0,0,0-.64-2.19c-.36-.76-.93-1-1.36-1.67a.07.07,0,0,0-.12.05Z" style="fill:#b70027"/><path d="M21,15.23a3.87,3.87,0,0,1,1.29,2.35,17.81,17.81,0,0,1-.27,2.3.1.1,0,0,0,.19.05,3.52,3.52,0,0,0-1.06-4.85c-.1-.09-.25.05-.15.15Z" style="fill:#b70027"/><path d="M23.3,4.76a4.88,4.88,0,0,1,1,2,6.4,6.4,0,0,1-.48,3.34c-.48,1.43-1.25,2.63-.5,4.16a13.26,13.26,0,0,1,1.09,2.32A5.1,5.1,0,0,1,24,20.12,3.51,3.51,0,0,0,24.23,24c.07.08.22,0,.18-.1a4.32,4.32,0,0,1-.25-2.9A16.52,16.52,0,0,0,25,18.53a6.78,6.78,0,0,0-.22-2.37,22.18,22.18,0,0,0-1.1-2.37c-.7-1.86,1-3.79,1.12-5.66.09-1.27-.2-2.85-1.44-3.45,0,0-.11,0-.07.08Z" style="fill:#b70027"/><path d="M25.39,6a11.15,11.15,0,0,1,.05,2.77c-.21,1-.6,1.84-.9,2.77-.6,1.88.32,3.32.95,5a4.26,4.26,0,0,1,.2,3,24.88,24.88,0,0,0-1,2.51c-.32,1.47.56,2.38,1.67,3.12.12.08.24-.08.18-.19-.35-.67-1-1-1.25-1.78-.39-1.05.37-2.22.8-3.14a4.81,4.81,0,0,0-.18-4c-.32-.81-.77-1.56-1-2.39a4.76,4.76,0,0,1,.38-3.1A18.7,18.7,0,0,0,26,8.15,4.49,4.49,0,0,0,25.54,6a.08.08,0,0,0-.15,0Z" style="fill:#b70027"/><path d="M26.65,9.7a4.42,4.42,0,0,0-1,3.37c.11,1,.45,2.3,1.5,2.66a.16.16,0,0,0,.18-.23c-1.13-1.63-1.8-3.87-.53-5.67.07-.09-.09-.22-.17-.13Z" style="fill:#b70027"/><path d="M26.55,16.75a3.05,3.05,0,0,1,.39,3.14,10.48,10.48,0,0,0-1,2.38,2.36,2.36,0,0,0,2,2.44c.12,0,.22-.13.13-.22-.57-.53-1.29-.85-1.55-1.64-.32-1,.68-2.17,1-3a2.52,2.52,0,0,0-.89-3.17.08.08,0,0,0-.11.11Z" style="fill:#b70027"/><path d="M27.78,17.11a3.6,3.6,0,0,1,.2,3.4,4.08,4.08,0,0,0-.55,1.75,2.16,2.16,0,0,0,1.8,2c.08,0,.11-.1.06-.15A5.14,5.14,0,0,1,28,22.56c-.35-.83.42-1.78.67-2.55a3.26,3.26,0,0,0-.73-3,.09.09,0,0,0-.16.1Z" style="fill:#b70027"/></g><path d="M15.47,2.73a7.46,7.46,0,0,1-.22-.85.11.11,0,0,1,.14-.11c.15,0,1.29,1,1.76,1.3A.14.14,0,0,0,17.36,3,11.34,11.34,0,0,0,18,.78a.11.11,0,0,1,.19,0,12.73,12.73,0,0,1,1.27,2,.07.07,0,0,0,.11,0,18.15,18.15,0,0,1,1-2.15.14.14,0,0,1,.26,0c.32.71.37,1.4.63,2.15,0,.09.08.19.17.21a.26.26,0,0,0,.23-.16,14.18,14.18,0,0,1,1.28-2,.18.18,0,0,1,.29.09c.2.82.12,2.23.38,2.39s1.43-1.39,2-1.39c0,0,0,0,0,0a10.49,10.49,0,0,1-.46,2.65,14.85,14.85,0,0,1-.46,2.12A6.58,6.58,0,0,0,22.42,5.6a13.9,13.9,0,0,0-5.85-.29.53.53,0,0,1-.33,0,.41.41,0,0,1-.14-.2C15.92,4.68,15.78,3.88,15.47,2.73Z" style="fill:#191956"/><path d="M15.87,2.93a5.18,5.18,0,0,0,.4.73c.17.25.58,0,.4-.24a5.29,5.29,0,0,1-.52-.65c-.1-.19-.36,0-.28.16Z" style="fill:#f70032"/><path d="M18.05,2.15c0,.37-.21.9.14,1.19A.32.32,0,0,0,18.73,3c0-.15-.13-.29-.17-.44s-.12-.32-.16-.49-.37-.15-.35,0Z" style="fill:#f70032"/><path d="M20.41,2A4.27,4.27,0,0,0,20.14,3c0,.43.65.43.66,0a4.62,4.62,0,0,0-.11-1c0-.15-.24-.13-.28,0Z" style="fill:#f70032"/><path d="M22.73,2.38a3.71,3.71,0,0,0-.43.87c-.08.31.4.55.54.23a6.35,6.35,0,0,0,.22-1,.18.18,0,0,0-.33-.14Z" style="fill:#f70032"/><path d="M24.94,3.13c-.27.34-1.08.59-.78,1.17a.32.32,0,0,0,.5.07.51.51,0,0,0,.14-.26L25,3.83a2.58,2.58,0,0,0,.29-.51.19.19,0,0,0-.32-.19Z" style="fill:#f70032"/><path d="M16.24,4.44a.14.14,0,1,0,0-.28.14.14,0,1,0,0,.28Z" style="fill:#0c0a35"/><path d="M16.78,4.32a.19.19,0,0,0,0-.37.19.19,0,0,0,0,.37Z" style="fill:#0c0a35"/><path d="M17.33,4.19a.2.2,0,0,0,0-.39.2.2,0,0,0,0,.39Z" style="fill:#0c0a35"/><path d="M18,4.06a.19.19,0,0,0,0-.38.19.19,0,0,0,0,.38Z" style="fill:#0c0a35"/><path d="M18.76,4a.19.19,0,1,0,0-.39.19.19,0,0,0,0,.39Z" style="fill:#0c0a35"/><path d="M19.48,4a.21.21,0,0,0,0-.42.21.21,0,0,0,0,.42Z" style="fill:#0c0a35"/><path d="M20.25,4a.2.2,0,0,0,0-.4.2.2,0,0,0,0,.4Z" style="fill:#0c0a35"/><path d="M21,4.13a.24.24,0,0,0,0-.47.24.24,0,0,0,0,.47Z" style="fill:#0c0a35"/><path d="M21.79,4.27a.24.24,0,0,0,0-.48.24.24,0,0,0,0,.48Z" style="fill:#0c0a35"/><path d="M22.57,4.48a.21.21,0,0,0,0-.41.21.21,0,0,0,0,.41Z" style="fill:#0c0a35"/><path d="M23.22,4.73a.25.25,0,0,0,0-.49.25.25,0,0,0,0,.49Z" style="fill:#0c0a35"/><path d="M23.81,5a.22.22,0,0,0,0-.44.22.22,0,0,0,0,.44Z" style="fill:#0c0a35"/><path d="M24.46,5.1h0a.15.15,0,0,0,0-.28h0a.14.14,0,1,0,0,.28Z" style="fill:#0c0a35"/><path d="M25,5.24a0,0,0,0,0,0,0s0,0,0,0Z" style="fill:#0c0a35"/><path d="M24.94,5.38a.21.21,0,0,0,0-.41.21.21,0,0,0,0,.41Z" style="fill:#0c0a35"/><path d="M25.37,6l.28.27c.06.07.19.16.27.07s0-.2-.07-.27l-.29-.26c-.13-.11-.31.07-.19.19Z" style="fill:#191956"/><path d="M26,5.69a1.51,1.51,0,0,1,.21.23.6.6,0,0,0,.28.22A.12.12,0,0,0,26.63,6c0-.25-.3-.44-.49-.53s-.27.1-.15.2Z" style="fill:#191956"/><path d="M25.42,6.83a1.41,1.41,0,0,0,.19.34A.17.17,0,0,0,25.9,7a3.18,3.18,0,0,0-.16-.32c-.08-.18-.4-.05-.32.14Z" style="fill:#191956"/><path d="M26.44,6.82a.74.74,0,0,0,.31.44c.1,0,.23,0,.19-.15s-.17-.26-.24-.4-.32,0-.26.11Z" style="fill:#191956"/><path d="M26.19,7.75a1.8,1.8,0,0,0,.14.41.23.23,0,0,0,.14.16l0,0a.11.11,0,0,0,.08,0c.13,0,.13-.24.09-.33s-.14-.26-.2-.39-.33,0-.29.12Z" style="fill:#191956"/><path d="M26.17,9.14a.93.93,0,0,0,.33.51.15.15,0,0,0,.21-.16c-.06-.17-.23-.29-.31-.44s-.27,0-.23.09Z" style="fill:#191956"/><path d="M27.18,8.06c0,.14,0,.31.15.41a.17.17,0,0,0,.29-.16c0-.12-.1-.22-.14-.34a.16.16,0,0,0-.3.09Z" style="fill:#191956"/><path d="M27.31,9.29c0,.16,0,.37.06.51a.14.14,0,0,0,.24,0,.42.42,0,0,0,0-.27,1.19,1.19,0,0,0-.05-.32c0-.18-.31-.1-.28.08Z" style="fill:#191956"/><path d="M27.32,7.11c0,.14,0,.29.13.4s.25,0,.23-.13A1,1,0,0,0,27.5,7a.1.1,0,0,0-.18.07Z" style="fill:#191956"/><path d="M26.89,10.27c0,.12,0,.24,0,.36s.05.21.15.21.14-.12.15-.21a1.38,1.38,0,0,0-.09-.39.12.12,0,0,0-.23,0Z" style="fill:#191956"/><path d="M26.38,11c-.05.19-.08.5.09.64a.17.17,0,0,0,.28-.07c.07-.19-.1-.38-.12-.57s-.22-.11-.25,0Z" style="fill:#191956"/><path d="M27.69,10.58c0,.14,0,.37.19.44S28,11,28,11s0-.35,0-.51-.32-.11-.28.08Z" style="fill:#191956"/><path d="M27.37,11.84c.05.12,0,.28.19.33a.09.09,0,0,0,.09-.05.57.57,0,0,0-.07-.4c-.06-.15-.27,0-.21.12Z" style="fill:#191956"/><path d="M26.7,12.49a1.1,1.1,0,0,0,.07.44.12.12,0,0,0,.22,0c0-.14,0-.27,0-.41s-.26-.17-.26,0Z" style="fill:#191956"/><path d="M28,12.44a1.55,1.55,0,0,0,0,.21c0,.07,0,.15,0,.21a.12.12,0,0,0,.08.09h0a.11.11,0,0,0,.11-.09,1,1,0,0,0-.07-.45c0-.14-.26-.11-.24,0Z" style="fill:#191956"/><path d="M27.49,13.19c0,.13,0,.27.06.38a.14.14,0,0,0,.25,0,1.19,1.19,0,0,0,0-.42c0-.19-.31-.11-.28.07Z" style="fill:#191956"/><path d="M26.64,13.68a.67.67,0,0,0,.14.36.18.18,0,0,0,.14,0c.2-.07,0-.34,0-.48s-.33-.12-.3.08Z" style="fill:#191956"/><path d="M28.11,13.75a.34.34,0,0,0,.13.25.12.12,0,0,0,.17-.1,1.62,1.62,0,0,0,0-.19c0-.19-.28-.15-.26,0Z" style="fill:#191956"/><path d="M20.62,14.57a.89.89,0,1,0-.89-.89.9.9,0,0,0,.89.89Z" style="fill:#f70032"/><path d="M18.05,22.13a.24.24,0,0,0,0-.47.24.24,0,0,0,0,.47Z" style="fill:#f70032"/><path d="M18.59,22.57a.2.2,0,0,0,0-.39.2.2,0,0,0,0,.39Z" style="fill:#f70032"/><path d="M19.21,22.81a.22.22,0,0,0,0-.43.22.22,0,0,0,0,.43Z" style="fill:#f70032"/><path d="M19.9,22.94a.21.21,0,0,0,0-.42.21.21,0,0,0,0,.42Z" style="fill:#f70032"/><path d="M20.58,23a.23.23,0,0,0,0-.45.23.23,0,0,0,0,.45Z" style="fill:#f70032"/><path d="M21.25,23a.23.23,0,0,0,0-.46.23.23,0,0,0,0,.46Z" style="fill:#f70032"/><path d="M22,22.82a.2.2,0,0,0,0-.4.2.2,0,0,0,0,.4Z" style="fill:#f70032"/><path d="M22.65,22.61a.24.24,0,0,0,0-.47.24.24,0,0,0,0,.47Z" style="fill:#f70032"/><path d="M20.54,24.1a.49.49,0,1,0-.48-.49.49.49,0,0,0,.48.49Z" style="fill:#f70032"/><path d="M11.38,30.67a8.07,8.07,0,0,0,0-2.14c-.22,0-.82-2.5-.94-2.59-1-.76-1,.7-.8-.19.06-.31.63-.64.43-.93A1.75,1.75,0,0,0,8.74,25a1.68,1.68,0,0,0-.86,1.1,1.1,1.1,0,0,0,.32,1.17c.11.11.25.21.36.32a1.48,1.48,0,0,1,.3.87,14.18,14.18,0,0,0,.52,2.09.27.27,0,0,0,.17.21,1.16,1.16,0,0,0,.28.05c.37,0,.75.05,1.12.06a.89.89,0,0,0,.29,0A.2.2,0,0,0,11.38,30.67Z" style="fill:#222272"/><path d="M9.46,13.82c0-.84,0-1.27,0-1.76,0-.19.19-.38.28-.28s.35,3.46.85,3.37a25.07,25.07,0,0,0,0-3c0-.23.13-.48.25-.46s.3,2.86.58,3.24c.14.19.29-1.84.47-2.73.05-.23.2-.59.34-.42a10.39,10.39,0,0,1,.18,2.65c0,1,.09,1.24-.19,1.68s-.42.15-.8.45c-.1.08-.13.47-.13.6-.06,1,0,1.77-.07,2.76-.05.78.38,6.66.42,7.34a.88.88,0,0,1-.06.48c-.08.14-.25.4-.36-1.48A86.4,86.4,0,0,1,11,16.82a.39.39,0,0,0-.32-.37c-.23-.06-.47.14-.92-.52A5.75,5.75,0,0,1,9.46,13.82Z" style="fill:#f70032"/><path d="M9,22.69a1.11,1.11,0,0,1,.77-.48,12.37,12.37,0,0,1,1.68.16.33.33,0,0,1,.27.17c0,.06.14.34-.3.47a1.52,1.52,0,0,1-.42.06c-.34,0-1.18-.13-1.21,0s1.5.26,2,.57a.41.41,0,0,1,.15.14c.09.19,0,.35-.23.41-.46.13-1.1-.24-1.78-.26a0,0,0,0,0,0,.09c.63.27,1.53.53,1.86,1.05.11.17-.08.37-.29.39s-1.22-.54-1.42-.49-.06.14.19.27a4.54,4.54,0,0,1,.87.58.37.37,0,0,1,.1.4c-.07.19-.36.08-.53.07a3.67,3.67,0,0,1-.87-.41c-.19-.11-.12.3-.1.52s0,.69-.19.76a1.19,1.19,0,0,1-1-.3.83.83,0,0,1-.26-.23A2.21,2.21,0,0,1,8,26.08,4.73,4.73,0,0,1,9,22.69Z" style="fill:#ffd6a1"/><path d="M11,22.59a.43.43,0,0,0,.3.24.54.54,0,0,0,.21.05.26.26,0,0,0,.12,0l.05,0a.19.19,0,0,0,.13-.23c0,.09,0-.09,0-.09a.24.24,0,0,0-.06-.08.46.46,0,0,0-.22-.11.53.53,0,0,0-.41,0,.18.18,0,0,0-.09.21Z" style="fill:#990028"/><path d="M11.38,23.92a.52.52,0,0,0,.49.19.28.28,0,0,0,.12-.46.61.61,0,0,0-.44-.14.27.27,0,0,0-.21.12.24.24,0,0,0,0,.29Z" style="fill:#990028"/><path d="M11.2,25v0l0,.09a.74.74,0,0,0,.14.22.36.36,0,0,0,.33.11.25.25,0,0,0,.19-.18A.31.31,0,0,0,11.8,25s0,0-.05-.05,0,0,0,0a.42.42,0,0,0-.12-.08c-.15-.08-.4-.06-.42.15Z" style="fill:#990028"/><path d="M10.69,25.92a.46.46,0,0,0,.09.19.43.43,0,0,0,.26.2c.17,0,.36-.11.3-.3s-.31-.4-.52-.32a.18.18,0,0,0-.13.23Z" style="fill:#990028"/><path d="M9,22.65a.38.38,0,0,0,0,.21.11.11,0,0,0,.21,0,1.27,1.27,0,0,0,.06-.18c0-.14-.18-.2-.23-.06Z" style="fill:#0c0a35"/><path d="M8.9,23.42a.4.4,0,0,0-.05.3c.06.15.31.14.3,0a.68.68,0,0,1,0-.2c0-.12-.17-.16-.23-.06Z" style="fill:#0c0a35"/><path d="M8.8,24.3a.32.32,0,0,0,0,.3A.11.11,0,0,0,9,24.55a1.55,1.55,0,0,0,0-.22.12.12,0,0,0-.23,0Z" style="fill:#0c0a35"/><path d="M8.83,25.33a.37.37,0,0,0,.16.24.13.13,0,0,0,.19-.15,1.86,1.86,0,0,0-.1-.2c-.07-.14-.3,0-.25.11Z" style="fill:#0c0a35"/><path d="M9.88,20.8a1.06,1.06,0,0,0,.83.44.83.83,0,0,0,.27,0,.11.11,0,0,0,.07,0,.19.19,0,0,0,0-.18,1.12,1.12,0,0,0-.51-.66,1.84,1.84,0,0,0-1-.31v0A5.4,5.4,0,0,0,9.88,20.8Z" style="fill:#f70032"/><path d="M11.17,22a.09.09,0,0,1,0-.07.87.87,0,0,1,.65-.64,6.12,6.12,0,0,1,1-.12,3,3,0,0,1-.27.42l-.18.2a1.18,1.18,0,0,1-1.11.24A.09.09,0,0,1,11.17,22Z" style="fill:#f70032"/><path d="M12.18,34a3.82,3.82,0,0,0,.55-2.38,5,5,0,0,0-.22-1.33,5.27,5.27,0,0,0-1-1.61c-.14-.17-.29-.57-.47-.71-.7-.55-1.38.17-2.28.12a1.53,1.53,0,0,1-.42.71c-.53.58-1.61.85-2.07,2.12s0,2.22.87,3.39c.56.74,2.1.63,2.93.61A2.59,2.59,0,0,0,12.18,34Z" style="fill:#222272"/><path d="M11.17,29.93a8.63,8.63,0,0,1,.15,2.27c0,.65-.6,1.08-.56,1.69,0,.35.52.55.71.19a3.6,3.6,0,0,0,.62-1.88,6.44,6.44,0,0,0-.56-2.42c-.1-.22-.4-.06-.36.15Z" style="fill:#990028"/><path d="M9.78,29.72a4.5,4.5,0,0,0-.47,2c-.05.7.18,1.37.11,2.06-.05.53.8.54.84,0A15.31,15.31,0,0,0,10.09,32c0-.73,0-1.46.05-2.2a.19.19,0,0,0-.36-.09Z" style="fill:#990028"/><path d="M8.44,29.59a3.88,3.88,0,0,0-.7,2.27c0,.63.11,1.64.71,2a.22.22,0,0,0,.33-.13c.21-.56-.27-1.24-.29-1.84a7.23,7.23,0,0,1,.29-2.12.19.19,0,0,0-.34-.15Z" style="fill:#990028"/><path d="M11.25,28.76h0a.15.15,0,0,0-.11-.11h0a.17.17,0,1,0,.11.11Z" style="fill:#f70032"/><path d="M10.59,29a.18.18,0,0,0,0-.36.18.18,0,0,0,0,.36Z" style="fill:#f70032"/><path d="M10,29a.16.16,0,0,0,0-.32A.16.16,0,0,0,10,29Z" style="fill:#f70032"/><path d="M9.49,29a.19.19,0,0,0,0-.38.19.19,0,0,0,0,.38Z" style="fill:#f70032"/><path d="M8.93,28.93a.17.17,0,0,0,0-.34.17.17,0,1,0,0,.34Z" style="fill:#f70032"/><path d="M20.69,30.19A2.94,2.94,0,0,0,21,28.55a.39.39,0,0,0-.78,0,4.14,4.14,0,0,0,.28,1.64.14.14,0,0,0,.24,0Z" style="fill:#990028"/><path d="M20.6,31.39a1.67,1.67,0,0,0-.2.94,2.62,2.62,0,0,0,.1,1.18.34.34,0,0,0,.57,0,1.93,1.93,0,0,0,.06-1,2.48,2.48,0,0,0-.25-1.08.16.16,0,0,0-.28,0Z" style="fill:#990028"/><path d="M20.16,30.66a1.37,1.37,0,0,0-1.07-.13c-.37.09-.3.72.09.67a2,2,0,0,0,1-.32.16.16,0,0,0,0-.22Z" style="fill:#990028"/><path d="M21.31,30.68a.6.6,0,0,0,.45.19,1.43,1.43,0,0,0,.65,0,.26.26,0,0,0,.11-.44.73.73,0,0,0-.63-.15c-.19,0-.47.05-.58.24a.14.14,0,0,0,0,.15Z" style="fill:#990028"/><path d="M20.77,31a.17.17,0,0,0,0-.34.17.17,0,0,0,0,.34Z" style="fill:#f70032"/><path d="M14.55,25.74a.19.19,0,1,0,0-.37.19.19,0,0,0,0,.37Z" style="fill:#f70032"/><path d="M13.51,27.92h0c.07.16.3.1.34,0v0a.19.19,0,1,0-.35.05Z" style="fill:#f70032"/><path d="M12.86,26.87a.16.16,0,0,0,0-.32.16.16,0,0,0,0,.32Z" style="fill:#f70032"/><path d="M11.72,29a.2.2,0,0,0,0-.39.2.2,0,0,0,0,.39Z" style="fill:#f70032"/><path d="M12.61,29.31h0a.16.16,0,0,0,.23-.13v0a.17.17,0,1,0-.25.14Z" style="fill:#f70032"/><path d="M15.08,27.41v0a.19.19,0,0,0,.37,0,.08.08,0,0,1,0,0,.2.2,0,1,0-.39,0Z" style="fill:#f70032"/><path d="M16.63,26.06a.24.24,0,0,0,0-.47.24.24,0,0,0,0,.47Z" style="fill:#f70032"/><path d="M17,27.61a.2.2,0,0,0,0-.39.2.2,0,0,0,0,.39Z" style="fill:#f70032"/><path d="M19.21,26a.19.19,0,0,0,0-.37.19.19,0,0,0,0,.37Z" style="fill:#f70032"/><path d="M16.75,29a.27.27,0,0,0-.07.23.16.16,0,0,0,.15.11.16.16,0,0,0,.16-.16v0a.24.24,0,0,1,0,.08h0c.15-.14-.09-.38-.23-.23Z" style="fill:#f70032"/><path d="M15.76,30.93a.18.18,0,0,0,0-.35.18.18,0,0,0,0,.35Z" style="fill:#f70032"/><path d="M20.11,27.31a.24.24,0,0,0,0-.47.24.24,0,0,0,0,.47Z" style="fill:#f70032"/><path d="M12.76,25.08h0a.17.17,0,0,0,.26-.15v0a.19.19,0,0,0-.28-.16.18.18,0,0,0,0,.32Z" style="fill:#f70032"/><path d="M18,24.93a.18.18,0,0,0,0-.36.18.18,0,0,0,0,.36Z" style="fill:#f70032"/><path d="M21.11,25.77a.22.22,0,0,0,0-.44.22.22,0,0,0,0,.44Z" style="fill:#f70032"/><path d="M22.42,33.6a.2.2,0,0,0,0,.11c0,.19.29.25.34,0h0l0,.07h0c.19-.15-.12-.44-.28-.21Z" style="fill:#f70032"/><path d="M15.78,25a.16.16,0,0,0,0-.31.16.16,0,0,0,0,.31Z" style="fill:#f70032"/><path d="M14,30.65a.21.21,0,0,0,0-.42.21.21,0,0,0,0,.42Z" style="fill:#f70032"/><path d="M14.82,29.13a.23.23,0,0,0,0-.45.23.23,0,0,0,0,.45Z" style="fill:#f70032"/><path d="M24.09,32.22v0a.2.2,0,0,0,.22.29.18.18,0,0,0,.13-.11.21.21,0,0,0-.07-.27.19.19,0,0,0-.27.07Z" style="fill:#f70032"/><path d="M18.18,27.71h0a.21.21,0,0,0,.1-.38l0,0a.22.22,0,0,0-.32.12.22.22,0,0,0,.21.28Z" style="fill:#f70032"/><path d="M28.23,37v0a.16.16,0,0,0,.12.16.17.17,0,0,0,.2-.11v0c.06-.26-.35-.26-.33,0Z" style="fill:#f70032"/><path d="M13.46,31.87v0a.17.17,0,0,0,.34,0v0c0-.22-.33-.22-.34,0Z" style="fill:#f70032"/><path d="M18.52,37a.25.25,0,0,0,0-.49.25.25,0,0,0,0,.49Z" style="fill:#f70032"/><path d="M8.17,35.68a.21.21,0,0,0,0-.41.21.21,0,0,0,0,.41Z" style="fill:#f70032"/><path d="M9.59,35.42h0c.06,0,.12,0,.11-.11v0a.1.1,0,0,0-.16,0,.1.1,0,0,0,0,.16Z" style="fill:#f70032"/><path d="M5.45,11.78c0,.1,0,.25,0,.35s0,.2,0,.3a1.39,1.39,0,0,0,.42.91,9.37,9.37,0,0,1-1.06,0,1.39,1.39,0,0,0,.42-.91c0-.1,0-.2,0-.3s0-.25,0-.35Z" style="fill:#0c0a35"/><path d="M5.38,12c.09,0,.15.11.33.31a1,1,0,0,0,.69.41A.67.67,0,0,0,7,12.52a1.16,1.16,0,0,0,.19-.44,1.08,1.08,0,0,0-.1-.84A.58.58,0,0,0,6.28,11c-.12.07-.17.16-.28.19a.06.06,0,0,1-.06-.07c0-.17.17-.2.23-.41s.11-.44-.25-.75A1.16,1.16,0,0,0,4.7,10a.55.55,0,0,0-.25.67c0,.2.17.29.22.45a.07.07,0,0,1-.09.09c-.09,0-.13-.11-.24-.17a.58.58,0,0,0-.76.23,1.08,1.08,0,0,0-.1.84,1.16,1.16,0,0,0,.19.44.67.67,0,0,0,.55.23,1,1,0,0,0,.69-.41c.18-.2.24-.29.33-.31Z" style="fill:#0c0a35"/><path d="M5,8.13a2,2,0,0,1-1.74-.85,3.4,3.4,0,0,1-.63-2.1A3.54,3.54,0,0,1,3.26,3,2.08,2.08,0,0,1,5,2.15a2.1,2.1,0,0,1,1.7.8,3.3,3.3,0,0,1,.66,2.14A3.73,3.73,0,0,1,6.83,7a2.11,2.11,0,0,1-1.27,1v.08c0,.42.25.63.76.63A3.23,3.23,0,0,0,7,8.71v.58a1.92,1.92,0,0,1-.59.09,1.61,1.61,0,0,1-1-.28A1.27,1.27,0,0,1,5,8.13Zm0-.59a1.31,1.31,0,0,0,1.18-.68,3.36,3.36,0,0,0,.43-1.77,3,3,0,0,0-.44-1.74A1.39,1.39,0,0,0,5,2.73a1.34,1.34,0,0,0-1.17.68,3.15,3.15,0,0,0-.44,1.75A3.09,3.09,0,0,0,3.8,6.88,1.34,1.34,0,0,0,5,7.54Z" style="fill:#0c0a35"/><path d="M35.53,50.53c0-.1,0-.24,0-.34s0-.21,0-.31a1.43,1.43,0,0,0-.42-.91H36.2a1.44,1.44,0,0,0-.43.91c0,.1,0,.21,0,.31s0,.24,0,.34Z" style="fill:#0c0a35"/><path d="M35.6,50.28c-.1,0-.16-.11-.33-.3a1,1,0,0,0-.7-.41.66.66,0,0,0-.54.23,1.18,1.18,0,0,0-.19.43,1.14,1.14,0,0,0,.09.85.59.59,0,0,0,.76.23c.13-.07.17-.17.29-.19a.05.05,0,0,1,.05.06c0,.18-.17.2-.23.41a.62.62,0,0,0,.25.76,1.16,1.16,0,0,0,1.22,0,.55.55,0,0,0,.26-.67c-.06-.2-.17-.29-.22-.46a.06.06,0,0,1,.09-.08c.08,0,.13.11.24.17a.59.59,0,0,0,.76-.23,1.14,1.14,0,0,0,.09-.85,1.36,1.36,0,0,0-.18-.43.69.69,0,0,0-.55-.23,1,1,0,0,0-.69.41c-.18.19-.24.29-.34.3Z" style="fill:#0c0a35"/><path d="M36,54.19a2.05,2.05,0,0,1,1.74.84,3.91,3.91,0,0,1,0,4.3,2,2,0,0,1-1.71.84,2.09,2.09,0,0,1-1.69-.81,3.27,3.27,0,0,1-.66-2.13,3.73,3.73,0,0,1,.49-1.94,2.1,2.1,0,0,1,1.27-1v-.08c0-.42-.26-.63-.77-.63a4.43,4.43,0,0,0-.66.05V53a2,2,0,0,1,.59-.09,1.61,1.61,0,0,1,1,.28A1.26,1.26,0,0,1,36,54.19Zm0,.58a1.33,1.33,0,0,0-1.18.69,3.36,3.36,0,0,0-.42,1.77A3,3,0,0,0,34.84,59a1.34,1.34,0,0,0,1.17.62,1.33,1.33,0,0,0,1.17-.67,3.15,3.15,0,0,0,.43-1.75,3,3,0,0,0-.44-1.72A1.35,1.35,0,0,0,36,54.77Z" style="fill:#0c0a35"/><path d="M14.6,59.13H6.22a3.11,3.11,0,0,1-3-3.19V15.68a.1.1,0,0,1,.1-.1.09.09,0,0,1,.09.1V55.94a2.92,2.92,0,0,0,2.82,3H14.6a.09.09,0,0,1,.09.09A.09.09,0,0,1,14.6,59.13Z" style="fill:#191956"/><path d="M32.8,59.13H26.53a.09.09,0,0,1-.09-.1.09.09,0,0,1,.09-.09H32.8a.1.1,0,0,1,.1.09A.1.1,0,0,1,32.8,59.13Z" style="fill:#191956"/><path d="M37.67,46.93a.1.1,0,0,1-.1-.09V6.38a2.91,2.91,0,0,0-2.81-3H26.5a.11.11,0,0,1-.1-.1.1.1,0,0,1,.1-.09h8.26a3.1,3.1,0,0,1,3,3.19V46.84A.09.09,0,0,1,37.67,46.93Z" style="fill:#191956"/><path d="M15,3.38H8.47a.1.1,0,0,1-.09-.1.09.09,0,0,1,.09-.09H15a.09.09,0,0,1,.1.09A.1.1,0,0,1,15,3.38Z" style="fill:#191956"/></svg>